<?xml version="1.0" encoding="utf-8"?>
<!-- Generator: Adobe Illustrator 23.0.1, SVG Export Plug-In . SVG Version: 6.00 Build 0)  -->
<svg version="1.1" id="Layer_1" xmlns="http://www.w3.org/2000/svg" xmlns:xlink="http://www.w3.org/1999/xlink" x="0px" y="0px"
	 viewBox="0 0 53.9 60" style="enable-background:new 0 0 53.9 60;" xml:space="preserve">
<style type="text/css">
	.st0{display:none;}
	.st1{display:inline;}
	.st2{fill:#FDD7AD;stroke:#ED6D63;stroke-linecap:round;stroke-miterlimit:10;}
	.st3{fill:#FDB8AD;}
	.st4{fill:none;stroke:#ED6D63;stroke-miterlimit:10;}
	.st5{fill:none;stroke:#ED6D63;stroke-linecap:round;stroke-miterlimit:10;}
	.st6{fill:none;stroke:#1341A3;stroke-miterlimit:10;}
	.st7{fill:#EF5361;}
	.st8{fill:#1341A3;}
	.st9{fill:#E4E8F1;}
	.st10{fill:#FDD7AD;stroke:#ED6D63;stroke-miterlimit:10;}
	.st11{fill:none;stroke:#1341A3;stroke-width:1.5;stroke-miterlimit:10;}
	.st12{fill:#65B54E;}
	.st13{fill:#477F37;}
	.st14{display:inline;fill:#ED6D63;}
	.st15{display:inline;fill:#FFD3DD;}
	
		.st16{clip-path:url(#SVGID_4_);fill:none;stroke:#E4E8F1;stroke-width:2;stroke-linecap:round;stroke-linejoin:round;stroke-miterlimit:10;}
	.st17{display:inline;fill:#EF5361;}
	.st18{display:inline;fill:#1341A3;}
	.st19{display:inline;fill:none;stroke:#1341A3;stroke-width:2;stroke-linecap:round;stroke-miterlimit:10;}
	.st20{display:inline;fill:none;stroke:#1341A3;stroke-width:1.5;stroke-miterlimit:10;}
	.st21{clip-path:url(#SVGID_7_);fill:#EF5361;}
	.st22{display:inline;fill:none;stroke:#E4E8F1;stroke-linecap:round;stroke-miterlimit:10;}
	
		.st23{clip-path:url(#SVGID_9_);fill:none;stroke:#E4E8F1;stroke-width:2;stroke-linecap:round;stroke-linejoin:round;stroke-miterlimit:10;}
	.st24{display:inline;fill:#E4E8F1;}
	.st25{clip-path:url(#SVGID_13_);fill:#0F367C;}
	.st26{clip-path:url(#SVGID_15_);fill:#5CA547;}
	
		.st27{display:inline;fill:#FDD7AD;stroke:#ED6D63;stroke-width:2;stroke-linecap:round;stroke-linejoin:round;stroke-miterlimit:10;}
	.st28{display:inline;fill:none;stroke:#ED6D63;stroke-width:2;stroke-linecap:round;stroke-miterlimit:10;}
	
		.st29{display:inline;fill:#FDD7AD;stroke:#FF736C;stroke-width:2;stroke-linecap:round;stroke-linejoin:round;stroke-miterlimit:10;}
	.st30{display:inline;fill:none;stroke:#FF736C;stroke-width:2;stroke-linecap:round;stroke-linejoin:round;stroke-miterlimit:10;}
	.st31{display:inline;fill:none;stroke:#FF736C;stroke-width:2;stroke-linecap:round;stroke-miterlimit:10;}
	.st32{display:inline;fill:none;stroke:#E4E8F1;stroke-width:2;stroke-linecap:round;stroke-miterlimit:10;}
	.st33{display:inline;fill:none;stroke:#1341A3;stroke-width:2.5;stroke-miterlimit:10;}
	.st34{display:inline;fill:#89D7F4;}
	.st35{fill:#ED6D63;}
	.st36{clip-path:url(#SVGID_18_);fill:#FDD7AD;}
	.st37{display:inline;fill:#3A3A3A;}
	.st38{display:inline;fill:none;stroke:#1341A3;stroke-miterlimit:10;}
	.st39{display:inline;fill:#C1434E;}
	.st40{display:inline;fill:#65B54E;}
	.st41{display:inline;fill:none;stroke:#559842;stroke-width:0.5;stroke-linecap:round;stroke-miterlimit:10;}
	.st42{fill:none;stroke:#E4E8F1;stroke-linecap:round;stroke-miterlimit:10;stroke-dasharray:2.0138,2.0138;}
	.st43{fill:#FDD7AD;stroke:#ED6D63;stroke-linecap:round;stroke-linejoin:round;stroke-miterlimit:10;}
	.st44{display:inline;fill:none;stroke:#EF5361;stroke-width:3;stroke-miterlimit:10;}
	.st45{display:inline;fill:none;stroke:#1341A3;stroke-width:4;stroke-miterlimit:10;}
	.st46{display:inline;fill:none;stroke:#1341A3;stroke-width:3;stroke-miterlimit:10;}
	.st47{display:inline;fill:none;stroke:#E4E8F1;stroke-width:1.2;stroke-miterlimit:10;}
	.st48{display:inline;fill:none;stroke:#E4E8F1;stroke-width:1.2;stroke-linecap:round;stroke-miterlimit:10;}
	.st49{display:inline;fill:#1341A3;stroke:#E4E8F1;stroke-width:2;stroke-miterlimit:10;}
	.st50{display:inline;fill:none;stroke:#1341A3;stroke-width:2.5;stroke-linecap:round;stroke-miterlimit:10;}
	.st51{fill:#FF9289;stroke:#ED6D63;stroke-width:1.2;stroke-miterlimit:10;}
	.st52{fill:none;stroke:#ED6D63;stroke-width:1.2;stroke-linecap:round;stroke-miterlimit:10;}
	.st53{fill:#FF9289;stroke:#ED6D63;stroke-miterlimit:10;}
	.st54{display:inline;fill:#FF9289;stroke:#ED6D63;stroke-width:2;stroke-miterlimit:10;}
	.st55{display:inline;fill:none;stroke:#E4E8F1;stroke-width:2;stroke-miterlimit:10;}
	.st56{display:inline;fill:none;stroke:#E4E8F1;stroke-width:2;stroke-linejoin:round;stroke-miterlimit:10;}
	.st57{display:inline;fill:none;stroke:#1341A3;stroke-width:2;stroke-miterlimit:10;}
	.st58{font-family:'Montserrat-Bold';}
	.st59{font-size:8.4097px;}
	.st60{font-size:6.761px;}
	.st61{font-size:5.5917px;}
	.st62{font-size:4.6914px;}
	.st63{display:inline;fill:none;stroke:#1341A3;stroke-width:1.5;stroke-linecap:round;stroke-miterlimit:10;}
	.st64{display:inline;clip-path:url(#SVGID_21_);fill:#EF5361;}
	.st65{display:inline;fill:none;stroke:#E4E8F1;stroke-width:2;stroke-linecap:round;stroke-linejoin:round;stroke-miterlimit:10;}
	.st66{clip-path:url(#SVGID_23_);fill:none;stroke:#E4E8F1;stroke-width:1.5;stroke-linecap:round;stroke-miterlimit:10;}
	
		.st67{display:inline;fill:none;stroke:#1341A3;stroke-width:1.5;stroke-linecap:round;stroke-linejoin:round;stroke-miterlimit:10;}
	.st68{display:inline;fill:#1341A3;stroke:#89D7F4;stroke-width:2;stroke-miterlimit:10;}
	.st69{fill:#89D7F4;}
	.st70{clip-path:url(#SVGID_25_);fill:#1341A3;}
	.st71{clip-path:url(#SVGID_28_);fill:none;stroke:#E4E8F1;stroke-linecap:round;stroke-miterlimit:10;}
	.st72{display:inline;fill:none;stroke:#E4E8F1;stroke-width:1.5;stroke-linecap:round;stroke-miterlimit:10;}
	
		.st73{display:inline;fill:none;stroke:#1341A3;stroke-width:2.5;stroke-linecap:round;stroke-linejoin:round;stroke-miterlimit:10;}
	.st74{clip-path:url(#SVGID_30_);fill:none;stroke:#E4E8F1;stroke-width:3;stroke-miterlimit:10;}
	.st75{display:inline;fill:#1341A3;stroke:#E4E8F1;stroke-width:2.5;stroke-miterlimit:10;}
	.st76{display:inline;fill:#E6EAF2;}
	.st77{display:inline;fill:none;stroke:#E6EAF2;stroke-width:1.5;stroke-linecap:round;stroke-miterlimit:10;}
	.st78{display:inline;fill:none;stroke:#E4E8F1;stroke-width:0.5;stroke-linecap:round;stroke-miterlimit:10;}
	.st79{display:inline;fill:none;stroke:#E4E8F1;stroke-width:0.8;stroke-linecap:round;stroke-miterlimit:10;}
	.st80{display:inline;fill:#D84B58;}
	.st81{display:inline;fill:#579B43;}
</style>
<g id="icon_1" class="st0">
	<g class="st1">
		<path class="st2" d="M18.6,23.3c0.4,0.1,0.8-0.2,0.8-0.6v-7.1c0,0,0-2.7,3.4-2.1c0.3,0.1,0.6-0.1,0.7-0.4c0.2-0.6,0.9-1.5,2.9-1.5
			c1.2,0,1.7,0.7,1.9,1.3c0.1,0.3,0.5,0.5,0.8,0.4c0.7-0.2,1.7-0.4,2.3,0.3c0.8,0.8,0.9,1.5,1,2.3c0,0.4,0.3,0.6,0.7,0.6
			c1.2-0.1,3.3-0.1,3.3,2.1v14c0,0,0,3.6-1.7,4.8c-0.2,0.1-0.3,0.3-0.3,0.6v10c0,0.4-0.3,0.7-0.7,0.7H23c-0.4,0-0.6-0.3-0.6-0.7
			v-9.8c0-0.3-0.2-0.5-0.5-0.6c-0.8-0.3-2.9-1.7-6.5-9l0,0c-0.1-0.1-2-4,0-5C16.6,23,17.8,23.1,18.6,23.3z"/>
		<path class="st3" d="M35.9,32.1c0,0-1,0-1-1c0-1,0-3-3-3s-3,2-3,2s0,1-1,2c-1,1-2,3-1,4s4,1,5,2c1,1,2,1,2,1v-1l0,0
			c1.3-1.3,2-3,2-4.8v-0.2V32.1z"/>
		<path class="st4" d="M28.4,13.6"/>
		<line class="st5" x1="28.4" y1="25.6" x2="28.4" y2="13.6"/>
		<line class="st5" x1="32.4" y1="26.6" x2="32.4" y2="16.6"/>
		<line class="st5" x1="23.4" y1="25.6" x2="23.4" y2="13.6"/>
		<line class="st5" x1="19.4" y1="28.6" x2="19.4" y2="16.6"/>
		<circle class="st3" cx="21.9" cy="31.1" r="0.5"/>
		<circle class="st3" cx="22.4" cy="29.6" r="0.5"/>
		<circle class="st3" cx="27.4" cy="28.6" r="0.5"/>
		<circle class="st3" cx="26.9" cy="31.1" r="1"/>
		<circle class="st3" cx="22.4" cy="34.6" r="1.5"/>
		<circle class="st3" cx="25.4" cy="34.6" r="0.5"/>
		<circle class="st3" cx="25.4" cy="37.6" r="0.5"/>
		<circle class="st3" cx="25.4" cy="40.6" r="0.5"/>
		<circle class="st3" cx="28.4" cy="41.6" r="0.5"/>
		<circle class="st3" cx="31.9" cy="40.1" r="1"/>
		<circle class="st3" cx="24.9" cy="44.1" r="2"/>
		<circle class="st3" cx="31.4" cy="45.6" r="0.5"/>
	</g>
</g>
<g id="icon_2" class="st0">
	<g class="st1">
		<path class="st6" d="M34.4,22.1c0,0-4.3,0.5-4.6,3.5s-0.3,7.2-0.3,7.2L27.3,33l0.3-6.7l0,0c0-0.2-0.2-3.7,2.8-5.6
			c1.7-1.1,4.4-1.1,4.4-1.1"/>
		<path class="st6" d="M19,19.6c0,0,3.6,0.9,5.3,2.9c1.3,1.5,1.2,3.5,1.2,5.8c0,1.6,0,3,0,4.7h-1.9v-6.3c0,0,0.2-2.3-2.2-3.7
			c-0.8-0.5-2.3-1-4.2-0.9"/>
		<path class="st7" d="M35.5,15.1c0,0,2.5-1,4.2,0.6c1.3,1.2,2.5,2.9,2.5,7.1s-3,5.4-3.6,5.7c-0.2,0.1-3.8,1.1-4.9-2.3
			c-0.5-1.5,0.2-4.6,0.2-4.6s0.1-0.9-0.3-2.1C33,18.2,33.3,16,35.5,15.1z"/>
		<path class="st7" d="M23.1,31.8h7c0,0,2.7,0.3,2.6,3.4s-1.8,4.1-1.8,4.1s-1.8,1.4-2,3.3c-0.2,1.8-0.2,2.9-0.2,2.9h-4
			c0,0,0-2.3-0.1-2.9s-1-2.6-1.8-3.5c-0.4-0.4-2.1-2-1.9-4.5C21,32.9,23.1,31.8,23.1,31.8z"/>
		<path class="st7" d="M18,15.1c0,0-2.5-1-4.2,0.6c-1.4,1.2-2.5,2.9-2.5,7.1s3,5.4,3.6,5.7c0.1,0.1,3.8,1.1,4.9-2.3
			c0.5-1.5-0.1-4.6-0.1-4.6s-0.1-0.9,0.4-2.1C20.5,18.2,20.1,16,18,15.1z"/>
	</g>
</g>
<g id="icon_3" class="st0">
	<g class="st1">
		
			<rect x="16.5" y="24.5" transform="matrix(0.6787 -0.7344 0.7344 0.6787 -11.8833 29.9221)" class="st8" width="23.5" height="8.1"/>
		
			<rect x="18.1" y="36.2" transform="matrix(0.6787 -0.7344 0.7344 0.6787 -21.7451 26.4817)" class="st8" width="2.6" height="3.8"/>
		<path class="st8" d="M19,38.6L19,38.6c0.2,0.2,0.2,0.4,0,0.6L12.7,46c-0.1,0.2-0.4,0.2-0.6,0l0,0c-0.2-0.2-0.2-0.4,0-0.6l6.3-6.8
			C18.5,38.4,18.8,38.4,19,38.6z"/>
		<path class="st8" d="M40.5,23.7l-8.4-7.8c-0.3-0.2-0.3-0.6,0-0.9l0,0c0.2-0.3,0.7-0.3,0.9,0l8.4,7.7c0.3,0.2,0.3,0.6,0,0.9l0,0
			C41.1,23.9,40.7,23.9,40.5,23.7z"/>
		<path class="st8" d="M41.9,19.5l-5.8-5.4c-0.3-0.3-0.3-0.7,0-1l0,0c0.3-0.3,0.7-0.3,1,0l5.9,5.4c0.3,0.3,0.3,0.7,0,1l0,0
			C42.7,19.8,42.2,19.8,41.9,19.5z"/>
		
			<rect x="37.4" y="15.6" transform="matrix(0.6787 -0.7344 0.7344 0.6787 -0.3119 33.8619)" class="st8" width="2.3" height="3.4"/>
		<path class="st9" d="M32.3,21.8l-1.8-1.7l0.7-0.7l1.8,1.7c0.2,0.2,0.2,0.5,0,0.7l0,0C32.8,22,32.5,22,32.3,21.8z"/>
		<path class="st9" d="M30.1,24.2l-1.9-1.7l0.6-0.7l1.8,1.7c0.2,0.2,0.2,0.5,0,0.7l0,0C30.6,24.4,30.3,24.4,30.1,24.2z"/>
		<path class="st9" d="M27.9,26.6L26,24.9l0.6-0.7l1.9,1.7c0.2,0.2,0.2,0.5,0,0.7l0,0C28.4,26.8,28.1,26.8,27.9,26.6z"/>
		<path class="st9" d="M25.7,29l-1.9-1.7l0.6-0.7l1.9,1.7c0.2,0.2,0.2,0.5,0,0.7l0,0C26.2,29.2,25.9,29.2,25.7,29z"/>
		<path class="st9" d="M23.4,31.5l-1.9-1.7l0.6-0.7l1.9,1.7c0.2,0.2,0.2,0.5,0,0.7l0,0C23.9,31.6,23.6,31.6,23.4,31.5z"/>
		<path class="st9" d="M21.2,33.9l-1.9-1.7l0.6-0.7l1.9,1.7c0.2,0.2,0.2,0.5,0,0.7l0,0C21.7,34,21.4,34.1,21.2,33.9z"/>
	</g>
</g>
<g id="icon_4" class="st0">
	<g class="st1">
		<path class="st10" d="M22,14.5c0,0,1.3,0.1,2,0.1c1.1,0.1,7.9,0.8,8.3,8.5c0.4,7.2-3.3,9.4-4.4,10.9c-0.8,1-1.5,2-1,5
			c0.6,3.6-1.8,6.5-4.5,7s-8,0.3-8.8-5.5c-0.8-5.7-1.3-11.6-1.6-13.9c-0.4-3.2-0.1-8,3.6-10.4C18.6,14.2,21.5,14.5,22,14.5z"/>
		<path class="st4" d="M25.1,29.1c0,0,4.9-7.4-0.9-9.5c-4.4-1.6-6.6,0.6-7.6,3.1c-0.2,0.5-0.6,2-0.7,3.9c-0.2,2.5-0.1,5.9,1.3,8.6
			c2.5,4.9,5.1,2.1,5.1,2.1s2.4-2.9,0.6-7s-6.7-3.7-6.7-3.7"/>
		<line class="st11" x1="37.2" y1="22.4" x2="43.3" y2="19.1"/>
		<line class="st11" x1="39.2" y1="30.2" x2="47.2" y2="30.2"/>
		<line class="st11" x1="37.2" y1="37.3" x2="43.9" y2="41"/>
	</g>
</g>
<g id="icon_5" class="st0">
	<g class="st1">
		<path class="st8" d="M8.1,34.3l4.7,8.7l-1.9,1.2c0,0-0.9,0.7-1.4-0.3c-0.5-0.9-3.9-7-3.9-7s-0.5-0.6,0.3-1.2
			C6.7,35.2,8.1,34.3,8.1,34.3z"/>
		<path class="st8" d="M14.3,42.1l2.7-1.5l11.4,2.3c0,0,3.6,0.8,5.8,0s13-5.5,13-5.5s1.8-0.5,1.1-2.3c-0.7-1.7-2.5-1.1-2.5-1.1
			l-8.4,3.6c-0.1,0-0.2,0-0.2,0.1c-0.9,0.4-2.9,0.2-4.8,0c-2.1-0.1-7.2-0.4-7.2-0.4s-0.5,0-0.5-0.6c0.1-0.6,1.7-0.4,1.7-0.4l8.4,0.4
			c0,0,0.2,0,0.5-0.1c0.5-0.2,1.3-0.8,1.1-1.9c-0.2-1.6-1.2-2.1-2.7-2.1s-7.9-1.3-9.3-1.9c-1.3-0.5-3.6-1.7-5.9-1.4
			c-2.2,0.3-3.8,0.9-5.6,2c-1.9,1.1-3.4,2.1-3.4,2.1L14.3,42.1z"/>
		<path class="st8" d="M37.9,34.2v1.7l7.2-2.7c0,0-0.6-1-2.4-0.5C40.8,33.1,37.9,34.2,37.9,34.2z"/>
		<path class="st8" d="M37.4,33l4.5-1.3c0,0-0.7-0.6-2.9-0.2S36.5,32,36.5,32L37.4,33z"/>
		<path class="st12" d="M26.5,30.1c0,0,6.6,0.3,9.5-3.3S39.4,20,38.8,16c0,0-3.7-1.3-8.5,1c-2.4,1.2-6.1,3.9-5.8,11.4l3.8-2
			L26.5,30.1z"/>
		<path class="st12" d="M28.4,16.8c0,0-4.3,2.1-4.8,7.1c0,0-3-1.8-1.9-8.1C21.7,15.8,26,15.1,28.4,16.8z"/>
		<polygon class="st13" points="27.4,28.1 30,25.4 33.1,24.7 30.7,24.7 34,21 35.1,20.6 34.3,20.6 36.6,18.1 35.2,19.3 35.1,18.9 
			34.9,19.5 31.9,22.3 31.7,21 31.3,22.7 26.5,27.3 28.3,26.3 		"/>
	</g>
</g>
<g id="icon_6" class="st0">
	<path class="st14" d="M18.9,18.1c0,0,0.5,4.1,5.7,3.9c0,0,0.5-4.3,3.8-5.2c3.3-0.9,9,0.6,11.4,4.1c2.4,3.4,4.7,8.3-0.7,17.6
		C35,45.7,23.3,47.3,21,43.8C20.5,43,20.6,42,20.6,42s-1.7,0.5-1.9,2.1c-0.2,1.5-0.6,1.6-0.9,1.6c-0.4,0-3.8,0-3.8,0
		s-0.8-0.4-0.6-1.5c0.2-1.2,1.4-6.9,6.8-7.3c3.1-0.3,3.9,0,4-3c0.1-2.6,0-6.4,0-6.4s-5.3,0.5-7.9-2.7s-2.9-7.1-2.9-7.1s0-1,0.9-1
		s3.7,0,3.7,0s0.6,0.1,0.7,1L18.9,18.1z"/>
	<path class="st15" d="M29.1,32.1c0,0,3.5,0.6,5.7-0.3c2.1-1,2.9-1.7,3.8-1.4c0.9,0.4,1.3,1.4,0.9,3.6c-0.4,2.2-3.9,7-8.8,8.9
		s-7.5,0.9-8.5-1.4c-0.4-0.9,0.1-2.1,2.3-3.2c2.2-1.1,1.9-2.8,1.8-3.8s-0.2-2.3,0.6-2.5C27.6,31.8,29.1,32.1,29.1,32.1z"/>
	<circle class="st14" cx="29.2" cy="35.4" r="0.9"/>
	<circle class="st14" cx="33.8" cy="36.3" r="0.4"/>
	<circle class="st14" cx="29.3" cy="38.5" r="0.4"/>
	<circle class="st14" cx="29.8" cy="41.2" r="0.3"/>
	<circle class="st14" cx="26" cy="40.9" r="0.5"/>
</g>
<g id="icon_7" class="st0">
	<g class="st1">
		<g>
			<g>
				<path id="SVGID_1_" class="st7" d="M27.5,18.9c0,0,4.1-3,8.2-2.8c4.1,0.2,7.4,2.1,8.7,5.5c1.4,3.4,0.7,8.1-4,14.2
					S27.5,48.9,27.5,48.9s-9.2-7.2-14.1-14.5s-4.2-11.8-2.2-14.3s5.2-4.3,8.3-4C22.6,16.4,24.5,17,27.5,18.9z"/>
			</g>
			<g>
				<g>
					<g>
						<g>
							<g>
								<g>
									<g>
										<g>
											<defs>
												<path id="SVGID_2_" d="M27.5,18.9c0,0,4.1-3,8.2-2.8c4.1,0.2,7.4,2.1,8.7,5.5c1.4,3.4,0.7,8.1-4,14.2
													S27.5,48.9,27.5,48.9s-9.2-7.2-14.1-14.5s-4.2-11.8-2.2-14.3s5.2-4.3,8.3-4C22.6,16.4,24.5,17,27.5,18.9z"/>
											</defs>
											<clipPath id="SVGID_4_">
												<use xlink:href="#SVGID_2_"  style="overflow:visible;"/>
											</clipPath>
											<polyline class="st16" points="11.9,33.4 18.3,33.4 20.9,31 24.6,36.3 29.8,27.1 34.3,33.5 43,33.4 											"/>
										</g>
									</g>
								</g>
							</g>
						</g>
					</g>
				</g>
			</g>
		</g>
	</g>
</g>
<g id="icon_8" class="st0">
	<path class="st17" d="M14.9,42v2.7c0,0-0.2,2.3,2.2,0.8c1.2-0.8,1.2-1.8,2.6-1.8s1-0.9,1.9-1.1c0.9-0.2,1-1.3,1-1.3
		s0.1-0.9,1.5-0.4c0.7,0.3,2-0.8,2.4-0.8c0.3-0.1,1.3-0.5,1.9,0c0.6,0.5,0,0.9,0.8,1.2c0.4,0.1,1.2-0.7,1.7-0.4s0.8,1.6,1.6,2.1
		c0.8,0.5,1.9,0.2,2.2,0.4s1.3,2.9,3.2,2.6c1.9-0.2,2-1.6,1.5-3.7c-0.5-2.1-8.6-8.5-8.6-8.5s-4-1.5-6.4,0.4
		C21.9,35.8,14.9,42,14.9,42z"/>
	<path class="st18" d="M33.7,17.7c0,0,5.5,3.8,6.8,11.5c0.9,5.4,0.9,8.9,0,11.9c-0.9,2.9-4,1.6-4.7,0.8S30.6,38,30.6,38
		s-3.1-2.4-2.6-6.4s1.8-11.8,1.8-11.8S30.3,15.7,33.7,17.7z"/>
	<path class="st18" d="M23.8,22l1.2-1.5c0,0,0.5-0.5,0.4-1.4s0-7,0-7s-0.1-0.5,0.8-0.5s1.6,0,1.6,0s0.3,0.2,0.3,0.6c0,0.5,0,7,0,7
		s0.2,1.9,1.8,2.3c1.6,0.5,2.1,2.7,2.1,2.7l-1,0.7l-1.5-0.3l-1.3-1.5c0,0-0.6-0.6-0.9-0.7s-0.8,0-1.3,0.4s-1.7,1.5-1.7,1.5l-0.7-1.6
		L23.8,22z"/>
	<path class="st18" d="M20.1,17.7c0,0-5.5,3.8-6.8,11.5c-0.9,5.4-0.9,8.9,0,11.9s4,1.6,4.7,0.8s5.2-3.9,5.2-3.9s3.1-2.4,2.6-6.4
		S24,19.8,24,19.8S23.5,15.7,20.1,17.7z"/>
</g>
<g id="icon_9" class="st0">
	<path class="st14" d="M21.4,30.4c0,0,2.2-1.1,2.3-3.2c0.1-2.3-0.8-3.5-1.8-4.8s-2.4-5.9,0.6-7.9s6.1-1,7.2,0
		c0.6,0.6,2.5,3.3,1.3,6.5c-0.8,2.1-2.4,3.4-2.6,5s0.1,3.1,2.3,4.4l0.9,0.7H21L21.4,30.4z"/>
	<path class="st18" d="M36.3,34.1h-20c-1,0-1.9-0.8-1.9-1.9l0,0c0-1,0.8-1.9,1.9-1.9h20c1,0,1.9,0.8,1.9,1.9l0,0
		C38.1,33.3,37.3,34.1,36.3,34.1z"/>
	<path class="st18" d="M26.2,36.3L26.2,36.3c-0.8,0-1.5-0.7-1.5-1.5v-2.1c0-0.8,0.7-1.5,1.5-1.5l0,0c0.8,0,1.5,0.7,1.5,1.5v2.1
		C27.8,35.6,27.1,36.3,26.2,36.3z"/>
	<path class="st18" d="M22.5,33.7c0,0-2.6,3.6-1.2,7.3c1.4,3.8,4.2,4.2,4.9,4.2s5.5-0.6,5.5-6.8c0-2.3-1.6-4.9-1.6-4.9h2.6
		c0,0,1.4,1.2,2,3.4c0.5,1.8,1.1,5.1-1.9,8.9s-9.5,2.6-11.4,1.4c-2-1.4-4.4-3.9-4-8.6c0.3-3.4,2.6-5.5,2.6-5.5L22.5,33.7z"/>
</g>
<g id="icon_10" class="st0">
	<path class="st18" d="M22.5,49.4c0.1,0.9,0.9,0.7,1.3,0.7h9.4c0,0,0.7,0.3,0.7-1v-4.9c0-0.1,0-0.2,0-0.3c0.2-0.7,0.9-3.4,1.7-4.3
		c1.3-1.5,1.3-5.2,1.3-5.2l0.2-17.3c0,0-0.1-1.7-1.7-1.8c-1.6-0.1-1.7,1.5-1.7,1.5l-0.2,7.9c0,0-0.1,0.8-0.6,0.8
		c-0.6,0-0.7-0.6-0.6-1s0.1-11.3,0.1-11.3s-0.1-1.2-1.8-1.3c-1.7-0.1-1.6,1.7-1.6,1.7v10c0,0,0,0.8-0.6,0.7c-0.7,0-0.5-1.2-0.5-1.2
		V12c0,0-0.1-1.4-2-1.4s-1.8,2-1.8,2l-0.2,11.3c0,0,0,0.5-0.5,0.5s-0.4-1-0.4-1v-9c0,0,0-1.6-1.7-1.5c-1.1,0-1.3,0.8-1.3,1.6v8
		c0,0.2,0,0.3,0.1,0.5l0.3,0.8c0,0.1,0.1,0.2,0.1,0.3l2.5,3.5c0,0,0.5,0.6,0.9,0.5s3.8,0.6,5,1.1c1,0.5,2,0.7,2,0.7s0.9,0.4,0.5,1.5
		c-0.2,0.6-1.7,0.3-1.7,0.3l-1.1-0.3v0.3l3.8,4.6c0,0,0.4,0.7-0.2,1.1c-0.6,0.4-1.1-0.2-1.1-0.2l-2.4-3.1c0,0-0.5-0.1-0.4,0.3
		c0.1,0.5,3.3,4.1,3.3,4.1s0.3,0.6-0.2,1c-0.2,0.2-0.8,0.3-1.2-0.1c-0.3-0.3-3.1-4-3.1-4s-0.5-0.2-0.4,0.3l2.8,3.6
		c0,0,0.4,0.7,0,1.1c-0.4,0.4-0.9,0.2-1.3-0.3c-0.4-0.4-3.1-3.9-3.1-3.9s-0.5-0.2-0.5,0.3l2.2,2.8c0,0,0.4,0.6-0.1,1s-1,0.3-1.5-0.3
		c-0.5-0.5-4.2-5.5-4.8-6.3c-0.1-0.1-0.1-0.2-0.1-0.2c-0.2-0.4-0.6-1.5-0.6-2.4c0-0.3-0.1-0.5-0.2-0.8l-3.3-4.4c0,0-1.1-1.2-2.6-0.3
		c-1.5,0.9-0.5,3-0.4,3.3s5.1,8,5.1,8s2,2.9,2.7,3.9c0.7,1.1,1.7,2.1,1.6,4.4c-0.1,1.7-0.1,2.9-0.1,3.5
		C22.5,48.8,22.5,49.4,22.5,49.4z"/>
</g>
<g id="icon_11" class="st0">
	<circle class="st18" cx="9.8" cy="33.4" r="3.3"/>
	<circle class="st18" cx="26.3" cy="16.4" r="3.4"/>
	<path class="st18" d="M23,18.7c0,0,1.3,2.3,3.6,2c2.2-0.3,3-1.8,3-1.8s1.2,0,1.6,0.5c0.4,0.4,0.7,0.5,1.1,1.8
		c0.4,1.3,1.5,4.8,1.5,4.8l4.3,1.7c0,0,0,0,0.1,0c0.3,0.1,2.1,1.1,2.2,1.2l-5.9,0.8L32,28.8c0,0-0.6-0.2-1.1-1.6
		c-0.5-1.5-1.1-2.6-1.1-2.6l0.1,3.9l-6.5,0.1l-2.5-2.5l-0.1-2.9l-1.3,2.9l3.1,2.9c0,0,1.2,0.9,0.5,2.2c-0.7,1.3-2.7,0.2-2.7,0.2
		l-4-3.7c0,0-0.7-0.8,0-2.4s1.9-4.4,1.9-4.4s1-2.1,2.8-2.2C22.8,18.6,23,18.7,23,18.7z"/>
	<path class="st18" d="M16.1,33.6l-0.2,4.1l-1.7,4.6c0,0-0.9,2.2,0.9,2.4s2.1-0.9,2.3-1.5c0.2-0.6,1.5-4.6,1.5-4.6l0.2-2.6l0.6-2.5
		v3.6l6.6,0.1v6c0,0,0.1,1.6,1.8,1.6c2,0,10.8,0,10.8,0s1.3-0.3,1.1-1.8s-0.6-1.9-1.5-1.9s-8.3,0.1-8.3,0.1l0.1-6.4l17.6-2
		c0,0,1.9-0.4,1.5-2c-0.4-1.6-1.4-1.6-2.3-1.6c-0.9,0-17,2-17,2s0.1-1.5-1.2-1.6s-4.7,0-4.7,0s0.3,2.5-1.3,3.1
		c-1.6,0.6-2.6-0.1-3.6-1s-1.9-2-1.9-2h-2c0,0-1.5,0.4-1.6,1.6c-0.1,1.3,0,4.2,0,4.2s0.2,1.2,1.2,1.4L16.1,33.6z"/>
	<path class="st18" d="M19.9,38.2h2l1.2,3.4c0,0,0.7,2.5-0.7,3.1c-1.4,0.6-2.4-0.3-2.8-1.6s-0.4-1.9-0.4-1.9L19.9,38.2z"/>
	<polygon class="st18" points="31.1,35.8 34.1,35.8 32.3,40 31.1,40 	"/>
</g>
<g id="icon_12" class="st0">
	<path class="st19" d="M27.7,13.6c0,0-4,7.5-0.8,15.8s1.7,13.9-1.2,17.4"/>
	<path class="st19" d="M41,20.6c0,0-1.6,7.2-13.9,9.5c-8.9,1.6-10.7,4.4-13.9,8.7"/>
	<line class="st20" x1="27.8" y1="15" x2="40.2" y2="22.5"/>
	<line class="st20" x1="26" y1="18.8" x2="37.1" y2="25.4"/>
	<line class="st20" x1="25.7" y1="23.7" x2="32.7" y2="28.3"/>
	<line class="st20" x1="21.5" y1="32.2" x2="28.6" y2="36.3"/>
	<line class="st20" x1="17.1" y1="34.7" x2="28.3" y2="40.8"/>
	<line class="st20" x1="14.4" y1="37.7" x2="26.9" y2="45"/>
</g>
<g id="icon_13" class="st0">
	<g class="st1">
		<g>
			<path id="SVGID_3_" class="st8" d="M36.2,42.6L35.6,43c-3,2.1-7.1,1.4-9.3-1.5L16,26.9c-2.1-3-1.4-7.1,1.5-9.3l0.6-0.4
				c3-2.1,7.1-1.4,9.3,1.5l10.4,14.5C39.9,36.3,39.2,40.4,36.2,42.6z"/>
		</g>
		<g>
			<g>
				<g>
					<g>
						<g>
							<g>
								<g>
									<g>
										<defs>
											<path id="SVGID_6_" d="M28.5,45.5L28,45.1c-2.8-2.3-3.1-6.5-0.8-9.4l11.7-13.6c2.3-2.8,6.5-3.1,9.4-0.8l0.6,0.5
												c2.8,2.3,3.1,6.5,0.8,9.4L38,44.7C35.7,47.6,31.4,47.9,28.5,45.5z"/>
										</defs>
										<clipPath id="SVGID_7_">
											<use xlink:href="#SVGID_6_"  style="overflow:visible;"/>
										</clipPath>
										
											<rect x="17.4" y="29.5" transform="matrix(0.814 -0.5809 0.5809 0.814 -17.0627 24.9968)" class="st21" width="26.2" height="19.3"/>
									</g>
								</g>
							</g>
						</g>
					</g>
				</g>
			</g>
		</g>
	</g>
	<path class="st22" d="M18.7,21c0,0-2.2,1.2-0.4,3.9"/>
</g>
<g id="icon_14" class="st0">
	<path class="st17" d="M10.9,29.6H11h27.1l-7.7-4.3c0,0-1.9-0.9-3.4-0.3s-2.1,1.2-3,0.8c-1.2-0.6-2.1-0.8-2.1-0.8s-1.7-0.4-2.9,0.2
		C17.7,25.8,10.9,29.6,10.9,29.6z"/>
	<path class="st18" d="M38.1,29.6L31.6,35c0,0-2.1,1.5-4,1.3c-1.9-0.2-1.7-0.7-2.6-1c-0.8-0.3-1.4-0.3-2.5,0.4
		c-0.6,0.4-1.2,0.8-2.5,0.6s-2.6-1.2-3.6-2.1c-1-0.9-5.4-4.6-5.4-4.6L38.1,29.6z"/>
	<path class="st18" d="M38.7,20.1c0,0,0.1,2-1.7,2.3c0,0,1.6,0.1,1.7,2.1c0,0,0.1-2.1,1.8-2.1C40.5,22.4,38.7,22.1,38.7,20.1z"/>
	<path class="st18" d="M35.7,14c0,0,0.1,1.5-1.3,1.7c0,0,1.2,0.1,1.3,1.6c0,0,0.1-1.5,1.4-1.5C37.1,15.7,35.8,15.5,35.7,14z"/>
	<path class="st18" d="M40.4,9c0,0,0.1,2.1-1.8,2.3c0,0,1.7,0.1,1.8,2.2c0,0,0.1-2.1,1.9-2.1C42.3,11.4,40.5,11.1,40.4,9z"/>
	<g id="icon_3_1_" class="st1">
		<g>
			
				<rect x="35.5" y="36.7" transform="matrix(0.7214 -0.6925 0.6925 0.7214 -18.6523 37.5121)" class="st8" width="3.6" height="10.5"/>
			
				<rect x="32.4" y="37.1" transform="matrix(0.7214 -0.6925 0.6925 0.7214 -16.8346 33.5213)" class="st8" width="1.7" height="1.2"/>
			<path class="st8" d="M33.1,37.5L33.1,37.5c-0.1,0.1-0.2,0.1-0.3,0l-2.8-3c-0.1-0.1-0.1-0.2,0-0.3l0,0c0.1-0.1,0.2-0.1,0.3,0
				l2.8,3C33.1,37.3,33.1,37.4,33.1,37.5z"/>
			<path class="st8" d="M39.1,47.5l3.7-3.5c0.1-0.1,0.3-0.1,0.4,0l0,0c0.1,0.1,0.1,0.3,0,0.4l-3.7,3.5c-0.1,0.1-0.3,0.1-0.4,0l0,0
				C39,47.8,39,47.6,39.1,47.5z"/>
			<path class="st8" d="M40.9,48.2l2.6-2.5c0.1-0.1,0.3-0.1,0.4,0l0,0c0.1,0.1,0.1,0.3,0,0.4l-2.6,2.5c-0.1,0.1-0.3,0.1-0.4,0l0,0
				C40.8,48.6,40.8,48.4,40.9,48.2z"/>
			
				<rect x="41.2" y="46.3" transform="matrix(0.7214 -0.6925 0.6925 0.7214 -20.7162 42.0808)" class="st8" width="1.5" height="1"/>
			<path class="st9" d="M40.1,43.9l0.8-0.8l0.3,0.3l-0.8,0.8c-0.1,0.1-0.2,0.1-0.3,0l0,0C40,44.1,40,44,40.1,43.9z"/>
			<path class="st9" d="M39.1,42.8l0.8-0.7l0.3,0.3l-0.8,0.8c-0.1,0.1-0.2,0.1-0.3,0l0,0C39,43.1,39,42.9,39.1,42.8z"/>
			<path class="st9" d="M38.1,41.8l0.8-0.8l0.3,0.3l-0.8,0.8c-0.1,0.1-0.2,0.1-0.3,0l0,0C38,42,38,41.9,38.1,41.8z"/>
			<path class="st9" d="M37.1,40.8l0.8-0.8l0.3,0.3l-0.8,0.8c-0.1,0.1-0.2,0.1-0.3,0l0,0C37,41,37,40.8,37.1,40.8z"/>
			<path class="st9" d="M36.1,39.7l0.8-0.8l0.3,0.3L36.4,40c-0.1,0.1-0.2,0.1-0.3,0l0,0C36,39.9,36,39.8,36.1,39.7z"/>
			<path class="st9" d="M35.1,38.6l0.8-0.8l0.3,0.3l-0.8,0.8c-0.1,0.1-0.2,0.1-0.3,0l0,0C35,38.9,35,38.7,35.1,38.6z"/>
		</g>
	</g>
</g>
<g id="icon_15_1_" class="st0">
	<g class="st1">
		<g>
			<g>
				<path id="SVGID_5_" class="st7" d="M23.5,23.2c0,0,3.1-2.3,6.2-2.1c3.1,0.2,5.6,1.6,6.6,4.1s0.5,6.2-3,10.8
					c-3.6,4.6-9.8,9.9-9.8,9.9s-7-5.4-10.7-11s-3.2-9-1.7-10.9s3.9-3.3,6.3-3C19.8,21.3,21.2,21.8,23.5,23.2z"/>
			</g>
			<g>
				<g>
					<g>
						<g>
							<g>
								<g>
									<g>
										<g>
											<defs>
												<path id="SVGID_8_" d="M23.5,23.2c0,0,3.1-2.3,6.2-2.1c3.1,0.2,5.6,1.6,6.6,4.1s0.5,6.2-3,10.8
													c-3.6,4.6-9.8,9.9-9.8,9.9s-7-5.4-10.7-11s-3.2-9-1.7-10.9s3.9-3.3,6.3-3C19.8,21.3,21.2,21.8,23.5,23.2z"/>
											</defs>
											<clipPath id="SVGID_9_">
												<use xlink:href="#SVGID_8_"  style="overflow:visible;"/>
											</clipPath>
											<polyline class="st23" points="11.7,34.2 16.5,34.2 18.5,32.3 21.3,36.4 25.2,29.4 28.6,34.2 35.2,34.2 											"/>
										</g>
									</g>
								</g>
							</g>
						</g>
					</g>
				</g>
			</g>
		</g>
	</g>
	<path class="st18" d="M34.8,12l-8.1,14c-0.4,0.7,0.1,1.6,0.9,1.6h16.3c0.8,0,1.4-0.9,0.9-1.6l-8.1-14C36.3,11.3,35.3,11.3,34.8,12z
		"/>
	<path class="st24" d="M35.8,22.8L35.8,22.8c-0.3,0-0.6-0.3-0.6-0.6v-5.7c0-0.3,0.3-0.6,0.6-0.6l0,0c0.3,0,0.6,0.3,0.6,0.6v5.7
		C36.4,22.5,36.2,22.8,35.8,22.8z"/>
	<path class="st24" d="M35.8,25.7L35.8,25.7c-0.3,0-0.6-0.3-0.6-0.6v-0.3c0-0.3,0.3-0.6,0.6-0.6l0,0c0.3,0,0.6,0.3,0.6,0.6v0.3
		C36.4,25.4,36.2,25.7,35.8,25.7z"/>
</g>
<g id="icon_16" class="st0">
	<path class="st24" d="M32,17c0,0,4.1-0.9,6,0c2.3,1.1,4.1,3.9,2.8,8.7s-2.3,8.8-2.6,12.9c-0.4,4.1-3.3,6.8-5.2,7.1
		c-1.9,0.4-3.3-1.6-2.9-3.1c0.4-1.5,0.9-5.9,0.8-7c-0.2-2.1-1.2-3.8-2.9-3.8c-1.7,0-2.5,0.9-2.9,1.9c-0.4,1.1-1.1,5.2-0.6,7.1
		c0.4,1.9,0.2,4.7-1.6,4.8s-5.2-1.8-6.5-9.8s-2-9.8-2.3-10.9c-1-3.7,0-8.4,4.1-8.7c4.1-0.3,7.4,1.5,8.8,1.6
		C28.3,18.1,30.5,17.3,32,17z"/>
	<path class="st17" d="M24.6,21c0,0,2.4,1.3,3.4,0.9c1-0.5,3.2-1.7,5.8-0.4c2.6,1.3,2.6,2.8,2.6,2.8s0.8,2.8-0.6,5.1s-1,6.9-1,6.9
		s0.1,1.6-0.7,1.6c-0.7,0-1.2-1.5-1.2-1.8s-0.8-6-4.6-6.7s-4.5,2.9-5,4.2c-0.3,0.9-0.6,3.6-0.6,3.6s-0.2,1.3-0.9,1.2
		c-0.7-0.1-0.9-1.5-0.9-4.7s-1-3.6-1.5-5.5S19,23,20.9,21.6C22.7,20.2,24.6,21,24.6,21z"/>
	<path class="st18" d="M13.1,11.3c0,0,0.1,2.1-1.8,2.3c0,0,1.7,0.1,1.8,2.2c0,0,0.1-2.1,1.9-2.1C15,13.6,13.2,13.4,13.1,11.3z"/>
	<path class="st18" d="M43.4,38.2c0,0,0.1,2.1-1.8,2.4c0,0,1.7,0.1,1.8,2.2c0,0,0.1-2.2,1.9-2.2C45.3,40.6,43.5,40.3,43.4,38.2z"/>
	<path class="st18" d="M45.3,11c0,0,0,1.1-0.9,1.3c0,0,0.9,0,0.9,1.2c0,0,0.1-1.2,1-1.2C46.3,12.3,45.3,12.1,45.3,11z"/>
</g>
<g id="icon_17">
	<path class="st8" d="M26,1.3c0,0,9.8-1.5,15.7,2.5c5.8,3.8,9.6,7.9,10.6,14S51.8,31.1,49,35.6s-4.5,7.4-4.9,8.1
		c-0.2,0.8-1.5,4.3-0.6,9.2s1.5,5.7,1.5,5.7l-27,0.6v-5.7c0,0-8.5,0.2-10.6-1.5c-2.1-1.7-2.1-3.6-1.5-4.7c0.4-1.1,0-1.3,0-1.5
		c0,0-1.1-0.6-1.1-1.7c0-0.8,0.8-0.9,0.8-0.9s-0.2-0.4-0.4-0.4c-0.2-0.2-1.1-0.4-1.1-1.3s0.6-4.9,0.6-4.9s-3-0.4-3.4-2.3
		c-0.2-1.9,1.3-4.1,2.1-5.1s4-4.7,4-4.7S6.2,15,9.4,10.7S15.8,2.4,26,1.3z"/>
	<circle class="st9" cx="19.8" cy="28.8" r="2.1"/>
	<circle class="st9" cx="26" cy="31.4" r="1.1"/>
	<circle class="st9" cx="23.5" cy="36.1" r="1.3"/>
	<circle class="st9" cx="20.9" cy="40.9" r="1.9"/>
	<circle class="st9" cx="15.6" cy="36.1" r="1.1"/>
	<circle class="st9" cx="15.2" cy="31.2" r="1.1"/>
</g>
<g id="icon_18" class="st0">
	<path class="st18" d="M38.9,42.8H12.3c-1.9,0-3.5-1.6-3.5-3.5V4.7c0-1.9,1.6-3.5,3.5-3.5h26.6c1.9,0,3.5,1.6,3.5,3.5v34.5
		C42.4,41.2,40.8,42.8,38.9,42.8z"/>
	<path class="st24" d="M34.1,25H17.2c-1.9,0-3.5-1.6-3.5-3.5V9.3c0-1.9,1.6-3.5,3.5-3.5h16.9c1.9,0,3.5,1.6,3.5,3.5v12.2
		C37.7,23.6,36.1,25,34.1,25z"/>
	<path class="st24" d="M27.3,36.6h-3.5c-1.8,0-3.2-1.4-3.2-3.2l0,0c0-1.8,1.4-3.2,3.2-3.2h3.5c1.8,0,3.2,1.4,3.2,3.2l0,0
		C30.3,35,28.9,36.6,27.3,36.6z"/>
	<path class="st18" d="M26.2,50.9h-1.4c-1.9,0-3.5-1.6-3.5-3.5v-5.8c0-1.9,1.6-3.5,3.5-3.5h1.4c1.9,0,3.5,1.6,3.5,3.5v5.8
		C29.7,49.1,28.2,50.9,26.2,50.9z"/>
	<path class="st18" d="M25.5,59L25.5,59c-0.5,0-0.9-0.4-0.9-0.9v-8.3c0-0.5,0.4-0.9,0.9-0.9l0,0c0.5,0,0.9,0.4,0.9,0.9v8.3
		C26.4,58.8,26,59,25.5,59z"/>
	<path class="st17" d="M38.9,12.3c0,0,3.3,2.5,5.1,5.5c1.4,2.6,1.9,7.9-3.3,9.2c-4.8,1.2-7.6-3.2-7.6-5.3
		C33.3,20.4,33.6,16,38.9,12.3z"/>
	<path class="st22" d="M41.5,18.3c0,0,2.8,4.1,0.5,6.3"/>
</g>
<g id="icon_19" class="st0">
	<g class="st1">
		<g>
			<path id="SVGID_10_" class="st8" d="M35.8,56H3.8C1.7,56,0,54.3,0,52.3V12.9c0-2.1,1.7-3.7,3.7-3.7h32.1c2.1,0,3.7,1.7,3.7,3.7
				v39.3C39.6,54.3,37.9,56,35.8,56z"/>
		</g>
		<g>
			<g>
				<g>
					<g>
						<g>
							<g>
								<defs>
									<path id="SVGID_11_" d="M35.8,56H3.8C1.7,56,0,54.3,0,52.3V12.9c0-2.1,1.7-3.7,3.7-3.7h32.1c2.1,0,3.7,1.7,3.7,3.7v39.3
										C39.6,54.3,37.9,56,35.8,56z"/>
								</defs>
								<clipPath id="SVGID_13_">
									<use xlink:href="#SVGID_11_"  style="overflow:visible;"/>
								</clipPath>
								<path class="st25" d="M28.2,15.9H11.6c-1.9,0-3.4-1.5-3.4-3.4v-2.4c0-1.9,1.5-3.4,3.4-3.4h16.6c1.9,0,3.4,1.5,3.4,3.4v2.4
									C31.4,14.4,30.1,15.9,28.2,15.9z"/>
							</g>
						</g>
					</g>
				</g>
			</g>
		</g>
	</g>
	<path class="st18" d="M20.5,12.7l-1.1,0.4c-2.1,0-3.2,1.7-3.2-0.4V6.6c0-2.1,1.7-3.7,3.7-3.7l0,0c2.1,0,3.7,1.7,3.7,3.7v6.2
		C23.5,14.8,22.4,12.7,20.5,12.7z"/>
	<path class="st24" d="M31.4,51.5H8.4c-2.1,0-3.7-1.7-3.7-3.7V18.5c0-2.1,1.7-3.7,3.7-3.7h23.1c2.1,0,3.7,1.7,3.7,3.7v29.3
		C35.1,49.8,33.4,51.5,31.4,51.5z"/>
	<path class="st18" d="M27.4,14H12.2c-1.9,0-3.4-1.5-3.4-3.4V9.8c0-1.9,1.5-3.4,3.4-3.4h15.3c1.9,0,3.4,1.5,3.4,3.4v0.9
		C30.8,12.5,29.3,14,27.4,14z"/>
	<path class="st24" d="M25.6,12.7H14.4c-0.6,0-1.1-0.6-1.1-1.1l0,0c0-0.6,0.6-1.1,1.1-1.1h11.2c0.6,0,1.1,0.6,1.1,1.1l0,0
		C26.7,12.2,26.1,12.7,25.6,12.7z"/>
	<path class="st24" d="M20.2,7.1h-0.7c-0.4,0-0.7-0.4-0.7-0.7l0,0c0-0.4,0.4-0.7,0.7-0.7h0.7c0.4,0,0.7,0.4,0.7,0.7l0,0
		C21.1,6.8,20.7,7.1,20.2,7.1z"/>
	<path class="st18" d="M28.4,24.7H12.5c-0.6,0-1.1-0.6-1.1-1.1l0,0c0-0.6,0.6-1.1,1.1-1.1h15.8c0.6,0,1.1,0.6,1.1,1.1l0,0
		C29.5,24.3,28.9,24.7,28.4,24.7z"/>
	<path class="st18" d="M28.4,31H12.5c-0.6,0-1.1-0.6-1.1-1.1l0,0c0-0.6,0.6-1.1,1.1-1.1h15.8c0.6,0,1.1,0.6,1.1,1.1l0,0
		C29.5,30.4,28.9,31,28.4,31z"/>
	<path class="st18" d="M28.4,37.3H12.5c-0.6,0-1.1-0.6-1.1-1.1l0,0c0-0.6,0.6-1.1,1.1-1.1h15.8c0.6,0,1.1,0.6,1.1,1.1l0,0
		C29.5,36.8,28.9,37.3,28.4,37.3z"/>
	<path class="st17" d="M41.6,37.3c0,0,3.2-1.5,6.2-0.9c3,0.6,6.5,3.2,6,11s-5.6,9.5-6.9,9.9c-1.3,0.2-3.5,0-5-0.6
		c-0.2,0-1.3,0.2-1.9,0.4c-0.4,0.2-3.9,1.1-6.9-2.6c-3-3.7-4.3-7.6-3.4-11.9c0.9-4.3,4.7-6.7,8-6.2C39.2,36.4,41.2,37.3,41.6,37.3z"
		/>
	<g class="st1">
		<g>
			<path id="SVGID_12_" class="st12" d="M51.5,26.9c0,0,0.2,4.3-1.7,6.2c-2.8,2.6-6.9,1.9-7.1,1.9c0,0-0.7-4.5,2.2-6.5
				C47.6,26.7,51.5,26.9,51.5,26.9z"/>
		</g>
		<g>
			<g>
				<g>
					<g>
						<g>
							<g>
								<defs>
									<path id="SVGID_14_" d="M51.5,26.9c0,0,0.2,4.3-1.7,6.2c-2.8,2.6-6.9,1.9-7.1,1.9c0,0-0.7-4.5,2.2-6.5
										C47.6,26.7,51.5,26.9,51.5,26.9z"/>
								</defs>
								<clipPath id="SVGID_15_">
									<use xlink:href="#SVGID_14_"  style="overflow:visible;"/>
								</clipPath>
								<polygon class="st26" points="53,25.8 42,35.3 45.7,36.8 54.7,30.8 								"/>
							</g>
						</g>
					</g>
				</g>
			</g>
		</g>
	</g>
</g>
<g id="icon_20" class="st0">
	<path class="st18" d="M26.5,4.3c0,0,10.6-0.7,13.2,8.6c0.3,1.1,0.2,6.2-0.7,8.5c0,0,0,0.5,0.8,0.3s2.3,0.2,1.3,3.1
		c-1,2.9-2.4,4.6-2.4,4.6s-1.1,0.2-1.1-0.3c0-0.5-0.3,0.3-1,1.8c-0.7,1.5-1.3,4.1-3.6,6.3v3.1c0,0,0.2,2.8,3.4,4.2
		c3.3,1.5,5.5,2.3,7.2,2.3c1.8,0,10.4,3.3,11.9,6.7c0.7,1.3,1,2.3-1.1,2.4c-2,0-55.7,0-55.7,0s-1.8-0.2-0.2-2.3s3.3-5.5,11.9-6.8
		c1-0.2,9.6-2.1,10.1-5c0.5-2.8,0.2-4.2,0.2-4.2s-2.6-2.8-4.2-8.3c0,0-0.3-0.2-0.5,0.2c-0.2,0.3-1.5,0.3-2.4-1.8c-1-2-1.8-4.2-1-5.4
		c1-1,1.8-0.3,1.8-0.3s0.2,0,0.2-0.3c0-0.3-1.5-7.2-0.5-9.6C14.8,9.2,17.4,5,26.5,4.3z"/>
	<path class="st17" d="M26.1,41.6c0,0,0.8-1,1.8-0.2c0,0,1-3.6,2.3-4.2c0.7-0.3,0.7,0.3,0.7,1.1s1.1,2.6,1.1,3.9s-0.2,3.1-2.3,3.1
		c-1,0-1.6-0.5-1.8-0.8s-1-0.3-1.5,0c-0.7,0.3-1.6,1.8-3.3,0.3c-1.6-1.5-0.3-5.5-0.2-5.7c0-0.2,0.3-0.7,0.3-2c0-0.5,0.7-0.3,1.6,0.8
		C25.7,39,26.1,40.5,26.1,41.6z"/>
</g>
<g id="icon_21" class="st0">
	<path class="st24" d="M33.5,15.1c0,0,6-1.3,8.9,0c3.4,1.6,6,5.8,4.1,12.8s-3.4,13-3.8,19c-0.6,6-4.9,10-7.7,10.5
		c-2.8,0.6-4.9-2.4-4.3-4.6c0.6-2.2,1.3-8.7,1.2-10.3c-0.3-3.1-1.8-5.6-4.3-5.6s-3.7,1.3-4.3,2.8c-0.6,1.6-1.6,7.7-0.9,10.5
		c0.6,2.8,0.3,6.9-2.4,7.1c-2.7,0.1-7.7-2.7-9.6-14.5s-3-14.5-3.4-16.1c-1.5-5.5,0-12.4,6-12.8c6-0.4,10.9,2.2,13,2.4
		C28.1,16.7,31.3,15.5,33.5,15.1z"/>
	<path class="st17" d="M22.6,21c0,0,3.5,1.9,5,1.3c1.5-0.7,4.7-2.5,8.6-0.6c3.8,1.9,3.8,4.1,3.8,4.1s1.2,4.1-0.9,7.5
		c-2.1,3.4-1.5,10.2-1.5,10.2s0.1,2.4-1,2.4c-1,0-1.8-2.2-1.8-2.7s-1.2-8.9-6.8-9.9c-5.6-1-6.6,4.3-7.4,6.2
		c-0.4,1.3-0.9,5.3-0.9,5.3s-0.3,1.9-1.3,1.8c-1-0.1-1.3-2.2-1.3-6.9s-1.5-5.3-2.2-8.1c-0.7-2.8-0.6-7.7,2.2-9.7
		C19.8,19.8,22.6,21,22.6,21z"/>
	<path class="st18" d="M35.3,36L35.3,36c-0.4,0.1-1,0-1.2-0.4L19.4,3.9c-0.1-0.4,0-1,0.4-1.2l0,0c0.4-0.1,1,0,1.2,0.4l14.8,31.7
		C35.9,35.3,35.8,35.9,35.3,36z"/>
	<path class="st24" d="M32.8,23.6l-5.5,2.5c-0.3,0.1-0.7,0-0.7-0.3l0,0c-0.1-0.3,0-0.7,0.3-0.7l5.5-2.5c0.3-0.1,0.7,0,0.7,0.3l0,0
		C33.2,23.2,33.1,23.5,32.8,23.6z"/>
	<path class="st24" d="M34.4,27L29,29.5c-0.3,0.1-0.7,0-0.7-0.3l0,0c-0.1-0.3,0-0.7,0.3-0.7L34,26c0.3-0.1,0.7,0,0.7,0.3l0,0
		C34.9,26.6,34.7,26.9,34.4,27z"/>
	<path class="st24" d="M35.9,30.4l-5.5,2.5c-0.3,0.1-0.7,0-0.7-0.3l0,0c-0.1-0.3,0-0.7,0.3-0.7l5.5-2.5c0.3-0.1,0.7,0,0.7,0.3l0,0
		C36.3,30,36.2,30.3,35.9,30.4z"/>
</g>
<g id="icon_22_1_" class="st0">
	<circle class="st18" cx="26.7" cy="22.4" r="6.3"/>
	<path class="st18" d="M14.3,44.1h25.1c0,0,1.5-11.3-4.9-13.4s-13.2-0.8-15-0.2s-4.1,1-4.9,7.5C14.3,42.1,14.3,44.1,14.3,44.1z"/>
	<path class="st24" d="M22.4,37.4v-0.7c0-0.8,0.7-1.5,1.5-1.5h6.2c0.8,0,1.5,0.7,1.5,1.5v0.7c0,0.8-0.7,1.5-1.5,1.5h-6.2
		C23.1,38.9,22.4,38.2,22.4,37.4z"/>
	<path class="st24" d="M26.7,32.4h0.7c0.8,0,1.5,0.7,1.5,1.5v6.2c0,0.8-0.7,1.5-1.5,1.5h-0.7c-0.8,0-1.5-0.7-1.5-1.5v-6.2
		C25.2,33.1,25.9,32.4,26.7,32.4z"/>
</g>
<g id="icon_23" class="st0">
	<path class="st27" d="M37.8,2.2C24,4.8,28,14.9,28,18s-0.9,3.1-1.1,4.7c-0.2,1.6,1.8,2.2,1.8,2.2s-0.7,4-6.5,0.4S7.4,26.1,6.1,26.1
		s1.1-4.7,1.1-4.7C6.1,20,3.9,21.1,1.9,24c-2.4,3.4-2,7.6-1.6,7.8c0.4,0.2,6.9-0.2,10-0.9s4.5-0.9,4-0.2c-0.5,0.7-2,3.4-2.7,3.8
		c-0.9,0.4-15.4,16.5-1.8,21.7s23.2-1.3,26.8-4.2c4-3.3,10.7-8,13-11.8c2.4-3.8,0.7-9.6,0.4-11.6c-0.4-2,2.9-7.1,3.6-11.6
		C54.3,12.6,51.6-0.3,37.8,2.2z"/>
	<path class="st28" d="M21.5,35.7c0,0,1.1,6.2-2.7,9.1"/>
	<path class="st28" d="M13,33.2c0,0,2.9-4,3.3-5.6"/>
	<path class="st28" d="M21.5,25.4c0,0-4,9.6,2,11.8c6,2.2,15.6,1.1,15.6,1.1"/>
	<path class="st28" d="M28.4,26.3c0,0,1.6,0.7,2.4,3.1"/>
	<path class="st28" d="M26.8,31c0,0,11-4.2,19.9-1.1"/>
	<path class="st28" d="M41.8,13.8c0,0,4.2-0.2,3.6,3.4s-2.4,6.3-6.2,3.4"/>
</g>
<g id="icon_24" class="st0">
	<path class="st29" d="M19.6,30.9c0,0-0.2-12-1.1-13.9c0,0,1.5-0.2,1.9-1.5c0,0,2.6,2.8,3.4,2.6c0.7-0.2,7.9-6.2,7.7-7.7
		c-0.2-1.5-3-6.4-4.7-6.7c-1.5-0.4-1.5-1.5-4.9,0c-3.4,1.5-9.9,3.9-9.9,3.9S8.6,9,7.6,12.5S0.3,40.1,0.3,40.1s-0.9,6,3.6,6.4
		c0,0,9.7,14,33.5,8.1c0,0,12.9,4.1,14.8,2.1c2.1-2.1,1.1-5.1,1.1-5.1l0.2-19.1c0,0-0.2-3.9-3.7-4.7c-3.6-0.9-10.9-1.7-14.6,2.8
		C35,30.5,25.2,26.4,19.6,30.9z"/>
	<path class="st30" d="M15.7,17c0,0,3.9,0.4,5.1-3"/>
	<path class="st30" d="M38.5,36.5c0,0-2.2-6-6.4-6.9"/>
	<path class="st31" d="M19.6,29.9c0,0,0,6-3.2,6.9"/>
	<path class="st31" d="M11.4,43.1c0,0,7.3,9,18.9,6.2"/>
</g>
<g id="icon_25" class="st0">
	<path class="st18" d="M28.5,59.1h-2.8c-7,0-12.9-5.7-12.9-12.9V12h28.4v34.2C41.2,53.2,35.5,59.1,28.5,59.1z"/>
	<path class="st18" d="M41.9,9h-30c-1.1,0-2.1-1-2.1-2.1V3.3c0-1.1,1-2.1,2.1-2.1h30c1.1,0,2.1,1,2.1,2.1v3.6C44,8.1,43,9,41.9,9z"
		/>
	<path class="st32" d="M21.2,44.6c0,0,0-11.6,6-11.6s6,8,6,11.6"/>
	<line class="st32" x1="21.8" y1="40.2" x2="33" y2="40.2"/>
	<path class="st32" d="M33.1,20c0,0,0,11.6-6,11.6s-6-8-6-11.6"/>
	<line class="st32" x1="32.6" y1="24.5" x2="21.5" y2="24.5"/>
</g>
<g id="icon_26" class="st0">
	<path class="st18" d="M33.7,19.3H20.2c-2.2,0-4-1.8-4-4v-6c0-2.2,1.8-4,4-4h13.5c2.2,0,4,1.8,4,4v6C37.7,17.4,35.9,19.3,33.7,19.3z
		"/>
	<path class="st18" d="M49.4,54.8H4.5c-3.5,0-6.3-2.8-6.3-6.3V19.9c0-3.5,2.8-6.3,6.3-6.3h44.9c3.5,0,6.3,2.8,6.3,6.3v28.5
		C55.7,52.1,52.9,54.8,49.4,54.8z"/>
	<path class="st24" d="M15.4,35.5v-3.2c0-1.8,1.5-3.5,3.5-3.5h16.3c1.8,0,3.5,1.5,3.5,3.5v3.2c0,1.8-1.5,3.5-3.5,3.5H18.9
		C16.9,39,15.4,37.3,15.4,35.5z"/>
	<path class="st24" d="M28.5,45.5h-3.2c-1.8,0-3.5-1.5-3.5-3.5V25.6c0-1.8,1.5-3.5,3.5-3.5h3.2c1.8,0,3.5,1.5,3.5,3.5V42
		C32,44,30.5,45.5,28.5,45.5z"/>
	<rect x="16" y="12.4" class="st24" width="21.7" height="1"/>
	<path class="st24" d="M28.5,45.5h-3.2c-1.8,0-3.5-1.5-3.5-3.5V25.6c0-1.8,1.5-3.5,3.5-3.5h3.2c1.8,0,3.5,1.5,3.5,3.5V42
		C32,44,30.5,45.5,28.5,45.5z"/>
</g>
<g id="icon_27" class="st0">
	<circle class="st18" cx="26.5" cy="14.5" r="12.8"/>
	<path class="st18" d="M1.4,58.4h50.8c0,0,3-22.9-9.9-27.1s-26.7-1.6-30.4-0.4c-3.6,1.2-8.3,2-9.9,15.2C1.4,54.4,1.4,58.4,1.4,58.4z
		"/>
	<path class="st24" d="M18,44.7v-1.4c0-1.6,1.4-3,3-3h12.6c1.6,0,3,1.4,3,3v1.4c0,1.6-1.4,3-3,3H21C19.4,47.7,18,46.3,18,44.7z"/>
	<path class="st24" d="M26.5,34.7h1.4c1.6,0,3,1.4,3,3v12.6c0,1.6-1.4,3-3,3h-1.4c-1.6,0-3-1.4-3-3V37.8
		C23.4,36,24.8,34.7,26.5,34.7z"/>
</g>
<g id="icon_28" class="st0">
	<path class="st18" d="M46.6,27.1"/>
	<path class="st18" d="M41,1v58.3h10.4V12.5C51.4,12.5,50.6,3.6,41,1z"/>
	<polygon class="st24" points="46.6,27.1 51.4,29.2 51.4,24.5 	"/>
	<polygon class="st24" points="41,30.2 51.4,35.2 51.4,39.6 41,34 	"/>
	<polygon class="st24" points="41,37.6 51.4,43 51.4,47 41,41.6 	"/>
	<circle class="st33" cx="8.8" cy="9.7" r="6.4"/>
	<circle class="st33" cx="27.8" cy="9.3" r="6.4"/>
	<path class="st18" d="M13.4,15.4l-0.1,26.2c0,0,1.4,13.9,5.2,17.7c0,0,5.8-8.4,5.4-17.9l0-25.8l-2.8-5.7l-0.9-0.1l0.2,12l-3.8,0.2
		L16.4,9.7L15,9.3L13.4,15.4z"/>
	<circle class="st24" cx="18.5" cy="27.5" r="1.8"/>
</g>
<g id="icon_29" class="st0">
	<path class="st18" d="M39.1,7.4c0,3.6-2.9,6.3-6.3,6.3c-3.6,0-6.3-2.9-6.3-6.3s2.9-6.3,6.3-6.3C36.2,1.1,39.1,3.8,39.1,7.4z"/>
	<path class="st18" d="M9.4,19.3l12.9-6.9c0,0,1.1-0.6,2.4,0c1.3,0.6,7,2.6,7,2.6s1.3,0,2,2.9c0.7,3,2.4,8.2,2.4,8.2l6.7,2.7
		c0,0,2.6,1.3,1.7,4.3c-0.9,3-4.9,1.4-4.9,1.4l-8.6-3.9c0,0-0.6-0.1-0.9-1.6c-0.3-1.4-1.7-5.9-1.7-5.9L25,33.9l5,10l-0.7,12.9
		c0,0-0.4,2.3-3,2.3c-2.6,0-3.4-2.2-3.4-3.6c0.1-1.4,1.1-9.5,1.1-9.5l-4.9-9l0.4,9.8l-2.3,9.8c0,0-0.9,2.7-4,2c-3.2-0.7-1.9-5-1.9-5
		l1.7-7.3l-0.9-10.8l0.4-1.3L7.5,22.5C7.7,22.8,7.1,20.5,9.4,19.3z"/>
	<polygon class="st34" points="15.1,23.8 16.7,26.6 19.1,21.6 	"/>
	<path class="st18" d="M38.1,33.2l5.3,24c0,0,0.3,1.4,1.9,1c1.6-0.3,0.9-2.2,0.9-2.2l-4.9-22.7L38.1,33.2z"/>
</g>
<g id="icon_30" class="st0">
	<g class="st1">
		<g>
			<path id="SVGID_16_" class="st35" d="M50.7,55.1H3c-2,0-3.8-1.7-3.8-3.8V40.5c0-2,1.7-3.8,3.8-3.8h47.7c2,0,3.8,1.7,3.8,3.8v10.8
				C54.5,53.3,52.8,55.1,50.7,55.1z"/>
		</g>
		<g>
			<g>
				<g>
					<g>
						<g>
							<defs>
								<path id="SVGID_17_" d="M50.7,55.1H3c-2,0-3.8-1.7-3.8-3.8V40.5c0-2,1.7-3.8,3.8-3.8h47.7c2,0,3.8,1.7,3.8,3.8v10.8
									C54.5,53.3,52.8,55.1,50.7,55.1z"/>
							</defs>
							<clipPath id="SVGID_18_">
								<use xlink:href="#SVGID_17_"  style="overflow:visible;"/>
							</clipPath>
							<rect x="-4.2" y="33.7" class="st36" width="60" height="7.7"/>
						</g>
					</g>
				</g>
			</g>
		</g>
	</g>
	<circle class="st34" cx="27.3" cy="41.6" r="5.6"/>
	<path class="st37" d="M24.2,29.1c0,0,2.6-20.8,11-23.8c0,0-5.6,13.6-4.9,23.3c0,0,1.7,1,1.7,2.9c0,2.2-0.9,4.5-4.6,4.5
		c-3.6,0-4.5-1.6-4.6-3C22.4,30.9,23,29.5,24.2,29.1z"/>
	<rect x="43.1" y="20.4" class="st18" width="1.4" height="8.8"/>
	<polyline class="st38" points="40.8,26.5 43.8,29.3 46.7,26.6 	"/>
	<rect x="9.3" y="20.4" class="st18" width="1.4" height="8.8"/>
	<polyline class="st38" points="6.8,26.5 9.8,29.3 12.9,26.6 	"/>
</g>
<g id="icon_31" class="st0">
	<ellipse transform="matrix(0.9934 -0.115 0.115 0.9934 -2.0589 1.6867)" class="st17" cx="13.6" cy="18.7" rx="15.5" ry="13.7"/>
	<ellipse class="st17" cx="43.5" cy="21.7" rx="12.1" ry="12.9"/>
	<ellipse transform="matrix(0.9708 -0.2398 0.2398 0.9708 -10.0512 7.0958)" class="st17" cx="24.1" cy="44.9" rx="14.7" ry="10"/>
	<ellipse transform="matrix(0.9554 -0.2952 0.2952 0.9554 -5.6705 5.3044)" class="st24" cx="14.7" cy="21.4" rx="9.3" ry="8"/>
	<ellipse transform="matrix(0.9666 -0.2564 0.2564 0.9666 -4.5957 11.3776)" class="st24" cx="41.3" cy="23.3" rx="7.5" ry="9.4"/>
	<ellipse transform="matrix(0.9359 -0.3522 0.3522 0.9359 -13.6171 11.0978)" class="st24" cx="23.7" cy="43" rx="9.3" ry="5.3"/>
</g>
<g id="icon_32" class="st0">
	<path class="st39" d="M18.8,3.8c0,0,7.5-5.3,16.3,0l-1.5,8L33,12.6l-0.8-1.4c0,0-5.6-1.7-10.3,0l-2.5-3.9l-0.3-2.7L18.8,3.8z"/>
	<path class="st17" d="M19.4,3.3c0,0-1,0.3-1.7,1.5s-3.7,11-3.7,11s-0.5,3.6,0.3,4.6c0.8,1,5.8,7.6,5.8,7.6L5,47.7
		c0,0-1.9,1.7-0.7,3.7c1.2,2,5.4,7,5.4,7s1,1.2,2.7-0.5c1.9-1.9,14.2-19.2,14.2-19.2l13.7,18.5c0,0,1.4,1.4,2.7,0
		c1.4-1.4,6.4-6.6,6.4-6.6s0.7-1.4-0.7-2.5c-1.4-1.2-15.4-20.5-15.4-20.5s4.7-5.8,4.9-6.1c0.2-0.3,1.7-3.7,0.8-6.3
		c-0.8-2.5-3.4-10.3-3.4-10.3S35.2,3.6,34,3.4c0,0-0.8,6.3-7.1,14.8C26.9,18,21.8,13.3,19.4,3.3z"/>
</g>
<g id="icon_33" class="st0">
	<path class="st24" d="M30.4,23.7l10.2-8.2c0,0,0.8-0.5,1.8-3.5c1-3,4.2-7.9,8.9-5.9s3.5,6.7,2.8,7.9c-0.7,1.2-4.2,3.3-6.5,4.3
		s-5.5,5.9-5.5,5.9L30.4,23.7z"/>
	<path class="st40" d="M27.9,24.1c0,0,3-2.5,2.5-8.7c-0.2-1.8,1.2-3.8,1.2-3.8s-13-2.8-15.9,6.2c0,0-1.2-4.8-13.2-4
		c0,0,1.7,3,1.3,4.8c-0.5,1.8-0.3,5,1.3,6.4L27.9,24.1z"/>
	<path class="st41" d="M16.6,24.1c0,0,4-8.5,11.7-10.4"/>
	<path class="st41" d="M5.7,15.9c0,0,6.4,3.2,9,8.2"/>
	<path class="st18" d="M0,23.7h53.7c0,0,1.8-0.5,1.7,0.8c-0.2,1.3-1.5,18.6-19.4,24.7l-18.4,0.2c0,0-14.7-5-19.1-23.7
		C-1.7,25.9-2.2,23.9,0,23.7z"/>
	<ellipse class="st18" cx="26.9" cy="51.3" rx="12" ry="3.2"/>
	<path class="st41" d="M24.6,13.2c0,0-0.2,2.2-1,2.7"/>
	<path class="st41" d="M22.4,16.9c0,0,2.3-0.8,4.7-0.5"/>
	<path class="st41" d="M17.1,23.2c0,0,3.3-2.2,7.7-2"/>
	<path class="st41" d="M19.7,15.5c0,0,0.7,2.7,0,3.7"/>
	<path class="st41" d="M12.5,17.9c0,0-0.5,1.8,0.7,4.2"/>
	<path class="st41" d="M6.2,18.2c0,0,1.3-0.3,3.2,0"/>
	<path class="st41" d="M7.9,22.2c0,0,4.5-0.3,6.2,1"/>
</g>
<g id="icon_34" class="st0">
	<path class="st18" d="M19.7,17.7h13.9c0,0,2.9,0,4.2,3.7c1.3,3.7,2.9,4.6,2.9,4.6l3,3c0,0,0.9,2-0.4,3.2c-1.3,1.1-3,0.9-3.6,0.4
		s-4.5-4-4.5-4l-1.7-2.9v7.9l3.9,13.8c0,0,1.1,3.3-2,4.2c-3.2,0.9-4.7-0.9-5.2-2.4c-0.3-1.6-3.9-11.9-3.9-11.9L23,48.9
		c0,0-0.9,3-4.9,2.3c-2.9-0.6-2-4.7-2-4.7L19.5,34l0.1-8l-1.7,2.7l-4.6,4.7c0,0-1.9,1.6-3.6-0.3c-1.6-1.6,0.3-4.3,0.3-4.3l3.4-3.9
		l2.7-5.3C16.4,19.7,17.1,17.7,19.7,17.7z"/>
	<circle class="st18" cx="26.6" cy="13.7" r="6.3"/>
	<g class="st1">
		<circle class="st42" cx="26.7" cy="30.1" r="27.6"/>
	</g>
</g>
<g id="icon_35" class="st0">
	<path class="st18" d="M11.4,12.7c0,0,7.2-4.3,15.7-4l4.5-5.7c0,0,3.2-3.6,4.7,0.4l1.1,6.4c0,0,9.1,2.5,10.4,7l4.5-0.8
		c0,0,2.3-0.4,2.8,0.9c0.6,1.3-0.4,2.6-0.4,2.6l-2.6,4c0,0,2.5,13.6-4.2,20l2.1,8.1c0,0,0.8,2.8-0.4,3.8c-1.1,0.9-3,0.6-4.3-0.4
		c-1.3-1.1-5.7-4.3-5.7-4.3s-5.3,4-16.6,2.8l-3.8,4c0,0-1.1,1.1-2.8,0.8c-1.7-0.4-1.9-4.3-1.9-4.3l-0.2-3.2c0,0-3.8-0.9-7.2-5.1
		l-6.6,1.1c0,0-3.8,0-1.5-4.5l3-5.1c0,0-3-9.5,0.8-15.7l-4.2-9.3c0,0-0.6-2.8,0.6-3.4c1.1-0.6,3.8,0.4,3.8,0.4L11.4,12.7z"/>
	<line class="st32" x1="14.2" y1="21" x2="21" y2="26"/>
	<line class="st32" x1="30.5" y1="25.6" x2="39.7" y2="21"/>
	<path class="st32" d="M19.3,40.9c0,0,2.6-4.3,7.6-4s6.8,5.1,6.8,5.1"/>
</g>
<g id="icon_36" class="st0">
	<g id="icon_23_1_" class="st1">
		<path class="st43" d="M31.8,14c-7.5,1.4-5.4,7-5.4,8.7s-0.5,1.7-0.6,2.6c-0.1,0.9,1,1.2,1,1.2s-0.4,2.2-3.6,0.3
			c-3.2-2-8.2,0.5-8.9,0.5c-0.6,0,0.6-2.6,0.6-2.6c-0.6-0.8-1.8-0.3-2.9,1.4c-1.3,1.9-1.2,4.2-0.9,4.3c0.3,0.1,3.8-0.1,5.5-0.5
			s2.6-0.5,2.2-0.1c-0.3,0.4-1.2,1.9-1.5,2c-0.5,0.3-8.4,9.1-1,12c7.5,2.9,12.8-0.6,14.8-2.3c2.2-1.8,5.9-4.3,7.2-6.5
			c1.3-2,0.4-5.2,0.3-6.4c-0.3-1.2,1.5-3.8,2-6.4C40.8,19.6,39.4,12.6,31.8,14z"/>
		<path class="st5" d="M22.8,32.4c0,0,0.6,3.5-1.5,5"/>
		<path class="st5" d="M18.1,31c0,0,1.5-2.2,1.8-3.1"/>
		<path class="st5" d="M22.8,26.8c0,0-2.2,5.2,1.2,6.5c3.3,1.2,8.6,0.6,8.6,0.6"/>
		<path class="st5" d="M26.6,27.3c0,0,0.9,0.4,1.3,1.7"/>
		<path class="st5" d="M25.7,29.8c0,0,6.1-2.3,11-0.6"/>
		<path class="st5" d="M33.9,20.4c0,0,2.3-0.1,2,1.9c-0.3,2-1.3,3.5-3.5,1.9"/>
	</g>
	<circle class="st44" cx="26.9" cy="30.1" r="25.9"/>
	<line class="st44" x1="41.2" y1="10.3" x2="12.1" y2="50.3"/>
</g>
<g id="icon_37" class="st0">
	<circle class="st45" cx="33" cy="24.2" r="20.7"/>
	<circle class="st45" cx="20.8" cy="36" r="20.7"/>
	<path class="st46" d="M14.8,16.6"/>
	<path class="st18" d="M26.7,16.6l8.8,5l5.4,4.7l1.5,7.4c0,0-0.8,5.7-1.5,6.1c-0.7,0.3-1.9,2.9-1.9,2.9s-5.2,2.5-5.4,2.4
		c-0.2-0.3-9.3-2.2-9.3-2.2L19,39.2l-5.1-8.8L12.1,21l2-3.4l3.4-1.5L26.7,16.6z"/>
</g>
<g id="icon_38" class="st0">
	<circle class="st18" cx="23.6" cy="7" r="5.6"/>
	<path class="st18" d="M17.9,12.9l10.7-0.1c0,0,3.6,0.4,5.1,5.9l-5.8,6.9l0.6,7.2l2.5,5.1l0.1,16.7c0,0,0.9,3.9-2.7,3.9
		c-2.9,0-3.2-2.2-3.2-3.6c0-1.6-0.1-18.8-0.1-18.8S24.6,35,23.4,35c-1.2,0.1-1.3,1.4-1.3,1.4v19.9c0,0-0.1,2.2-2.9,2.3
		s-3.2-2.7-3.2-2.7l-0.1-29.3l-2.5,5.8c0,0-0.7,2.6-3.9,1.6c-2.6-0.9-0.9-4.9-0.9-4.9l6.2-13.7C14.8,15.4,15.9,12.9,17.9,12.9z"/>
	<circle class="st24" cx="34.7" cy="29" r="11"/>
	<circle class="st14" cx="31.1" cy="31.1" r="4.3"/>
	<rect x="30.4" y="26.6" transform="matrix(0.2802 -0.9599 0.9599 0.2802 -7.6004 52.0962)" class="st24" width="1" height="8.9"/>
	<path class="st17" d="M37.7,35.5L37.7,35.5c-1.4,0-2.7-1.2-2.7-2.7v-8.1c0-1.4,1.2-2.7,2.7-2.7l0,0c1.4,0,2.7,1.2,2.7,2.7v8.1
		C40.5,34.3,39.3,35.5,37.7,35.5z"/>
	<rect x="35.1" y="28.2" class="st24" width="5.3" height="1.2"/>
</g>
<g id="icon_39" class="st0">
	<path class="st18" d="M15.3,2.8l22.6-0.2c0,0,3.4,16.4-10.9,16.4C14.6,19,15.3,11.2,15.3,2.8z"/>
	<polygon class="st18" points="18.3,42.1 35.1,42.1 37.7,55.3 41.1,55.3 41.1,58.2 11.9,58.2 11.9,54.8 15.7,54.8 	"/>
	<rect x="18.7" y="32.3" class="st18" width="16.2" height="6.2"/>
	<path class="st18" d="M21,21.3c0,0-2.8,0.9-2.5,7.3L15.3,29l0.2,7.1c0,0-1.6-1.1-2.7-4.3l-3.2,1.1c0,0,2.5,5.5,3.7,6.6l1.8-1.4
		l-1.2,9.6c0,0-11.6-6.1-11.7-22.3C2,15.8,11.9,8,11.9,8s0.4,5.5,2.8,7.8c0,0-2.7-0.5-5,5.9l3,1.4c0,0,0.9-4.1,3.2-5.5
		C15.7,17.6,18.3,20.6,21,21.3z"/>
	<path class="st18" d="M32.2,21.3c0,0,2.8,0.9,2.5,7.3l3.2,0.4l-0.2,7.1c0,0,1.6-1.1,2.7-4.3l3.2,1.1c0,0-2.5,5.5-3.7,6.6L38.1,38
		l1.4,9.6c0,0,11.6-6.1,11.7-22.3C51.4,15.8,41.5,8,41.5,8s-0.4,5.5-2.8,7.8c0,0,2.7-0.5,5,5.9l-3,1.4c0,0-0.9-4.1-3.2-5.5
		C37.4,17.6,34.9,20.6,32.2,21.3z"/>
</g>
<g id="icon_40" class="st0">
	<circle class="st18" cx="26.8" cy="11.6" r="9.5"/>
	<path class="st18" d="M35.2,44.9c0,0,0-0.4-0.9-0.3c-0.9,0-6.7,0.6-9.5-5.6s-5.6-4-5.7-3.3c-0.1,0.6-0.1,2,0.4,4.2
		c0.6,2.2,1.6,4.9-0.1,5c-1.7,0.1-4.6,0.6-5.3,0.7c-0.7,0.3-1.4,0.7,0.1,1.6s3.9,1.6,6,1.7c2.3,0.1,9.5,0.1,10,3.7
		c0.4,2.9-1.9,5-5.5,5.5c-4.4,0.4-11.9-0.3-17.1-5.6C2.7,47.3,4.7,41,5.4,39c0.7-2,4.3-12.2,9.3-16.1c1.3-0.9,2.6-1.4,5.6-1.6
		s15.5-0.1,15.5-0.1s5.5,0.6,8.6,6.6c3.3,6,4.6,9.8,4.6,9.8s0.9,3.2-0.1,5.2c-1,2-4.2,6.3-4.9,6.9c-0.6,0.6-4.3,4.9-9.8,3
		c-2.9-1-2.3-4-2.2-4.4c0.1-0.6,1-2,2.4-2.9C35.5,45,35.2,44.9,35.2,44.9z"/>
	<circle class="st34" cx="33.4" cy="36.7" r="6.6"/>
</g>
<g id="icon_41" class="st0">
	<path class="st18" d="M36.6,4.5c0,0-4.2,11.8-10.8,12.1s-13,3.9-13,3.9s-0.5-4.6-3.6-6.3l0.2-6C9.3,8.1,21.2-0.7,36.6,4.5z"/>
	<path class="st18" d="M38.6,4.8c0,0-2.8,9.3-7.5,11.6c0,0,8.6,1.6,9.7,4.1c0,0,1.6-4.9,3.5-6.4l0.3-5.7C44.6,8.4,41.5,6.1,38.6,4.8
		z"/>
	<path class="st18" d="M7.2,2.8L7.5,15c0,0,3.3,3.1,3.5,7.5c0.2,4.2,0.2,11.2,0.2,11.2S11,35,9.3,35.1c-1.7,0.2-2-2.4-2-2.4v-7.1
		c0,0-0.2-0.5-0.9-0.5S5.3,25.7,5.3,26s0,9.4,0,9.4l5,9.6c0,0,0.6,1.9-0.8,2.8c-1.6,0.8-2.7-0.5-2.7-0.5L-0.3,34
		c0,0-0.3-0.9-0.3-3.1s0-28.3,0-28.3L7.2,2.8z"/>
	<path class="st18" d="M13.4,22.7L13.2,34c0,0-0.5,3.6-4.6,3.1l3.5,7.1c0,0,1.1,3.3-0.5,4.1c0,0,6.4,9.4,14,9.4
		c7.7-0.2,13.8-4.9,16.5-9.1c0,0-1.7-2.4-0.2-5c1.6-2.7,3.6-6.6,3.6-6.6s-3.5,1.1-4.9-2.8V22.5C40.5,22.5,27,12.8,13.4,22.7z"/>
	<path class="st32" d="M16,35.1c0,0,0.2,2.2,1.9,2.2c1.3,0,2-0.3,2.2-2.2"/>
	<path class="st32" d="M33.8,35.1c0,0,0.2,2.2,1.9,2.2c1.3,0,2-0.3,2.2-2.2"/>
	<polyline class="st32" points="25,36.7 25,40.6 28.8,40.6 	"/>
	<path class="st32" d="M19.5,44.7c0,0,3.3,4.6,7.2,4.4c3.8-0.2,7.1-4.2,7.1-4.4"/>
	<path class="st18" d="M46.8,2.6l-0.3,12.3c0,0-3.3,3.1-3.5,7.5s-0.2,11.2-0.2,11.2s0.2,1.3,1.9,1.4c1.7,0.2,2-2.4,2-2.4v-7.1
		c0,0,0.2-0.5,0.9-0.5s0.9,0.5,0.9,0.8s0,9.4,0,9.4l-5,9.6c0,0-0.6,1.9,0.8,2.8c1.4,0.8,2.5-0.3,2.5-0.5c0-0.2,7.2-13.4,7.2-13.4
		s0.3-0.9,0.3-3.1s0-28.3,0-28.3L46.8,2.6z"/>
</g>
<g id="icon_42" class="st0">
	<path class="st14" d="M20.2,23.1l-0.2,13c0,0,0.6,4.3-3.7,4.3S2.8,42,0.3,51.5c-0.7,2.8-0.7,4.1-0.6,4.5c0.2,0.4,0,1.5,1.5,1.5
		c1.5,0,6.9,0,6.9,0s1.1-0.2,1.5-2c0.4-1.9,1.9-4.6,3.7-4.8c0,0-0.2,6.7,7.8,6.9c8,0.2,27.9-6.1,31.4-22.5c2.6-11.7,2-19.5-4.6-25.5
		c-6.7-6.1-15.1-7.2-19.7-6.3c-4.8,0.9-7.6,6.3-7.6,9.7c0,0-7.1,0.7-10.2-5.2C9.6,6,9.6,4.1,9.6,4.1s0-1.5-1.5-1.5s-6.7,0-6.7,0
		s-2,0.2-1.7,2.6C0.2,7.6,2.6,20.3,12.2,22C16.1,22.9,19.5,23.1,20.2,23.1z"/>
</g>
<g id="icon_43" class="st0">
	<circle class="st18" cx="26.8" cy="8.9" r="6.8"/>
	<path class="st18" d="M16.1,21h21.6c0,0-1.2-3.7-5.1-3.9s-11.5,0-11.5,0S16.4,17.3,16.1,21z"/>
	<path class="st18" d="M41.6,47.2H12.2c-2.1,0-3.7-1.7-3.7-3.7V26.2c0-2.1,1.7-3.7,3.7-3.7h29.4c2.1,0,3.7,1.7,3.7,3.7v17.1
		C45.3,45.3,43.6,47.2,41.6,47.2z"/>
	<path class="st18" d="M19,48.5h6.8v7.2c0,0-0.1,2.3-2,2.3C22,58,21,58,21,58s-2.1-0.1-2.1-2.8C18.9,53.2,19,48.5,19,48.5z"/>
	<path class="st18" d="M27.7,48.5h6.8v7.2c0,0-0.1,2.3-2,2.3s-2.8,0-2.8,0s-2.1-0.4-2.1-2.8C27.7,53.2,27.7,48.5,27.7,48.5z"/>
	<path class="st24" d="M21.4,45.4L32,45.3c0,0-0.8-1.7-1.9-1.9c-1.2-0.1-2.1,0.1-2.7,0.8s-1.1,0.5-1.5,0.1c-0.4-0.5-1.7-1.1-2.5-0.9
		C22.8,43.8,21.4,44.6,21.4,45.4z"/>
	<path class="st47" d="M24.8,40.9L24.9,29c0,0-0.1-2.5,1.6-2.7c1.9-0.1,1.9,2.5,1.9,2.5v11.9"/>
	<path class="st48" d="M34.9,45.3c0,0-1.3-5.1-6.5-4.4"/>
	<path class="st48" d="M28.8,38.6h5.9c0,0,3.7-0.4,4.5-3.6"/>
	<path class="st48" d="M28.8,34.1h4.1c0,0,3.6-0.3,4.3-3.5"/>
	<path class="st22" d="M28.6,29.8l3.1-0.1h0.1c0.4-0.1,2.7-0.3,3.3-2.9"/>
	<path class="st48" d="M18.4,45.2c0,0,1.3-5.1,6.5-4.4"/>
	<path class="st48" d="M24.6,38.5h-5.9c0,0-3.7-0.4-4.5-3.6"/>
	<path class="st48" d="M24.8,34h-4.1c0,0-3.6-0.3-4.3-3.5"/>
	<path class="st22" d="M24.8,29.7l-3.1-0.1h-0.1c-0.4-0.1-2.7-0.3-3.3-2.9"/>
</g>
<g id="icon_44" class="st0">
	<path class="st49" d="M11.4,8.2c0,0,4.6-6,13.5-4.6c0,0,12.4-4,17.9,4.7c0,0,10,2.9,9.7,13c0,0,5.7,7.8,0.2,17.3
		c0,0-1.1,11.3-11.3,13.7c0,0-3.1,7.5-15.3,4.4c0,0-8.4,3.1-14.4-4.4c0,0-8-2.7-9.9-11.7c0,0-6.9-13,0.4-19.3
		C2.1,21.1,2.3,11.8,11.4,8.2z"/>
	<path class="st32" d="M51.9,21.3c0,0-5.1-12.4-22.1,0.2"/>
	<path class="st32" d="M52.1,21.7c0,0,0.4,10.8-8.9,13.7"/>
	<path class="st32" d="M45.7,43.6c0,0,5.3-2.6,7.3-6"/>
	<path class="st32" d="M20,8.4c0,0,4.2-4.4,6.9-5.1"/>
	<path class="st32" d="M33.1,51.2c0,0,5.3,1.8,9.3,0.7"/>
	<path class="st32" d="M29.1,57.3c0,0-13.7-2.4-12-13.1c0.7-4,3.5-8.9,3.5-8.9s-6.7,2-9.7,0.2"/>
	<path class="st32" d="M0.3,37c0,0,4,5.7,7.7,6.7"/>
	<path class="st32" d="M0.6,23c0,0,5.7-8,23.7-1.1"/>
</g>
<g id="icon_45" class="st0">
	<g class="st1">
		<path class="st8" d="M27.8,16.2c-1.9,0-3.7,0.3-5.5,1.1c0.2,0.5,0.3,1.1,0.3,1.6c0,3.4-2.8,6.2-6.2,6.2c-0.6,0-1.3-0.2-1.8-0.3
			c-0.8,1.8-1.3,3.7-1.3,5.8c0,1,0.2,1.8,0.3,2.8c0.8-0.5,1.8-0.8,2.9-0.8c3.2,0,5.8,2.6,5.8,5.8c0,1.8-0.8,3.4-2.1,4.5
			c2.3,1.5,4.9,2.3,7.6,2.3c1.3,0,2.6-0.2,3.9-0.5c-1-1.3-1.6-2.9-1.6-4.7c0-4.1,3.4-7.5,7.5-7.5c1.6,0,3.2,0.5,4.4,1.5
			c0.3-1.1,0.3-2.1,0.3-3.2C42.3,22.7,35.8,16.2,27.8,16.2z"/>
	</g>
	<circle class="st18" cx="37.4" cy="40" r="4.7"/>
	<circle class="st18" cx="16.5" cy="38.4" r="3.1"/>
	<circle class="st18" cx="16.5" cy="19.1" r="3.4"/>
	<path class="st18" d="M39.3,18.3c0-0.2,0-0.5,0-0.6c0-4.5-3.7-8.1-8.1-8.1c-3.2,0-5.8,1.8-7.3,4.5c1.3-0.3,2.6-0.5,4.1-0.5
		C32.5,13.4,36.6,15.4,39.3,18.3z"/>
	<path class="st18" d="M49.1,16.7l-4.4,4.2c-0.8,0.8-2.1,0.3-2.4-0.6l-1.5-5.8l-1.5-5.8c-0.3-1.1,0.8-2.1,1.8-1.8L47,8.4l5.8,1.6
		c1.1,0.3,1.5,1.6,0.6,2.4L49.1,16.7z"/>
	<path class="st19" d="M49.1,16.7c0,0,9.2,10.5,1.9,25.3S27.7,55.9,27.7,55.9"/>
	<path class="st18" d="M4.8,43.7l4.4-4.2c0.8-0.8,2.1-0.3,2.4,0.6l1.5,5.8l1.5,5.8c0.3,1.1-0.8,2.1-1.8,1.8L6.9,52l-5.8-1.6
		C0,50-0.4,48.7,0.5,47.9L4.8,43.7z"/>
	<path class="st19" d="M4.8,43.7c0,0-8.7-12.6-2.1-25.3C11.3,1.8,26.1,4.4,26.1,4.4"/>
</g>
<g id="icon_46" class="st0">
	<path class="st18" d="M20.9,51.3H6.2c-1,0-2.1-0.9-2.1-2.1l0,0c0-1,0.9-2.1,2.1-2.1h14.7c1,0,2.1,0.9,2.1,2.1l0,0
		C22.8,50.2,22,51.3,20.9,51.3z"/>
	<path class="st18" d="M51.7,57.4H2.2c-1,0-1.9-0.9-1.9-1.9l0,0c0-1,0.9-1.9,1.9-1.9h49.5c1,0,1.9,0.9,1.9,1.9l0,0
		C53.6,56.5,52.9,57.4,51.7,57.4z"/>
	<path class="st18" d="M18.1,40.4l-6.8-4.2c-1.7-1-2.4-3.5-1.2-5.2L23.2,9.4c1-1.7,3.5-2.4,5.2-1.2l6.8,4.2c1.7,1,2.4,3.5,1.2,5.2
		L23.4,39.2C22.3,41.1,19.9,41.6,18.1,40.4z"/>
	<path class="st18" d="M12.2,42.9L12.2,42.9c-1.2-0.7-1.4-2.1-0.9-3l2.6-4.4c0.5-1,1.9-1.4,3-0.7l0.2,0.2c1,0.5,1.4,1.9,0.7,3
		l-2.6,4.2C14.4,42.9,13.2,43.2,12.2,42.9z"/>
	<path class="st18" d="M36.5,10.7l-6.6-4c-0.7-0.3-0.9-1.2-0.5-1.9L30,3.5c0.3-0.7,1.2-0.9,1.9-0.5l6.6,4c0.7,0.3,0.9,1.2,0.5,1.9
		l-0.7,1.2C38.1,10.8,37.2,11,36.5,10.7z"/>
	<path class="st50" d="M36.7,27.6c0,0,14,4.9,11.9,14.2C47,49,43.1,54.2,43.1,54.2"/>
</g>
<g id="icon_47" class="st0">
	<path class="st18" d="M3.7,49.8L-1,41.1c-0.4-0.9-0.1-1.9,0.7-2.3l2.1-1.1l6.3,11.4l-2.4,1.3C5,50.6,4.2,50.4,3.7,49.8z"/>
	<path class="st18" d="M3.9,36.1l5.9,11.6l3.7-2l16.7,3.4c0,0,2.7,0.7,7-0.9s16.7-7,16.7-7s1.6-0.9,1-2.7c-0.6-1.9-2-1.9-3.6-1.3
		c-1.6,0.4-10.6,4.4-10.6,4.4s-1.3,0.6-3.6,0.6c-2.1,0-13-0.7-13-0.7s-0.6,0-0.6-0.9c0.1-0.9,1.9-0.6,1.9-0.6L37,40.5
		c0,0,2.1-0.3,2.1-2.4s-1.4-2.6-2.3-2.7c-0.9-0.1-8.3-0.3-18.3-4.4c-1.7-0.7-7.1,0.6-8.9,1.6C8,33.5,3.9,36.1,3.9,36.1z"/>
	<path class="st18" d="M41.2,37.4c0,0,0.1,1.6,0,2l9.3-3.4c0,0-0.6-1.4-3-0.7C45,35.9,41.2,37.4,41.2,37.4z"/>
	<path class="st18" d="M39.3,34.4l1.1,1.3l6-1.7c0,0-1-0.9-3.7-0.3C39.9,34.1,39.3,34.4,39.3,34.4z"/>
	<path class="st40" d="M43.7,9.8c0,0,1.4,17.3-16.6,16.4c0,0,3-5.7,10-8.9c0,0-9.4,0.7-14.3,13.6c0,0-0.3,0.7-1,0.6
		c-0.7-0.3-0.7-1-0.6-1.9c0.1-0.9,1-3.1,2.4-4.1c0,0-1.7-10.3,11-11C37.7,14.5,42,11.8,43.7,9.8z"/>
</g>
<g id="icon_48" class="st0">
	<path class="st17" d="M26.2,1.6h5.1V19c0,0,0,4.2,7.2,3.7l2.3,2.8l-2.6,0.3c0,0-4.4,0.7-5.8-0.9c-1.4-1.6-1,1.2-1,1.2v32.2h-5.2
		l-1.7-33c0,0-0.9,3.7-9.1,2.8l-1-2.3l0.3-0.7c0,0,4,1,9.3-1.4c1.9-0.9,1.9-7.2,1.9-7.2L26.2,1.6z"/>
	<path class="st18" d="M38.3,29.7c0,0-10.1,2.6-11.7-6.8V1.6h-4.7v26.7c0,0,0.9,3.3-6.3,3.8l-2.1,2.1l1.2,1l1.4,0.3l3.1-0.9
		c0,0,2.6-0.9,2.8,1c0,1.7,0,22.9,0,22.9l4.7-0.2V29.7c0,0,3.1,4.5,11.2,3.7l1.2-2.8L38.3,29.7z"/>
	<path class="st17" d="M40.6,10.5c0,0,6.3-2.8,10.3,1.9s6.3,18.7,1.6,27.8s-10.1,6.6-12.6,5.6c-2.6-1-4.4-5.2-3.3-8.4
		c0.9-3.1,1.9-5.9,1.7-7c-0.3-1-1-3.8-0.5-4.9c0.5-1,0.7-3,0.2-3.5c-0.5-0.5-1.7-1.9-1.7-3.3C36.2,17.5,35.8,13.3,40.6,10.5z"/>
	<path class="st17" d="M13.1,12.6c0,0-6.3-2.8-10.3,1.9s-6.3,18.2-1.6,27.1s10.3,6.3,12.6,5.4c2.3-0.9,4.4-5.1,3.3-8
		s-1.9-5.8-1.7-6.8c0.3-1,1-3.7,0.5-4.7c-0.5-1-0.7-3-0.2-3.5c0.5-0.5,1.7-1.9,1.7-3.1S17.8,15.2,13.1,12.6z"/>
</g>
<g id="icon_49" class="st0">
	<g id="brain" class="st1">
		<path class="st51" d="M16.3,23.5c0,0-2.4-3,0.5-5.2c0,0,0.7-3.2,3.9-2.7c0,0,1.5-3.5,5.1-2.5c0,0,3-2.2,4.9,0c0,0,3.9-1.3,5.2,1.5
			c0,0,3.5,0.2,3.9,3c0,0,4.6,4.6-0.2,7.6L16.3,23.5z"/>
		<path class="st52" d="M17.5,16.8c0,0-1.3,2.4,0.8,3.4"/>
		<path class="st52" d="M21.2,14.6c0,0-2.2,4.6,2.9,5.4"/>
		<path class="st52" d="M25.7,21.8c0,0,3.4-4.7-1.7-6.1"/>
		<path class="st52" d="M29.6,17.1c0,0,0,2.4-2.7,2.5"/>
		<path class="st52" d="M29.4,12.4c0,0.2,1.9,0.3,2.2,3.9"/>
		<path class="st52" d="M30.4,23c0,0,0.3-3.4,4-3.2"/>
		<path class="st52" d="M37.9,22.5c0,0-3.2-0.2-3.2-3.7"/>
		<path class="st52" d="M20.7,22c0,0,0.2,1.7,1.5,2"/>
		<path class="st53" d="M16.3,23.7c0,0-2.9,2.5-0.3,5.2c0,0,0.2,3.2,3.4,3.2c0,0,1,3.7,4.7,3.2c0,0,2.7,2.5,4.9,0.7
			c0,0,3.7,1.9,5.4-0.7c0,0,3.5,0.2,4.2-2.5c0,0,5.2-3.9,0.8-7.6L16.3,23.7z"/>
		<path class="st5" d="M16.6,30.4c0,0-1-2.5,1.3-3.2"/>
		<path class="st5" d="M20,33.3c0,0-1.5-4.7,3.7-5.1"/>
		<path class="st5" d="M25.4,26.7c0,0,2.7,5.1-2.5,5.7"/>
		<path class="st5" d="M28.4,32c0,0,0.3-2.2-2.4-2.9"/>
		<path class="st5" d="M27.7,36.7c0-0.2,1.9,0,2.7-3.5"/>
		<path class="st5" d="M30.3,26.2c0,0-0.2,3.4,3.5,3.7"/>
		<path class="st5" d="M37.4,27.6c0,0-3.2-0.2-3.5,3.2"/>
		<path class="st5" d="M22.7,25.9c0,0,0.3-1.7,1.9-1.7"/>
		<path class="st5" d="M33.8,27.4c0,0,0.7-2,2.4-2.5"/>
	</g>
	<path class="st18" d="M21.2,7.5c-8.3,1.2-11,4.6-13.8,8.3c-2.9,3.9-1.9,12.3-1.9,12.3s-2.9,3.4-3.5,4.2c-0.7,0.8-2,2.9-1.9,4.6
		c0.3,1.7,3,2,3,2s-0.3,3.5-0.3,4.4c0,0.8,0.8,1,1,1.2c0.2,0,0.3,0.3,0.3,0.3s-0.7,0.2-0.7,0.8c0,1,1,1.5,1,1.5c0,0.2,0.3,0.3,0,1.3
		c-0.5,1-0.5,2.7,1.3,4.2c1.9,1.5,9.4,1.3,9.4,1.3v5.1l24.1-0.5c0,0-0.5-0.7-1.3-5.1c-0.8-4.4,0.3-7.6,0.5-8.3
		c0.3-0.7,1.9-3.2,4.4-7.3c1.7-2.7,2.7-6.6,3-10.5c-0.2,0-0.3,0-0.3,0C32.3,26.7,21.8,18,21.2,7.5z"/>
	<path class="st18" d="M21.7,7.2c0,0,8.6,14.7,32.1,8.6C53.7,15.8,44.1-10.6,21.7,7.2z"/>
</g>
<g id="icon_50" class="st0">
	<path class="st54" d="M26.9,4.7c0,0,5.9-5.4,10.8,0.2c0,0,6.8,0.9,6.1,7.7c0,0,7.7,2.6,6.1,10.3c0,0,4.9,6.1,0.9,10.3
		c0,0,3.3,8-2.3,11.2c0,0,0,7.5-5.8,8.6c0,0-8.9,10.3-15.9,0.7L26.9,4.7z"/>
	<path class="st28" d="M41.4,6.5c0,0-5.2-2.4-7,2.4"/>
	<path class="st28" d="M46.3,13.9c0,0-9.4-3.8-10.6,6.9"/>
	<path class="st28" d="M31.8,24.5c0,0,10.3,6.3,12.4-4.5"/>
	<path class="st28" d="M42.3,31.7c0,0-4.7,0.3-5.6-5.2"/>
	<path class="st28" d="M52.2,30.9c-0.2,0-0.1,4-7.6,5.2"/>
	<path class="st28" d="M30.1,34.5c0,0,7.2,0,7.3,7.9"/>
	<path class="st28" d="M32.2,49.8c0,0,0-6.8,7.2-7.2"/>
	<path class="st28" d="M31,13.7c0,0-3.5,0.5-4,3.5"/>
	<path class="st54" d="M26.8,4.7c0,0-5.9-5.4-10.8,0.2c0,0-6.8,0.9-6.1,7.7c0,0-7.7,2.6-6.1,10.3c0,0-4.9,6.1-0.9,10.3
		c0,0-3.3,8,2.3,11.2c0,0,0,7.5,5.8,8.6c0,0,8.9,10.3,15.9,0.7V4.7z"/>
	<path class="st28" d="M12.4,6.5c0,0,5.2-2.4,7,2.4"/>
	<path class="st28" d="M7.2,14c0,0,9.8-3.8,11,6.8"/>
	<path class="st28" d="M21.7,24.5c0,0-10.3,6.3-12.4-4.5"/>
	<path class="st28" d="M11.2,31.7c0,0,4.7,0.3,5.6-5.2"/>
	<path class="st28" d="M1.4,30.4c0.1,0.1,0.2,4.4,7.7,5.6"/>
	<path class="st28" d="M23.6,34.5c0,0-7.2,0-7.3,7.9"/>
	<path class="st28" d="M21.5,49.8c0,0,0-6.8-7.2-7.2"/>
	<path class="st28" d="M22.9,18.7c0,0,3.5,0.5,4,3.5"/>
	<path class="st28" d="M21.3,42.2c0,0,4.4,1,5.4,4.5"/>
</g>
<g id="icon_51" class="st0">
	<circle class="st18" cx="26.9" cy="30.1" r="28.9"/>
	<circle class="st55" cx="26.6" cy="30.7" r="8"/>
	<path class="st56" d="M22.6,22.8l-5.2-9.5c0,0,10.1-4.7,17.8-0.1l-5,9.6"/>
	<path class="st56" d="M35.2,30.5L46,30.7c0,0-0.7,11.1-8.4,15.6l-5.9-9"/>
	<path class="st56" d="M21.4,37.6l-6.2,8.9c0,0-8.7-7-8-15.8L18,31"/>
</g>
<g id="icon_52" class="st0">
	<path class="st18" d="M48.5,58.1h-43c-3.7,0-6.8-3.1-6.8-6.8V8.8C-1.3,5.1,1.8,2,5.4,2h42.8C51.9,2,55,5.1,55,8.8v42.4
		C55.2,55.1,52.1,58.1,48.5,58.1z"/>
	<path class="st24" d="M16.9,23.5h20.9l7.4-10.4c0,0-17.8-15.6-35.8,0.2L16.9,23.5z"/>
	<path class="st17" d="M26.7,30.5c0,0,2.9-4.3,8.4-2.9c5.7,1.6,6.3,5.9,6.3,5.9s2,11.7-14.1,20.1c0,0-16.6-5.9-15.4-18.8
		c0.4-5.1,4.3-7.6,6.3-7.8C20.8,27,24.3,27.2,26.7,30.5z"/>
	<circle class="st57" cx="26.9" cy="22.5" r="4.1"/>
	<line class="st19" x1="32.7" y1="12.5" x2="29" y2="18.6"/>
	<path class="st18" d="M26.5,46.7L26.5,46.7c-1,0-1.7-0.7-1.7-1.7v-8.6c0-1,0.7-1.7,1.7-1.7l0,0c1,0,1.7,0.7,1.7,1.7v8.6
		C28.5,45.9,27.5,46.7,26.5,46.7z"/>
	<path class="st18" d="M32.7,40.5L32.7,40.5c0,1-0.7,1.7-1.7,1.7h-8.6c-1,0-1.7-0.7-1.7-1.7l0,0c0-1,0.7-1.7,1.7-1.7h8.6
		C31.9,38.8,32.7,39.5,32.7,40.5z"/>
</g>
<g id="icon_53" class="st0">
	<path class="st18" d="M51.7,17.8l-1.4,4.6c0,0-1,2.7-4.9,2.7s-6.3-1-6.6,1.7c-0.5,2.7-1.7,9-9.6,9.6c0,0-0.5,0.5,0.3,0.7
		c0.8,0.2,4.2-0.2,5.7-1c1.5-0.8,3.4,0.3,4.4,2.7c1,2.4,1.5,2.7,2,2.5c0.5,0,2.5-0.5,3,0c0.5,0.5,1.2,1.5-0.7,2.7
		c-1.9,1.4-3.7,0.8-4.9-0.5c-1.2-1.4-1.9-1.9-2.5-2c-0.7-0.2-2.4,0-2.5,1.5c-0.2,1.5-2.7,6.9-9,6.3c-6.1-0.7-9.3-3.4-10.5-7.9
		s0.8-9.3,1.4-10.6c0.7-2.4,0.5-3.4-0.3-4.7c-0.8-1.4-2.4-1-2.9-5.2c-0.7-4.1,2.7-8.1,5.2-9.6c0,0,2.7-1.9,5.7-1.2s5.6,2,7.4,4.2
		c2.2,2.4,2,5.7,0.2,8.4c-0.3,0.5-0.5,0.8-0.2,1.4c0.3,0.5,0.8,3.2-1,3.7c-1.9,0.5-3.9,0.5-4.4,1.2c-0.5,0.7-0.2,1.2,0.5,1.7
		c0.7,0.5,1.9,0.7,2,0.7c0.2,0,0-0.7,0-1.2c0-0.5,1-1,1.9-0.2c0.8,0.8,1.5,1.7,1,2.9c-0.3,1.2-0.7,0.7,0.2,0.8
		c0.7,0.2,0.3-0.3,1.2-0.7c0.7-0.3,1.2-0.3,1.4-0.8c0.3-0.5,1.9-5.9,2.4-6.6c0.5-0.7,1-2.9,7.1-4.4c3-0.7,3.2-2.4,2.7-5.1
		c-0.5-2-1.5-5.7-2-7.4c-4.7-3.7-10.8-6.1-17.2-6.1C11.5,2.4-0.8,14.9-0.8,30.1c0,15.4,12.5,27.7,27.7,27.7s27.7-12.2,27.7-27.5
		C54.6,25.7,53.6,21.5,51.7,17.8z"/>
</g>
<g id="icon_54" class="st0">
	<path class="st18" d="M2.6,10.6c0,0,1.6-3.8,5.2-2.5s3.8,4.1,3.6,6.3C11.2,16.6,12,20,12,20s2,4,4.1,0.7c2.7-4,9.7-14.2,9.7-14.2
		s2.5-3.6,6.3-1.4c3.8,2,1.1,6.5,1.1,6.5l-5.4,10.8l12.4-11.5c0,0,3.8-2.5,6.3,0.9c2.5,3.4-0.7,6.3-0.7,6.3L35.3,29.2l10.1-5
		c0,0,4.1-1.4,5.6,1.8c1.4,3.2-0.2,5.2-1.1,5.9c-0.9,0.7-12.2,8.3-12.2,8.3l7.2-1.6c0,0,4.7-0.9,5.4,2.9c0.7,3.8-1.6,5-2.9,5.4
		C46.3,47.3,25.4,55,25.4,55s-9.5,3.4-17.3-3.6c-6.8-6.1-5.8-17.1-5.8-17.1S2.1,11.7,2.6,10.6z"/>
	<circle class="st24" cx="13" cy="34.7" r="2.5"/>
	<circle class="st24" cx="26.7" cy="34.7" r="2.5"/>
	<path class="st22" d="M10.3,40.5c0,0,2.2,7.2,8.8,7.4s9.2-4.7,9.9-7.2"/>
</g>
<g id="icon_55" class="st0">
	<path class="st18" d="M37.2,45.7H16.6c-2.1,0-3.7-1.7-3.7-3.7V18.3c0-2.1,1.7-3.7,3.7-3.7h20.5c2.1,0,3.7,1.7,3.7,3.7v23.6
		C40.9,44,39.2,45.7,37.2,45.7z"/>
	<text transform="matrix(1 0 0 1 24.132 23.8884)" class="st24 st58 st59">E</text>
	<text transform="matrix(1 0 0 1 20.7791 30.3695)" class="st24 st58 st60">F</text>
	<text transform="matrix(1 0 0 1 29.0144 30.3695)" class="st24 st58 st60">P</text>
	<text transform="matrix(1 0 0 1 31.0731 36.0818)" class="st24 st58 st61">Z</text>
	<text transform="matrix(1 0 0 1 24.7788 36.0818)" class="st24 st58 st61">O</text>
	<text transform="matrix(1 0 0 1 19.1319 36.0818)" class="st24 st58 st61">T</text>
	<text transform="matrix(1 0 0 1 17.3675 41.4934)" class="st24 st58 st62">L</text>
	<text transform="matrix(1 0 0 1 22.4851 41.4934)" class="st24 st58 st62">P</text>
	<text transform="matrix(1 0 0 1 27.3087 41.4934)" class="st24 st58 st62">E</text>
	<text transform="matrix(1 0 0 1 32.6027 41.4934)" class="st24 st58 st62">D</text>
</g>
<g id="icon_56" class="st0">
	<path class="st18" d="M10.4,54.1L-1.3,41.4l27.6-25.4c3.6-3.2,9.1-3,12.3,0.6l0,0c3.2,3.6,3,9.1-0.6,12.3L10.4,54.1z"/>
	<rect x="25" y="25.8" transform="matrix(0.7362 -0.6768 0.6768 0.7362 -11.4653 25.1501)" class="st24" width="3" height="3"/>
	<rect x="25" y="25.8" transform="matrix(0.7362 -0.6768 0.6768 0.7362 -11.4653 25.1501)" class="st24" width="3" height="3"/>
	<rect x="20.3" y="30.1" transform="matrix(0.7362 -0.6768 0.6768 0.7362 -15.6576 23.0969)" class="st24" width="3" height="3"/>
	
		<rect x="15.7" y="27.4" transform="matrix(0.7362 -0.6768 0.6768 0.7362 -19.8818 21.2763)" class="st24" width="3.2" height="17.4"/>
	<polyline class="st19" points="38.1,17 50,6.1 55.1,6.2 	"/>
</g>
<g id="icon_57" class="st0">
	<path class="st18" d="M19.4,52.9l0.1-2.5c0-0.4,0.6-0.7,0.9-0.4l2,1.3l2,1.3c0.4,0.3,0.3,0.9,0,1l-2.2,1l-2.2,1.2
		c-0.4,0.3-0.9,0-0.9-0.6L19.4,52.9z"/>
	<path class="st63" d="M20,52.9c0,0-18.5-3.3-19.8-19.8C-0.2,19,9.2,12.1,9.2,12.1"/>
	<path class="st24" d="M32.4,16.5c0,0,4.3-1,6.3,0c2.5,1.2,4.3,4.2,3,9.2c-1.3,5-2.5,9.4-2.7,13.7c-0.4,4.3-3.5,7.2-5.5,7.5
		c-2,0.4-3.5-1.7-3-3.3c0.4-1.6,1-6.2,0.9-7.4c-0.1-2.2-1.3-4-3-4c-1.7,0-2.6,1-3,2c-0.4,1.2-1.2,5.5-0.6,7.5c0.4,2,0.1,5-1.7,5
		c-1.9,0.1-5.5-1.9-6.9-10.4c-1.4-8.5-2.2-10.4-2.5-11.5c-1-3.9,0-8.9,4.3-9.2s7.8,1.6,9.4,1.7C28.5,17.7,30.8,16.8,32.4,16.5z"/>
	<path class="st17" d="M24.6,20.7c0,0,2.6,1.4,3.6,1c1-0.6,3.5-1.7,6.2-0.4c2.7,1.4,2.7,3,2.7,3s0.9,3-0.6,5.3c-1.4,2.5-1,7.4-1,7.4
		s0.1,1.7-0.7,1.7c-0.7,0-1.3-1.6-1.3-1.9c0-0.3-0.9-6.3-4.9-7.1c-4-0.7-4.8,3-5.3,4.5c-0.3,1-0.6,3.8-0.6,3.8s-0.1,1.4-1,1.3
		c-0.7-0.1-1-1.6-1-5c0-3.5-1-3.8-1.6-5.8c-0.6-2-0.4-5.5,1.6-7.1C22.6,19.8,24.6,20.7,24.6,20.7z"/>
	<path class="st18" d="M33,7.3v2.5c0,0.4-0.4,0.7-0.9,0.6l-2.2-1.2L27.8,8c-0.4-0.1-0.4-0.9,0-1l2-1.3l2-1.3c0.4-0.3,0.9,0,0.9,0.4
		L33,7.3z"/>
	<path class="st63" d="M32.4,7.3c0,0,18.6,2.2,21.1,18.5c1.4,14.1-7.5,21.6-7.5,21.6"/>
</g>
<g id="icon_58" class="st0">
	<path class="st24" d="M30.3,6.2c0,0,6.9-1.5,10.2,0c3.9,1.9,6.9,6.8,4.8,14.9c-2.1,8.1-3.9,15-4.4,22.2c-0.8,6.9-5.6,11.8-8.9,12.2
		c-3.3,0.8-5.6-2.7-5-5.4c0.8-2.5,1.5-10.2,1.4-12c-0.4-3.7-2.1-6.6-5-6.6s-4.2,1.5-5,3.3c-0.8,1.9-1.9,8.9-1,12.2
		c0.8,3.3,0.4,8.1-2.7,8.3c-3.1,0.2-8.9-3.1-11.2-16.8S0,21.6-0.3,19.7c-1.7-6.4,0-14.5,6.9-14.9c6.9-0.6,12.7,2.5,15,2.7
		C24,8.1,27.8,6.5,30.3,6.2z"/>
	<path class="st17" d="M17.6,12.9c0,0,4.1,2.3,5.8,1.5c1.7-0.8,5.4-2.9,10-0.8c4.4,2.3,4.4,4.8,4.4,4.8s1.4,4.8-1,8.7
		C34.6,31,35.2,39,35.2,39s0.2,2.7-1.2,2.7c-1.2,0-2.1-2.5-2.1-3.1c0-0.6-1.4-10.2-7.9-11.6c-6.6-1.4-7.7,5-8.5,7.1
		c-0.6,1.5-1,6.2-1,6.2s-0.4,2.3-1.5,2.1c-1.2-0.2-1.5-2.5-1.5-8.1c0-5.4-1.7-6.2-2.5-9.5c-0.8-3.3-0.8-8.9,2.5-11.4
		C14.3,11.6,17.6,12.9,17.6,12.9z"/>
	<circle class="st18" cx="42.9" cy="39.3" r="12"/>
	<path class="st24" d="M43.5,46.1h-1.7c-1,0-1.7-0.8-1.7-1.7v-9.8c0-1,0.8-1.7,1.7-1.7h1.7c1,0,1.7,0.8,1.7,1.7v9.8
		C45.2,45.3,44.4,46.1,43.5,46.1z"/>
	<path class="st24" d="M36.1,40.3v-1.7c0-1,0.8-1.7,1.7-1.7h9.8c1,0,1.7,0.8,1.7,1.7v1.7c0,1-0.8,1.7-1.7,1.7h-9.8
		C36.9,42,36.1,41.3,36.1,40.3z"/>
</g>
<g id="icon_59" class="st0">
	<path class="st18" d="M21.9,1.9h14l-7.2,15.2c0,0,3.1,2.8,2.4,6.1c-0.6,3.1-2.1,5.1-7.2,4.5c-2.1-0.3-4.6-2.8-5.4-3
		c-0.6-0.1-2.2-0.7-3.9-0.6c-1.6,0.3-6.1-0.4-6.1-6.7c0-4.6,4.6-7,8.6-5.7L21.9,1.9z"/>
	<path class="st18" d="M17.9,58.3h13.6l-3-13c0,0,4.8-1.9,3.4-7.5s-7.6-4.2-8.6-3.7c-1,0.6-1.9,1.6-4.5,1c-2.5-0.6-5.7-0.6-7.3,1.9
		c-1.3,2.1-1.3,7.8,4,9.5L17.9,58.3z"/>
	<path class="st18" d="M44.4,31.9h-3.1c-0.9,0-1.6-0.7-1.6-1.6l0,0c0-0.9,0.7-1.6,1.6-1.6h3.1c0.9,0,1.6,0.7,1.6,1.6l0,0
		C46,31.1,45.3,31.9,44.4,31.9z"/>
	<path class="st18" d="M41.9,23.2l-2.2,2.2c-0.6,0.6-1.6,0.6-2.2,0l0,0c-0.6-0.6-0.6-1.6,0-2.2l2.2-2.2c0.6-0.6,1.6-0.6,2.2,0l0,0
		C42.5,21.6,42.5,22.6,41.9,23.2z"/>
	<path class="st18" d="M39.3,39.2l-2.1-2.4c-0.6-0.6-0.6-1.6,0.1-2.2l0,0C38,34,39,34,39.6,34.7l2.1,2.4c0.6,0.6,0.6,1.6-0.1,2.2
		l0,0C41,39.9,39.9,39.8,39.3,39.2z"/>
</g>
<g id="icon_60" class="st0">
	<circle class="st18" cx="20.6" cy="14.2" r="6"/>
	<circle class="st18" cx="43.2" cy="39.8" r="6.8"/>
	<path class="st18" d="M-1.1,51.6v2.8c0,0,0,0.8,0.9,0.8s35.6,0,35.6,0s-2.4-1.7-2.5-2.4L1.4,52.6C1.2,52.6-0.2,52.7-1.1,51.6z"/>
	<path class="st18" d="M33.3,51l2.5,2.4c0,0,0.8,1.6,3.3,1.6c2.5,0,14.2,0,14.2,0s1.7-0.8,1.7-3s-1.6-3.1-3.8-3.1
		c-2.2,0-11.5,0-11.5,0s-7.9-8.8-9.3-9H0.9c0,0-1.9,0-2,1.9c-0.2,1.7,0,7.1,0,7.1s0,2.4,1.6,2.4S33.3,51,33.3,51z"/>
	<path class="st18" d="M15.9,37.8c0,0,1.3-2.7,3-3.6c1.7-0.9,1.7-3.1,1.6-3.6l3,2.8l9.4,4.1c0,0,2.4,0.6,3-1.1
		c0.6-1.9,0.3-2.8-0.9-3.5s-8.7-3.3-8.7-3.3l-6.4-6.3c0,0-1.3-0.9-2.8-1.3c-1.4-0.3-3.9-0.6-3.9-0.6s-2-0.3-3,2S4.4,37,4.4,37
		s-0.6,1.4,0.3,1.4s10.4,0,10.4,0S15.7,38.4,15.9,37.8z"/>
	<path class="st18" d="M13.2,12.1c0,0,0.8-3.6,4.6-5c0,0-0.8-2.5-4.2-2C10,5.5,10.7,9.5,11,9.9C11.2,10.4,11.8,11.8,13.2,12.1z"/>
</g>
<g id="icon_61" class="st0">
	<defs>
		<path id="SVGID_20_" d="M26,2.2c0,0,9.5-1.4,15.2,2.3c5.7,3.6,9.3,7.7,10.2,13.6c0.9,5.9-0.4,13.1-3,17.3
			c-2.7,4.5-4.5,7.2-4.8,7.9c-0.2,0.7-1.4,4.3-0.5,8.9c0.9,4.8,1.4,5.5,1.4,5.5l-26.1,0.5v-5.5c0,0-8.2,0.2-10.2-1.4
			c-2-1.6-2-3.4-1.4-4.6c0.4-1.1,0-1.3,0-1.4c0,0-1.1-0.5-1.1-1.6c0-0.7,0.7-0.9,0.7-0.9S6.1,42.4,6,42.4c-0.2-0.2-1.1-0.4-1.1-1.3
			s0.5-4.8,0.5-4.8S2.6,36,2.2,34.2c-0.2-1.8,1.3-4.1,2-5c0.7-0.9,3.8-4.6,3.8-4.6s-1.1-9.1,2-13.4C13.1,7,16.2,3.3,26,2.2z"/>
	</defs>
	<use xlink:href="#SVGID_20_"  style="display:inline;overflow:visible;fill:#1341A3;"/>
	<clipPath id="SVGID_21_" class="st1">
		<use xlink:href="#SVGID_20_"  style="overflow:visible;"/>
	</clipPath>
	<path class="st64" d="M2.8,35.6c0,0,3-5.9,7.3-8.2c4.3-2.5,9.8-1.6,12.2-0.9s7,3.9,12.7,2c1.6-0.5,5.2-2.3,5.5-3
		c0,0,1.4-0.4,1.6,0.7c0.2,1.3-0.7,2.5-2.9,4.3c-2.1,1.8-3.4,8.9-6.8,27.7h-3c0,0,0.4-15.4-2.9-21.1c-3-5.5-8.4-12.9-22.3-1.1
		l-0.4,0.4L2.8,35.6z"/>
</g>
<g id="icon_62" class="st0">
	<circle class="st18" cx="27.1" cy="32.4" r="23.6"/>
	<circle class="st18" cx="6.8" cy="33.9" r="8.3"/>
	<circle class="st18" cx="47" cy="33.9" r="8.3"/>
	<rect x="32.5" y="5.4" class="st18" width="3.3" height="8"/>
	<rect x="25.3" y="4.2" class="st18" width="3.3" height="8"/>
	<rect x="18" y="5.6" class="st18" width="3.3" height="8"/>
	<path class="st65" d="M15.3,29.5h23c0,0,1.5,16.9-10.9,17C12.9,46.6,15.1,30.1,15.3,29.5z"/>
	<polyline class="st55" points="22.7,30.3 22.7,36.1 30.5,36.1 30.5,30.1 	"/>
</g>
<g id="icon_63" class="st0">
	<g class="st1">
		<g>
			<circle id="SVGID_19_" class="st8" cx="27.1" cy="33.5" r="23.1"/>
		</g>
		<g>
			<g>
				<g>
					<defs>
						<circle id="SVGID_22_" cx="27.1" cy="33.5" r="23.1"/>
					</defs>
					<clipPath id="SVGID_23_">
						<use xlink:href="#SVGID_22_"  style="overflow:visible;"/>
					</clipPath>
					<path class="st66" d="M32.2,10.2c0,0,5.7,10.2-1.1,13.5s-11.8-0.6-12.7-6.8"/>
				</g>
			</g>
		</g>
	</g>
	<path class="st18" d="M6.2,38.6H2.8c-2.7,0-4.9-2.3-4.9-4.9l0,0c0-2.7,2.3-4.9,4.9-4.9h3.4c2.7,0,4.9,2.3,4.9,4.9l0,0
		C11.2,36.3,8.9,38.6,6.2,38.6z"/>
	<path class="st18" d="M51,38.6h-3.4c-2.7,0-4.9-2.3-4.9-4.9l0,0c0-2.7,2.3-4.9,4.9-4.9H51c2.7,0,4.9,2.3,4.9,4.9l0,0
		C55.9,36.3,53.6,38.6,51,38.6z"/>
	<path class="st67" d="M18,3.6c0,0,0,7.2,8,9.3c0,0-15.4,2.5-17.1-7.6"/>
	<path class="st32" d="M33.7,34.3c0,0,0.4-4.4,4-4.4s4.9,3.8,4.9,3.8"/>
	<path class="st32" d="M11.4,34.3c0,0,0.4-4.4,4-4.4s4.9,3.8,4.9,3.8"/>
	<path class="st32" d="M19.7,43.7c0,0,3,4.2,7.2,4c5.1-0.2,7-4,7-4"/>
</g>
<g id="icon_64" class="st0">
	<circle class="st45" cx="26.4" cy="43.4" r="13.4"/>
	<ellipse class="st68" cx="26.9" cy="32.3" rx="19.3" ry="7.2"/>
	<g class="st1">
		<path class="st8" d="M30.4,33.8c0,0-5.4-0.2-6.7-0.2c-2.2,0-3.7-2.2-3.7-5.4c0-1.7-1.7-4.9-2.4-5.9c-2.2-3.4-2.9-7.1-1.8-11.1
			c0.7-3.4,4.7-8.2,10.9-8.4h0.3c6,0,10.2,3.9,11.6,7.6c1.2,3.4,0.8,10.2-2.4,13.1c-2.7,2.4-3.4,6.7-3.4,7.2
			C32.6,33,31.3,33.8,30.4,33.8L30.4,33.8L30.4,33.8z"/>
		<path class="st69" d="M27.3,4.4C33,4.4,36.6,8,37.6,11c1.2,3,0.7,9.4-1.8,11.6c-2.5,2.4-3.5,6.2-3.9,8.1c-0.2,1.8-1.5,2-1.5,2
			s-5.4-0.2-6.7-0.2c-1.3,0-2.4-1.5-2.4-4s-2.5-6.6-2.5-6.6c-2.5-3.9-2.4-7.6-1.7-10.1c0.7-2.7,3.9-7.2,9.7-7.4c0.1,0,0.2,0,0.2,0
			 M27.2,1.7c-0.2,0-0.3,0-0.3,0C19.8,1.9,15.5,7.3,14.8,11c-1,4.4-0.3,8.4,2,12.1c0.8,1.3,2.2,4,2.2,5.2c0,4.5,2.5,6.6,4.9,6.6
			c1,0,5.2,0.2,6.7,0.2h0.2h0.2c1.2-0.2,3.4-1.2,3.7-4.2c0.2-1.5,1-4.7,3-6.4c3.7-3.2,4-10.8,2.7-14.4C38.7,6.1,34,1.7,27.2,1.7
			L27.2,1.7z"/>
	</g>
</g>
<g id="icon_65" class="st0">
	<path class="st17" d="M26.7,5.1c0,0,3.2-4.7,9.1-3.2c6.1,1.8,6.9,6.5,6.9,6.5S45,21.2,27.1,30.3c0,0-18.1-6.5-16.9-20.5
		c0.6-5.5,4.7-8.3,7.1-8.5C20.2,1.1,23.9,1.5,26.7,5.1z"/>
	<path class="st18" d="M40.7,58.9H13.1c-5.9,0-10.6-4.7-10.6-10.6l0,0c0-5.9,4.7-10.6,10.6-10.6h27.6c5.9,0,10.6,4.7,10.6,10.6l0,0
		C51.3,54.1,46.6,58.9,40.7,58.9z"/>
	<rect x="25.1" y="37.4" class="st24" width="3.5" height="21.5"/>
</g>
<g id="icon_66" class="st0">
	<path class="st18" d="M49,58.5H4.7c-1,0-1.6-0.8-1.6-1.6l0,0c0-1,0.8-1.6,1.6-1.6H49c1,0,1.6,0.8,1.6,1.6l0,0
		C50.7,57.7,50,58.5,49,58.5z"/>
	<path class="st18" d="M42.2,58.3H11.5c-2.7,0-4.9-2.3-4.9-4.9l0,0c0-2.7,2.3-4.9,4.9-4.9H42c2.7,0,4.9,2.3,4.9,4.9l0,0
		C47.2,56.1,44.9,58.3,42.2,58.3z"/>
	<path class="st18" d="M25.2,45.4H4.9c-1,0-1.8-0.8-1.8-1.8l0,0c0-1,0.8-1.8,1.8-1.8h20.3c1,0,1.8,0.8,1.8,1.8l0,0
		C27.1,44.6,26.2,45.4,25.2,45.4z"/>
	<rect x="13.3" y="44.4" class="st18" width="9.8" height="5.5"/>
	<path class="st18" d="M27.9,36.2L15.8,24.3L32.4,7.5c1.2-1.2,3.1-1.2,4.3,0l7.8,7.6c1.2,1.2,1.2,3.1,0,4.3L27.9,36.2z"/>
	<rect x="20.9" y="17.3" transform="matrix(0.7032 -0.711 0.711 0.7032 -14.005 24.4947)" class="st18" width="2.9" height="23.4"/>
	<rect x="41.7" y="3.6" transform="matrix(0.7032 -0.711 0.711 0.7032 8.6563 34.5125)" class="st18" width="8" height="6.6"/>
	<path class="st18" d="M15.6,29.6l6.4,6.6c0,0-3.9,1.2-5.7-0.8C14.5,33.3,15.2,31.5,15.6,29.6z"/>
	<path class="st46" d="M40.8,29c0,0,5.1,6.8,2.1,15"/>
</g>
<g id="icon_67" class="st0">
	<path class="st18" d="M37.2,41.2v12.6l2.7,0.2c0,0,2.3-0.8,2.3-2.9s0-8,0-8S41.4,41,39.7,41C37.8,41.2,37.2,41.2,37.2,41.2z"/>
	<path class="st18" d="M24.4,38.2l7.8-0.2c0,0,1.5-0.2,1.7,2.1c0.2,2.3,0.4,14.5,0.4,14.5s0.2,2.7-1.9,2.9C30.3,57.8,8,57.2,8,57.2
		s-1.5,0.6-2.1-4.4S1.7,20,1.7,20s-0.2-1.9,1.9-2.3c2.1-0.4,14.5-3.4,14.5-3.4s2.9-0.6,3.4,2.3C21.9,20,24.4,38.2,24.4,38.2z"/>
	<path class="st18" d="M2.7,14.3l15.5-3.6L17.7,4c0,0,0-1.9-2.9-1.3S3.4,4.8,3.4,4.8S1.7,5.3,1.9,7.6S2.7,14.3,2.7,14.3z"/>
	<path class="st18" d="M50.4,47.7h-3.6c-0.8,0-1.7-0.8-1.7-1.7l0,0c0-0.8,0.8-1.7,1.7-1.7h3.6c0.8,0,1.7,0.8,1.7,1.7l0,0
		C52.1,47.1,51.3,47.7,50.4,47.7z"/>
	<path class="st18" d="M50.6,40.1l-3.4,1.3c-0.8,0.4-1.9,0-2.1-0.8l0,0c-0.4-0.8,0-1.9,0.8-2.1l3.4-1.3c0.8-0.4,1.9,0,2.1,0.8l0,0
		C51.9,38.9,51.5,39.7,50.6,40.1z"/>
	<path class="st18" d="M49.4,55.3L46,54c-0.8-0.2-1.3-1.3-1.1-2.1l0,0c0.2-0.8,1.3-1.3,2.1-1.1l3.4,1.3c0.8,0.2,1.3,1.3,1.1,2.1l0,0
		C51.1,55.1,50.2,55.5,49.4,55.3z"/>
	<path class="st24" d="M2.3,24.4l0.4,3.2l10.1-2.3c0,0,1.3-0.6,0.8-2.1c-0.4-1.5-2.3-0.8-2.3-0.8L2.3,24.4z"/>
	<path class="st24" d="M3.2,30.5l0.4,3.2l10.3-2.3c0,0,1.3-0.6,0.8-2.1s-2.3-0.8-2.3-0.8L3.2,30.5z"/>
</g>
<g id="icon_68" class="st0">
	<path class="st18" d="M17,18.7c0,0,8.5-5.5,17.4-1.9s7.7,9.5,7.2,12.1s-2.6,4.9-3.1,9.5c-0.2,2,0.5,5.1,1.2,6.3s1.4,9.7-3.9,12.1
		c-6.5,2.9-11.1,0-14.2-5.8c-3.2-5.6-8-18.4-8.5-21.7C12.7,26.2,12.6,21.3,17,18.7z"/>
	<circle class="st18" cx="13.3" cy="12.7" r="4.9"/>
	<circle class="st18" cx="21.6" cy="8" r="4.9"/>
	<circle class="st18" cx="31.5" cy="6.9" r="4.9"/>
	<circle class="st18" cx="40.5" cy="10.2" r="4.9"/>
	<path class="st24" d="M27.2,23.7c0,0,1.5-2.2,4.4-1.5c2.9,0.9,3.2,3.2,3.2,3.2s1,6.1-7.5,10.4c0,0-8.7-3.1-8-9.9
		c0.2-2.7,2.2-3.9,3.4-4.1C24.2,21.8,26,22,27.2,23.7z"/>
</g>
<g id="icon_69" class="st0">
	<path class="st24" d="M33.6,5.1c0,0,6.3-1.3,9.1,0c3.6,1.7,6.3,5.9,4.2,13.3c-2.1,7.4-3.6,13.3-4,19.6c-0.6,6.3-5.1,10.3-7.8,10.7
		c-2.9,0.6-5.1-2.5-4.4-4.6c0.6-2.3,1.3-8.8,1.3-10.5c-0.2-3.2-1.9-5.7-4.4-5.7s-3.8,1.3-4.4,2.9c-0.6,1.7-1.7,7.8-0.8,10.7
		c0.6,2.9,0.2,7.2-2.5,7.4C17,49.1,12,46.1,9.8,33.9S6.9,19,6.3,17.5c-1.5-5.7,0-12.6,6.3-13.3s11.2,2.3,13.3,2.5
		C28.2,6.7,31.5,5.5,33.6,5.1z"/>
	<path class="st17" d="M22.5,11c0,0,3.6,1.9,5.1,1.3c1.5-0.8,4.8-2.5,8.8-0.6c4,1.9,4,4.2,4,4.2s1.3,4.2-0.8,7.8
		c-2.1,3.6-1.5,10.5-1.5,10.5s0.2,2.5-1.1,2.5c-1.1,0-1.9-2.3-1.9-2.7s-1.3-9.1-6.9-10.1c-5.7-1.1-6.7,4.4-7.6,6.3
		c-0.4,1.3-0.8,5.5-0.8,5.5s-0.2,1.9-1.3,1.9c-1.1-0.2-1.3-2.3-1.3-7.2s-1.5-5.5-2.3-8.4s-0.6-7.8,2.3-10.1
		C19.5,9.9,22.5,11,22.5,11z"/>
	<path class="st14" d="M2.5,34.3c0,0,2.9-0.4,5.1,6.5c2.1,7.6,8.4,11.4,10.3,11.8s7.8,1.9,8.6-3.4c1.1-5.3,0.6-3.4,0.6-3.4
		s0.2,5.7,2.9,6.5c2.7,0.8,7.8,1.1,11.2-2.5s5.9-10.1,6.1-11.8c0-1.7,0.8-4,4.4-4.2c3.6-0.2,3.4,4.2,3.4,5.5s0,14.5,0,14.5
		s0.2,2.1-2.5,2.1S0.4,56,0.4,56s-1.7-0.4-1.7-1.9c0-1.5,0-17.3,0-17.3S-0.9,34.3,2.5,34.3z"/>
	<circle class="st34" cx="26.5" cy="20" r="1.7"/>
	<circle class="st34" cx="36.2" cy="27.8" r="1.7"/>
	<circle class="st34" cx="19.1" cy="24.8" r="1.7"/>
</g>
<g id="icon_70" class="st0">
	<path class="st18" d="M44.7,56.5H8.2c-1.9,0-3.5-1.6-3.5-3.5V28.2c0-1.9,1.6-3.5,3.5-3.5h36.5c1.9,0,3.5,1.6,3.5,3.5v24.6
		C48.4,54.9,46.8,56.5,44.7,56.5z"/>
	<path class="st18" d="M24,4.3c1.4-1.1,3.5-1.1,5,0l15.4,11.2l9.7,7.1c2.8,1.9,1.1,5.8-2.5,5.8H26.5H1.3c-3.5,0-5.3-3.9-2.5-5.8
		l9.7-7.1L24,4.3z"/>
	<path class="st24" d="M27.9,47.8h-3c-1.1,0-1.9-0.9-1.9-1.9V28.4c0-1.1,0.9-1.9,1.9-1.9h3c1.1,0,1.9,0.9,1.9,1.9v17.5
		C30,47,29.1,47.8,27.9,47.8z"/>
	<path class="st24" d="M37.3,35.4v3c0,1.1-0.9,1.9-1.9,1.9H17.6c-1.1,0-1.9-0.9-1.9-1.9v-3c0-1.1,0.9-1.9,1.9-1.9h17.7
		C36.4,33.3,37.3,34.2,37.3,35.4z"/>
</g>
<g id="icon_71" class="st0">
	<circle class="st18" cx="21" cy="8.2" r="5.6"/>
	<path class="st18" d="M22.9,30.7V19.1c0,0-0.8-2.5-2.5-2.9c-1.7-0.3-2.9-0.2-4.4,1.5c-1.7,1.7-6.8,6.6-6.8,6.6s-2.5,2.4-0.8,4.6
		c1.9,2.2,5.9,6.4,5.9,6.4s-4.1,13.4-4.4,14.1c-0.3,0.7-1.5,2.9-1.9,3.2c-0.3,0.3-1,2.5,1,4.1c1.9,1.5,4.2,1,5.3-0.3
		c1-1.4,5.4-9,6.9-17.5l9.3-0.2v6.1c0,0-0.2,1.9,0.8,1.7c1,0,6.3-0.2,6.3-0.2s0.7-0.2,0.5-2.4c-0.2-2.4,0-10.3,0-10.3
		s-0.5-2.7-3.2-2.9C31.8,30.7,22.9,30.7,22.9,30.7z"/>
	<path class="st18" d="M21.8,57.5l23.7-0.2c0,0,1.4-0.3,1.2-1.9c-0.2-1.5-0.5-9-10-9.5L30,46.2c0,0-8.5,0.3-9.7,8.8
		C20.3,56.5,20.7,57.4,21.8,57.5z"/>
</g>
<g id="icon_72" class="st0">
	<g class="st1">
		<g>
			<g>
				<g>
					<defs>
						<path id="SVGID_24_" d="M7,19.3l0.5,17.4c0,0,1.2,9.5,9.3,16.2s9,5.8,9.5,5.8s4.9,0,11.4-7.6s8.4-12.7,8.4-16.5
							s0.7-15.5,0.7-15.5s2.1-2.6,2.6-3.7s3-7.2-3.5-11.3S17.6,1.3,15.5,1.5S7,1.3,4.2,8.9c-1.2,3.3-0.4,5.8,1.1,7.7
							C6.5,18.8,7,19.3,7,19.3z"/>
					</defs>
					<clipPath id="SVGID_25_">
						<use xlink:href="#SVGID_24_"  style="overflow:visible;"/>
					</clipPath>
					<path class="st70" d="M7,18.9l0.5,17.4c0,0,1.2,9.5,9.3,16.2s9,5.8,9.5,5.8s4.9,0,11.4-7.6s8.4-12.7,8.4-16.5
						s0.7-15.5,0.7-15.5s2.1-2.6,2.6-3.7c0.4-1.1,3-7.2-3.5-11.3S17.6,1,15.5,1.2S7,1,4.2,8.6c-1.2,3.3-0.4,5.8,1.1,7.7
						C6.5,18.2,7,18.9,7,18.9z"/>
				</g>
			</g>
		</g>
		<g>
			<g>
				<g>
					<defs>
						<path id="SVGID_27_" d="M7,19.3l0.5,17.4c0,0,1.2,9.5,9.3,16.2s9,5.8,9.5,5.8s4.9,0,11.4-7.6s8.4-12.7,8.4-16.5
							s0.7-15.5,0.7-15.5s2.1-2.6,2.6-3.7s3-7.2-3.5-11.3S17.6,1.3,15.5,1.5S7,1.3,4.2,8.9c-1.2,3.3-0.4,5.8,1.1,7.7
							C6.5,18.8,7,19.3,7,19.3z"/>
					</defs>
					<clipPath id="SVGID_28_">
						<use xlink:href="#SVGID_27_"  style="overflow:visible;"/>
					</clipPath>
					<path class="st71" d="M6.7,20.5c0,0,10.7-6.5,19.7-6.2c9.7,0.4,16,3,20.4,6.3"/>
				</g>
			</g>
		</g>
	</g>
	<path class="st18" d="M5.4,22.3L5.3,34.4c0,0-3.5,0-3.7-4s0-5.8,0-5.8S2.3,21.9,5.4,22.3z"/>
	<path class="st18" d="M48.4,22.4l0.2,12.1c0,0,3.5,0,3.7-4s0-5.8,0-5.8S51.5,22.1,48.4,22.4z"/>
	<line class="st72" x1="14.9" y1="22.1" x2="20.4" y2="22.1"/>
	<line class="st72" x1="33.1" y1="22.1" x2="38.3" y2="22.1"/>
	<polyline class="st72" points="24.8,31.9 25,40.6 29,40.4 	"/>
	<line class="st72" x1="23.2" y1="46.5" x2="29.9" y2="46.5"/>
	<line class="st72" x1="26.5" y1="50.2" x2="26.5" y2="55"/>
	<polyline class="st72" points="23.6,52.9 26.5,55.7 29.4,53.4 	"/>
	<path class="st72" d="M13.4,26.7c0,0,0.9,3.7,4.2,3.9c3.3,0,4.4-3.7,4.4-3.7"/>
	<path class="st72" d="M31.6,26.7c0,0,0.9,3.7,4.2,3.9c3.3,0,4.4-3.7,4.4-3.7"/>
	<path class="st72" d="M21.1,39.5c0,0-0.5,4.2-5.5,4.7"/>
	<polyline class="st72" points="16.2,41.3 15.3,44.3 17.6,46.4 	"/>
	<path class="st72" d="M20.6,33.7c0,0-3.3,5.6-9.8,2.6"/>
	<polyline class="st72" points="12.1,34.2 10.4,36 11.1,39.2 	"/>
	<path class="st72" d="M32.5,39.2c0,0,0.5,4.2,5.5,4.7"/>
	<polyline class="st72" points="37.4,40.9 38.2,43.9 36,46.2 	"/>
	<path class="st72" d="M32.9,33.5c0,0,3.3,5.6,9.8,2.6"/>
	<polyline class="st72" points="41.3,34.1 43.1,36 42.4,39.2 	"/>
	<line class="st72" x1="44.7" y1="12.2" x2="42" y2="17.2"/>
	<line class="st72" x1="35.7" y1="9.4" x2="34.1" y2="14.5"/>
	<line class="st72" x1="26.5" y1="8.6" x2="26.5" y2="13.8"/>
	<line class="st72" x1="17.8" y1="9.4" x2="19.3" y2="14.7"/>
	<line class="st72" x1="8.6" y1="12.8" x2="11.1" y2="17.3"/>
</g>
<g id="icon_73" class="st0">
	<path class="st18" d="M27,1.3l25.6,7.4c0,0,2.6,0,2.4,3.4c-0.2,3.4-0.8,34.5-28,46.9c0,0-27-10.4-28.2-47.3c0,0-0.2-2.2,2.6-3
		C4.3,7.7,27,1.3,27,1.3z"/>
	<path class="st24" d="M29.2,42h-3.8c-1.6,0-2.8-1.2-2.8-2.8V19.1c0-1.6,1.2-2.8,2.8-2.8h3.8c1.6,0,2.8,1.2,2.8,2.8v20.2
		C31.8,40.8,30.6,42,29.2,42z"/>
	<path class="st24" d="M40.2,27v3.8c0,1.6-1.2,2.8-2.8,2.8H17.3c-1.6,0-2.8-1.2-2.8-2.8V27c0-1.6,1.2-2.8,2.8-2.8h20.2
		C39,24.2,40.2,25.4,40.2,27z"/>
</g>
<g id="icon_74" class="st0">
	<path class="st18" d="M26,1.6c0,0,9.7-1.6,15.5,2.4c5.7,3.7,9.6,7.8,10.4,13.7c0.9,5.9-0.3,13.2-3.1,17.7c-2.8,4.5-4.5,7.3-4.9,8
		c-0.2,0.7-1.6,4.3-0.5,9.2c0.9,4.9,1.6,5.6,1.6,5.6l-26.8,0.5v-5.6c0,0-8.3,0.2-10.4-1.6c-2.1-1.7-2.1-3.5-1.6-4.7
		c0.3-1,0-1.4,0-1.6c0,0-1-0.5-1-1.7c0-0.7,0.7-0.9,0.7-0.9s-0.2-0.3-0.3-0.3c-0.2-0.2-1-0.3-1-1.4c0-0.9,0.5-4.9,0.5-4.9
		s-3-0.3-3.3-2.3c-0.2-1.9,1.4-4.2,2.1-5c0.7-0.9,4-4.7,4-4.7s-1-9.4,2.1-13.6S15.9,2.8,26,1.6z"/>
	<path class="st72" d="M30.5,22.1c-0.5,0.2,0,4.9,4.5,3c2.8-1.2,3.5-6.4-0.3-8.3c-3.3-1.7-7.7-2.1-9.7,2.4
		c-2.3,4.7,0.3,8.9,2.8,10.4s10.4,3.5,13.9-3c3.5-6.6,1.7-13.2-3-15.3c-2.3-1-15-7-20,8.7"/>
</g>
<g id="icon_75" class="st0">
	<circle class="st18" cx="28" cy="20.1" r="18.1"/>
	<polygon class="st18" points="10.8,15.9 3.4,19.9 13.1,25.8 	"/>
	<path class="st18" d="M0.9,57.8L52.7,58c0,0,3,0.2,2.3-4c-0.8-4.4-3.2-12.4-15.8-12.6c-12.6,0-26.3,0-26.3,0S0.1,41.6-0.8,55.3
		C-0.6,57-0.4,57.8,0.9,57.8z"/>
	<rect x="19.4" y="18.4" class="st24" width="3.4" height="3.6"/>
	<rect x="25.7" y="18.4" class="st24" width="3.4" height="3.6"/>
	<rect x="32.1" y="18.4" class="st24" width="3.4" height="3.6"/>
</g>
<g id="icon_77" class="st0">
	<path class="st18" d="M29.3,26.3H25V4.8c0-1.3,0.9-2.2,2.2-2.2l0,0c1.3,0,2.2,0.9,2.2,2.2C29.3,4.8,29.3,26.3,29.3,26.3z"/>
	<path class="st18" d="M23.4,28.9c0,0,2.2-1.4,3.1-1.4c1.1,0,2-0.2,4.7,1.4l0.5-2.5l-2.9-1.1l-3.3-0.2c0,0-2.2,1.1-2.7,1.3
		c-0.4,0.4-0.2,2.2-0.2,2.2L23.4,28.9z"/>
	<path class="st18" d="M35.5,10.1c0,0,5.8-2.2,12.6,7.4c6,8.5,9,17.2,6.5,31.4c-1.3,6.5-1.4,9-4.7,8.3c-3.3-0.7-13.4-4.9-14.3-5.4
		s-5.1-2.5-4.7-9.2s0-24.4,0-24.4S31.5,10.6,35.5,10.1z"/>
	<line class="st32" x1="34.6" y1="29" x2="48.7" y2="36.4"/>
	<line class="st32" x1="38.7" y1="30.5" x2="44.9" y2="26"/>
	<line class="st32" x1="41.1" y1="25.4" x2="41.6" y2="28"/>
	<line class="st32" x1="47.2" y1="35.4" x2="49.6" y2="33"/>
	<polyline class="st32" points="42.9,34.3 43.1,39.3 45.9,42.2 	"/>
	<line class="st32" x1="40.3" y1="41.9" x2="43.1" y2="39.3"/>
	<path class="st18" d="M18.9,10.1c0,0-5.8-2.2-12.6,7.4c-6,8.5-9,17.2-6.5,31.4c1.3,6.5,1.4,9,4.7,8.3s13.4-4.9,14.3-5.4
		c0.9-0.7,5.1-2.5,4.7-9.2c-0.4-6.7,0-24.4,0-24.4S22.8,10.8,18.9,10.1z"/>
	<line class="st32" x1="19.8" y1="29.2" x2="5.7" y2="36.6"/>
	<line class="st32" x1="15.6" y1="30.5" x2="9.5" y2="26.1"/>
	<line class="st32" x1="13.3" y1="25.6" x2="12.7" y2="28.1"/>
	<line class="st32" x1="7.1" y1="35.4" x2="4.8" y2="33.2"/>
	<polyline class="st32" points="11.5,34.5 11.3,39.3 8.4,42.4 	"/>
	<line class="st32" x1="14" y1="42" x2="11.3" y2="39.3"/>
</g>
<g id="icon_78" class="st0">
	<path class="st18" d="M15.5,1.4L39,1.2c0,0,3.5,17-11.3,17C14.7,18.2,15.5,10.1,15.5,1.4z"/>
	<polygon class="st18" points="18.6,42.3 36,42.3 38.8,56 42.3,56 42.3,59 12,59 12,55.5 15.9,55.5 	"/>
	<rect x="19" y="32.1" class="st18" width="16.8" height="6.5"/>
	<path class="st18" d="M21.4,20.6c0,0-3,0.9-2.6,7.6l-3.3,0.4l0.2,7.4c0,0-1.7-1.1-2.8-4.4l-3.3,1.1c0,0,2.6,5.7,3.9,6.9l1.9-1.5
		L14,48c0,0-12-6.3-12.2-23.1C1.6,14.9,12,6.8,12,6.8s0.4,5.7,3,8.1c0,0-2.8-0.6-5.2,6.1l3.1,1.5c0,0,0.9-4.3,3.3-5.7
		C15.9,16.8,18.6,19.9,21.4,20.6z"/>
	<path class="st18" d="M33.1,20.6c0,0,3,0.9,2.6,7.6l3.3,0.4L38.8,36c0,0,1.7-1.1,2.8-4.4l3.3,1.1c0,0-2.6,5.7-3.9,6.9L39.2,38
		l1.5,10c0,0,12-6.3,12.2-23.1c0.2-10-10.2-18.1-10.2-18.1s-0.4,5.7-3,8.1c0,0,2.8-0.6,5.2,6.1l-3.1,1.5c0,0-0.9-4.3-3.3-5.7
		C38.4,16.8,35.9,19.9,33.1,20.6z"/>
</g>
<g id="icon_86" class="st0">
	<path class="st18" d="M2.3,54.3H0.5c-0.9,0-1.6-0.7-1.6-1.6V23c0-0.9,0.7-1.6,1.6-1.6h1.8c0.9,0,1.6,0.7,1.6,1.6v29.7
		C3.9,53.6,3.2,54.3,2.3,54.3z"/>
	<rect x="2.9" y="40.6" class="st18" width="52" height="5"/>
	<path class="st18" d="M53.1,54.3h-1.2c-1.1,0-1.8-0.9-1.8-1.8v-6.8c0-1.1,0.9-1.8,1.8-1.8h1.2c1.1,0,1.8,0.9,1.8,1.8v6.8
		C54.8,53.4,54,54.3,53.1,54.3z"/>
	<circle class="st18" cx="18" cy="20.8" r="5"/>
	<circle class="st18" cx="11.9" cy="32.4" r="5"/>
	<path class="st18" d="M17.3,41.1l8-16.2c0,0,1.1-2.7,4.3-1.4c3.2,1.2,19.6,7.7,19.6,7.7s5.3,2.1,5.5,6.8V44L17.3,41.1z"/>
	<path class="st17" d="M46.7,17.4c0,0,1.1-1.6,2.8-1.1c2,0.5,2.1,2.1,2.1,2.1s0.7,4.1-5,7.1c0,0-5.9-2.1-5.5-6.6
		c0.2-1.8,1.6-2.7,2.3-2.7C44.5,16.2,45.8,16.4,46.7,17.4z"/>
	<path class="st17" d="M43.3,6.8c0,0,0.7-1.2,2.1-0.7C46.8,6.4,47,7.6,47,7.6s0.5,3-3.7,5.3c0,0-4.5-1.6-4.1-5c0.2-1.4,1.1-2,1.8-2
		C41.7,5.9,42.6,5.9,43.3,6.8z"/>
	<path class="st17" d="M34.2,13.5c0,0,0.7-1.2,2.1-0.7c1.4,0.4,1.6,1.6,1.6,1.6s0.5,3-3.7,5.3c0,0-4.5-1.6-4.1-5
		c0.2-1.4,1.1-2,1.8-2C32.6,12.6,33.5,12.6,34.2,13.5z"/>
</g>
<g id="icon_88" class="st0">
	<path class="st18" d="M15.9,57.3L15.9,57.3c-7.6,0-14-6.4-14-14V16.8c0-7.6,6.4-14,14-14l0,0c7.6,0,14,6.4,14,14v26.5
		C29.9,51.1,23.5,57.3,15.9,57.3z"/>
	<rect x="1.9" y="28.9" class="st24" width="28" height="3.4"/>
	<polyline class="st73" points="36,24 43,24 36.9,30.6 43.9,30.6 	"/>
	<polyline class="st73" points="44.3,10.9 51.1,10.9 44.9,17.4 51.9,17.4 	"/>
</g>
<g id="icon_89" class="st0">
	<path class="st18" d="M5.4,11.1l5.1-4.2C11.5,6,13.1,6.2,14,7.2l10.9,12.8c0.9,1.1,0.7,2.6-0.4,3.5l-5.1,4.2
		c-1.1,0.9-2.6,0.7-3.5-0.4L5,14.6C4.1,13.4,4.3,12,5.4,11.1z"/>
	<path class="st18" d="M5,1.9L5,1.9c0.7-0.5,1.8-0.5,2.3,0.2l4,4.8c0.5,0.7,0.5,1.8-0.2,2.3l0,0C10.5,9.7,9.4,9.7,8.9,9l-4-4.8
		C4.3,3.7,4.3,2.6,5,1.9z"/>
	<path class="st18" d="M1.5,4.9L1.5,4.9c0.7-0.5,1.8-0.5,2.3,0.2l4,4.8c0.5,0.7,0.5,1.8-0.2,2.3l0,0c-0.7,0.5-1.8,0.5-2.3-0.2
		l-4-4.8C0.8,6.7,0.8,5.6,1.5,4.9z"/>
	<path class="st18" d="M37.2,27.8c0,0-0.7,4-6,8.4s-8.4,5.6-11.4,4.4c-3-1.4-4.4-2.3-5.3-3.7c-0.9-1.4-1.9-3.2-2.1-4
		c-0.2-0.7-0.4-1.9,2.1-4c2.5-2.1,5.3-4.4,5.3-4.4l7.9-6.9c0,0,1.4-1.1,3.9,0.5c2.5,1.6,3,1.9,3.5,2.8c0.7,1.6,2.1,4.4,2.1,4.4
		S37.4,26.8,37.2,27.8z"/>
	<path class="st50" d="M41.4,31.2c0,0-1.2,15.5-18,14.8"/>
	<path class="st50" d="M48.1,32.2c0,0-3,21.3-24.8,20.2"/>
	<path class="st50" d="M53.7,32c0,0-1.6,26-31.2,26.6"/>
</g>
<g id="icon_90" class="st0">
	<circle class="st18" cx="10.4" cy="33.4" r="6.1"/>
	<path class="st18" d="M1.2,57.7h18.6c0,0,1.7,0.4,1.7-3.1c0.2-3.3,0.2-5.9,0.2-5.9s-0.7-6.3-9.2-6.3c-3.5,0-6.8,0.2-6.8,0.2
		s-6.3,0.4-6.3,7s0,7.2,0,7.2S-0.5,57.7,1.2,57.7z"/>
	<circle class="st18" cx="44.1" cy="33.4" r="6.1"/>
	<path class="st18" d="M34.9,57.7h18.6c0,0,1.7,0.4,1.7-3.1c0.2-3.3,0.2-5.9,0.2-5.9s-0.7-6.3-9.2-6.3c-3.5,0-6.8,0.2-6.8,0.2
		s-6.3,0.4-6.3,7s0,7.2,0,7.2S33.2,57.7,34.9,57.7z"/>
	<ellipse class="st18" cx="27.2" cy="12.4" rx="14.2" ry="10"/>
	<path class="st18" d="M15.5,17.9L14.1,22c0,0-0.6,2.2,0.2,2.4c0.9,0.2,1.8-0.2,2.9-1.1c1.1-0.9,3.7-2.6,3.7-2.6L15.5,17.9z"/>
	<path class="st18" d="M33.4,20.9l4.8,3.1c0,0,0.9,0.7,1.8,0.4c0.9-0.4,0.2-2.2,0.2-2.6c0-0.4-1.5-4.4-1.5-4.4L33.4,20.9z"/>
	<path class="st24" d="M31,9.8h-8.1c-0.6,0-0.9-0.4-0.9-0.9l0,0C22,8.3,22.4,8,22.9,8H31c0.6,0,0.9,0.4,0.9,0.9l0,0
		C31.9,9.4,31.6,9.8,31,9.8z"/>
	<path class="st24" d="M32.3,13.3H21.6c-0.6,0-0.9-0.4-0.9-0.9l0,0c0-0.6,0.4-0.9,0.9-0.9h10.7c0.6,0,0.9,0.4,0.9,0.9l0,0
		C33.2,12.9,32.9,13.3,32.3,13.3z"/>
	<path class="st24" d="M31,16.4h-8.1c-0.6,0-0.9-0.4-0.9-0.9l0,0c0-0.6,0.4-0.9,0.9-0.9H31c0.6,0,0.9,0.4,0.9,0.9l0,0
		C31.9,16.1,31.6,16.4,31,16.4z"/>
</g>
<g id="icon_91" class="st0">
	<path class="st18" d="M13.2,58.5l10.7-0.2c0,0,1.8-3,5.4-2.8c1.8,0,2.4-0.2,2.6-1.8c0-1.8,0.2-3.4,0.2-3.4s-0.2-0.8-2.2-1
		c-2.2-0.2-2.8-1.4-3-1.8L13.4,44c0,0-1.6,1.8-3.8,1.6c-2.2-0.2-3.2-0.8-3.4,1.2c-0.2,2-0.6,4.6-0.6,4.6s-0.8,2,2.6,2.6
		c3.4,0.6,3.8,1.6,3.6,2.8S12.4,58.5,13.2,58.5z"/>
	<path class="st18" d="M14,41l13.7,3c0,0,1.2-0.8,2.4-0.4c1.2,0.4,3.8,0.6,4-0.4s0.8-3.8,0.8-3.8s-0.2-1.4-1.4-1.6
		c-1.2-0.2-2.6-0.6-3-2.4l-13.1-6c0,0-1,1.6-2.8,1c-1.6-0.6-4-1.6-4.6,0.4c-0.6,1.8-1.4,4.8-1.4,4.8s-0.2,2.2,1.8,2.2
		C12,37.8,13.8,39,14,41z"/>
	<path class="st18" d="M18.7,26.5l12.5,5.4c0,0,1.4,0,2.2,0.2c0.8,0,2.4,1,2.8,1.2s1.8-0.2,2.4-1.2c0.6-1,1.6-2.4,1.6-2.4
		s0.4-1.2-0.8-2.2c-1.2-1-2.4-1.2-3-3.4S25.7,16,25.7,16s-2.2,1.2-4,0.2c-1.8-1-2.4-2.2-3.6-0.6c-1.2,1.6-3.2,4.4-3.2,4.4
		s-0.8,1.8,0.8,2.8C17.3,23.7,19.1,24.1,18.7,26.5z"/>
	<path class="st18" d="M27.3,13l10.9,8.1c0,0,2.4,0.2,3.6,1.4c1.2,1.2,2.2,1.4,3.4,0.4c1.2-1,3-3.2,3-3.2s0.6-1.2-0.6-2.6
		c-1.2-1.4-3-2.4-1.8-5c0.4-0.8,0-1.2-0.4-1.4s-6.8-6.2-6.8-6.2s-1.2-1.2-3.2-0.4S31.3,2,31.3,2s-1-0.8-2.2,0.2c-1.2,1-4.2,4-4.2,4
		s-1,1.2,0.2,2.6c1.2,1.4,2.6,1.8,2.4,4C27.3,13,27.3,13,27.3,13z"/>
	<path class="st24" d="M21.7,52.7l-6.4-1c-1-0.2-1.8-1.2-1.6-2.2l0,0c0.2-1,1.2-1.8,2.2-1.6l6.4,1c1,0.2,1.8,1.2,1.6,2.2l0,0
		C23.9,52.1,22.9,52.9,21.7,52.7z"/>
	<path class="st24" d="M24.3,39.6l-6.2-1.8c-1-0.4-1.6-1.4-1.4-2.4l0,0c0.4-1,1.4-1.6,2.4-1.4l6.2,1.8c1,0.4,1.6,1.4,1.4,2.4l0,0
		C26.5,39.4,25.5,40,24.3,39.6z"/>
	<path class="st24" d="M37.2,16.7l-4.8-4.4c-0.8-0.8-0.8-2-0.2-2.8l0,0c0.8-0.8,2-0.8,2.8-0.2l4.8,4.4c0.8,0.8,0.8,2,0.2,2.8l0,0
		C39.2,17.5,38,17.5,37.2,16.7z"/>
	<path class="st24" d="M29.1,28.1l-5.6-3.2c-1-0.6-1.2-1.8-0.8-2.8l0,0c0.6-1,1.8-1.2,2.8-0.8l5.6,3.2c1,0.6,1.2,1.8,0.8,2.8l0,0
		C31.3,28.3,30.1,28.7,29.1,28.1z"/>
</g>
<g id="icon_92" class="st0">
	<ellipse class="st18" cx="26.9" cy="30.1" rx="28" ry="28.4"/>
	<path class="st24" d="M9,12.8c0,0,5.5-4.5,10.6-2.4s7.3,7.3,4.7,13s-10.4,5.3-11.8,4.7C10.9,27.3,1.3,22.4,9,12.8z"/>
	<path class="st24" d="M6.2,32.8c0,0,8.3-7.5,15.8,2.2c4.9,6.5-2,13.2-3.5,13.6c-2,0.4-9.3,2-13-5.1C2.5,38.8,4.8,33.8,6.2,32.8z"/>
	<path class="st24" d="M31.8,26.5c0,0,15.4-0.2,16.3,0c1.2,0.2,3.2,1.8,2,5.7c-1.2,3.9-6.3,8.9-11.2,8.3c-5.1-0.6-10-6.5-9.8-11
		C29.3,27.3,30.4,26.5,31.8,26.5z"/>
	<path class="st24" d="M31.8,25c0,0,15.4,0.2,16.3,0c1-0.2,3.2-1.8,2-5.7c-1-3.7-6.3-8.9-11.2-8.3c-5.1,0.6-10,6.5-9.8,11
		C29.5,24.2,30.6,25,31.8,25z"/>
	<circle class="st24" cx="24.5" cy="7.1" r="2.2"/>
	<circle class="st24" cx="3.3" cy="27.5" r="2.2"/>
	<circle class="st24" cx="32.4" cy="47.2" r="2.2"/>
	<circle class="st24" cx="43.8" cy="43.1" r="2"/>
	<circle class="st24" cx="26.5" cy="52.9" r="2.2"/>
	<circle class="st18" cx="15.9" cy="17.9" r="3"/>
	<circle class="st18" cx="13.9" cy="38.4" r="3"/>
	<path class="st20" d="M36,25.4c0,0-0.6-6.9,3.5-7.5S44,22,44,25.2s0.6,7.1-1.6,8.5c-2.6,1.8-6.5,0.6-6.5-3.7
		C36,25.8,36,25.4,36,25.4z"/>
</g>
<g id="icon_93" class="st0">
	<g class="st1">
		<g>
			<circle id="SVGID_26_" class="st8" cx="26.9" cy="30.1" r="27.8"/>
		</g>
		<g>
			<g>
				<defs>
					<circle id="SVGID_29_" cx="26.9" cy="30.1" r="27.8"/>
				</defs>
				<clipPath id="SVGID_30_">
					<use xlink:href="#SVGID_29_"  style="overflow:visible;"/>
				</clipPath>
				<line class="st74" x1="44.6" y1="8" x2="8.3" y2="51.6"/>
			</g>
		</g>
	</g>
	<path class="st75" d="M16.9,38.5l1.5,6.2h17l1.5-5.7c0,0,5.7-4.6,5.8-9.5c0-5.8-2.2-11.9-8.4-15.2c-6.8-3.7-14.6-1.6-18.6,2.6
		C12.8,19.5,7.4,29.7,16.9,38.5z"/>
	<rect x="17" y="25.2" class="st24" width="3.3" height="6.9"/>
	<rect x="32.9" y="25.2" class="st24" width="3.3" height="6.9"/>
	<rect x="25.1" y="31.9" class="st24" width="3.3" height="3.3"/>
	<rect x="22" y="40.3" class="st24" width="3.1" height="4.9"/>
	<rect x="28.4" y="40.3" class="st24" width="3.1" height="4.9"/>
</g>
<g id="icon_94" class="st0">
	<path class="st18" d="M8.1,2.1h37.1c0,0,3.4-0.2,3.4,3.4c0,4.6,1.2,12.4,1.6,13.8s1.6,12.5,1.6,19.4s3.2,9.7,3.4,14
		c0.2,4.2,1.2,5.7-1.8,5.7c-3,0-53.4,0-53.4,0s-2.5-0.2-1.4-5.8c1.2-5.7,3-8.1,3.5-15.4c0.4-3.9-0.2-14.1,1.4-18.7
		C5,13.6,5.4,5.6,5.4,4.7C5.6,3.7,5.6,2.1,8.1,2.1z"/>
	<path class="st76" d="M27.7,7.6h-1.8c-0.9,0-1.6-0.7-1.6-1.6l0,0c0-0.9,0.7-1.6,1.6-1.6h1.8c0.9,0,1.6,0.7,1.6,1.6l0,0
		C29.3,6.9,28.6,7.6,27.7,7.6z"/>
	<rect x="25.4" y="46.8" class="st76" width="3.4" height="11.3"/>
	<path class="st77" d="M33.7,33.2L31,36v7.6c0,0,0.2,3.9-3.5,3.9c-3.4,0-4.6-1.8-4.6-3.2c0-1.4,0-8.8,0-8.8l-2.5-2.3"/>
</g>
<g id="icon_95" class="st0">
	<path class="st18" d="M13.2,2.8l12.5-0.4c0,0,2.8-0.6,2.2,3.7c-0.6,4.3-3.4,29.3-3.5,30.8s0,7.1,4.5,8.6c4.5,1.5,16.4,6.7,15.1,9.3
		c-1.3,2.6-3.9,3.2-6.5,2.4c-2.8-0.6-13.1-4.1-21.5-1.5c-4.1,1.3-6.5-2.6-6.3-4.9c0.2-2.1,2.8-5.6,3.2-7.3c0.2-1.7,0.6-4.3-0.4-9
		C11.6,30.3,9,13.7,9.9,8.4C10.8,3.4,11,2.8,13.2,2.8z"/>
	<path class="st22" d="M20,9c0,0-5.2,4.7-4.5,14c0.7,9.3,3.9,9,3.7,18.3c-0.2,6.2-0.9,8.8-0.9,8.8"/>
	<path class="st22" d="M19.6,43.6c0,0,2.2,5.8,5,7.8"/>
	<path class="st22" d="M17.4,13.9c0,0,3.4,3.5,3.4,8s1.9,7.5,1.9,7.5"/>
	<path class="st22" d="M11.8,15.4c0,0,0.7,6.2,3.5,9"/>
	<path class="st78" d="M17.2,31c0,0-0.7,4.5-1.3,6.7"/>
	<path class="st79" d="M21.8,47.3c0,0,8.2,0.7,11.2,2.8"/>
	<path class="st78" d="M28.7,49.2c0,0-0.2,3.2,2.6,4.5"/>
	<path class="st78" d="M32.5,49.9c0,0,0.4,2.6,2.6,2.6"/>
</g>
<g id="icon_96" class="st0">
	<path class="st18" d="M7.9,2.2H45c0,0,3.6-0.4,2.5,3.3c-0.4,1-0.8,10.7,1.9,16.7c2.7,5.9,5.4,14.4,2.3,29.5
		c-1.1,5.7-1.5,6.1-4.6,6.3c-3.1,0-41.8,0-41.8,0s-2.3,0.6-3.1-3.1s-3.8-20.9,0-30.5C3.6,20.9,5,15,5.2,10.8C5.4,6.6,5,3.5,5,3.5
		S5.2,2.2,7.9,2.2z"/>
	<path class="st72" d="M22.2,32.4c0,0-0.8,19.3,4,19.3s4.4-19,4.4-19"/>
	<path class="st72" d="M38.3,39.9c0,0-2.1,5.7-7.9,5.2"/>
	<rect x="24.9" y="51" class="st24" width="2.7" height="6.9"/>
	<circle class="st17" cx="23" cy="45.1" r="3.3"/>
	<circle class="st17" cx="30.3" cy="39.5" r="4.4"/>
	<circle class="st80" cx="30.1" cy="39.7" r="2.3"/>
</g>
<g id="icon_97" class="st0">
	<path class="st18" d="M4.2,52.5L4.2,52.5c-6.3-6.3-6.1-16.3,0-22.6L27,7.3c6.3-6.3,16.3-6.1,22.6,0l0,0c6.3,6.3,6.1,16.3,0,22.6
		L26.9,52.5C20.6,58.8,10.3,58.6,4.2,52.5z"/>
	
		<rect x="24.2" y="13.9" transform="matrix(0.7098 -0.7044 0.7044 0.7098 -13.2492 27.5849)" class="st24" width="5.3" height="31.9"/>
	<path class="st81" d="M24.2,43.9c0,0,1,13.5,12.9,13.7c12,0.2,13.5-11,13.3-13.7c0,0,0.6-1.5-1.5-1.5c-1.9,0-6.5,1.3-8,3.4
		l-5.7,2.9l-2.1-3.8c0,0-3-2.3-7.4-2.5C25.9,42.2,24.2,41.8,24.2,43.9z"/>
	<path class="st40" d="M37.9,37.5c0,0,9.7,8.6,0.4,19.2c0,0-1,1-1.7,0.2s-8.7-9.9-0.4-19.2C36.2,37.7,36.9,36.5,37.9,37.5z"/>
</g>
<g id="icon_98" class="st0">
	<circle class="st18" cx="26.7" cy="8.7" r="6.8"/>
	<path class="st18" d="M11.7,48.9l10-3.9L9.9,40.8c0,0-3.1-0.9-4.1,1.7c-1.1,3,1.5,4.4,1.8,4.6C8.2,47.5,11.7,48.9,11.7,48.9z"/>
	<path class="st18" d="M32.8,56.1l7.7-3.1c0,0,1.5,3.3-0.6,4.4C38.1,58.7,36.1,58.3,32.8,56.1z"/>
	<path class="st18" d="M46.6,46.9L16.7,58c-1.7,0.6-3.5-0.2-4.2-1.8v-0.2c-0.6-1.7,0.2-3.5,1.8-4.2l29.9-11.1
		c1.7-0.6,3.5,0.2,4.2,1.8v0.2C49,44.5,48.2,46.4,46.6,46.9z"/>
	<path class="st18" d="M19.7,27.7l0.2,12.7l7.2,3l7-3V27.5l3.9,7.4c0,0,1.1,2.4,2.8,2.4c1.7,0,12.4-0.2,12.4-0.2s2.6-0.2,2.4-3.5
		c0-3.5-3.3-3.3-3.3-3.3l-8.7,0.2l-5.7-11.8c0,0-0.9-2.8-4.6-2.8s-12.9,0.2-12.9,0.2s-2.8,0-4.2,3.3c-1.3,3.3-5.2,10.7-5.2,10.7h-10
		c0,0-2.2,0-2.4,3.3s2.4,3.7,3.3,3.7c0.7,0,11.1-0.2,11.1-0.2s2.2,0,3.5-2.6C17.4,31.8,19.7,27.7,19.7,27.7z"/>
</g>
</svg>
