<?xml version="1.0" encoding="utf-8"?>
<!-- Generator: Adobe Illustrator 23.0.1, SVG Export Plug-In . SVG Version: 6.00 Build 0)  -->
<svg version="1.1" id="Layer_1" xmlns="http://www.w3.org/2000/svg" xmlns:xlink="http://www.w3.org/1999/xlink" x="0px" y="0px"
	 viewBox="0 0 40.6 60" style="enable-background:new 0 0 40.6 60;" xml:space="preserve">
<style type="text/css">
	.st0{display:none;}
	.st1{display:inline;}
	.st2{fill:#FDD7AD;stroke:#ED6D63;stroke-linecap:round;stroke-miterlimit:10;}
	.st3{fill:#FDB8AD;}
	.st4{fill:none;stroke:#ED6D63;stroke-miterlimit:10;}
	.st5{fill:none;stroke:#ED6D63;stroke-linecap:round;stroke-miterlimit:10;}
	.st6{fill:none;stroke:#1341A3;stroke-miterlimit:10;}
	.st7{fill:#EF5361;}
	.st8{fill:#1341A3;}
	.st9{fill:#E4E8F1;}
	.st10{fill:#FDD7AD;stroke:#ED6D63;stroke-miterlimit:10;}
	.st11{fill:none;stroke:#1341A3;stroke-width:1.5;stroke-miterlimit:10;}
	.st12{fill:#65B54E;}
	.st13{fill:#477F37;}
	.st14{display:inline;fill:#ED6D63;}
	.st15{display:inline;fill:#FFD3DD;}
	
		.st16{clip-path:url(#SVGID_4_);fill:none;stroke:#E4E8F1;stroke-width:2;stroke-linecap:round;stroke-linejoin:round;stroke-miterlimit:10;}
	.st17{display:inline;fill:#EF5361;}
	.st18{display:inline;fill:#1341A3;}
	.st19{display:inline;fill:none;stroke:#1341A3;stroke-width:2;stroke-linecap:round;stroke-miterlimit:10;}
	.st20{display:inline;fill:none;stroke:#1341A3;stroke-width:1.5;stroke-miterlimit:10;}
	.st21{clip-path:url(#SVGID_7_);fill:#EF5361;}
	.st22{display:inline;fill:none;stroke:#E4E8F1;stroke-linecap:round;stroke-miterlimit:10;}
	
		.st23{clip-path:url(#SVGID_9_);fill:none;stroke:#E4E8F1;stroke-width:2;stroke-linecap:round;stroke-linejoin:round;stroke-miterlimit:10;}
	.st24{display:inline;fill:#E4E8F1;}
	.st25{clip-path:url(#SVGID_13_);fill:#0F367C;}
	.st26{clip-path:url(#SVGID_15_);fill:#5CA547;}
	.st27{display:inline;fill:#FDD7AD;stroke:#ED6D63;stroke-linecap:round;stroke-linejoin:round;stroke-miterlimit:10;}
	.st28{display:inline;fill:none;stroke:#ED6D63;stroke-linecap:round;stroke-miterlimit:10;}
	.st29{display:inline;fill:#FDD7AD;stroke:#FF736C;stroke-linecap:round;stroke-linejoin:round;stroke-miterlimit:10;}
	.st30{display:inline;fill:none;stroke:#FF736C;stroke-linecap:round;stroke-linejoin:round;stroke-miterlimit:10;}
	.st31{display:inline;fill:none;stroke:#FF736C;stroke-linecap:round;stroke-miterlimit:10;}
	.st32{display:inline;fill:none;stroke:#E4E8F1;stroke-width:1.5;stroke-linecap:round;stroke-miterlimit:10;}
	.st33{display:inline;fill:none;stroke:#1341A3;stroke-width:1.7;stroke-miterlimit:10;}
	.st34{display:inline;fill:#89D7F4;}
	.st35{fill:#ED6D63;}
	.st36{clip-path:url(#SVGID_18_);fill:#FDD7AD;}
	.st37{display:inline;fill:#3A3A3A;}
	.st38{display:inline;fill:none;stroke:#1341A3;stroke-miterlimit:10;}
	.st39{display:inline;fill:#C1434E;}
	.st40{display:inline;fill:#65B54E;}
	.st41{display:inline;fill:none;stroke:#559842;stroke-width:0.5;stroke-linecap:round;stroke-miterlimit:10;}
	.st42{fill:none;stroke:#E4E8F1;stroke-linecap:round;stroke-miterlimit:10;stroke-dasharray:2.0138,2.0138;}
	.st43{fill:#FDD7AD;stroke:#ED6D63;stroke-linecap:round;stroke-linejoin:round;stroke-miterlimit:10;}
	.st44{display:inline;fill:none;stroke:#EF5361;stroke-width:3;stroke-miterlimit:10;}
	.st45{display:inline;fill:none;stroke:#1341A3;stroke-width:3;stroke-miterlimit:10;}
	.st46{display:inline;fill:none;stroke:#E4E8F1;stroke-width:2;stroke-linecap:round;stroke-miterlimit:10;}
	.st47{display:inline;fill:none;stroke:#E4E8F1;stroke-width:1.2;stroke-miterlimit:10;}
	.st48{display:inline;fill:none;stroke:#E4E8F1;stroke-width:1.2;stroke-linecap:round;stroke-miterlimit:10;}
	.st49{display:inline;fill:#1341A3;stroke:#E4E8F1;stroke-width:2;stroke-miterlimit:10;}
	.st50{display:inline;fill:none;stroke:#1341A3;stroke-width:2.5;stroke-linecap:round;stroke-miterlimit:10;}
	.st51{fill:#FF9289;stroke:#ED6D63;stroke-width:1.2;stroke-miterlimit:10;}
	.st52{fill:none;stroke:#ED6D63;stroke-width:1.2;stroke-linecap:round;stroke-miterlimit:10;}
	.st53{fill:#FF9289;stroke:#ED6D63;stroke-miterlimit:10;}
	.st54{display:inline;fill:#FF9289;stroke:#ED6D63;stroke-width:2;stroke-miterlimit:10;}
	.st55{display:inline;fill:none;stroke:#ED6D63;stroke-width:2;stroke-linecap:round;stroke-miterlimit:10;}
	.st56{display:inline;fill:none;stroke:#E4E8F1;stroke-width:2;stroke-miterlimit:10;}
	.st57{display:inline;fill:none;stroke:#E4E8F1;stroke-width:2;stroke-linejoin:round;stroke-miterlimit:10;}
	.st58{display:inline;fill:none;stroke:#1341A3;stroke-width:2;stroke-miterlimit:10;}
	.st59{font-family:'Montserrat-Bold';}
	.st60{font-size:8.4097px;}
	.st61{font-size:6.761px;}
	.st62{font-size:5.5917px;}
	.st63{font-size:4.6914px;}
	.st64{display:inline;fill:none;stroke:#1341A3;stroke-width:1.5;stroke-linecap:round;stroke-miterlimit:10;}
	.st65{display:inline;clip-path:url(#SVGID_21_);fill:#EF5361;}
	.st66{display:inline;fill:none;stroke:#E4E8F1;stroke-width:2;stroke-linecap:round;stroke-linejoin:round;stroke-miterlimit:10;}
	.st67{clip-path:url(#SVGID_23_);fill:none;stroke:#E4E8F1;stroke-width:1.5;stroke-linecap:round;stroke-miterlimit:10;}
	
		.st68{display:inline;fill:none;stroke:#1341A3;stroke-width:1.5;stroke-linecap:round;stroke-linejoin:round;stroke-miterlimit:10;}
	.st69{display:inline;fill:none;stroke:#1341A3;stroke-width:4;stroke-miterlimit:10;}
	.st70{display:inline;fill:#1341A3;stroke:#89D7F4;stroke-width:2;stroke-miterlimit:10;}
	.st71{fill:#89D7F4;}
	.st72{clip-path:url(#SVGID_25_);fill:#1341A3;}
	.st73{clip-path:url(#SVGID_28_);fill:none;stroke:#E4E8F1;stroke-linecap:round;stroke-miterlimit:10;}
	
		.st74{display:inline;fill:none;stroke:#1341A3;stroke-width:2.5;stroke-linecap:round;stroke-linejoin:round;stroke-miterlimit:10;}
	.st75{clip-path:url(#SVGID_30_);fill:none;stroke:#E4E8F1;stroke-width:3;stroke-miterlimit:10;}
	.st76{display:inline;fill:#1341A3;stroke:#E4E8F1;stroke-width:2.5;stroke-miterlimit:10;}
	.st77{display:inline;fill:#E6EAF2;}
	.st78{display:inline;fill:none;stroke:#E6EAF2;stroke-width:1.5;stroke-linecap:round;stroke-miterlimit:10;}
	.st79{display:inline;fill:none;stroke:#E4E8F1;stroke-width:0.5;stroke-linecap:round;stroke-miterlimit:10;}
	.st80{display:inline;fill:none;stroke:#E4E8F1;stroke-width:0.8;stroke-linecap:round;stroke-miterlimit:10;}
	.st81{display:inline;fill:#D84B58;}
	.st82{display:inline;fill:#579B43;}
</style>
<g id="icon_1" class="st0">
	<g class="st1">
		<path class="st2" d="M12,23.3c0.4,0.1,0.8-0.2,0.8-0.6v-7.1c0,0,0-2.7,3.4-2.1c0.3,0.1,0.6-0.1,0.7-0.4c0.2-0.6,0.9-1.5,2.9-1.5
			c1.2,0,1.7,0.7,1.9,1.3c0.1,0.3,0.5,0.5,0.8,0.4c0.7-0.2,1.7-0.4,2.3,0.3c0.8,0.8,0.9,1.5,1,2.3c0,0.4,0.3,0.6,0.7,0.6
			c1.2-0.1,3.3-0.1,3.3,2.1v14c0,0,0,3.6-1.7,4.8c-0.2,0.1-0.3,0.3-0.3,0.6v10c0,0.4-0.3,0.7-0.7,0.7H16.4c-0.4,0-0.6-0.3-0.6-0.7
			v-9.8c0-0.3-0.2-0.5-0.5-0.6c-0.8-0.3-2.9-1.7-6.5-9l0,0c-0.1-0.1-2-4,0-5C10,23,11.1,23.1,12,23.3z"/>
		<path class="st3" d="M29.3,32.1c0,0-1,0-1-1c0-1,0-3-3-3s-3,2-3,2s0,1-1,2c-1,1-2,3-1,4s4,1,5,2s2,1,2,1v-1l0,0c1.3-1.3,2-3,2-4.8
			v-0.2V32.1z"/>
		<path class="st4" d="M21.8,13.6"/>
		<line class="st5" x1="21.8" y1="25.6" x2="21.8" y2="13.6"/>
		<line class="st5" x1="25.8" y1="26.6" x2="25.8" y2="16.6"/>
		<line class="st5" x1="16.8" y1="25.6" x2="16.8" y2="13.6"/>
		<line class="st5" x1="12.8" y1="28.6" x2="12.8" y2="16.6"/>
		<circle class="st3" cx="15.3" cy="31.1" r="0.5"/>
		<circle class="st3" cx="15.8" cy="29.6" r="0.5"/>
		<circle class="st3" cx="20.8" cy="28.6" r="0.5"/>
		<circle class="st3" cx="20.3" cy="31.1" r="1"/>
		<circle class="st3" cx="15.8" cy="34.6" r="1.5"/>
		<circle class="st3" cx="18.8" cy="34.6" r="0.5"/>
		<circle class="st3" cx="18.8" cy="37.6" r="0.5"/>
		<circle class="st3" cx="18.8" cy="40.6" r="0.5"/>
		<circle class="st3" cx="21.8" cy="41.6" r="0.5"/>
		<circle class="st3" cx="25.3" cy="40.1" r="1"/>
		<circle class="st3" cx="18.3" cy="44.1" r="2"/>
		<circle class="st3" cx="24.8" cy="45.6" r="0.5"/>
	</g>
</g>
<g id="icon_2" class="st0">
	<g class="st1">
		<path class="st6" d="M27.8,22.1c0,0-4.3,0.5-4.6,3.5s-0.3,7.2-0.3,7.2L20.7,33l0.3-6.7l0,0c0-0.2-0.2-3.7,2.8-5.6
			c1.7-1.1,4.4-1.1,4.4-1.1"/>
		<path class="st6" d="M12.4,19.6c0,0,3.6,0.9,5.3,2.9c1.3,1.5,1.2,3.5,1.2,5.8c0,1.6,0,3,0,4.7H17v-6.3c0,0,0.2-2.3-2.2-3.7
			c-0.8-0.5-2.3-1-4.2-0.9"/>
		<path class="st7" d="M28.8,15.1c0,0,2.5-1,4.2,0.6c1.3,1.2,2.5,2.9,2.5,7.1s-3,5.4-3.6,5.7c-0.2,0.1-3.8,1.1-4.9-2.3
			c-0.5-1.5,0.2-4.6,0.2-4.6s0.1-0.9-0.3-2.1C26.3,18.2,26.7,16,28.8,15.1z"/>
		<path class="st7" d="M16.5,31.8h7c0,0,2.7,0.3,2.6,3.4s-1.8,4.1-1.8,4.1s-1.8,1.4-2,3.3C22,44.4,22,45.5,22,45.5h-4
			c0,0,0-2.3-0.1-2.9s-1-2.6-1.8-3.5c-0.4-0.4-2.1-2-1.9-4.5C14.4,32.9,16.5,31.8,16.5,31.8z"/>
		<path class="st7" d="M11.4,15.1c0,0-2.5-1-4.2,0.6c-1.4,1.2-2.5,2.9-2.5,7.1s3,5.4,3.6,5.7c0.1,0.1,3.8,1.1,4.9-2.3
			c0.5-1.5-0.1-4.6-0.1-4.6s-0.1-0.9,0.4-2.1C13.9,18.2,13.5,16,11.4,15.1z"/>
	</g>
</g>
<g id="icon_3" class="st0">
	<g class="st1">
		
			<rect x="9.9" y="24.5" transform="matrix(0.6787 -0.7344 0.7344 0.6787 -14.0189 25.0404)" class="st8" width="23.5" height="8.1"/>
		<rect x="11.4" y="36.2" transform="matrix(0.6787 -0.7344 0.7344 0.6787 -23.8807 21.6)" class="st8" width="2.6" height="3.8"/>
		<path class="st8" d="M12.4,38.6L12.4,38.6c0.2,0.2,0.2,0.4,0,0.6L6.1,46c-0.1,0.2-0.4,0.2-0.6,0l0,0c-0.2-0.2-0.2-0.4,0-0.6
			l6.3-6.8C11.9,38.4,12.1,38.4,12.4,38.6z"/>
		<path class="st8" d="M33.8,23.7l-8.4-7.8c-0.3-0.2-0.3-0.6,0-0.9l0,0c0.2-0.3,0.7-0.3,0.9,0l8.4,7.7c0.3,0.2,0.3,0.6,0,0.9l0,0
			C34.5,23.9,34,23.9,33.8,23.7z"/>
		<path class="st8" d="M35.3,19.5l-5.8-5.4c-0.3-0.3-0.3-0.7,0-1l0,0c0.3-0.3,0.7-0.3,1,0l5.9,5.4c0.3,0.3,0.3,0.7,0,1l0,0
			C36,19.8,35.5,19.8,35.3,19.5z"/>
		
			<rect x="30.7" y="15.6" transform="matrix(0.6787 -0.7344 0.7344 0.6787 -2.4475 28.9803)" class="st8" width="2.3" height="3.4"/>
		<path class="st9" d="M25.7,21.8l-1.8-1.7l0.7-0.7l1.8,1.7c0.2,0.2,0.2,0.5,0,0.7l0,0C26.2,22,25.8,22,25.7,21.8z"/>
		<path class="st9" d="M23.5,24.2l-1.9-1.7l0.6-0.7l1.8,1.7c0.2,0.2,0.2,0.5,0,0.7l0,0C24,24.4,23.7,24.4,23.5,24.2z"/>
		<path class="st9" d="M21.3,26.6l-1.9-1.7l0.6-0.7l1.9,1.7c0.2,0.2,0.2,0.5,0,0.7l0,0C21.8,26.8,21.5,26.8,21.3,26.6z"/>
		<path class="st9" d="M19,29l-1.9-1.7l0.6-0.7l1.9,1.7c0.2,0.2,0.2,0.5,0,0.7l0,0C19.5,29.2,19.3,29.2,19,29z"/>
		<path class="st9" d="M16.8,31.5l-1.9-1.7l0.6-0.7l1.9,1.7c0.2,0.2,0.2,0.5,0,0.7l0,0C17.3,31.6,17,31.6,16.8,31.5z"/>
		<path class="st9" d="M14.5,33.9l-1.9-1.7l0.6-0.7l1.9,1.7c0.2,0.2,0.2,0.5,0,0.7l0,0C15,34,14.8,34.1,14.5,33.9z"/>
	</g>
</g>
<g id="icon_4" class="st0">
	<g class="st1">
		<path class="st10" d="M15.4,14.5c0,0,1.3,0.1,2,0.1c1.1,0.1,7.9,0.8,8.3,8.5c0.4,7.2-3.3,9.4-4.4,10.9c-0.8,1-1.5,2-1,5
			c0.6,3.6-1.8,6.5-4.5,7s-8,0.3-8.8-5.5c-0.8-5.7-1.3-11.6-1.6-13.9C5,23.4,5.3,18.6,9,16.2C12,14.2,14.9,14.5,15.4,14.5z"/>
		<path class="st4" d="M18.5,29.1c0,0,4.9-7.4-0.9-9.5C13.2,18,11,20.2,10,22.7c-0.2,0.5-0.6,2-0.7,3.9c-0.2,2.5-0.1,5.9,1.3,8.6
			c2.5,4.9,5.1,2.1,5.1,2.1s2.4-2.9,0.6-7s-6.7-3.7-6.7-3.7"/>
		<line class="st11" x1="30.5" y1="22.4" x2="36.7" y2="19.1"/>
		<line class="st11" x1="32.5" y1="30.2" x2="40.5" y2="30.2"/>
		<line class="st11" x1="30.5" y1="37.3" x2="37.3" y2="41"/>
	</g>
</g>
<g id="icon_5" class="st0">
	<g class="st1">
		<path class="st8" d="M1.4,34.3L6.1,43l-1.9,1.2c0,0-0.9,0.7-1.4-0.3c-0.5-0.9-3.9-7-3.9-7s-0.5-0.6,0.3-1.2
			C0.1,35.2,1.4,34.3,1.4,34.3z"/>
		<path class="st8" d="M7.6,42.1l2.7-1.5l11.4,2.3c0,0,3.6,0.8,5.8,0s13-5.5,13-5.5s1.8-0.5,1.1-2.3c-0.7-1.7-2.5-1.1-2.5-1.1
			l-8.4,3.6c-0.1,0-0.2,0-0.2,0.1c-0.9,0.4-2.9,0.2-4.8,0c-2.1-0.1-7.2-0.4-7.2-0.4s-0.5,0-0.5-0.6c0.1-0.6,1.7-0.4,1.7-0.4l8.4,0.4
			c0,0,0.2,0,0.5-0.1c0.5-0.2,1.3-0.8,1.1-1.9c-0.2-1.6-1.2-2.1-2.7-2.1s-7.9-1.3-9.3-1.9c-1.3-0.5-3.6-1.7-5.9-1.4
			c-2.2,0.3-3.8,0.9-5.6,2c-1.9,1.1-3.4,2.1-3.4,2.1L7.6,42.1z"/>
		<path class="st8" d="M31.3,34.2v1.7l7.2-2.7c0,0-0.6-1-2.4-0.5C34.2,33.1,31.3,34.2,31.3,34.2z"/>
		<path class="st8" d="M30.8,33l4.5-1.3c0,0-0.7-0.6-2.9-0.2S29.8,32,29.8,32L30.8,33z"/>
		<path class="st12" d="M19.9,30.1c0,0,6.6,0.3,9.5-3.3S32.8,20,32.1,16c0,0-3.7-1.3-8.5,1c-2.4,1.2-6.1,3.9-5.8,11.4l3.8-2
			L19.9,30.1z"/>
		<path class="st12" d="M21.8,16.8c0,0-4.3,2.1-4.8,7.1c0,0-3-1.8-1.9-8.1C15,15.8,19.4,15.1,21.8,16.8z"/>
		<polygon class="st13" points="20.8,28.1 23.3,25.4 26.5,24.7 24,24.7 27.3,21 28.5,20.6 27.7,20.6 30,18.1 28.5,19.3 28.5,18.9 
			28.3,19.5 25.3,22.3 25,21 24.7,22.7 19.9,27.3 21.6,26.3 		"/>
	</g>
</g>
<g id="icon_6" class="st0">
	<path class="st14" d="M12.3,18.1c0,0,0.5,4.1,5.7,3.9c0,0,0.5-4.3,3.8-5.2c3.3-0.9,9,0.6,11.4,4.1c2.4,3.4,4.7,8.3-0.7,17.6
		c-4.1,7.2-15.8,8.8-18.1,5.3C13.9,43,14,42,14,42s-1.7,0.5-1.9,2.1c-0.2,1.5-0.6,1.6-0.9,1.6c-0.4,0-3.8,0-3.8,0s-0.8-0.4-0.6-1.5
		c0.2-1.2,1.4-6.9,6.8-7.3c3.1-0.3,3.9,0,4-3c0.1-2.6,0-6.4,0-6.4s-5.3,0.5-7.9-2.7s-2.9-7.1-2.9-7.1s0-1,0.9-1s3.7,0,3.7,0
		s0.6,0.1,0.7,1L12.3,18.1z"/>
	<path class="st15" d="M22.5,32.1c0,0,3.5,0.6,5.7-0.3c2.1-1,2.9-1.7,3.8-1.4c0.9,0.4,1.3,1.4,0.9,3.6c-0.4,2.2-3.9,7-8.8,8.9
		s-7.5,0.9-8.5-1.4c-0.4-0.9,0.1-2.1,2.3-3.2c2.2-1.1,1.9-2.8,1.8-3.8s-0.2-2.3,0.6-2.5C21,31.8,22.5,32.1,22.5,32.1z"/>
	<circle class="st14" cx="22.5" cy="35.4" r="0.9"/>
	<circle class="st14" cx="27.2" cy="36.3" r="0.4"/>
	<circle class="st14" cx="22.7" cy="38.5" r="0.4"/>
	<circle class="st14" cx="23.2" cy="41.2" r="0.3"/>
	<circle class="st14" cx="19.4" cy="40.9" r="0.5"/>
</g>
<g id="icon_7" class="st0">
	<g class="st1">
		<g>
			<g>
				<path id="SVGID_1_" class="st7" d="M20.9,18.9c0,0,4.1-3,8.2-2.8c4.1,0.2,7.4,2.1,8.7,5.5c1.4,3.4,0.7,8.1-4,14.2
					S20.9,48.9,20.9,48.9s-9.2-7.2-14.1-14.5S2.6,22.6,4.6,20.1s5.2-4.3,8.3-4C16,16.4,17.9,17,20.9,18.9z"/>
			</g>
			<g>
				<g>
					<g>
						<g>
							<g>
								<g>
									<g>
										<g>
											<defs>
												<path id="SVGID_2_" d="M20.9,18.9c0,0,4.1-3,8.2-2.8c4.1,0.2,7.4,2.1,8.7,5.5c1.4,3.4,0.7,8.1-4,14.2
													S20.9,48.9,20.9,48.9s-9.2-7.2-14.1-14.5S2.6,22.6,4.6,20.1s5.2-4.3,8.3-4C16,16.4,17.9,17,20.9,18.9z"/>
											</defs>
											<clipPath id="SVGID_4_">
												<use xlink:href="#SVGID_2_"  style="overflow:visible;"/>
											</clipPath>
											<polyline class="st16" points="5.3,33.4 11.6,33.4 14.3,31 18,36.3 23.2,27.1 27.7,33.5 36.3,33.4 											"/>
										</g>
									</g>
								</g>
							</g>
						</g>
					</g>
				</g>
			</g>
		</g>
	</g>
</g>
<g id="icon_8" class="st0">
	<path class="st17" d="M8.3,42v2.7c0,0-0.2,2.3,2.2,0.8c1.2-0.8,1.2-1.8,2.6-1.8s1-0.9,1.9-1.1c0.9-0.2,1-1.3,1-1.3s0.1-0.9,1.5-0.4
		c0.7,0.3,2-0.8,2.4-0.8c0.3-0.1,1.3-0.5,1.9,0c0.6,0.5,0,0.9,0.8,1.2c0.4,0.1,1.2-0.7,1.7-0.4s0.8,1.6,1.6,2.1s1.9,0.2,2.2,0.4
		s1.3,2.9,3.2,2.6c1.9-0.2,2-1.6,1.5-3.7c-0.5-2.1-8.6-8.5-8.6-8.5s-4-1.5-6.4,0.4C15.3,35.8,8.3,42,8.3,42z"/>
	<path class="st18" d="M27,17.7c0,0,5.5,3.8,6.8,11.5c0.9,5.4,0.9,8.9,0,11.9c-0.9,2.9-4,1.6-4.7,0.8S23.9,38,23.9,38
		s-3.1-2.4-2.6-6.4s1.8-11.8,1.8-11.8S23.7,15.7,27,17.7z"/>
	<path class="st18" d="M17.1,22l1.2-1.5c0,0,0.5-0.5,0.4-1.4s0-7,0-7s-0.1-0.5,0.8-0.5s1.6,0,1.6,0s0.3,0.2,0.3,0.6c0,0.5,0,7,0,7
		s0.2,1.9,1.8,2.3c1.6,0.5,2.1,2.7,2.1,2.7l-1,0.7l-1.5-0.3l-1.3-1.5c0,0-0.6-0.6-0.9-0.7s-0.8,0-1.3,0.4s-1.7,1.5-1.7,1.5l-0.7-1.6
		L17.1,22z"/>
	<path class="st18" d="M13.5,17.7c0,0-5.5,3.8-6.8,11.5c-0.9,5.4-0.9,8.9,0,11.9s4,1.6,4.7,0.8s5.2-3.9,5.2-3.9s3.1-2.4,2.6-6.4
		s-1.8-11.8-1.8-11.8S16.9,15.7,13.5,17.7z"/>
</g>
<g id="icon_9" class="st0">
	<path class="st14" d="M14.8,30.4c0,0,2.2-1.1,2.3-3.2c0.1-2.3-0.8-3.5-1.8-4.8s-2.4-5.9,0.6-7.9s6.1-1,7.2,0
		c0.6,0.6,2.5,3.3,1.3,6.5c-0.8,2.1-2.4,3.4-2.6,5s0.1,3.1,2.3,4.4l0.9,0.7H14.4L14.8,30.4z"/>
	<path class="st18" d="M29.7,34.1h-20c-1,0-1.9-0.8-1.9-1.9l0,0c0-1,0.8-1.9,1.9-1.9h20c1,0,1.9,0.8,1.9,1.9l0,0
		C31.5,33.3,30.7,34.1,29.7,34.1z"/>
	<path class="st18" d="M19.5,36.3L19.5,36.3c-0.8,0-1.5-0.7-1.5-1.5v-2.1c0-0.8,0.7-1.5,1.5-1.5l0,0c0.8,0,1.5,0.7,1.5,1.5v2.1
		C21.1,35.6,20.5,36.3,19.5,36.3z"/>
	<path class="st18" d="M15.9,33.7c0,0-2.6,3.6-1.2,7.3c1.4,3.8,4.2,4.2,4.9,4.2s5.5-0.6,5.5-6.8c0-2.3-1.6-4.9-1.6-4.9H26
		c0,0,1.4,1.2,2,3.4c0.5,1.8,1.1,5.1-1.9,8.9s-9.5,2.6-11.4,1.4c-2-1.4-4.4-3.9-4-8.6c0.3-3.4,2.6-5.5,2.6-5.5L15.9,33.7z"/>
</g>
<g id="icon_10" class="st0">
	<path class="st18" d="M15.9,49.4c0.1,0.9,0.9,0.7,1.3,0.7h9.4c0,0,0.7,0.3,0.7-1v-4.9c0-0.1,0-0.2,0-0.3c0.2-0.7,0.9-3.4,1.7-4.3
		c1.3-1.5,1.3-5.2,1.3-5.2l0.2-17.3c0,0-0.1-1.7-1.7-1.8c-1.6-0.1-1.7,1.5-1.7,1.5l-0.2,7.9c0,0-0.1,0.8-0.6,0.8
		c-0.6,0-0.7-0.6-0.6-1s0.1-11.3,0.1-11.3S25.7,12,24,11.9s-1.6,1.7-1.6,1.7v10c0,0,0,0.8-0.6,0.7c-0.7,0-0.5-1.2-0.5-1.2V12
		c0,0-0.1-1.4-2-1.4s-1.8,2-1.8,2l-0.2,11.3c0,0,0,0.5-0.5,0.5s-0.4-1-0.4-1v-9c0,0,0-1.6-1.7-1.5c-1.1,0-1.3,0.8-1.3,1.6v8
		c0,0.2,0,0.3,0.1,0.5l0.3,0.8c0,0.1,0.1,0.2,0.1,0.3l2.5,3.5c0,0,0.5,0.6,0.9,0.5s3.8,0.6,5,1.1c1,0.5,2,0.7,2,0.7s0.9,0.4,0.5,1.5
		C24.5,32,23,31.7,23,31.7l-1.1-0.3v0.3l3.8,4.6c0,0,0.4,0.7-0.2,1.1c-0.6,0.4-1.1-0.2-1.1-0.2L22,34.1c0,0-0.5-0.1-0.4,0.3
		c0.1,0.5,3.3,4.1,3.3,4.1s0.3,0.6-0.2,1c-0.2,0.2-0.8,0.3-1.2-0.1c-0.3-0.3-3.1-4-3.1-4s-0.5-0.2-0.4,0.3l2.8,3.6
		c0,0,0.4,0.7,0,1.1c-0.4,0.4-0.9,0.2-1.3-0.3c-0.4-0.4-3.1-3.9-3.1-3.9s-0.5-0.2-0.5,0.3l2.2,2.8c0,0,0.4,0.6-0.1,1s-1,0.3-1.5-0.3
		c-0.5-0.5-4.2-5.5-4.8-6.3c-0.1-0.1-0.1-0.2-0.1-0.2C13.4,33.1,13,32,13,31.1c0-0.3-0.1-0.5-0.2-0.8l-3.3-4.4c0,0-1.1-1.2-2.6-0.3
		c-1.5,0.9-0.5,3-0.4,3.3s5.1,8,5.1,8s2,2.9,2.7,3.9c0.7,1.1,1.7,2.1,1.6,4.4c-0.1,1.7-0.1,2.9-0.1,3.5
		C15.9,48.8,15.9,49.4,15.9,49.4z"/>
</g>
<g id="icon_11" class="st0">
	<circle class="st18" cx="3.1" cy="33.4" r="3.3"/>
	<circle class="st18" cx="19.6" cy="16.4" r="3.4"/>
	<path class="st18" d="M16.4,18.7c0,0,1.3,2.3,3.6,2c2.2-0.3,3-1.8,3-1.8s1.2,0,1.6,0.5c0.4,0.4,0.7,0.5,1.1,1.8
		c0.4,1.3,1.5,4.8,1.5,4.8l4.3,1.7c0,0,0,0,0.1,0c0.3,0.1,2.1,1.1,2.2,1.2l-5.9,0.8l-2.5-0.9c0,0-0.6-0.2-1.1-1.6
		c-0.5-1.5-1.1-2.6-1.1-2.6l0.1,3.9l-6.5,0.1l-2.5-2.5l-0.1-2.9l-1.3,2.9L16,29c0,0,1.2,0.9,0.5,2.2c-0.7,1.3-2.7,0.2-2.7,0.2
		l-4-3.7c0,0-0.7-0.8,0-2.4s1.9-4.4,1.9-4.4s1-2.1,2.8-2.2C16.1,18.6,16.4,18.7,16.4,18.7z"/>
	<path class="st18" d="M9.5,33.6l-0.2,4.1l-1.7,4.6c0,0-0.9,2.2,0.9,2.4s2.1-0.9,2.3-1.5c0.2-0.6,1.5-4.6,1.5-4.6l0.2-2.6l0.6-2.5
		v3.6l6.6,0.1v6c0,0,0.1,1.6,1.8,1.6c2,0,10.8,0,10.8,0s1.3-0.3,1.1-1.8s-0.6-1.9-1.5-1.9s-8.3,0.1-8.3,0.1l0.1-6.4l17.6-2
		c0,0,1.9-0.4,1.5-2c-0.4-1.6-1.4-1.6-2.3-1.6c-0.9,0-17,2-17,2s0.1-1.5-1.2-1.6s-4.7,0-4.7,0s0.3,2.5-1.3,3.1
		c-1.6,0.6-2.6-0.1-3.6-1s-1.9-2-1.9-2h-2c0,0-1.5,0.4-1.6,1.6c-0.1,1.3,0,4.2,0,4.2s0.2,1.2,1.2,1.4L9.5,33.6z"/>
	<path class="st18" d="M13.3,38.2h2l1.2,3.4c0,0,0.7,2.5-0.7,3.1c-1.4,0.6-2.4-0.3-2.8-1.6s-0.4-1.9-0.4-1.9L13.3,38.2z"/>
	<polygon class="st18" points="24.5,35.8 27.5,35.8 25.7,40 24.5,40 	"/>
</g>
<g id="icon_12" class="st0">
	<path class="st19" d="M21,13.6c0,0-4,7.5-0.8,15.8S22,43.3,19,46.8"/>
	<path class="st19" d="M34.3,20.6c0,0-1.6,7.2-13.9,9.5c-8.9,1.6-10.7,4.4-13.9,8.7"/>
	<line class="st20" x1="21.1" y1="15" x2="33.5" y2="22.5"/>
	<line class="st20" x1="19.4" y1="18.8" x2="30.5" y2="25.4"/>
	<line class="st20" x1="19" y1="23.7" x2="26" y2="28.3"/>
	<line class="st20" x1="14.9" y1="32.2" x2="22" y2="36.3"/>
	<line class="st20" x1="10.5" y1="34.7" x2="21.6" y2="40.8"/>
	<line class="st20" x1="7.8" y1="37.7" x2="20.3" y2="45"/>
</g>
<g id="icon_13" class="st0">
	<g class="st1">
		<g>
			<path id="SVGID_3_" class="st8" d="M29.5,42.6L29,43c-3,2.1-7.1,1.4-9.3-1.5L9.4,26.9c-2.1-3-1.4-7.1,1.5-9.3l0.6-0.4
				c3-2.1,7.1-1.4,9.3,1.5l10.4,14.5C33.3,36.3,32.5,40.4,29.5,42.6z"/>
		</g>
		<g>
			<g>
				<g>
					<g>
						<g>
							<g>
								<g>
									<g>
										<defs>
											<path id="SVGID_6_" d="M21.9,45.5l-0.6-0.5c-2.8-2.3-3.1-6.5-0.8-9.4l11.7-13.6c2.3-2.8,6.5-3.1,9.4-0.8l0.6,0.5
												c2.8,2.3,3.1,6.5,0.8,9.4L31.4,44.7C29,47.6,24.8,47.9,21.9,45.5z"/>
										</defs>
										<clipPath id="SVGID_7_">
											<use xlink:href="#SVGID_6_"  style="overflow:visible;"/>
										</clipPath>
										
											<rect x="10.8" y="29.5" transform="matrix(0.814 -0.5809 0.5809 0.814 -18.2992 21.1356)" class="st21" width="26.2" height="19.3"/>
									</g>
								</g>
							</g>
						</g>
					</g>
				</g>
			</g>
		</g>
	</g>
	<path class="st22" d="M12,21c0,0-2.2,1.2-0.4,3.9"/>
</g>
<g id="icon_14" class="st0">
	<path class="st17" d="M4.3,29.6h0.1h27.1l-7.7-4.3c0,0-1.9-0.9-3.4-0.3s-2.1,1.2-3,0.8c-1.2-0.6-2.1-0.8-2.1-0.8s-1.7-0.4-2.9,0.2
		C11,25.8,4.3,29.6,4.3,29.6z"/>
	<path class="st18" d="M31.5,29.6L25,35c0,0-2.1,1.5-4,1.3c-1.9-0.2-1.7-0.7-2.6-1C17.6,35,17,35,15.9,35.7
		c-0.6,0.4-1.2,0.8-2.5,0.6s-2.6-1.2-3.6-2.1c-1-0.9-5.4-4.6-5.4-4.6L31.5,29.6z"/>
	<path class="st18" d="M32,20.1c0,0,0.1,2-1.7,2.3c0,0,1.6,0.1,1.7,2.1c0,0,0.1-2.1,1.8-2.1C33.8,22.4,32,22.1,32,20.1z"/>
	<path class="st18" d="M29,14c0,0,0.1,1.5-1.3,1.7c0,0,1.2,0.1,1.3,1.6c0,0,0.1-1.5,1.4-1.5C30.5,15.7,29.2,15.5,29,14z"/>
	<path class="st18" d="M33.8,9c0,0,0.1,2.1-1.8,2.3c0,0,1.7,0.1,1.8,2.2c0,0,0.1-2.1,1.9-2.1C35.7,11.4,33.8,11.1,33.8,9z"/>
	<g id="icon_3_1_" class="st1">
		<g>
			
				<rect x="28.8" y="36.7" transform="matrix(0.7214 -0.6925 0.6925 0.7214 -20.5041 32.9089)" class="st8" width="3.6" height="10.5"/>
			
				<rect x="25.7" y="37.1" transform="matrix(0.7214 -0.6925 0.6925 0.7214 -18.6865 28.9182)" class="st8" width="1.7" height="1.2"/>
			<path class="st8" d="M26.5,37.5L26.5,37.5c-0.1,0.1-0.2,0.1-0.3,0l-2.8-3c-0.1-0.1-0.1-0.2,0-0.3l0,0c0.1-0.1,0.2-0.1,0.3,0
				l2.8,3C26.5,37.3,26.5,37.4,26.5,37.5z"/>
			<path class="st8" d="M32.5,47.5l3.7-3.5c0.1-0.1,0.3-0.1,0.4,0l0,0c0.1,0.1,0.1,0.3,0,0.4l-3.7,3.5c-0.1,0.1-0.3,0.1-0.4,0l0,0
				C32.3,47.8,32.3,47.6,32.5,47.5z"/>
			<path class="st8" d="M34.3,48.2l2.6-2.5c0.1-0.1,0.3-0.1,0.4,0l0,0c0.1,0.1,0.1,0.3,0,0.4l-2.6,2.5c-0.1,0.1-0.3,0.1-0.4,0l0,0
				C34.2,48.6,34.2,48.4,34.3,48.2z"/>
			<rect x="34.5" y="46.3" transform="matrix(0.7214 -0.6925 0.6925 0.7214 -22.568 37.4777)" class="st8" width="1.5" height="1"/>
			<path class="st9" d="M33.5,43.9l0.8-0.8l0.3,0.3l-0.8,0.8c-0.1,0.1-0.2,0.1-0.3,0l0,0C33.3,44.1,33.3,44,33.5,43.9z"/>
			<path class="st9" d="M32.5,42.8l0.8-0.7l0.3,0.3l-0.8,0.8c-0.1,0.1-0.2,0.1-0.3,0l0,0C32.3,43.1,32.3,42.9,32.5,42.8z"/>
			<path class="st9" d="M31.5,41.8l0.8-0.8l0.3,0.3l-0.8,0.8c-0.1,0.1-0.2,0.1-0.3,0l0,0C31.3,42,31.3,41.9,31.5,41.8z"/>
			<path class="st9" d="M30.5,40.8l0.8-0.8l0.3,0.3l-0.8,0.8c-0.1,0.1-0.2,0.1-0.3,0l0,0C30.3,41,30.3,40.8,30.5,40.8z"/>
			<path class="st9" d="M29.5,39.7l0.8-0.8l0.3,0.3L29.8,40c-0.1,0.1-0.2,0.1-0.3,0l0,0C29.3,39.9,29.3,39.8,29.5,39.7z"/>
			<path class="st9" d="M28.5,38.6l0.8-0.8l0.3,0.3l-0.8,0.8c-0.1,0.1-0.2,0.1-0.3,0l0,0C28.3,38.9,28.3,38.7,28.5,38.6z"/>
		</g>
	</g>
</g>
<g id="icon_15_1_" class="st0">
	<g class="st1">
		<g>
			<g>
				<path id="SVGID_5_" class="st7" d="M16.9,23.2c0,0,3.1-2.3,6.2-2.1c3.1,0.2,5.6,1.6,6.6,4.1s0.5,6.2-3,10.8
					c-3.6,4.6-9.8,9.9-9.8,9.9s-7-5.4-10.7-11s-3.2-9-1.7-10.9s3.9-3.3,6.3-3C13.1,21.3,14.5,21.8,16.9,23.2z"/>
			</g>
			<g>
				<g>
					<g>
						<g>
							<g>
								<g>
									<g>
										<g>
											<defs>
												<path id="SVGID_8_" d="M16.9,23.2c0,0,3.1-2.3,6.2-2.1c3.1,0.2,5.6,1.6,6.6,4.1s0.5,6.2-3,10.8
													c-3.6,4.6-9.8,9.9-9.8,9.9s-7-5.4-10.7-11s-3.2-9-1.7-10.9s3.9-3.3,6.3-3C13.1,21.3,14.5,21.8,16.9,23.2z"/>
											</defs>
											<clipPath id="SVGID_9_">
												<use xlink:href="#SVGID_8_"  style="overflow:visible;"/>
											</clipPath>
											<polyline class="st23" points="5.1,34.2 9.9,34.2 11.9,32.3 14.6,36.4 18.5,29.4 22,34.2 28.5,34.2 											"/>
										</g>
									</g>
								</g>
							</g>
						</g>
					</g>
				</g>
			</g>
		</g>
	</g>
	<path class="st18" d="M28.2,12l-8.1,14c-0.4,0.7,0.1,1.6,0.9,1.6h16.3c0.8,0,1.4-0.9,0.9-1.6l-8.1-14C29.7,11.3,28.7,11.3,28.2,12z
		"/>
	<path class="st24" d="M29.2,22.8L29.2,22.8c-0.3,0-0.6-0.3-0.6-0.6v-5.7c0-0.3,0.3-0.6,0.6-0.6l0,0c0.3,0,0.6,0.3,0.6,0.6v5.7
		C29.8,22.5,29.5,22.8,29.2,22.8z"/>
	<path class="st24" d="M29.2,25.7L29.2,25.7c-0.3,0-0.6-0.3-0.6-0.6v-0.3c0-0.3,0.3-0.6,0.6-0.6l0,0c0.3,0,0.6,0.3,0.6,0.6v0.3
		C29.8,25.4,29.5,25.7,29.2,25.7z"/>
</g>
<g id="icon_16" class="st0">
	<path class="st24" d="M25.3,17c0,0,4.1-0.9,6,0c2.3,1.1,4.1,3.9,2.8,8.7s-2.3,8.8-2.6,12.9c-0.4,4.1-3.3,6.8-5.2,7.1
		c-1.9,0.4-3.3-1.6-2.9-3.1c0.4-1.5,0.9-5.9,0.8-7c-0.2-2.1-1.2-3.8-2.9-3.8c-1.7,0-2.5,0.9-2.9,1.9c-0.4,1.1-1.1,5.2-0.6,7.1
		c0.4,1.9,0.2,4.7-1.6,4.8s-5.2-1.8-6.5-9.8s-2-9.8-2.3-10.9c-1-3.7,0-8.4,4.1-8.7c4.1-0.3,7.4,1.5,8.8,1.6
		C21.6,18.1,23.8,17.3,25.3,17z"/>
	<path class="st17" d="M18,21c0,0,2.4,1.3,3.4,0.9c1-0.5,3.2-1.7,5.8-0.4c2.6,1.3,2.6,2.8,2.6,2.8s0.8,2.8-0.6,5.1s-1,6.9-1,6.9
		s0.1,1.6-0.7,1.6c-0.7,0-1.2-1.5-1.2-1.8s-0.8-6-4.6-6.7s-4.5,2.9-5,4.2c-0.3,0.9-0.6,3.6-0.6,3.6s-0.2,1.3-0.9,1.2
		c-0.7-0.1-0.9-1.5-0.9-4.7s-1-3.6-1.5-5.5s-0.4-5.2,1.5-6.6C16,20.2,18,21,18,21z"/>
	<path class="st18" d="M6.5,11.3c0,0,0.1,2.1-1.8,2.3c0,0,1.7,0.1,1.8,2.2c0,0,0.1-2.1,1.9-2.1C8.4,13.6,6.5,13.4,6.5,11.3z"/>
	<path class="st18" d="M36.8,38.2c0,0,0.1,2.1-1.8,2.4c0,0,1.7,0.1,1.8,2.2c0,0,0.1-2.2,1.9-2.2C38.7,40.6,36.8,40.3,36.8,38.2z"/>
	<path class="st18" d="M38.7,11c0,0,0,1.1-0.9,1.3c0,0,0.9,0,0.9,1.2c0,0,0.1-1.2,1-1.2C39.7,12.3,38.7,12.1,38.7,11z"/>
</g>
<g id="icon_17" class="st0">
	<path class="st18" d="M19.8,14.8c0,0,5.2-0.8,8.3,1.3c3.1,2,5.1,4.2,5.6,7.4s-0.2,7.1-1.7,9.5s-2.4,3.9-2.6,4.3
		c-0.1,0.4-0.8,2.3-0.3,4.9s0.8,3,0.8,3l-14.3,0.3v-3c0,0-4.5,0.1-5.6-0.8c-1.1-0.9-1.1-1.9-0.8-2.5c0.2-0.6,0-0.7,0-0.8
		c0,0-0.6-0.3-0.6-0.9c0-0.4,0.4-0.5,0.4-0.5s-0.1-0.2-0.2-0.2c-0.1-0.1-0.6-0.2-0.6-0.7s0.3-2.6,0.3-2.6s-1.6-0.2-1.8-1.2
		c-0.1-1,0.7-2.2,1.1-2.7s2.1-2.5,2.1-2.5s-0.6-5,1.1-7.3S14.4,15.4,19.8,14.8z"/>
	<circle class="st24" cx="16.5" cy="29.4" r="1.1"/>
	<circle class="st24" cx="19.8" cy="30.8" r="0.6"/>
	<circle class="st24" cx="18.5" cy="33.3" r="0.7"/>
	<circle class="st24" cx="17" cy="35.8" r="1"/>
	<circle class="st24" cx="14.3" cy="33.3" r="0.6"/>
	<circle class="st24" cx="14" cy="30.7" r="0.6"/>
</g>
<g id="icon_18" class="st0">
	<path class="st18" d="M27,37.3H12c-1.1,0-2-0.9-2-2V15.7c0-1.1,0.9-2,2-2h15.1c1.1,0,2,0.9,2,2v19.6C29,36.4,28.2,37.3,27,37.3z"/>
	<path class="st24" d="M24.3,27.2h-9.6c-1.1,0-2-0.9-2-2v-6.9c0-1.1,0.9-2,2-2h9.6c1.1,0,2,0.9,2,2v6.9
		C26.3,26.4,25.5,27.2,24.3,27.2z"/>
	<path class="st24" d="M20.5,33.8h-2c-1,0-1.8-0.8-1.8-1.8l0,0c0-1,0.8-1.8,1.8-1.8h2c1,0,1.8,0.8,1.8,1.8l0,0
		C22.1,32.9,21.4,33.8,20.5,33.8z"/>
	<path class="st18" d="M19.9,41.9h-0.8c-1.1,0-2-0.9-2-2v-3.3c0-1.1,0.9-2,2-2h0.8c1.1,0,2,0.9,2,2v3.3C21.9,40.9,21,41.9,19.9,41.9
		z"/>
	<path class="st18" d="M19.5,46.5L19.5,46.5c-0.3,0-0.5-0.2-0.5-0.5v-4.7c0-0.3,0.2-0.5,0.5-0.5l0,0c0.3,0,0.5,0.2,0.5,0.5V46
		C20,46.4,19.8,46.5,19.5,46.5z"/>
	<path class="st17" d="M27,20c0,0,1.9,1.4,2.9,3.1c0.8,1.5,1.1,4.5-1.9,5.2c-2.7,0.7-4.3-1.8-4.3-3C23.8,24.6,24,22.1,27,20z"/>
	<path class="st22" d="M28.5,23.4c0,0,1.6,2.3,0.3,3.6"/>
</g>
<g id="icon_19" class="st0">
	<g class="st1">
		<g>
			<path id="SVGID_10_" class="st8" d="M25,44H7.9c-1.1,0-2-0.9-2-2V20.9c0-1.1,0.9-2,2-2h17.2c1.1,0,2,0.9,2,2V42
				C27,43.1,26.2,44,25,44z"/>
		</g>
		<g>
			<g>
				<g>
					<g>
						<g>
							<g>
								<defs>
									<path id="SVGID_11_" d="M25,44H7.9c-1.1,0-2-0.9-2-2V20.9c0-1.1,0.9-2,2-2h17.2c1.1,0,2,0.9,2,2V42C27,43.1,26.2,44,25,44z
										"/>
								</defs>
								<clipPath id="SVGID_13_">
									<use xlink:href="#SVGID_11_"  style="overflow:visible;"/>
								</clipPath>
								<path class="st25" d="M21,22.5h-8.9c-1,0-1.8-0.8-1.8-1.8v-1.3c0-1,0.8-1.8,1.8-1.8H21c1,0,1.8,0.8,1.8,1.8v1.3
									C22.7,21.7,22,22.5,21,22.5z"/>
							</g>
						</g>
					</g>
				</g>
			</g>
		</g>
	</g>
	<path class="st18" d="M16.9,20.8L16.3,21c-1.1,0-1.7,0.9-1.7-0.2v-3.3c0-1.1,0.9-2,2-2l0,0c1.1,0,2,0.9,2,2v3.3
		C18.5,21.9,17.9,20.8,16.9,20.8z"/>
	<path class="st24" d="M22.7,41.6H10.4c-1.1,0-2-0.9-2-2V23.9c0-1.1,0.9-2,2-2h12.4c1.1,0,2,0.9,2,2v15.7
		C24.7,40.7,23.8,41.6,22.7,41.6z"/>
	<path class="st18" d="M20.5,21.5h-8.2c-1,0-1.8-0.8-1.8-1.8v-0.5c0-1,0.8-1.8,1.8-1.8h8.2c1,0,1.8,0.8,1.8,1.8v0.5
		C22.3,20.7,21.5,21.5,20.5,21.5z"/>
	<path class="st24" d="M19.5,20.8h-6c-0.3,0-0.6-0.3-0.6-0.6l0,0c0-0.3,0.3-0.6,0.6-0.6h6c0.3,0,0.6,0.3,0.6,0.6l0,0
		C20.1,20.5,19.9,20.8,19.5,20.8z"/>
	<path class="st24" d="M16.6,17.8h-0.4c-0.2,0-0.4-0.2-0.4-0.4l0,0c0-0.2,0.2-0.4,0.4-0.4h0.4c0.2,0,0.4,0.2,0.4,0.4l0,0
		C17.1,17.6,17,17.8,16.6,17.8z"/>
	<path class="st18" d="M21,27.2h-8.5c-0.3,0-0.6-0.3-0.6-0.6l0,0c0-0.3,0.3-0.6,0.6-0.6H21c0.3,0,0.6,0.3,0.6,0.6l0,0
		C21.6,27,21.4,27.2,21,27.2z"/>
	<path class="st18" d="M21,30.6h-8.5c-0.3,0-0.6-0.3-0.6-0.6l0,0c0-0.3,0.3-0.6,0.6-0.6H21c0.3,0,0.6,0.3,0.6,0.6l0,0
		C21.6,30.3,21.4,30.6,21,30.6z"/>
	<path class="st18" d="M21,34h-8.5c-0.3,0-0.6-0.3-0.6-0.6l0,0c0-0.3,0.3-0.6,0.6-0.6H21c0.3,0,0.6,0.3,0.6,0.6l0,0
		C21.6,33.7,21.4,34,21,34z"/>
	<path class="st17" d="M28.2,34c0,0,1.7-0.8,3.3-0.5s3.5,1.7,3.2,5.9s-3,5.1-3.7,5.3c-0.7,0.1-1.9,0-2.7-0.3c-0.1,0-0.7,0.1-1,0.2
		c-0.2,0.1-2.1,0.6-3.7-1.4c-1.6-2-2.3-4.1-1.8-6.4s2.5-3.6,4.3-3.3C26.8,33.5,28,34,28.2,34z"/>
	<g class="st1">
		<g>
			<path id="SVGID_12_" class="st12" d="M33.5,28.4c0,0,0.1,2.3-0.9,3.3c-1.5,1.4-3.7,1-3.8,1c0,0-0.4-2.4,1.2-3.5
				C31.3,28.3,33.5,28.4,33.5,28.4z"/>
		</g>
		<g>
			<g>
				<g>
					<g>
						<g>
							<g>
								<defs>
									<path id="SVGID_14_" d="M33.5,28.4c0,0,0.1,2.3-0.9,3.3c-1.5,1.4-3.7,1-3.8,1c0,0-0.4-2.4,1.2-3.5
										C31.3,28.3,33.5,28.4,33.5,28.4z"/>
								</defs>
								<clipPath id="SVGID_15_">
									<use xlink:href="#SVGID_14_"  style="overflow:visible;"/>
								</clipPath>
								<polygon class="st26" points="34.3,27.8 28.3,32.9 30.3,33.7 35.2,30.5 								"/>
							</g>
						</g>
					</g>
				</g>
			</g>
		</g>
	</g>
</g>
<g id="icon_20" class="st0">
	<path class="st18" d="M20,14.3c0,0,6.5-0.4,8.1,5.3c0.2,0.7,0.1,3.8-0.4,5.2c0,0,0,0.3,0.5,0.2c0.5-0.1,1.4,0.1,0.8,1.9
		c-0.6,1.8-1.5,2.8-1.5,2.8s-0.7,0.1-0.7-0.2s-0.2,0.2-0.6,1.1c-0.4,0.9-0.8,2.5-2.2,3.9v1.9c0,0,0.1,1.7,2.1,2.6
		c2,0.9,3.4,1.4,4.4,1.4c1.1,0,6.4,2,7.3,4.1c0.4,0.8,0.6,1.4-0.7,1.5c-1.2,0-34.2,0-34.2,0s-1.1-0.1-0.1-1.4s2-3.4,7.3-4.2
		c0.6-0.1,5.9-1.3,6.2-3.1c0.3-1.7,0.1-2.6,0.1-2.6s-1.6-1.7-2.6-5.1c0,0-0.2-0.1-0.3,0.1c-0.1,0.2-0.9,0.2-1.5-1.1
		c-0.6-1.2-1.1-2.6-0.6-3.3c0.6-0.6,1.1-0.2,1.1-0.2s0.1,0,0.1-0.2s-0.9-4.4-0.3-5.9C12.9,17.3,14.5,14.7,20,14.3z"/>
	<path class="st17" d="M19.8,37.2c0,0,0.5-0.6,1.1-0.1c0,0,0.6-2.2,1.4-2.6c0.4-0.2,0.4,0.2,0.4,0.7s0.7,1.6,0.7,2.4
		c0,0.8-0.1,1.9-1.4,1.9c-0.6,0-1-0.3-1.1-0.5s-0.6-0.2-0.9,0c-0.4,0.2-1,1.1-2,0.2c-1-0.9-0.2-3.4-0.1-3.5c0-0.1,0.2-0.4,0.2-1.2
		c0-0.3,0.4-0.2,1,0.5C19.5,35.6,19.8,36.5,19.8,37.2z"/>
</g>
<g id="icon_21" class="st0">
	<path class="st24" d="M24.8,19.9c0,0,4.1-0.9,6,0c2.3,1.1,4.1,3.9,2.8,8.7s-2.3,8.8-2.6,12.9c-0.4,4.1-3.3,6.8-5.2,7.1
		c-1.9,0.4-3.3-1.6-2.9-3.1c0.4-1.5,0.9-5.9,0.8-7c-0.2-2.1-1.2-3.8-2.9-3.8c-1.7,0-2.5,0.9-2.9,1.9c-0.4,1.1-1.1,5.2-0.6,7.1
		c0.4,1.9,0.2,4.7-1.6,4.8s-5.2-1.8-6.5-9.8s-2-9.8-2.3-10.9c-1-3.7,0-8.4,4.1-8.7s7.4,1.5,8.8,1.6C21,21,23.3,20.2,24.8,19.9z"/>
	<path class="st17" d="M17.4,23.9c0,0,2.4,1.3,3.4,0.9c1-0.5,3.2-1.7,5.8-0.4c2.6,1.3,2.6,2.8,2.6,2.8s0.8,2.8-0.6,5.1s-1,6.9-1,6.9
		s0.1,1.6-0.7,1.6c-0.7,0-1.2-1.5-1.2-1.8s-0.8-6-4.6-6.7c-3.8-0.7-4.5,2.9-5,4.2c-0.3,0.9-0.6,3.6-0.6,3.6s-0.2,1.3-0.9,1.2
		c-0.7-0.1-0.9-1.5-0.9-4.7s-1-3.6-1.5-5.5s-0.4-5.2,1.5-6.6C15.5,23.1,17.4,23.9,17.4,23.9z"/>
	<path class="st18" d="M26,34.1L26,34.1c-0.3,0.1-0.7,0-0.8-0.3l-10-21.5c-0.1-0.3,0-0.7,0.3-0.8l0,0c0.3-0.1,0.7,0,0.8,0.3l10,21.5
		C26.3,33.6,26.3,34,26,34.1z"/>
	<path class="st24" d="M24.3,25.7l-3.7,1.7c-0.2,0.1-0.5,0-0.5-0.2l0,0c-0.1-0.2,0-0.5,0.2-0.5L24,25c0.2-0.1,0.5,0,0.5,0.2l0,0
		C24.5,25.4,24.5,25.6,24.3,25.7z"/>
	<path class="st24" d="M25.3,28l-3.7,1.7c-0.2,0.1-0.5,0-0.5-0.2l0,0c-0.1-0.2,0-0.5,0.2-0.5l3.7-1.7c0.2-0.1,0.5,0,0.5,0.2l0,0
		C25.7,27.7,25.5,27.9,25.3,28z"/>
	<path class="st24" d="M26.3,30.3L22.6,32c-0.2,0.1-0.5,0-0.5-0.2l0,0c-0.1-0.2,0-0.5,0.2-0.5l3.7-1.7c0.2-0.1,0.5,0,0.5,0.2l0,0
		C26.7,30,26.5,30.2,26.3,30.3z"/>
</g>
<g id="icon_22_1_" class="st0">
	<circle class="st18" cx="20" cy="22.4" r="6.3"/>
	<path class="st18" d="M7.6,44.1h25.1c0,0,1.5-11.3-4.9-13.4s-13.2-0.8-15-0.2s-4.1,1-4.9,7.5C7.6,42.1,7.6,44.1,7.6,44.1z"/>
	<path class="st24" d="M15.8,37.4v-0.7c0-0.8,0.7-1.5,1.5-1.5h6.2c0.8,0,1.5,0.7,1.5,1.5v0.7c0,0.8-0.7,1.5-1.5,1.5h-6.2
		C16.5,38.9,15.8,38.2,15.8,37.4z"/>
	<path class="st24" d="M20,32.4h0.7c0.8,0,1.5,0.7,1.5,1.5v6.2c0,0.8-0.7,1.5-1.5,1.5H20c-0.8,0-1.5-0.7-1.5-1.5v-6.2
		C18.5,33.1,19.3,32.4,20,32.4z"/>
</g>
<g id="icon_23" class="st0">
	<path class="st27" d="M26.3,14.7c-7.6,1.4-5.4,7-5.4,8.7s-0.5,1.7-0.6,2.6s1,1.2,1,1.2s-0.4,2.2-3.6,0.2s-8.2,0.5-8.9,0.5
		s0.6-2.6,0.6-2.6c-0.6-0.8-1.8-0.2-2.9,1.4c-1.3,1.9-1.1,4.2-0.9,4.3c0.2,0.1,3.8-0.1,5.5-0.5s2.5-0.5,2.2-0.1s-1.1,1.9-1.5,2.1
		c-0.5,0.2-8.5,9.1-1,12s12.8-0.7,14.8-2.3c2.2-1.8,5.9-4.4,7.2-6.5s0.4-5.3,0.2-6.4s1.6-3.9,2-6.4C35.3,20.4,33.8,13.3,26.3,14.7z"
		/>
	<path class="st28" d="M17.3,33.2c0,0,0.6,3.4-1.5,5"/>
	<path class="st28" d="M12.5,31.8c0,0,1.6-2.2,1.8-3.1"/>
	<path class="st28" d="M17.3,27.5c0,0-2.2,5.3,1.1,6.5s8.6,0.6,8.6,0.6"/>
	<path class="st28" d="M21,28c0,0,0.9,0.4,1.3,1.7"/>
	<path class="st28" d="M20.1,30.6c0,0,6.1-2.3,11-0.6"/>
	<path class="st28" d="M28.5,21.1c0,0,2.3-0.1,2,1.9s-1.3,3.5-3.4,1.9"/>
</g>
<g id="icon_24" class="st0">
	<path class="st29" d="M16.4,30.5c0,0-0.1-6.4-0.6-7.4c0,0,0.8-0.1,1-0.8c0,0,1.4,1.5,1.8,1.4s4.2-3.3,4.1-4.1S21,16.2,20.1,16
		c-0.8-0.2-0.8-0.8-2.6,0c-1.8,0.8-5.3,2.1-5.3,2.1s-1.8,0.7-2.3,2.6S6.1,35.4,6.1,35.4S5.6,38.6,8,38.8c0,0,5.2,7.5,17.9,4.3
		c0,0,6.9,2.2,7.9,1.1c1.1-1.1,0.6-2.7,0.6-2.7l0.1-10.2c0,0-0.1-2.1-2-2.5c-1.9-0.5-5.8-0.9-7.8,1.5C24.5,30.3,19.4,28.1,16.4,30.5
		z"/>
	<path class="st30" d="M14.3,23.1c0,0,2.1,0.2,2.7-1.6"/>
	<path class="st30" d="M26.5,33.5c0,0-1.2-3.2-3.4-3.7"/>
	<path class="st31" d="M16.4,30c0,0,0,3.2-1.7,3.7"/>
	<path class="st31" d="M12,37c0,0,3.9,4.8,10.1,3.3"/>
</g>
<g id="icon_25" class="st0">
	<path class="st18" d="M21.3,47.9h-1.7c-4.3,0-7.9-3.5-7.9-7.9V19H29v21C29,44.3,25.5,47.9,21.3,47.9z"/>
	<path class="st18" d="M29.5,17.2H11c-0.7,0-1.3-0.6-1.3-1.3v-2.2c0-0.7,0.6-1.3,1.3-1.3h18.4c0.7,0,1.3,0.6,1.3,1.3v2.2
		C30.8,16.6,30.2,17.2,29.5,17.2z"/>
	<path class="st32" d="M16.8,39c0,0,0-7.1,3.7-7.1s3.7,4.9,3.7,7.1"/>
	<line class="st32" x1="17" y1="36.3" x2="23.8" y2="36.3"/>
	<path class="st32" d="M24,23.9c0,0,0,7.1-3.7,7.1s-3.7-4.9-3.7-7.1"/>
	<line class="st32" x1="23.8" y1="26.7" x2="17" y2="26.7"/>
</g>
<g id="icon_26" class="st0">
	<path class="st18" d="M24.3,23.6h-8.1c-1.3,0-2.4-1.1-2.4-2.4v-3.6c0-1.3,1.1-2.4,2.4-2.4h8.1c1.3,0,2.4,1.1,2.4,2.4v3.6
		C26.8,22.5,25.7,23.6,24.3,23.6z"/>
	<path class="st18" d="M33.8,44.9H6.9c-2.1,0-3.8-1.7-3.8-3.8V24c0-2.1,1.7-3.8,3.8-3.8h26.9c2.1,0,3.8,1.7,3.8,3.8v17.1
		C37.5,43.3,35.8,44.9,33.8,44.9z"/>
	<path class="st24" d="M13.4,33.3v-1.9c0-1.1,0.9-2.1,2.1-2.1h9.8c1.1,0,2.1,0.9,2.1,2.1v1.9c0,1.1-0.9,2.1-2.1,2.1h-9.8
		C14.3,35.4,13.4,34.4,13.4,33.3z"/>
	<path class="st24" d="M21.3,39.3h-1.9c-1.1,0-2.1-0.9-2.1-2.1v-9.8c0-1.1,0.9-2.1,2.1-2.1h1.9c1.1,0,2.1,0.9,2.1,2.1v9.8
		C23.3,38.4,22.5,39.3,21.3,39.3z"/>
	<rect x="13.8" y="19.5" class="st24" width="13" height="0.6"/>
	<path class="st24" d="M21.3,39.3h-1.9c-1.1,0-2.1-0.9-2.1-2.1v-9.8c0-1.1,0.9-2.1,2.1-2.1h1.9c1.1,0,2.1,0.9,2.1,2.1v9.8
		C23.3,38.4,22.5,39.3,21.3,39.3z"/>
</g>
<g id="icon_27" class="st0">
	<circle class="st18" cx="20" cy="22.4" r="6.3"/>
	<path class="st18" d="M7.6,44.1h25.1c0,0,1.5-11.3-4.9-13.4s-13.2-0.8-15-0.2c-1.8,0.6-4.1,1-4.9,7.5C7.6,42.1,7.6,44.1,7.6,44.1z"
		/>
	<path class="st24" d="M15.9,37.3v-0.7c0-0.8,0.7-1.5,1.5-1.5h6.2c0.8,0,1.5,0.7,1.5,1.5v0.7c0,0.8-0.7,1.5-1.5,1.5h-6.2
		C16.5,38.8,15.9,38.1,15.9,37.3z"/>
	<path class="st24" d="M20,32.4h0.7c0.8,0,1.5,0.7,1.5,1.5v6.2c0,0.8-0.7,1.5-1.5,1.5H20c-0.8,0-1.5-0.7-1.5-1.5v-6.2
		C18.5,33,19.3,32.4,20,32.4z"/>
</g>
<g id="icon_28" class="st0">
	<path class="st18" d="M30.2,28.6"/>
	<path class="st18" d="M27.3,15.5v29.3h5.2V21.3C32.5,21.3,32.2,16.8,27.3,15.5z"/>
	<polygon class="st24" points="30.2,28.6 32.5,29.7 32.5,27.3 	"/>
	<polygon class="st24" points="27.3,30.2 32.5,32.7 32.5,34.9 27.3,32.1 	"/>
	<polygon class="st24" points="27.3,33.9 32.5,36.6 32.5,38.6 27.3,35.9 	"/>
	<circle class="st33" cx="11.1" cy="19.9" r="3.2"/>
	<circle class="st33" cx="21" cy="19.7" r="3.2"/>
	<path class="st18" d="M13.5,23.1v12.8c0,0,0.7,7,2.6,8.9c0,0,2.9-4.2,2.7-9V23.2L17.4,20L17,20.4V26L15,26.1v-6.2l-0.8-0.2
		L13.5,23.1z"/>
	<circle class="st24" cx="16" cy="28.8" r="0.9"/>
</g>
<g id="icon_29" class="st0">
	<path class="st18" d="M28.8,14.3c0,2.5-2,4.4-4.4,4.4c-2.5,0-4.4-2-4.4-4.4s2-4.4,4.4-4.4S28.8,11.8,28.8,14.3z"/>
	<path class="st18" d="M8,22.6l9-4.8c0,0,0.8-0.4,1.7,0s4.9,1.8,4.9,1.8s0.9,0,1.4,2c0.5,2.1,1.7,5.7,1.7,5.7l4.7,1.9
		c0,0,1.8,0.9,1.2,3s-3.4,1-3.4,1l-6-2.7c0,0-0.4-0.1-0.6-1.1c-0.2-1-1.2-4.1-1.2-4.1L19,32.8l3.5,7l-0.5,9c0,0-0.3,1.6-2.1,1.6
		c-1.8,0-2.4-1.5-2.4-2.5c0.1-1,0.8-6.6,0.8-6.6L14.9,35l0.3,6.8l-1.6,6.8c0,0-0.6,1.9-2.8,1.4s-1.3-3.5-1.3-3.5l1.2-5.1l-0.6-7.5
		l0.3-0.9l-3.6-8.2C6.9,25,6.5,23.4,8,22.6z"/>
	<polygon class="st34" points="12,25.7 13.1,27.7 14.9,24.2 	"/>
	<path class="st18" d="M28,32.3L31.8,49c0,0,0.2,1,1.3,0.7c1.1-0.2,0.6-1.5,0.6-1.5l-3.4-15.8L28,32.3z"/>
</g>
<g id="icon_30" class="st0">
	<g class="st1">
		<g>
			<path id="SVGID_16_" class="st35" d="M36.8,47.4h-33c-1.4,0-2.6-1.2-2.6-2.6v-7.5c0-1.4,1.2-2.6,2.6-2.6h33
				c1.4,0,2.6,1.2,2.6,2.6v7.5C39.3,46.2,38.2,47.4,36.8,47.4z"/>
		</g>
		<g>
			<g>
				<g>
					<g>
						<g>
							<defs>
								<path id="SVGID_17_" d="M36.8,47.4h-33c-1.4,0-2.6-1.2-2.6-2.6v-7.5c0-1.4,1.2-2.6,2.6-2.6h33c1.4,0,2.6,1.2,2.6,2.6v7.5
									C39.3,46.2,38.2,47.4,36.8,47.4z"/>
							</defs>
							<clipPath id="SVGID_18_">
								<use xlink:href="#SVGID_17_"  style="overflow:visible;"/>
							</clipPath>
							<rect x="-1.3" y="32.6" class="st36" width="41.5" height="5.3"/>
						</g>
					</g>
				</g>
			</g>
		</g>
	</g>
	<circle class="st34" cx="20.5" cy="38.1" r="3.9"/>
	<path class="st37" d="M18.4,29.4c0,0,1.8-14.4,7.6-16.5c0,0-3.9,9.4-3.4,16.1c0,0,1.2,0.7,1.2,2c0,1.5-0.6,3.1-3.2,3.1
		c-2.5,0-3.1-1.1-3.2-2.1C17.1,30.7,17.5,29.7,18.4,29.4z"/>
	<rect x="31.5" y="23.4" class="st18" width="1" height="6.1"/>
	<polyline class="st38" points="29.8,27.6 32,29.6 34,27.7 	"/>
	<rect x="8" y="23.4" class="st18" width="1" height="6.1"/>
	<polyline class="st38" points="6.4,27.6 8.5,29.6 10.5,27.7 	"/>
</g>
<g id="icon_31" class="st0">
	<ellipse transform="matrix(0.9934 -0.115 0.115 0.9934 -2.4783 1.4174)" class="st17" cx="11" cy="22.2" rx="10.7" ry="9.5"/>
	<ellipse class="st17" cx="31.8" cy="24.3" rx="8.4" ry="8.9"/>
	<ellipse transform="matrix(0.9708 -0.2398 0.2398 0.9708 -9.1259 5.5733)" class="st17" cx="18.3" cy="40.3" rx="10.2" ry="6.9"/>
	<ellipse transform="matrix(0.9554 -0.2952 0.2952 0.9554 -6.5832 4.5677)" class="st24" cx="11.8" cy="24.1" rx="6.4" ry="5.5"/>
	<ellipse transform="matrix(0.9666 -0.2564 0.2564 0.9666 -5.4986 8.602)" class="st24" cx="30.2" cy="25.4" rx="5.2" ry="6.5"/>
	<ellipse transform="matrix(0.9359 -0.3522 0.3522 0.9359 -12.5762 8.8499)" class="st24" cx="18" cy="39" rx="6.4" ry="3.7"/>
</g>
<g id="icon_32" class="st0">
	<path class="st39" d="M15.5,14.6c0,0,4.4-3.1,9.6,0l-0.9,4.7l-0.3,0.5L23.4,19c0,0-3.3-1-6.1,0l-1.5-2.3l-0.2-1.6L15.5,14.6z"/>
	<path class="st17" d="M15.9,14.3c0,0-0.6,0.2-1,0.9s-2.2,6.5-2.2,6.5s-0.3,2.1,0.2,2.7s3.4,4.5,3.4,4.5L7.4,40.5c0,0-1.1,1-0.4,2.2
		s3.2,4.1,3.2,4.1s0.6,0.7,1.6-0.3c1.1-1.1,8.4-11.3,8.4-11.3l8.1,10.9c0,0,0.8,0.8,1.6,0s3.8-3.9,3.8-3.9s0.4-0.8-0.4-1.5
		s-9.1-12.1-9.1-12.1s2.8-3.4,2.9-3.6c0.1-0.2,1-2.2,0.5-3.7s-2-6.1-2-6.1s-0.4-0.7-1.1-0.8c0,0-0.5,3.7-4.2,8.7
		C20.3,23,17.3,20.2,15.9,14.3z"/>
</g>
<g id="icon_33" class="st0">
	<path class="st24" d="M23.8,23.7L34,15.5c0,0,0.8-0.5,1.8-3.5s4.2-7.9,8.9-5.9s3.5,6.7,2.8,7.9s-4.2,3.3-6.5,4.3
		c-2.3,1-5.5,5.9-5.5,5.9L23.8,23.7z"/>
	<path class="st40" d="M21.3,24.1c0,0,3-2.5,2.5-8.7c-0.2-1.8,1.2-3.8,1.2-3.8s-13-2.8-15.9,6.2c0,0-1.2-4.8-13.2-4
		c0,0,1.7,3,1.3,4.8c-0.5,1.8-0.3,5,1.3,6.4L21.3,24.1z"/>
	<path class="st41" d="M9.9,24.1c0,0,4-8.5,11.7-10.4"/>
	<path class="st41" d="M-1,15.9c0,0,6.4,3.2,9,8.2"/>
	<path class="st18" d="M-6.6,23.7H47c0,0,1.8-0.5,1.7,0.8c-0.2,1.3-1.5,18.6-19.4,24.7l-18.4,0.2c0,0-14.7-5-19.1-23.7
		C-8.3,25.9-8.8,23.9-6.6,23.7z"/>
	<ellipse class="st18" cx="20.3" cy="51.3" rx="12" ry="3.2"/>
	<path class="st41" d="M17.9,13.2c0,0-0.2,2.2-1,2.7"/>
	<path class="st41" d="M15.8,16.9c0,0,2.3-0.8,4.7-0.5"/>
	<path class="st41" d="M10.4,23.2c0,0,3.3-2.2,7.7-2"/>
	<path class="st41" d="M13.1,15.5c0,0,0.7,2.7,0,3.7"/>
	<path class="st41" d="M5.9,17.9c0,0-0.5,1.8,0.7,4.2"/>
	<path class="st41" d="M-0.5,18.2c0,0,1.3-0.3,3.2,0"/>
	<path class="st41" d="M1.2,22.2c0,0,4.5-0.3,6.2,1"/>
</g>
<g id="icon_34" class="st0">
	<path class="st18" d="M15.1,21.5h9.7c0,0,2,0,2.9,2.6s2,3.2,2,3.2l2.1,2.1c0,0,0.6,1.4-0.3,2.2c-0.9,0.8-2.1,0.6-2.5,0.3
		c-0.4-0.3-3.1-2.8-3.1-2.8l-1.2-2v5.5l2.7,9.6c0,0,0.8,2.3-1.4,2.9s-3.3-0.6-3.6-1.7c-0.2-1.1-2.7-8.3-2.7-8.3l-2.3,8.1
		c0,0-0.6,2.1-3.4,1.6c-2-0.4-1.4-3.3-1.4-3.3l2.4-8.7l0.1-5.6L14,29.1l-3.2,3.3c0,0-1.3,1.1-2.5-0.2c-1.1-1.1,0.2-3,0.2-3l2.4-2.7
		l1.9-3.7C12.9,22.9,13.4,21.5,15.1,21.5z"/>
	<circle class="st18" cx="20" cy="18.7" r="4.4"/>
	<g class="st1">
		<circle class="st42" cx="20" cy="30.1" r="19.2"/>
	</g>
</g>
<g id="icon_35" class="st0">
	<path class="st18" d="M12,20.9c0,0,3.8-2.3,8.3-2.1l2.4-3c0,0,1.7-1.9,2.5,0.2l0.6,3.4c0,0,4.8,1.3,5.5,3.7l2.4-0.4
		c0,0,1.2-0.2,1.5,0.5S35,24.6,35,24.6l-1.4,2.1c0,0,1.3,7.2-2.2,10.6l1.1,4.3c0,0,0.4,1.5-0.2,2c-0.6,0.5-1.6,0.3-2.3-0.2
		c-0.7-0.6-3-2.3-3-2.3s-2.8,2.1-8.8,1.5l-2,2.1c0,0-0.6,0.6-1.5,0.4c-0.9-0.2-1-2.3-1-2.3l-0.1-1.7c0,0-2-0.5-3.8-2.7L6.4,39
		c0,0-2,0-0.8-2.4l1.6-2.7c0,0-1.6-5,0.4-8.3l-2.2-4.9c0,0-0.3-1.5,0.3-1.8s2,0.2,2,0.2L12,20.9z"/>
	<line class="st32" x1="13.5" y1="25.3" x2="17.1" y2="27.9"/>
	<line class="st32" x1="22.1" y1="27.7" x2="27" y2="25.3"/>
	<path class="st32" d="M16.3,35.8c0,0,1.4-2.3,4-2.1s3.6,2.7,3.6,2.7"/>
</g>
<g id="icon_36" class="st0">
	<g id="icon_23_1_" class="st1">
		<path class="st43" d="M24,17.5c-5.9,1.1-4.2,5.5-4.2,6.8s-0.4,1.3-0.5,2s0.8,0.9,0.8,0.9s-0.3,1.7-2.8,0.2c-2.5-1.6-6.4,0.4-7,0.4
			c-0.5,0,0.5-2,0.5-2c-0.5-0.6-1.4-0.2-2.3,1.1c-1,1.5-0.9,3.3-0.7,3.4c0.2,0.1,3-0.1,4.3-0.4s2-0.4,1.7-0.1
			c-0.2,0.3-0.9,1.5-1.2,1.6c-0.4,0.2-6.6,7.1-0.8,9.4c5.9,2.3,10-0.5,11.6-1.8c1.7-1.4,4.6-3.4,5.6-5.1c1-1.6,0.3-4.1,0.2-5
			c-0.2-0.9,1.2-3,1.6-5C31.2,21.9,30,16.4,24,17.5z"/>
		<path class="st5" d="M17,31.9c0,0,0.5,2.7-1.2,3.9"/>
		<path class="st5" d="M13.4,30.8c0,0,1.2-1.7,1.4-2.4"/>
		<path class="st5" d="M17,27.5c0,0-1.7,4.1,0.9,5.1c2.6,0.9,6.7,0.5,6.7,0.5"/>
		<path class="st5" d="M20,27.9c0,0,0.7,0.3,1,1.3"/>
		<path class="st5" d="M19.4,29.9c0,0,4.8-1.8,8.6-0.5"/>
		<path class="st5" d="M25.8,22.5c0,0,1.8-0.1,1.6,1.5s-1,2.7-2.7,1.5"/>
	</g>
	<circle class="st44" cx="20.3" cy="30.1" r="20.3"/>
	<line class="st44" x1="31.5" y1="14.6" x2="8.6" y2="45.9"/>
</g>
<g id="icon_37" class="st0">
	<circle class="st45" cx="23.8" cy="26.6" r="12.3"/>
	<circle class="st45" cx="16.6" cy="33.6" r="12.3"/>
	<path class="st45" d="M13,22.1"/>
	<path class="st18" d="M20.1,22.1l5.2,3l3.2,2.8l0.9,4.4c0,0-0.5,3.4-0.9,3.6c-0.4,0.2-1.1,1.7-1.1,1.7s-3.1,1.5-3.2,1.4
		c-0.1-0.2-5.3-2.9-5.3-2.9l-3.4-0.6L13,30.1l-1.6-5.4l1.2-2l2-0.9L20.1,22.1z"/>
</g>
<g id="icon_38">
	<circle class="st8" cx="16.9" cy="7" r="5.6"/>
	<path class="st8" d="M11.3,12.9L22,12.8c0,0,3.6,0.4,5.1,5.9l-5.8,6.9l0.6,7.2l2.5,5.1l0.1,16.7c0,0,0.9,3.9-2.7,3.9
		c-2.9,0-3.2-2.2-3.2-3.6c0-1.6-0.1-18.8-0.1-18.8S17.9,35,16.8,35c-1.2,0.1-1.3,1.4-1.3,1.4v19.9c0,0-0.1,2.2-2.9,2.3
		s-3.2-2.7-3.2-2.7L9.3,26.6l-2.5,5.8c0,0-0.7,2.6-3.9,1.6c-2.6-0.9-0.9-4.9-0.9-4.9l6.2-13.7C8.1,15.4,9.3,12.9,11.3,12.9z"/>
	<circle class="st9" cx="28" cy="29" r="11"/>
	<circle class="st35" cx="24.4" cy="31.1" r="4.3"/>
	<rect x="23.8" y="26.6" transform="matrix(0.2802 -0.9599 0.9599 0.2802 -12.3849 45.7154)" class="st9" width="1" height="8.9"/>
	<path class="st7" d="M31.1,35.5L31.1,35.5c-1.4,0-2.7-1.2-2.7-2.7v-8.1c0-1.4,1.2-2.7,2.7-2.7l0,0c1.4,0,2.7,1.2,2.7,2.7v8.1
		C33.8,34.3,32.7,35.5,31.1,35.5z"/>
	<rect x="28.5" y="28.2" class="st9" width="5.3" height="1.2"/>
</g>
<g id="icon_39" class="st0">
	<path class="st18" d="M8.7,2.8l22.6-0.2c0,0,3.4,16.4-10.9,16.4C7.9,19,8.7,11.2,8.7,2.8z"/>
	<polygon class="st18" points="11.7,42.1 28.4,42.1 31.1,55.3 34.5,55.3 34.5,58.2 5.3,58.2 5.3,54.8 9,54.8 	"/>
	<rect x="12" y="32.3" class="st18" width="16.2" height="6.2"/>
	<path class="st18" d="M14.4,21.3c0,0-2.8,0.9-2.5,7.3L8.7,29l0.2,7.1c0,0-1.6-1.1-2.7-4.3L3,32.9c0,0,2.5,5.5,3.7,6.6L8.5,38
		l-1.2,9.6c0,0-11.6-6.1-11.7-22.3C-4.7,15.8,5.3,8,5.3,8s0.4,5.5,2.8,7.8c0,0-2.7-0.5-5,5.9l3,1.4c0,0,0.9-4.1,3.2-5.5
		C9,17.6,11.7,20.6,14.4,21.3z"/>
	<path class="st18" d="M25.6,21.3c0,0,2.8,0.9,2.5,7.3l3.2,0.4l-0.2,7.1c0,0,1.6-1.1,2.7-4.3l3.2,1.1c0,0-2.5,5.5-3.7,6.6L31.4,38
		l1.4,9.6c0,0,11.6-6.1,11.7-22.3C44.8,15.8,34.8,8,34.8,8s-0.4,5.5-2.8,7.8c0,0,2.7-0.5,5,5.9l-3,1.4c0,0-0.9-4.1-3.2-5.5
		C30.7,17.6,28.2,20.6,25.6,21.3z"/>
</g>
<g id="icon_40" class="st0">
	<circle class="st18" cx="20.1" cy="11.6" r="9.5"/>
	<path class="st18" d="M28.6,44.9c0,0,0-0.4-0.9-0.3c-0.9,0-6.7,0.6-9.5-5.6s-5.6-4-5.7-3.3c-0.1,0.6-0.1,2,0.4,4.2
		c0.6,2.2,1.6,4.9-0.1,5c-1.7,0.1-4.6,0.6-5.3,0.7c-0.7,0.3-1.4,0.7,0.1,1.6s3.9,1.6,6,1.7c2.3,0.1,9.5,0.1,10,3.7
		c0.4,2.9-1.9,5-5.5,5.5c-4.4,0.4-11.9-0.3-17.1-5.6C-4,47.3-2,41-1.3,39c0.7-2,4.3-12.2,9.3-16.1c1.3-0.9,2.6-1.4,5.6-1.6
		s15.5-0.1,15.5-0.1s5.5,0.6,8.6,6.6c3.3,6,4.6,9.8,4.6,9.8s0.9,3.2-0.1,5.2c-1,2-4.2,6.3-4.9,6.9c-0.6,0.6-4.3,4.9-9.8,3
		c-2.9-1-2.3-4-2.2-4.4c0.1-0.6,1-2,2.4-2.9C28.9,45,28.6,44.9,28.6,44.9z"/>
	<circle class="st34" cx="26.7" cy="36.7" r="6.6"/>
</g>
<g id="icon_41" class="st0">
	<path class="st18" d="M30,4.5c0,0-4.2,11.8-10.8,12.1s-13,3.9-13,3.9S5.6,16,2.5,14.2l0.2-6C2.6,8.1,14.6-0.7,30,4.5z"/>
	<path class="st18" d="M32,4.8c0,0-2.8,9.3-7.5,11.6c0,0,8.6,1.6,9.7,4.1c0,0,1.6-4.9,3.5-6.4L38,8.4C38,8.4,34.8,6.1,32,4.8z"/>
	<path class="st18" d="M0.6,2.8L0.9,15c0,0,3.3,3.1,3.5,7.5c0.2,4.2,0.2,11.2,0.2,11.2S4.4,35,2.6,35.1c-1.7,0.2-2-2.4-2-2.4v-7.1
		c0,0-0.2-0.5-0.9-0.5s-0.9,0.5-0.9,0.8s0,9.4,0,9.4l5,9.6c0,0,0.6,1.9-0.8,2.8c-1.6,0.8-2.7-0.5-2.7-0.5L-7,34c0,0-0.3-0.9-0.3-3.1
		s0-28.3,0-28.3L0.6,2.8z"/>
	<path class="st18" d="M6.7,22.7L6.6,34c0,0-0.5,3.6-4.6,3.1l3.5,7.1c0,0,1.1,3.3-0.5,4.1c0,0,6.4,9.4,14,9.4
		c7.7-0.2,13.8-4.9,16.5-9.1c0,0-1.7-2.4-0.2-5c1.6-2.7,3.6-6.6,3.6-6.6s-3.5,1.1-4.9-2.8V22.5C33.9,22.5,20.4,12.8,6.7,22.7z"/>
	<path class="st46" d="M9.4,35.1c0,0,0.2,2.2,1.9,2.2c1.3,0,2-0.3,2.2-2.2"/>
	<path class="st46" d="M27.1,35.1c0,0,0.2,2.2,1.9,2.2c1.3,0,2-0.3,2.2-2.2"/>
	<polyline class="st46" points="18.3,36.7 18.3,40.6 22.1,40.6 	"/>
	<path class="st46" d="M12.8,44.7c0,0,3.3,4.6,7.2,4.4c3.8-0.2,7.1-4.2,7.1-4.4"/>
	<path class="st18" d="M40.2,2.6l-0.3,12.3c0,0-3.3,3.1-3.5,7.5s-0.2,11.2-0.2,11.2s0.2,1.3,1.9,1.4c1.7,0.2,2-2.4,2-2.4v-7.1
		c0,0,0.2-0.5,0.9-0.5s0.9,0.5,0.9,0.8s0,9.4,0,9.4l-5,9.6c0,0-0.6,1.9,0.8,2.8c1.4,0.8,2.5-0.3,2.5-0.5c0-0.2,7.2-13.4,7.2-13.4
		s0.3-0.9,0.3-3.1s0-28.3,0-28.3L40.2,2.6z"/>
</g>
<g id="icon_42" class="st0">
	<path class="st14" d="M13.6,23.1l-0.2,13c0,0,0.6,4.3-3.7,4.3S-3.9,42-6.3,51.5C-7,54.3-7,55.6-6.9,56c0.2,0.4,0,1.5,1.5,1.5
		c1.5,0,6.9,0,6.9,0s1.1-0.2,1.5-2c0.4-1.9,1.9-4.6,3.7-4.8c0,0-0.2,6.7,7.8,6.9c8,0.2,27.9-6.1,31.4-22.5c2.6-11.7,2-19.5-4.6-25.5
		c-6.7-6.1-15.1-7.2-19.7-6.3C16.8,4.1,14,9.5,14,12.8c0,0-7.1,0.7-10.2-5.2C3,6,3,4.1,3,4.1s0-1.5-1.5-1.5s-6.7,0-6.7,0
		s-2,0.2-1.7,2.6C-6.5,7.6-4.1,20.3,5.6,22C9.5,22.9,12.8,23.1,13.6,23.1z"/>
</g>
<g id="icon_43" class="st0">
	<circle class="st18" cx="20.1" cy="8.9" r="6.8"/>
	<path class="st18" d="M9.4,21h21.6c0,0-1.2-3.7-5.1-3.9s-11.5,0-11.5,0S9.7,17.3,9.4,21z"/>
	<path class="st18" d="M34.9,47.2H5.6c-2.1,0-3.7-1.7-3.7-3.7V26.2c0-2.1,1.7-3.7,3.7-3.7h29.4c2.1,0,3.7,1.7,3.7,3.7v17.1
		C38.7,45.3,36.9,47.2,34.9,47.2z"/>
	<path class="st18" d="M12.4,48.5h6.8v7.2c0,0-0.1,2.3-2,2.3c-1.9,0-2.8,0-2.8,0s-2.1-0.1-2.1-2.8C12.2,53.2,12.4,48.5,12.4,48.5z"
		/>
	<path class="st18" d="M21.1,48.5h6.8v7.2c0,0-0.1,2.3-2,2.3s-2.8,0-2.8,0s-2.1-0.4-2.1-2.8C21.1,53.2,21.1,48.5,21.1,48.5z"/>
	<path class="st24" d="M14.8,45.4l10.5-0.1c0,0-0.8-1.7-1.9-1.9c-1.2-0.1-2.1,0.1-2.7,0.8c-0.5,0.7-1.1,0.5-1.5,0.1
		c-0.4-0.5-1.7-1.1-2.5-0.9C16.1,43.8,14.8,44.6,14.8,45.4z"/>
	<path class="st47" d="M18.1,40.9L18.2,29c0,0-0.1-2.5,1.6-2.7c1.9-0.1,1.9,2.5,1.9,2.5v11.9"/>
	<path class="st48" d="M28.3,45.3c0,0-1.3-5.1-6.5-4.4"/>
	<path class="st48" d="M22.1,38.6H28c0,0,3.7-0.4,4.5-3.6"/>
	<path class="st48" d="M22.1,34.1h4.1c0,0,3.6-0.3,4.3-3.5"/>
	<path class="st22" d="M22,29.8l3.1-0.1h0.1c0.4-0.1,2.7-0.3,3.3-2.9"/>
	<path class="st48" d="M11.7,45.2c0,0,1.3-5.1,6.5-4.4"/>
	<path class="st48" d="M18,38.5h-5.9c0,0-3.7-0.4-4.5-3.6"/>
	<path class="st48" d="M18.1,34H14c0,0-3.6-0.3-4.3-3.5"/>
	<path class="st22" d="M18.1,29.7L15,29.6h-0.1c-0.4-0.1-2.7-0.3-3.3-2.9"/>
</g>
<g id="icon_44" class="st0">
	<path class="st49" d="M4.8,8.2c0,0,4.6-6,13.5-4.6c0,0,12.4-4,17.9,4.7c0,0,10,2.9,9.7,13c0,0,5.7,7.8,0.2,17.3
		c0,0-1.1,11.3-11.3,13.7c0,0-3.1,7.5-15.3,4.4c0,0-8.4,3.1-14.4-4.4c0,0-8-2.7-9.9-11.7c0,0-6.9-13,0.4-19.3
		C-4.6,21.1-4.4,11.8,4.8,8.2z"/>
	<path class="st46" d="M45.3,21.3c0,0-5.1-12.4-22.1,0.2"/>
	<path class="st46" d="M45.4,21.7c0,0,0.4,10.8-8.9,13.7"/>
	<path class="st46" d="M39,43.6c0,0,5.3-2.6,7.3-6"/>
	<path class="st46" d="M13.3,8.4c0,0,4.2-4.4,6.9-5.1"/>
	<path class="st46" d="M26.5,51.2c0,0,5.3,1.8,9.3,0.7"/>
	<path class="st46" d="M22.4,57.3c0,0-13.7-2.4-12-13.1c0.7-4,3.5-8.9,3.5-8.9s-6.7,2-9.7,0.2"/>
	<path class="st46" d="M-6.4,37c0,0,4,5.7,7.7,6.7"/>
	<path class="st46" d="M-6,23c0,0,5.7-8,23.7-1.1"/>
</g>
<g id="icon_45" class="st0">
	<g class="st1">
		<path class="st8" d="M21.2,16.2c-1.9,0-3.7,0.3-5.5,1.1c0.2,0.5,0.3,1.1,0.3,1.6c0,3.4-2.8,6.2-6.2,6.2c-0.6,0-1.3-0.2-1.8-0.3
			c-0.8,1.8-1.3,3.7-1.3,5.8c0,1,0.2,1.8,0.3,2.8c0.8-0.5,1.8-0.8,2.9-0.8c3.2,0,5.8,2.6,5.8,5.8c0,1.8-0.8,3.4-2.1,4.5
			c2.3,1.5,4.9,2.3,7.6,2.3c1.3,0,2.6-0.2,3.9-0.5c-1-1.3-1.6-2.9-1.6-4.7c0-4.1,3.4-7.5,7.5-7.5c1.6,0,3.2,0.5,4.4,1.5
			c0.3-1.1,0.3-2.1,0.3-3.2C35.6,22.7,29.1,16.2,21.2,16.2z"/>
	</g>
	<circle class="st18" cx="30.8" cy="40" r="4.7"/>
	<circle class="st18" cx="9.8" cy="38.4" r="3.1"/>
	<circle class="st18" cx="9.8" cy="19.1" r="3.4"/>
	<path class="st18" d="M32.7,18.3c0-0.2,0-0.5,0-0.6c0-4.5-3.7-8.1-8.1-8.1c-3.2,0-5.8,1.8-7.3,4.5c1.3-0.3,2.6-0.5,4.1-0.5
		C25.9,13.4,29.9,15.4,32.7,18.3z"/>
	<path class="st18" d="M42.4,16.7L38,20.9c-0.8,0.8-2.1,0.3-2.4-0.6l-1.5-5.8l-1.5-5.8c-0.3-1.1,0.8-2.1,1.8-1.8l5.8,1.6l5.8,1.6
		c1.1,0.3,1.5,1.6,0.6,2.4L42.4,16.7z"/>
	<path class="st19" d="M42.4,16.7c0,0,9.2,10.5,1.9,25.3S21,55.9,21,55.9"/>
	<path class="st18" d="M-1.8,43.7l4.4-4.2c0.8-0.8,2.1-0.3,2.4,0.6L6.4,46l1.5,5.8c0.3,1.1-0.8,2.1-1.8,1.8L0.3,52l-5.8-1.6
		C-6.7,50-7,48.7-6.2,47.9L-1.8,43.7z"/>
	<path class="st19" d="M-1.8,43.7c0,0-8.7-12.6-2.1-25.3C4.7,1.8,19.4,4.4,19.4,4.4"/>
</g>
<g id="icon_46" class="st0">
	<path class="st18" d="M14.3,51.3H-0.4c-1,0-2.1-0.9-2.1-2.1l0,0c0-1,0.9-2.1,2.1-2.1h14.7c1,0,2.1,0.9,2.1,2.1l0,0
		C16.2,50.2,15.3,51.3,14.3,51.3z"/>
	<path class="st18" d="M45.1,57.4H-4.5c-1,0-1.9-0.9-1.9-1.9l0,0c0-1,0.9-1.9,1.9-1.9h49.5c1,0,1.9,0.9,1.9,1.9l0,0
		C47,56.5,46.3,57.4,45.1,57.4z"/>
	<path class="st18" d="M11.5,40.4l-6.8-4.2c-1.7-1-2.4-3.5-1.2-5.2L16.5,9.4c1-1.7,3.5-2.4,5.2-1.2l6.8,4.2c1.7,1,2.4,3.5,1.2,5.2
		L16.7,39.2C15.7,41.1,13.2,41.6,11.5,40.4z"/>
	<path class="st18" d="M5.5,42.9L5.5,42.9c-1.2-0.7-1.4-2.1-0.9-3l2.6-4.4c0.5-1,1.9-1.4,3-0.7l0.2,0.2c1,0.5,1.4,1.9,0.7,3
		l-2.6,4.2C7.8,42.9,6.6,43.2,5.5,42.9z"/>
	<path class="st18" d="M29.8,10.7l-6.6-4c-0.7-0.3-0.9-1.2-0.5-1.9l0.7-1.2c0.3-0.7,1.2-0.9,1.9-0.5l6.6,4c0.7,0.3,0.9,1.2,0.5,1.9
		l-0.7,1.2C31.4,10.8,30.5,11,29.8,10.7z"/>
	<path class="st50" d="M30,27.6c0,0,14,4.9,11.9,14.2c-1.6,7.2-5.4,12.4-5.4,12.4"/>
</g>
<g id="icon_47" class="st0">
	<path class="st18" d="M-2.9,49.8l-4.7-8.7c-0.4-0.9-0.1-1.9,0.7-2.3l2.1-1.1l6.3,11.4l-2.4,1.3C-1.6,50.6-2.5,50.4-2.9,49.8z"/>
	<path class="st18" d="M-2.8,36.1l5.9,11.6l3.7-2l16.7,3.4c0,0,2.7,0.7,7-0.9s16.7-7,16.7-7s1.6-0.9,1-2.7c-0.6-1.9-2-1.9-3.6-1.3
		c-1.6,0.4-10.6,4.4-10.6,4.4s-1.3,0.6-3.6,0.6c-2.1,0-13-0.7-13-0.7s-0.6,0-0.6-0.9c0.1-0.9,1.9-0.6,1.9-0.6l11.6,0.4
		c0,0,2.1-0.3,2.1-2.4s-1.4-2.6-2.3-2.7c-0.9-0.1-8.3-0.3-18.3-4.4c-1.7-0.7-7.1,0.6-8.9,1.6C1.4,33.5-2.8,36.1-2.8,36.1z"/>
	<path class="st18" d="M34.5,37.4c0,0,0.1,1.6,0,2l9.3-3.4c0,0-0.6-1.4-3-0.7S34.5,37.4,34.5,37.4z"/>
	<path class="st18" d="M32.7,34.4l1.1,1.3l6-1.7c0,0-1-0.9-3.7-0.3C33.2,34.1,32.7,34.4,32.7,34.4z"/>
	<path class="st40" d="M37.1,9.8c0,0,1.4,17.3-16.6,16.4c0,0,3-5.7,10-8.9c0,0-9.4,0.7-14.3,13.6c0,0-0.3,0.7-1,0.6
		c-0.7-0.3-0.7-1-0.6-1.9c0.1-0.9,1-3.1,2.4-4.1c0,0-1.7-10.3,11-11C31.1,14.5,35.4,11.8,37.1,9.8z"/>
</g>
<g id="icon_48" class="st0">
	<path class="st17" d="M19.6,1.6h5.1V19c0,0,0,4.2,7.2,3.7l2.3,2.8l-2.6,0.3c0,0-4.4,0.7-5.8-0.9c-1.4-1.6-1,1.2-1,1.2v32.2h-5.2
		l-1.7-33c0,0-0.9,3.7-9.1,2.8l-1-2.3l0.3-0.7c0,0,4,1,9.3-1.4c1.9-0.9,1.9-7.2,1.9-7.2L19.6,1.6z"/>
	<path class="st18" d="M31.6,29.7c0,0-10.1,2.6-11.7-6.8V1.6h-4.7v26.7c0,0,0.9,3.3-6.3,3.8l-2.1,2.1l1.2,1l1.4,0.3l3.1-0.9
		c0,0,2.6-0.9,2.8,1c0,1.7,0,22.9,0,22.9l4.7-0.2V29.7c0,0,3.1,4.5,11.2,3.7l1.2-2.8L31.6,29.7z"/>
	<path class="st17" d="M33.9,10.5c0,0,6.3-2.8,10.3,1.9s6.3,18.7,1.6,27.8s-10.1,6.6-12.6,5.6c-2.6-1-4.4-5.2-3.3-8.4
		c0.9-3.1,1.9-5.9,1.7-7c-0.3-1-1-3.8-0.5-4.9c0.5-1,0.7-3,0.2-3.5c-0.5-0.5-1.7-1.9-1.7-3.3C29.6,17.5,29.2,13.3,33.9,10.5z"/>
	<path class="st17" d="M6.5,12.6c0,0-6.3-2.8-10.3,1.9s-6.3,18.2-1.6,27.1S4.9,47.9,7.2,47c2.3-0.9,4.4-5.1,3.3-8s-1.9-5.8-1.7-6.8
		c0.3-1,1-3.7,0.5-4.7c-0.5-1-0.7-3-0.2-3.5c0.5-0.5,1.7-1.9,1.7-3.1S11.2,15.2,6.5,12.6z"/>
</g>
<g id="icon_49" class="st0">
	<g id="brain" class="st1">
		<path class="st51" d="M9.6,23.5c0,0-2.4-3,0.5-5.2c0,0,0.7-3.2,3.9-2.7c0,0,1.5-3.5,5.1-2.5c0,0,3-2.2,4.9,0c0,0,3.9-1.3,5.2,1.5
			c0,0,3.5,0.2,3.9,3c0,0,4.6,4.6-0.2,7.6L9.6,23.5z"/>
		<path class="st52" d="M10.8,16.8c0,0-1.3,2.4,0.8,3.4"/>
		<path class="st52" d="M14.5,14.6c0,0-2.2,4.6,2.9,5.4"/>
		<path class="st52" d="M19.1,21.8c0,0,3.4-4.7-1.7-6.1"/>
		<path class="st52" d="M23,17.1c0,0,0,2.4-2.7,2.5"/>
		<path class="st52" d="M22.8,12.4c0,0.2,1.9,0.3,2.2,3.9"/>
		<path class="st52" d="M23.8,23c0,0,0.3-3.4,4-3.2"/>
		<path class="st52" d="M31.2,22.5c0,0-3.2-0.2-3.2-3.7"/>
		<path class="st52" d="M14,22c0,0,0.2,1.7,1.5,2"/>
		<path class="st53" d="M9.6,23.7c0,0-2.9,2.5-0.3,5.2c0,0,0.2,3.2,3.4,3.2c0,0,1,3.7,4.7,3.2c0,0,2.7,2.5,4.9,0.7
			c0,0,3.7,1.9,5.4-0.7c0,0,3.5,0.2,4.2-2.5c0,0,5.2-3.9,0.8-7.6L9.6,23.7z"/>
		<path class="st5" d="M10,30.4c0,0-1-2.5,1.3-3.2"/>
		<path class="st5" d="M13.3,33.3c0,0-1.5-4.7,3.7-5.1"/>
		<path class="st5" d="M18.7,26.7c0,0,2.7,5.1-2.5,5.7"/>
		<path class="st5" d="M21.8,32c0,0,0.3-2.2-2.4-2.9"/>
		<path class="st5" d="M21.1,36.7c0-0.2,1.9,0,2.7-3.5"/>
		<path class="st5" d="M23.6,26.2c0,0-0.2,3.4,3.5,3.7"/>
		<path class="st5" d="M30.7,27.6c0,0-3.2-0.2-3.5,3.2"/>
		<path class="st5" d="M16,25.9c0,0,0.3-1.7,1.9-1.7"/>
		<path class="st5" d="M27.2,27.4c0,0,0.7-2,2.4-2.5"/>
	</g>
	<path class="st18" d="M14.5,7.5C6.3,8.7,3.6,12,0.7,15.8c-2.9,3.9-1.9,12.3-1.9,12.3s-2.9,3.4-3.5,4.2c-0.7,0.8-2,2.9-1.9,4.6
		c0.3,1.7,3,2,3,2s-0.3,3.5-0.3,4.4c0,0.8,0.8,1,1,1.2c0.2,0,0.3,0.3,0.3,0.3s-0.7,0.2-0.7,0.8c0,1,1,1.5,1,1.5c0,0.2,0.3,0.3,0,1.3
		c-0.5,1-0.5,2.7,1.3,4.2c1.9,1.5,9.4,1.3,9.4,1.3v5.1l24.1-0.5c0,0-0.5-0.7-1.3-5.1c-0.8-4.4,0.3-7.6,0.5-8.3
		c0.3-0.7,1.9-3.2,4.4-7.3c1.7-2.7,2.7-6.6,3-10.5c-0.2,0-0.3,0-0.3,0C25.7,26.7,15.2,18,14.5,7.5z"/>
	<path class="st18" d="M15,7.2c0,0,8.6,14.7,32.1,8.6C47.1,15.8,37.5-10.6,15,7.2z"/>
</g>
<g id="icon_50" class="st0">
	<path class="st54" d="M20.3,4.7c0,0,5.9-5.4,10.8,0.2c0,0,6.8,0.9,6.1,7.7c0,0,7.7,2.6,6.1,10.3c0,0,4.9,6.1,0.9,10.3
		c0,0,3.3,8-2.3,11.2c0,0,0,7.5-5.8,8.6c0,0-8.9,10.3-15.9,0.7L20.3,4.7z"/>
	<path class="st55" d="M34.8,6.5c0,0-5.2-2.4-7,2.4"/>
	<path class="st55" d="M39.7,13.9c0,0-9.4-3.8-10.6,6.9"/>
	<path class="st55" d="M25.2,24.5c0,0,10.3,6.3,12.4-4.5"/>
	<path class="st55" d="M35.7,31.7c0,0-4.7,0.3-5.6-5.2"/>
	<path class="st55" d="M45.6,30.9c-0.2,0-0.1,4-7.6,5.2"/>
	<path class="st55" d="M23.4,34.5c0,0,7.2,0,7.3,7.9"/>
	<path class="st55" d="M25.5,49.8c0,0,0-6.8,7.2-7.2"/>
	<path class="st55" d="M24.3,13.7c0,0-3.5,0.5-4,3.5"/>
	<path class="st54" d="M20.1,4.7c0,0-5.9-5.4-10.8,0.2c0,0-6.8,0.9-6.1,7.7c0,0-7.7,2.6-6.1,10.3c0,0-4.9,6.1-0.9,10.3
		c0,0-3.3,8,2.3,11.2c0,0,0,7.5,5.8,8.6c0,0,8.9,10.3,15.9,0.7V4.7z"/>
	<path class="st55" d="M5.8,6.5c0,0,5.2-2.4,7,2.4"/>
	<path class="st55" d="M0.5,14c0,0,9.8-3.8,11,6.8"/>
	<path class="st55" d="M15,24.5c0,0-10.3,6.3-12.4-4.5"/>
	<path class="st55" d="M4.6,31.7c0,0,4.7,0.3,5.6-5.2"/>
	<path class="st55" d="M-5.3,30.4c0.1,0.1,0.2,4.4,7.7,5.6"/>
	<path class="st55" d="M17,34.5c0,0-7.2,0-7.3,7.9"/>
	<path class="st55" d="M14.9,49.8c0,0,0-6.8-7.2-7.2"/>
	<path class="st55" d="M16.3,18.7c0,0,3.5,0.5,4,3.5"/>
	<path class="st55" d="M14.7,42.2c0,0,4.4,1,5.4,4.5"/>
</g>
<g id="icon_51" class="st0">
	<circle class="st18" cx="20.3" cy="30.1" r="28.9"/>
	<circle class="st56" cx="20" cy="30.7" r="8"/>
	<path class="st57" d="M16,22.8l-5.2-9.5c0,0,10.1-4.7,17.8-0.1l-5,9.6"/>
	<path class="st57" d="M28.5,30.5l10.8,0.1c0,0-0.7,11.1-8.4,15.6l-5.9-9"/>
	<path class="st57" d="M14.8,37.6l-6.2,8.9c0,0-8.7-7-8-15.8L11.4,31"/>
</g>
<g id="icon_52" class="st0">
	<path class="st18" d="M41.8,58.1h-43c-3.7,0-6.8-3.1-6.8-6.8V8.8C-8,5.1-4.9,2-1.2,2h42.8c3.7,0,6.8,3.1,6.8,6.8v42.4
		C48.6,55.1,45.5,58.1,41.8,58.1z"/>
	<path class="st24" d="M10.3,23.5h20.9l7.4-10.4c0,0-17.8-15.6-35.8,0.2L10.3,23.5z"/>
	<path class="st17" d="M20.1,30.5c0,0,2.9-4.3,8.4-2.9c5.7,1.6,6.3,5.9,6.3,5.9s2,11.7-14.1,20.1c0,0-16.6-5.9-15.4-18.8
		c0.4-5.1,4.3-7.6,6.3-7.8C14.2,27,17.6,27.2,20.1,30.5z"/>
	<circle class="st58" cx="20.3" cy="22.5" r="4.1"/>
	<line class="st19" x1="26" y1="12.5" x2="22.3" y2="18.6"/>
	<path class="st18" d="M19.9,46.7L19.9,46.7c-1,0-1.7-0.7-1.7-1.7v-8.6c0-1,0.7-1.7,1.7-1.7l0,0c1,0,1.7,0.7,1.7,1.7v8.6
		C21.8,45.9,20.9,46.7,19.9,46.7z"/>
	<path class="st18" d="M26,40.5L26,40.5c0,1-0.7,1.7-1.7,1.7h-8.6c-1,0-1.7-0.7-1.7-1.7l0,0c0-1,0.7-1.7,1.7-1.7h8.6
		C25.3,38.8,26,39.5,26,40.5z"/>
</g>
<g id="icon_53" class="st0">
	<path class="st18" d="M45.1,17.8l-1.4,4.6c0,0-1,2.7-4.9,2.7s-6.3-1-6.6,1.7c-0.5,2.7-1.7,9-9.6,9.6c0,0-0.5,0.5,0.3,0.7
		c0.8,0.2,4.2-0.2,5.7-1c1.5-0.8,3.4,0.3,4.4,2.7c1,2.4,1.5,2.7,2,2.5c0.5,0,2.5-0.5,3,0s1.2,1.5-0.7,2.7c-1.9,1.4-3.7,0.8-4.9-0.5
		c-1.2-1.4-1.9-1.9-2.5-2c-0.7-0.2-2.4,0-2.5,1.5s-2.7,6.9-9,6.3c-6.1-0.7-9.3-3.4-10.5-7.9s0.8-9.3,1.4-10.6
		c0.7-2.4,0.5-3.4-0.3-4.7c-0.8-1.4-2.4-1-2.9-5.2c-0.7-4.1,2.7-8.1,5.2-9.6c0,0,2.7-1.9,5.7-1.2s5.6,2,7.4,4.2
		c2.2,2.4,2,5.7,0.2,8.4c-0.3,0.5-0.5,0.8-0.2,1.4c0.3,0.5,0.8,3.2-1,3.7c-1.9,0.5-3.9,0.5-4.4,1.2c-0.5,0.7-0.2,1.2,0.5,1.7
		c0.7,0.5,1.9,0.7,2,0.7s0-0.7,0-1.2c0-0.5,1-1,1.9-0.2c0.8,0.8,1.5,1.7,1,2.9c-0.3,1.2-0.7,0.7,0.2,0.8c0.7,0.2,0.3-0.3,1.2-0.7
		c0.7-0.3,1.2-0.3,1.4-0.8c0.3-0.5,1.9-5.9,2.4-6.6c0.5-0.7,1-2.9,7.1-4.4c3-0.7,3.2-2.4,2.7-5.1c-0.5-2-1.5-5.7-2-7.4
		c-4.7-3.7-10.8-6.1-17.2-6.1C4.9,2.4-7.5,14.9-7.5,30.1c0,15.4,12.5,27.7,27.7,27.7S48,45.6,48,30.3C48,25.7,46.9,21.5,45.1,17.8z"
		/>
</g>
<g id="icon_54" class="st0">
	<path class="st18" d="M-4,10.6c0,0,1.6-3.8,5.2-2.5s3.8,4.1,3.6,6.3C4.6,16.6,5.3,20,5.3,20s2,4,4.1,0.7c2.7-4,9.7-14.2,9.7-14.2
		s2.5-3.6,6.3-1.4c3.8,2,1.1,6.5,1.1,6.5l-5.4,10.8l12.4-11.5c0,0,3.8-2.5,6.3,0.9S39.1,18,39.1,18L28.7,29.2l10.1-5
		c0,0,4.1-1.4,5.6,1.8s-0.2,5.2-1.1,5.9C42.3,32.6,31,40.1,31,40.1l7.2-1.6c0,0,4.7-0.9,5.4,2.9c0.7,3.8-1.6,5-2.9,5.4
		C39.6,47.3,18.8,55,18.8,55s-9.5,3.4-17.3-3.6c-6.8-6.1-5.8-17.1-5.8-17.1S-4.6,11.7-4,10.6z"/>
	<circle class="st24" cx="6.4" cy="34.7" r="2.5"/>
	<circle class="st24" cx="20" cy="34.7" r="2.5"/>
	<path class="st22" d="M3.7,40.5c0,0,2.2,7.2,8.8,7.4s9.2-4.7,9.9-7.2"/>
</g>
<g id="icon_55" class="st0">
	<path class="st18" d="M30.5,45.7H10c-2.1,0-3.7-1.7-3.7-3.7V18.3c0-2.1,1.7-3.7,3.7-3.7h20.5c2.1,0,3.7,1.7,3.7,3.7v23.6
		C34.3,44,32.5,45.7,30.5,45.7z"/>
	<text transform="matrix(1 0 0 1 17.485 23.8884)" class="st24 st59 st60">E</text>
	<text transform="matrix(1 0 0 1 14.132 30.3695)" class="st24 st59 st61">F</text>
	<text transform="matrix(1 0 0 1 22.3673 30.3695)" class="st24 st59 st61">P</text>
	<text transform="matrix(1 0 0 1 24.426 36.0818)" class="st24 st59 st62">Z</text>
	<text transform="matrix(1 0 0 1 18.1318 36.0818)" class="st24 st59 st62">O</text>
	<text transform="matrix(1 0 0 1 12.4848 36.0818)" class="st24 st59 st62">T</text>
	<text transform="matrix(1 0 0 1 10.7204 41.4934)" class="st24 st59 st63">L</text>
	<text transform="matrix(1 0 0 1 15.838 41.4934)" class="st24 st59 st63">P</text>
	<text transform="matrix(1 0 0 1 20.6616 41.4934)" class="st24 st59 st63">E</text>
	<text transform="matrix(1 0 0 1 25.9557 41.4934)" class="st24 st59 st63">D</text>
</g>
<g id="icon_56" class="st0">
	<path class="st18" d="M3.8,54.1L-7.9,41.4l27.6-25.4c3.6-3.2,9.1-3,12.3,0.6l0,0c3.2,3.6,3,9.1-0.6,12.3L3.8,54.1z"/>
	<rect x="18.4" y="25.8" transform="matrix(0.7362 -0.6768 0.6768 0.7362 -13.2189 20.6515)" class="st24" width="3" height="3"/>
	<rect x="18.4" y="25.8" transform="matrix(0.7362 -0.6768 0.6768 0.7362 -13.2189 20.6515)" class="st24" width="3" height="3"/>
	<rect x="13.6" y="30.1" transform="matrix(0.7362 -0.6768 0.6768 0.7362 -17.4112 18.5983)" class="st24" width="3" height="3"/>
	
		<rect x="9.1" y="27.4" transform="matrix(0.7362 -0.6768 0.6768 0.7362 -21.6354 16.7777)" class="st24" width="3.2" height="17.4"/>
	<polyline class="st19" points="31.4,17 43.3,6.1 48.4,6.2 	"/>
</g>
<g id="icon_57" class="st0">
	<path class="st18" d="M12.7,52.9l0.1-2.5c0-0.4,0.6-0.7,0.9-0.4l2,1.3l2,1.3c0.4,0.3,0.3,0.9,0,1l-2.2,1l-2.2,1.2
		c-0.4,0.3-0.9,0-0.9-0.6L12.7,52.9z"/>
	<path class="st64" d="M13.3,52.9c0,0-18.5-3.3-19.8-19.8C-6.9,19,2.5,12.1,2.5,12.1"/>
	<path class="st24" d="M25.7,16.5c0,0,4.3-1,6.3,0c2.5,1.2,4.3,4.2,3,9.2c-1.3,5-2.5,9.4-2.7,13.7c-0.4,4.3-3.5,7.2-5.5,7.5
		c-2,0.4-3.5-1.7-3-3.3c0.4-1.6,1-6.2,0.9-7.4c-0.1-2.2-1.3-4-3-4c-1.7,0-2.6,1-3,2c-0.4,1.2-1.2,5.5-0.6,7.5c0.4,2,0.1,5-1.7,5
		c-1.9,0.1-5.5-1.9-6.9-10.4C8,27.9,7.3,26,7,24.9C6,21,7,16,11.3,15.7s7.8,1.6,9.4,1.7C21.8,17.7,24.1,16.8,25.7,16.5z"/>
	<path class="st17" d="M17.9,20.7c0,0,2.6,1.4,3.6,1c1-0.6,3.5-1.7,6.2-0.4c2.7,1.4,2.7,3,2.7,3s0.9,3-0.6,5.3c-1.4,2.5-1,7.4-1,7.4
		s0.1,1.7-0.7,1.7c-0.7,0-1.3-1.6-1.3-1.9c0-0.3-0.9-6.3-4.9-7.1c-4-0.7-4.8,3-5.3,4.5c-0.3,1-0.6,3.8-0.6,3.8s-0.1,1.4-1,1.3
		c-0.7-0.1-1-1.6-1-5c0-3.5-1-3.8-1.6-5.8S12,23,14,21.4C15.9,19.8,17.9,20.7,17.9,20.7z"/>
	<path class="st18" d="M26.3,7.3v2.5c0,0.4-0.4,0.7-0.9,0.6l-2.2-1.2L21.1,8c-0.4-0.1-0.4-0.9,0-1l2-1.3l2-1.3
		c0.4-0.3,0.9,0,0.9,0.4L26.3,7.3z"/>
	<path class="st64" d="M25.7,7.3c0,0,18.6,2.2,21.1,18.5c1.4,14.1-7.5,21.6-7.5,21.6"/>
</g>
<g id="icon_58" class="st0">
	<path class="st24" d="M23.7,6.2c0,0,6.9-1.5,10.2,0c3.9,1.9,6.9,6.8,4.8,14.9s-3.9,15-4.4,22.2c-0.8,6.9-5.6,11.8-8.9,12.2
		c-3.3,0.8-5.6-2.7-5-5.4c0.8-2.5,1.5-10.2,1.4-12c-0.4-3.7-2.1-6.6-5-6.6s-4.2,1.5-5,3.3c-0.8,1.9-1.9,8.9-1,12.2
		c0.8,3.3,0.4,8.1-2.7,8.3C5,55.4-0.8,52.1-3.1,38.4S-6.6,21.6-7,19.7C-8.7,13.3-7,5.2,0,4.8c6.9-0.6,12.7,2.5,15,2.7
		C17.3,8.1,21.2,6.5,23.7,6.2z"/>
	<path class="st17" d="M11,12.9c0,0,4.1,2.3,5.8,1.5c1.7-0.8,5.4-2.9,10-0.8c4.4,2.3,4.4,4.8,4.4,4.8s1.4,4.8-1,8.7S28.5,39,28.5,39
		s0.2,2.7-1.2,2.7c-1.2,0-2.1-2.5-2.1-3.1c0-0.6-1.4-10.2-7.9-11.6c-6.6-1.4-7.7,5-8.5,7.1c-0.6,1.5-1,6.2-1,6.2s-0.4,2.3-1.5,2.1
		c-1.2-0.2-1.5-2.5-1.5-8.1c0-5.4-1.7-6.2-2.5-9.5C1.5,21.6,1.5,16,4.8,13.5C7.7,11.6,11,12.9,11,12.9z"/>
	<circle class="st18" cx="36.2" cy="39.3" r="12"/>
	<path class="st24" d="M36.8,46.1h-1.7c-1,0-1.7-0.8-1.7-1.7v-9.8c0-1,0.8-1.7,1.7-1.7h1.7c1,0,1.7,0.8,1.7,1.7v9.8
		C38.5,45.3,37.8,46.1,36.8,46.1z"/>
	<path class="st24" d="M29.5,40.3v-1.7c0-1,0.8-1.7,1.7-1.7H41c1,0,1.7,0.8,1.7,1.7v1.7c0,1-0.8,1.7-1.7,1.7h-9.8
		C30.2,42,29.5,41.3,29.5,40.3z"/>
</g>
<g id="icon_59" class="st0">
	<path class="st18" d="M15.2,1.9h14l-7.2,15.2c0,0,3.1,2.8,2.4,6.1c-0.6,3.1-2.1,5.1-7.2,4.5c-2.1-0.3-4.6-2.8-5.4-3
		c-0.6-0.1-2.2-0.7-3.9-0.6C6.5,24.4,2,23.7,2,17.4c0-4.6,4.6-7,8.6-5.7L15.2,1.9z"/>
	<path class="st18" d="M11.2,58.3h13.6l-3-13c0,0,4.8-1.9,3.4-7.5s-7.6-4.2-8.6-3.7c-1,0.6-1.9,1.6-4.5,1c-2.5-0.6-5.7-0.6-7.3,1.9
		c-1.3,2.1-1.3,7.8,4,9.5L11.2,58.3z"/>
	<path class="st18" d="M37.8,31.9h-3.1c-0.9,0-1.6-0.7-1.6-1.6l0,0c0-0.9,0.7-1.6,1.6-1.6h3.1c0.9,0,1.6,0.7,1.6,1.6l0,0
		C39.4,31.1,38.7,31.9,37.8,31.9z"/>
	<path class="st18" d="M35.2,23.2L33,25.5c-0.6,0.6-1.6,0.6-2.2,0l0,0c-0.6-0.6-0.6-1.6,0-2.2L33,21c0.6-0.6,1.6-0.6,2.2,0l0,0
		C35.8,21.6,35.8,22.6,35.2,23.2z"/>
	<path class="st18" d="M32.7,39.2l-2.1-2.4c-0.6-0.6-0.6-1.6,0.1-2.2l0,0c0.6-0.6,1.6-0.6,2.2,0.1l2.1,2.4c0.6,0.6,0.6,1.6-0.1,2.2
		l0,0C34.3,39.9,33.3,39.8,32.7,39.2z"/>
</g>
<g id="icon_60" class="st0">
	<circle class="st18" cx="13.9" cy="14.2" r="6"/>
	<circle class="st18" cx="36.6" cy="39.8" r="6.8"/>
	<path class="st18" d="M-7.8,51.6v2.8c0,0,0,0.8,0.9,0.8s35.6,0,35.6,0s-2.4-1.7-2.5-2.4l-31.5-0.3C-5.4,52.6-6.8,52.7-7.8,51.6z"/>
	<path class="st18" d="M26.7,51l2.5,2.4c0,0,0.8,1.6,3.3,1.6s14.2,0,14.2,0s1.7-0.8,1.7-3s-1.6-3.1-3.8-3.1s-11.5,0-11.5,0
		s-7.9-8.8-9.3-9H-5.7c0,0-1.9,0-2,1.9c-0.2,1.7,0,7.1,0,7.1s0,2.4,1.6,2.4S26.7,51,26.7,51z"/>
	<path class="st18" d="M9.2,37.8c0,0,1.3-2.7,3-3.6c1.7-0.9,1.7-3.1,1.6-3.6l3,2.8l9.4,4.1c0,0,2.4,0.6,3-1.1
		c0.6-1.9,0.3-2.8-0.9-3.5s-8.7-3.3-8.7-3.3l-6.4-6.3c0,0-1.3-0.9-2.8-1.3c-1.4-0.3-3.9-0.6-3.9-0.6s-2-0.3-3,2S-2.3,37-2.3,37
		s-0.6,1.4,0.3,1.4s10.4,0,10.4,0S9.1,38.4,9.2,37.8z"/>
	<path class="st18" d="M6.5,12.1c0,0,0.8-3.6,4.6-5c0,0-0.8-2.5-4.2-2C3.4,5.5,4,9.5,4.3,9.9C4.5,10.4,5.1,11.8,6.5,12.1z"/>
</g>
<g id="icon_61" class="st0">
	<defs>
		<path id="SVGID_20_" d="M19.3,2.2c0,0,9.5-1.4,15.2,2.3c5.7,3.6,9.3,7.7,10.2,13.6s-0.4,13.1-3,17.3c-2.7,4.5-4.5,7.2-4.8,7.9
			c-0.2,0.7-1.4,4.3-0.5,8.9c0.9,4.8,1.4,5.5,1.4,5.5l-26.1,0.5v-5.5c0,0-8.2,0.2-10.2-1.4c-2-1.6-2-3.4-1.4-4.6
			c0.4-1.1,0-1.3,0-1.4c0,0-1.1-0.5-1.1-1.6c0-0.7,0.7-0.9,0.7-0.9s-0.2-0.4-0.4-0.4c-0.2-0.2-1.1-0.4-1.1-1.3s0.5-4.8,0.5-4.8
			s-2.9-0.4-3.2-2.1c-0.2-1.8,1.3-4.1,2-5c0.7-0.9,3.8-4.6,3.8-4.6s-1.1-9.1,2-13.4C6.5,7,9.5,3.3,19.3,2.2z"/>
	</defs>
	<use xlink:href="#SVGID_20_"  style="display:inline;overflow:visible;fill:#1341A3;"/>
	<clipPath id="SVGID_21_" class="st1">
		<use xlink:href="#SVGID_20_"  style="overflow:visible;"/>
	</clipPath>
	<path class="st65" d="M-3.9,35.6c0,0,3-5.9,7.3-8.2c4.3-2.5,9.8-1.6,12.2-0.9s7,3.9,12.7,2c1.6-0.5,5.2-2.3,5.5-3
		c0,0,1.4-0.4,1.6,0.7c0.2,1.3-0.7,2.5-2.9,4.3c-2.1,1.8-3.4,8.9-6.8,27.7h-3c0,0,0.4-15.4-2.9-21.1c-3-5.5-8.4-12.9-22.3-1.1
		l-0.4,0.4L-3.9,35.6z"/>
</g>
<g id="icon_62" class="st0">
	<circle class="st18" cx="20.4" cy="32.4" r="23.6"/>
	<circle class="st18" cx="0.1" cy="33.9" r="8.3"/>
	<circle class="st18" cx="40.4" cy="33.9" r="8.3"/>
	<rect x="25.9" y="5.4" class="st18" width="3.3" height="8"/>
	<rect x="18.6" y="4.2" class="st18" width="3.3" height="8"/>
	<rect x="11.4" y="5.6" class="st18" width="3.3" height="8"/>
	<path class="st66" d="M8.6,29.5h23c0,0,1.5,16.9-10.9,17C6.3,46.6,8.5,30.1,8.6,29.5z"/>
	<polyline class="st56" points="16.1,30.3 16.1,36.1 23.9,36.1 23.9,30.1 	"/>
</g>
<g id="icon_63" class="st0">
	<g class="st1">
		<g>
			<circle id="SVGID_19_" class="st8" cx="20.4" cy="33.5" r="23.1"/>
		</g>
		<g>
			<g>
				<g>
					<defs>
						<circle id="SVGID_22_" cx="20.4" cy="33.5" r="23.1"/>
					</defs>
					<clipPath id="SVGID_23_">
						<use xlink:href="#SVGID_22_"  style="overflow:visible;"/>
					</clipPath>
					<path class="st67" d="M25.6,10.2c0,0,5.7,10.2-1.1,13.5s-11.8-0.6-12.7-6.8"/>
				</g>
			</g>
		</g>
	</g>
	<path class="st18" d="M-0.4,38.6h-3.4c-2.7,0-4.9-2.3-4.9-4.9l0,0c0-2.7,2.3-4.9,4.9-4.9h3.4c2.7,0,4.9,2.3,4.9,4.9l0,0
		C4.5,36.3,2.2,38.6-0.4,38.6z"/>
	<path class="st18" d="M44.3,38.6h-3.4c-2.7,0-4.9-2.3-4.9-4.9l0,0c0-2.7,2.3-4.9,4.9-4.9h3.4c2.7,0,4.9,2.3,4.9,4.9l0,0
		C49.3,36.3,47,38.6,44.3,38.6z"/>
	<path class="st68" d="M11.3,3.6c0,0,0,7.2,8,9.3c0,0-15.4,2.5-17.1-7.6"/>
	<path class="st46" d="M27.1,34.3c0,0,0.4-4.4,4-4.4s4.9,3.8,4.9,3.8"/>
	<path class="st46" d="M4.7,34.3c0,0,0.4-4.4,4-4.4s4.9,3.8,4.9,3.8"/>
	<path class="st46" d="M13,43.7c0,0,3,4.2,7.2,4c5.1-0.2,7-4,7-4"/>
</g>
<g id="icon_64" class="st0">
	<circle class="st69" cx="19.7" cy="43.4" r="13.4"/>
	<ellipse class="st70" cx="20.3" cy="32.3" rx="19.3" ry="7.2"/>
	<g class="st1">
		<path class="st8" d="M23.8,33.8c0,0-5.4-0.2-6.7-0.2c-2.2,0-3.7-2.2-3.7-5.4c0-1.7-1.7-4.9-2.4-5.9C8.8,19,8.2,15.3,9.2,11.3
			C9.8,8,13.9,3.1,20.1,2.9h0.3c6,0,10.2,3.9,11.6,7.6c1.2,3.4,0.8,10.2-2.4,13.1c-2.7,2.4-3.4,6.7-3.4,7.2
			C26,33,24.6,33.8,23.8,33.8L23.8,33.8L23.8,33.8z"/>
		<path class="st71" d="M20.6,4.4C26.3,4.4,30,8,31,11c1.2,3,0.7,9.4-1.8,11.6c-2.5,2.4-3.5,6.2-3.9,8.1c-0.2,1.8-1.5,2-1.5,2
			s-5.4-0.2-6.7-0.2c-1.3,0-2.4-1.5-2.4-4s-2.5-6.6-2.5-6.6c-2.5-3.9-2.4-7.6-1.7-10.1c0.7-2.7,3.9-7.2,9.7-7.4c0.1,0,0.2,0,0.2,0
			 M20.6,1.7c-0.2,0-0.3,0-0.3,0C13.2,1.9,8.8,7.3,8.2,11c-1,4.4-0.3,8.4,2,12.1c0.8,1.3,2.2,4,2.2,5.2c0,4.5,2.5,6.6,4.9,6.6
			c1,0,5.2,0.2,6.7,0.2h0.2h0.2c1.2-0.2,3.4-1.2,3.7-4.2c0.2-1.5,1-4.7,3-6.4c3.7-3.2,4-10.8,2.7-14.4C32,6.1,27.3,1.7,20.6,1.7
			L20.6,1.7z"/>
	</g>
</g>
<g id="icon_65" class="st0">
	<path class="st17" d="M20.1,5.1c0,0,3.2-4.7,9.1-3.2C35.2,3.7,36,8.4,36,8.4s2.4,12.8-15.6,21.9c0,0-18.1-6.5-16.9-20.5
		c0.6-5.5,4.7-8.3,7.1-8.5C13.6,1.1,17.3,1.5,20.1,5.1z"/>
	<path class="st18" d="M34,58.9H6.5c-5.9,0-10.6-4.7-10.6-10.6l0,0c0-5.9,4.7-10.6,10.6-10.6H34c5.9,0,10.6,4.7,10.6,10.6l0,0
		C44.7,54.1,40,58.9,34,58.9z"/>
	<rect x="18.5" y="37.4" class="st24" width="3.5" height="21.5"/>
</g>
<g id="icon_66" class="st0">
	<path class="st18" d="M42.4,58.5H-1.9c-1,0-1.6-0.8-1.6-1.6l0,0c0-1,0.8-1.6,1.6-1.6h44.3c1,0,1.6,0.8,1.6,1.6l0,0
		C44,57.7,43.4,58.5,42.4,58.5z"/>
	<path class="st18" d="M35.6,58.3H4.8c-2.7,0-4.9-2.3-4.9-4.9l0,0c0-2.7,2.3-4.9,4.9-4.9h30.6c2.7,0,4.9,2.3,4.9,4.9l0,0
		C40.5,56.1,38.3,58.3,35.6,58.3z"/>
	<path class="st18" d="M18.6,45.4H-1.7c-1,0-1.8-0.8-1.8-1.8l0,0c0-1,0.8-1.8,1.8-1.8h20.3c1,0,1.8,0.8,1.8,1.8l0,0
		C20.4,44.6,19.6,45.4,18.6,45.4z"/>
	<rect x="6.7" y="44.4" class="st18" width="9.8" height="5.5"/>
	<path class="st18" d="M21.2,36.2L9.1,24.3L25.7,7.5c1.2-1.2,3.1-1.2,4.3,0l7.8,7.6c1.2,1.2,1.2,3.1,0,4.3L21.2,36.2z"/>
	
		<rect x="14.3" y="17.3" transform="matrix(0.7032 -0.711 0.711 0.7032 -15.9779 19.7687)" class="st18" width="2.9" height="23.4"/>
	<rect x="35" y="3.6" transform="matrix(0.7032 -0.711 0.711 0.7032 6.6835 29.7865)" class="st18" width="8" height="6.6"/>
	<path class="st18" d="M8.9,29.6l6.4,6.6c0,0-3.9,1.2-5.7-0.8C7.9,33.3,8.5,31.5,8.9,29.6z"/>
	<path class="st45" d="M34.2,29c0,0,5.1,6.8,2.1,15"/>
</g>
<g id="icon_67" class="st0">
	<path class="st18" d="M30.5,41.2v12.6l2.7,0.2c0,0,2.3-0.8,2.3-2.9s0-8,0-8S34.7,41,33.1,41C31.2,41.2,30.5,41.2,30.5,41.2z"/>
	<path class="st18" d="M17.7,38.2l7.8-0.2c0,0,1.5-0.2,1.7,2.1c0.2,2.3,0.4,14.5,0.4,14.5s0.2,2.7-1.9,2.9
		c-2.1,0.2-24.4-0.4-24.4-0.4s-1.5,0.6-2.1-4.4S-5,20-5,20s-0.2-1.9,1.9-2.3c2.1-0.4,14.5-3.4,14.5-3.4s2.9-0.6,3.4,2.3
		C15.2,20,17.7,38.2,17.7,38.2z"/>
	<path class="st18" d="M-3.9,14.3l15.5-3.6L11,4c0,0,0-1.9-2.9-1.3S-3.3,4.8-3.3,4.8S-5,5.3-4.7,7.6C-4.5,9.9-3.9,14.3-3.9,14.3z"/>
	<path class="st18" d="M43.8,47.7h-3.6c-0.8,0-1.7-0.8-1.7-1.7l0,0c0-0.8,0.8-1.7,1.7-1.7h3.6c0.8,0,1.7,0.8,1.7,1.7l0,0
		C45.5,47.1,44.6,47.7,43.8,47.7z"/>
	<path class="st18" d="M44,40.1l-3.4,1.3c-0.8,0.4-1.9,0-2.1-0.8l0,0c-0.4-0.8,0-1.9,0.8-2.1l3.4-1.3c0.8-0.4,1.9,0,2.1,0.8l0,0
		C45.3,38.9,44.8,39.7,44,40.1z"/>
	<path class="st18" d="M42.7,55.3L39.4,54c-0.8-0.2-1.3-1.3-1.1-2.1l0,0c0.2-0.8,1.3-1.3,2.1-1.1l3.4,1.3c0.8,0.2,1.3,1.3,1.1,2.1
		l0,0C44.4,55.1,43.6,55.5,42.7,55.3z"/>
	<path class="st24" d="M-4.3,24.4l0.4,3.2l10.1-2.3c0,0,1.3-0.6,0.8-2.1c-0.4-1.5-2.3-0.8-2.3-0.8L-4.3,24.4z"/>
	<path class="st24" d="M-3.5,30.5l0.4,3.2l10.3-2.3c0,0,1.3-0.6,0.8-2.1s-2.3-0.8-2.3-0.8L-3.5,30.5z"/>
</g>
<g id="icon_68" class="st0">
	<path class="st18" d="M10.4,18.7c0,0,8.5-5.5,17.4-1.9s7.7,9.5,7.2,12.1s-2.6,4.9-3.1,9.5c-0.2,2,0.5,5.1,1.2,6.3
		c0.7,1.2,1.4,9.7-3.9,12.1c-6.5,2.9-11.1,0-14.2-5.8c-3.2-5.6-8-18.4-8.5-21.7C6.1,26.2,5.9,21.3,10.4,18.7z"/>
	<circle class="st18" cx="6.6" cy="12.7" r="4.9"/>
	<circle class="st18" cx="15" cy="8" r="4.9"/>
	<circle class="st18" cx="24.9" cy="6.9" r="4.9"/>
	<circle class="st18" cx="33.9" cy="10.2" r="4.9"/>
	<path class="st24" d="M20.6,23.7c0,0,1.5-2.2,4.4-1.5c2.9,0.9,3.2,3.2,3.2,3.2s1,6.1-7.5,10.4c0,0-8.7-3.1-8-9.9
		c0.2-2.7,2.2-3.9,3.4-4.1C17.5,21.8,19.4,22,20.6,23.7z"/>
</g>
<g id="icon_69" class="st0">
	<path class="st24" d="M27,5.1c0,0,6.3-1.3,9.1,0c3.6,1.7,6.3,5.9,4.2,13.3c-2.1,7.4-3.6,13.3-4,19.6c-0.6,6.3-5.1,10.3-7.8,10.7
		c-2.9,0.6-5.1-2.5-4.4-4.6c0.6-2.3,1.3-8.8,1.3-10.5c-0.2-3.2-1.9-5.7-4.4-5.7s-3.8,1.3-4.4,2.9c-0.6,1.7-1.7,7.8-0.8,10.7
		c0.6,2.9,0.2,7.2-2.5,7.4c-2.7,0.2-7.8-2.7-9.9-14.9S0.3,19-0.4,17.5c-1.5-5.7,0-12.6,6.3-13.3s11.2,2.3,13.3,2.5
		C21.5,6.7,24.9,5.5,27,5.1z"/>
	<path class="st17" d="M15.8,11c0,0,3.6,1.9,5.1,1.3c1.5-0.8,4.8-2.5,8.8-0.6c4,1.9,4,4.2,4,4.2s1.3,4.2-0.8,7.8s-1.5,10.5-1.5,10.5
		s0.2,2.5-1.1,2.5c-1.1,0-1.9-2.3-1.9-2.7s-1.3-9.1-6.9-10.1c-5.7-1.1-6.7,4.4-7.6,6.3c-0.4,1.3-0.8,5.5-0.8,5.5s-0.2,1.9-1.3,1.9
		c-1.1-0.2-1.3-2.3-1.3-7.2s-1.5-5.5-2.3-8.4s-0.6-7.8,2.3-10.1C12.9,9.9,15.8,11,15.8,11z"/>
	<path class="st14" d="M-4.2,34.3c0,0,2.9-0.4,5.1,6.5C3,48.4,9.3,52.2,11.2,52.6s7.8,1.9,8.6-3.4c1.1-5.3,0.6-3.4,0.6-3.4
		s0.2,5.7,2.9,6.5c2.7,0.8,7.8,1.1,11.2-2.5c3.4-3.6,5.9-10.1,6.1-11.8c0-1.7,0.8-4,4.4-4.2s3.4,4.2,3.4,5.5s0,14.5,0,14.5
		s0.2,2.1-2.5,2.1s-52.2,0-52.2,0S-8,55.6-8,54.1c0-1.5,0-17.3,0-17.3S-7.5,34.3-4.2,34.3z"/>
	<circle class="st34" cx="19.8" cy="20" r="1.7"/>
	<circle class="st34" cx="29.5" cy="27.8" r="1.7"/>
	<circle class="st34" cx="12.5" cy="24.8" r="1.7"/>
</g>
<g id="icon_70" class="st0">
	<path class="st18" d="M38.1,56.5H1.6C-0.4,56.5-2,54.9-2,53V28.2c0-1.9,1.6-3.5,3.5-3.5h36.5c1.9,0,3.5,1.6,3.5,3.5v24.6
		C41.8,54.9,40.2,56.5,38.1,56.5z"/>
	<path class="st18" d="M17.3,4.3c1.4-1.1,3.5-1.1,5,0l15.4,11.2l9.7,7.1c2.8,1.9,1.1,5.8-2.5,5.8H19.8H-5.3c-3.5,0-5.3-3.9-2.5-5.8
		l9.7-7.1L17.3,4.3z"/>
	<path class="st24" d="M21.2,47.8h-3c-1.1,0-1.9-0.9-1.9-1.9V28.4c0-1.1,0.9-1.9,1.9-1.9h3c1.1,0,1.9,0.9,1.9,1.9v17.5
		C23.4,47,22.5,47.8,21.2,47.8z"/>
	<path class="st24" d="M30.6,35.4v3c0,1.1-0.9,1.9-1.9,1.9H11c-1.1,0-1.9-0.9-1.9-1.9v-3c0-1.1,0.9-1.9,1.9-1.9h17.7
		C29.7,33.3,30.6,34.2,30.6,35.4z"/>
</g>
<g id="icon_71" class="st0">
	<circle class="st18" cx="14.3" cy="8.2" r="5.6"/>
	<path class="st18" d="M16.2,30.7V19.1c0,0-0.8-2.5-2.5-2.9c-1.7-0.3-2.9-0.2-4.4,1.5c-1.7,1.7-6.8,6.6-6.8,6.6s-2.5,2.4-0.8,4.6
		c1.9,2.2,5.9,6.4,5.9,6.4S3.5,48.7,3.2,49.4c-0.3,0.7-1.5,2.9-1.9,3.2c-0.3,0.3-1,2.5,1,4.1c1.9,1.5,4.2,1,5.3-0.3
		c1-1.4,5.4-9,6.9-17.5l9.3-0.2v6.1c0,0-0.2,1.9,0.8,1.7c1,0,6.3-0.2,6.3-0.2s0.7-0.2,0.5-2.4c-0.2-2.4,0-10.3,0-10.3
		s-0.5-2.7-3.2-2.9C25.2,30.7,16.2,30.7,16.2,30.7z"/>
	<path class="st18" d="M15.2,57.5l23.7-0.2c0,0,1.4-0.3,1.2-1.9c-0.2-1.5-0.5-9-10-9.5l-6.8,0.2c0,0-8.5,0.3-9.7,8.8
		C13.7,56.5,14,57.4,15.2,57.5z"/>
</g>
<g id="icon_72" class="st0">
	<g class="st1">
		<g>
			<g>
				<g>
					<defs>
						<path id="SVGID_24_" d="M0.4,19.3l0.5,17.4c0,0,1.2,9.5,9.3,16.2s9,5.8,9.5,5.8c0.5,0,4.9,0,11.4-7.6s8.4-12.7,8.4-16.5
							s0.7-15.5,0.7-15.5s2.1-2.6,2.6-3.7c0.5-1.1,3-7.2-3.5-11.3S10.9,1.3,8.8,1.5S0.4,1.3-2.4,8.9c-1.2,3.3-0.4,5.8,1.1,7.7
							C-0.2,18.8,0.4,19.3,0.4,19.3z"/>
					</defs>
					<clipPath id="SVGID_25_">
						<use xlink:href="#SVGID_24_"  style="overflow:visible;"/>
					</clipPath>
					<path class="st72" d="M0.4,18.9l0.5,17.4c0,0,1.2,9.5,9.3,16.2s9,5.8,9.5,5.8c0.5,0,4.9,0,11.4-7.6s8.4-12.7,8.4-16.5
						s0.7-15.5,0.7-15.5s2.1-2.6,2.6-3.7c0.4-1.1,3-7.2-3.5-11.3S10.9,1,8.8,1.2S0.4,1-2.4,8.6c-1.2,3.3-0.4,5.8,1.1,7.7
						C-0.2,18.2,0.4,18.9,0.4,18.9z"/>
				</g>
			</g>
		</g>
		<g>
			<g>
				<g>
					<defs>
						<path id="SVGID_27_" d="M0.4,19.3l0.5,17.4c0,0,1.2,9.5,9.3,16.2s9,5.8,9.5,5.8c0.5,0,4.9,0,11.4-7.6s8.4-12.7,8.4-16.5
							s0.7-15.5,0.7-15.5s2.1-2.6,2.6-3.7c0.5-1.1,3-7.2-3.5-11.3S10.9,1.3,8.8,1.5S0.4,1.3-2.4,8.9c-1.2,3.3-0.4,5.8,1.1,7.7
							C-0.2,18.8,0.4,19.3,0.4,19.3z"/>
					</defs>
					<clipPath id="SVGID_28_">
						<use xlink:href="#SVGID_27_"  style="overflow:visible;"/>
					</clipPath>
					<path class="st73" d="M0,20.5c0,0,10.7-6.5,19.7-6.2c9.7,0.4,16,3,20.4,6.3"/>
				</g>
			</g>
		</g>
	</g>
	<path class="st18" d="M-1.2,22.3l-0.2,12.1c0,0-3.5,0-3.7-4c-0.2-4,0-5.8,0-5.8S-4.4,21.9-1.2,22.3z"/>
	<path class="st18" d="M41.7,22.4l0.2,12.1c0,0,3.5,0,3.7-4s0-5.8,0-5.8S44.9,22.1,41.7,22.4z"/>
	<line class="st32" x1="8.3" y1="22.1" x2="13.7" y2="22.1"/>
	<line class="st32" x1="26.4" y1="22.1" x2="31.7" y2="22.1"/>
	<polyline class="st32" points="18.1,31.9 18.3,40.6 22.4,40.4 	"/>
	<line class="st32" x1="16.6" y1="46.5" x2="23.2" y2="46.5"/>
	<line class="st32" x1="19.9" y1="50.2" x2="19.9" y2="55"/>
	<polyline class="st32" points="16.9,52.9 19.9,55.7 22.7,53.4 	"/>
	<path class="st32" d="M6.7,26.7c0,0,0.9,3.7,4.2,3.9c3.3,0,4.4-3.7,4.4-3.7"/>
	<path class="st32" d="M25,26.7c0,0,0.9,3.7,4.2,3.9c3.3,0,4.4-3.7,4.4-3.7"/>
	<path class="st32" d="M14.4,39.5c0,0-0.5,4.2-5.5,4.7"/>
	<polyline class="st32" points="9.5,41.3 8.6,44.3 10.9,46.4 	"/>
	<path class="st32" d="M13.9,33.7c0,0-3.3,5.6-9.8,2.6"/>
	<polyline class="st32" points="5.5,34.2 3.7,36 4.4,39.2 	"/>
	<path class="st32" d="M25.9,39.2c0,0,0.5,4.2,5.5,4.7"/>
	<polyline class="st32" points="30.8,40.9 31.5,43.9 29.4,46.2 	"/>
	<path class="st32" d="M26.2,33.5c0,0,3.3,5.6,9.8,2.6"/>
	<polyline class="st32" points="34.7,34.1 36.4,36 35.7,39.2 	"/>
	<line class="st32" x1="38" y1="12.2" x2="35.4" y2="17.2"/>
	<line class="st32" x1="29" y1="9.4" x2="27.5" y2="14.5"/>
	<line class="st32" x1="19.9" y1="8.6" x2="19.9" y2="13.8"/>
	<line class="st32" x1="11.1" y1="9.4" x2="12.7" y2="14.7"/>
	<line class="st32" x1="2" y1="12.8" x2="4.4" y2="17.3"/>
</g>
<g id="icon_73" class="st0">
	<path class="st18" d="M20.4,1.3L46,8.7c0,0,2.6,0,2.4,3.4s-0.8,34.5-28,46.9c0,0-27-10.4-28.2-47.3c0,0-0.2-2.2,2.6-3
		C-2.4,7.7,20.4,1.3,20.4,1.3z"/>
	<path class="st24" d="M22.6,42h-3.8c-1.6,0-2.8-1.2-2.8-2.8V19.1c0-1.6,1.2-2.8,2.8-2.8h3.8c1.6,0,2.8,1.2,2.8,2.8v20.2
		C25.2,40.8,24,42,22.6,42z"/>
	<path class="st24" d="M33.6,27v3.8c0,1.6-1.2,2.8-2.8,2.8H10.6c-1.6,0-2.8-1.2-2.8-2.8V27c0-1.6,1.2-2.8,2.8-2.8h20.2
		C32.4,24.2,33.6,25.4,33.6,27z"/>
</g>
<g id="icon_74" class="st0">
	<path class="st18" d="M19.4,1.6c0,0,9.7-1.6,15.5,2.4c5.7,3.7,9.6,7.8,10.4,13.7S44.9,31,42.1,35.5c-2.8,4.5-4.5,7.3-4.9,8
		c-0.2,0.7-1.6,4.3-0.5,9.2c0.9,4.9,1.6,5.6,1.6,5.6l-26.8,0.5v-5.6c0,0-8.3,0.2-10.4-1.6C-1,49.9-1,48.2-0.5,47c0.3-1,0-1.4,0-1.6
		c0,0-1-0.5-1-1.7c0-0.7,0.7-0.9,0.7-0.9s-0.2-0.3-0.3-0.3c-0.2-0.2-1-0.3-1-1.4c0-0.9,0.5-4.9,0.5-4.9s-3-0.3-3.3-2.3
		c-0.2-1.9,1.4-4.2,2.1-5c0.7-0.9,4-4.7,4-4.7s-1-9.4,2.1-13.6S9.3,2.8,19.4,1.6z"/>
	<path class="st32" d="M23.9,22.1c-0.5,0.2,0,4.9,4.5,3c2.8-1.2,3.5-6.4-0.3-8.3c-3.3-1.7-7.7-2.1-9.7,2.4
		c-2.3,4.7,0.3,8.9,2.8,10.4s10.4,3.5,13.9-3c3.5-6.6,1.7-13.2-3-15.3c-2.3-1-15-7-20,8.7"/>
</g>
<g id="icon_75" class="st0">
	<circle class="st18" cx="21.3" cy="20.1" r="18.1"/>
	<polygon class="st18" points="4.2,15.9 -3.3,19.9 6.5,25.8 	"/>
	<path class="st18" d="M-5.7,57.8L46.1,58c0,0,3,0.2,2.3-4c-0.8-4.4-3.2-12.4-15.8-12.6c-12.6,0-26.3,0-26.3,0S-6.5,41.6-7.5,55.3
		C-7.3,57-7.1,57.8-5.7,57.8z"/>
	<rect x="12.7" y="18.4" class="st24" width="3.4" height="3.6"/>
	<rect x="19" y="18.4" class="st24" width="3.4" height="3.6"/>
	<rect x="25.5" y="18.4" class="st24" width="3.4" height="3.6"/>
</g>
<g id="icon_77" class="st0">
	<path class="st18" d="M22.7,26.3h-4.3V4.8c0-1.3,0.9-2.2,2.2-2.2l0,0c1.3,0,2.2,0.9,2.2,2.2C22.7,4.8,22.7,26.3,22.7,26.3z"/>
	<path class="st18" d="M16.7,28.9c0,0,2.2-1.4,3.1-1.4c1.1,0,2-0.2,4.7,1.4l0.5-2.5l-2.9-1.1l-3.3-0.2c0,0-2.2,1.1-2.7,1.3
		c-0.4,0.4-0.2,2.2-0.2,2.2L16.7,28.9z"/>
	<path class="st18" d="M28.8,10.1c0,0,5.8-2.2,12.6,7.4c6,8.5,9,17.2,6.5,31.4c-1.3,6.5-1.4,9-4.7,8.3C40,56.5,29.9,52.3,29,51.8
		s-5.1-2.5-4.7-9.2s0-24.4,0-24.4S24.8,10.6,28.8,10.1z"/>
	<line class="st46" x1="27.9" y1="29" x2="42" y2="36.4"/>
	<line class="st46" x1="32.1" y1="30.5" x2="38.2" y2="26"/>
	<line class="st46" x1="34.4" y1="25.4" x2="35" y2="28"/>
	<line class="st46" x1="40.6" y1="35.4" x2="42.9" y2="33"/>
	<polyline class="st46" points="36.2,34.3 36.4,39.3 39.3,42.2 	"/>
	<line class="st46" x1="33.7" y1="41.9" x2="36.4" y2="39.3"/>
	<path class="st18" d="M12.2,10.1c0,0-5.8-2.2-12.6,7.4c-6,8.5-9,17.2-6.5,31.4c1.3,6.5,1.4,9,4.7,8.3s13.4-4.9,14.3-5.4
		c0.9-0.7,5.1-2.5,4.7-9.2c-0.4-6.7,0-24.4,0-24.4S16.2,10.8,12.2,10.1z"/>
	<line class="st46" x1="13.1" y1="29.2" x2="-1" y2="36.6"/>
	<line class="st46" x1="9" y1="30.5" x2="2.8" y2="26.1"/>
	<line class="st46" x1="6.6" y1="25.6" x2="6.1" y2="28.1"/>
	<line class="st46" x1="0.5" y1="35.4" x2="-1.9" y2="33.2"/>
	<polyline class="st46" points="4.8,34.5 4.6,39.3 1.7,42.4 	"/>
	<line class="st46" x1="7.3" y1="42" x2="4.6" y2="39.3"/>
</g>
<g id="icon_78" class="st0">
	<path class="st18" d="M8.8,1.4l23.5-0.2c0,0,3.5,17-11.3,17C8.1,18.2,8.8,10.1,8.8,1.4z"/>
	<polygon class="st18" points="12,42.3 29.4,42.3 32.2,56 35.7,56 35.7,59 5.3,59 5.3,55.5 9.2,55.5 	"/>
	<rect x="12.4" y="32.1" class="st18" width="16.8" height="6.5"/>
	<path class="st18" d="M14.8,20.6c0,0-3,0.9-2.6,7.6l-3.3,0.4L9,36c0,0-1.7-1.1-2.8-4.4l-3.3,1.1c0,0,2.6,5.7,3.9,6.9L8.7,38L7.4,48
		c0,0-12-6.3-12.2-23.1C-5,14.9,5.3,6.8,5.3,6.8s0.4,5.7,3,8.1c0,0-2.8-0.6-5.2,6.1l3.1,1.5c0,0,0.9-4.3,3.3-5.7
		C9.2,16.8,12,19.9,14.8,20.6z"/>
	<path class="st18" d="M26.4,20.6c0,0,3,0.9,2.6,7.6l3.3,0.4L32.2,36c0,0,1.7-1.1,2.8-4.4l3.3,1.1c0,0-2.6,5.7-3.9,6.9L32.5,38
		L34,48c0,0,12-6.3,12.2-23.1c0.2-10-10.2-18.1-10.2-18.1s-0.4,5.7-3,8.1c0,0,2.8-0.6,5.2,6.1l-3.1,1.5c0,0-0.9-4.3-3.3-5.7
		C31.8,16.8,29.2,19.9,26.4,20.6z"/>
</g>
<g id="icon_86" class="st0">
	<path class="st18" d="M-4.3,54.3h-1.8c-0.9,0-1.6-0.7-1.6-1.6V23c0-0.9,0.7-1.6,1.6-1.6h1.8c0.9,0,1.6,0.7,1.6,1.6v29.7
		C-2.7,53.6-3.4,54.3-4.3,54.3z"/>
	<rect x="-3.8" y="40.6" class="st18" width="52" height="5"/>
	<path class="st18" d="M46.4,54.3h-1.2c-1.1,0-1.8-0.9-1.8-1.8v-6.8c0-1.1,0.9-1.8,1.8-1.8h1.2c1.1,0,1.8,0.9,1.8,1.8v6.8
		C48.2,53.4,47.3,54.3,46.4,54.3z"/>
	<circle class="st18" cx="11.3" cy="20.8" r="5"/>
	<circle class="st18" cx="5.3" cy="32.4" r="5"/>
	<path class="st18" d="M10.6,41.1l8-16.2c0,0,1.1-2.7,4.3-1.4c3.2,1.2,19.6,7.7,19.6,7.7s5.3,2.1,5.5,6.8V44L10.6,41.1z"/>
	<path class="st17" d="M40,17.4c0,0,1.1-1.6,2.8-1.1c2,0.5,2.1,2.1,2.1,2.1s0.7,4.1-5,7.1c0,0-5.9-2.1-5.5-6.6
		c0.2-1.8,1.6-2.7,2.3-2.7C37.9,16.2,39.1,16.4,40,17.4z"/>
	<path class="st17" d="M36.6,6.8c0,0,0.7-1.2,2.1-0.7c1.4,0.4,1.6,1.6,1.6,1.6s0.5,3-3.7,5.3c0,0-4.5-1.6-4.1-5c0.2-1.4,1.1-2,1.8-2
		C35,5.9,35.9,5.9,36.6,6.8z"/>
	<path class="st17" d="M27.5,13.5c0,0,0.7-1.2,2.1-0.7c1.4,0.4,1.6,1.6,1.6,1.6s0.5,3-3.7,5.3c0,0-4.5-1.6-4.1-5
		c0.2-1.4,1.1-2,1.8-2C25.9,12.6,26.8,12.6,27.5,13.5z"/>
</g>
<g id="icon_88" class="st0">
	<path class="st18" d="M9.2,57.3L9.2,57.3c-7.6,0-14-6.4-14-14V16.8c0-7.6,6.4-14,14-14l0,0c7.6,0,14,6.4,14,14v26.5
		C23.2,51.1,16.9,57.3,9.2,57.3z"/>
	<rect x="-4.8" y="28.9" class="st24" width="28" height="3.4"/>
	<polyline class="st74" points="29.4,24 36.4,24 30.2,30.6 37.2,30.6 	"/>
	<polyline class="st74" points="37.6,10.9 44.4,10.9 38.3,17.4 45.3,17.4 	"/>
</g>
<g id="icon_89" class="st0">
	<path class="st18" d="M-1.3,11.1l5.1-4.2C4.9,6,6.4,6.2,7.3,7.2l10.9,12.8c0.9,1.1,0.7,2.6-0.4,3.5l-5.1,4.2
		c-1.1,0.9-2.6,0.7-3.5-0.4L-1.6,14.6C-2.5,13.4-2.4,12-1.3,11.1z"/>
	<path class="st18" d="M-1.6,1.9L-1.6,1.9c0.7-0.5,1.8-0.5,2.3,0.2l4,4.8c0.5,0.7,0.5,1.8-0.2,2.3l0,0C3.8,9.7,2.8,9.7,2.2,9l-4-4.8
		C-2.4,3.7-2.4,2.6-1.6,1.9z"/>
	<path class="st18" d="M-5.2,4.9L-5.2,4.9c0.7-0.5,1.8-0.5,2.3,0.2l4,4.8c0.5,0.7,0.5,1.8-0.2,2.3l0,0c-0.7,0.5-1.8,0.5-2.3-0.2
		l-4-4.8C-5.9,6.7-5.9,5.6-5.2,4.9z"/>
	<path class="st18" d="M30.6,27.8c0,0-0.7,4-6,8.4s-8.4,5.6-11.4,4.4c-3-1.4-4.4-2.3-5.3-3.7c-0.9-1.4-1.9-3.2-2.1-4
		c-0.2-0.7-0.4-1.9,2.1-4c2.5-2.1,5.3-4.4,5.3-4.4l7.9-6.9c0,0,1.4-1.1,3.9,0.5c2.5,1.6,3,1.9,3.5,2.8c0.7,1.6,2.1,4.4,2.1,4.4
		S30.7,26.8,30.6,27.8z"/>
	<path class="st50" d="M34.8,31.2c0,0-1.2,15.5-18,14.8"/>
	<path class="st50" d="M41.5,32.2c0,0-3,21.3-24.8,20.2"/>
	<path class="st50" d="M47.1,32c0,0-1.6,26-31.2,26.6"/>
</g>
<g id="icon_90" class="st0">
	<circle class="st18" cx="3.7" cy="33.4" r="6.1"/>
	<path class="st18" d="M-5.5,57.7h18.6c0,0,1.7,0.4,1.7-3.1c0.2-3.3,0.2-5.9,0.2-5.9s-0.7-6.3-9.2-6.3c-3.5,0-6.8,0.2-6.8,0.2
		s-6.3,0.4-6.3,7s0,7.2,0,7.2S-7.1,57.7-5.5,57.7z"/>
	<circle class="st18" cx="37.5" cy="33.4" r="6.1"/>
	<path class="st18" d="M28.2,57.7h18.6c0,0,1.7,0.4,1.7-3.1c0.2-3.3,0.2-5.9,0.2-5.9s-0.7-6.3-9.2-6.3c-3.5,0-6.8,0.2-6.8,0.2
		s-6.3,0.4-6.3,7s0,7.2,0,7.2S26.6,57.7,28.2,57.7z"/>
	<ellipse class="st18" cx="20.5" cy="12.4" rx="14.2" ry="10"/>
	<path class="st18" d="M8.9,17.9L7.4,22c0,0-0.6,2.2,0.2,2.4c0.9,0.2,1.8-0.2,2.9-1.1c1.1-0.9,3.7-2.6,3.7-2.6L8.9,17.9z"/>
	<path class="st18" d="M26.8,20.9l4.8,3.1c0,0,0.9,0.7,1.8,0.4c0.9-0.4,0.2-2.2,0.2-2.6c0-0.4-1.5-4.4-1.5-4.4L26.8,20.9z"/>
	<path class="st24" d="M24.4,9.8h-8.1c-0.6,0-0.9-0.4-0.9-0.9l0,0c0-0.6,0.4-0.9,0.9-0.9h8.1c0.6,0,0.9,0.4,0.9,0.9l0,0
		C25.3,9.4,24.9,9.8,24.4,9.8z"/>
	<path class="st24" d="M25.7,13.3H15c-0.6,0-0.9-0.4-0.9-0.9l0,0c0-0.6,0.4-0.9,0.9-0.9h10.7c0.6,0,0.9,0.4,0.9,0.9l0,0
		C26.6,12.9,26.2,13.3,25.7,13.3z"/>
	<path class="st24" d="M24.4,16.4h-8.1c-0.6,0-0.9-0.4-0.9-0.9l0,0c0-0.6,0.4-0.9,0.9-0.9h8.1c0.6,0,0.9,0.4,0.9,0.9l0,0
		C25.3,16.1,24.9,16.4,24.4,16.4z"/>
</g>
<g id="icon_91" class="st0">
	<path class="st18" d="M6.5,58.5l10.7-0.2c0,0,1.8-3,5.4-2.8c1.8,0,2.4-0.2,2.6-1.8c0-1.8,0.2-3.4,0.2-3.4s-0.2-0.8-2.2-1
		c-2.2-0.2-2.8-1.4-3-1.8L6.7,44c0,0-1.6,1.8-3.8,1.6c-2.2-0.2-3.2-0.8-3.4,1.2c-0.2,2-0.6,4.6-0.6,4.6s-0.8,2,2.6,2.6
		c3.4,0.6,3.8,1.6,3.6,2.8S5.7,58.5,6.5,58.5z"/>
	<path class="st18" d="M7.3,41L21,44c0,0,1.2-0.8,2.4-0.4c1.2,0.4,3.8,0.6,4-0.4s0.8-3.8,0.8-3.8S28,38,26.8,37.8
		c-1.2-0.2-2.6-0.6-3-2.4l-13.1-6c0,0-1,1.6-2.8,1c-1.6-0.6-4-1.6-4.6,0.4c-0.6,1.8-1.4,4.8-1.4,4.8s-0.2,2.2,1.8,2.2
		C5.3,37.8,7.1,39,7.3,41z"/>
	<path class="st18" d="M12.1,26.5l12.5,5.4c0,0,1.4,0,2.2,0.2c0.8,0,2.4,1,2.8,1.2s1.8-0.2,2.4-1.2c0.6-1,1.6-2.4,1.6-2.4
		s0.4-1.2-0.8-2.2c-1.2-1-2.4-1.2-3-3.4S19,16,19,16s-2.2,1.2-4,0.2s-2.4-2.2-3.6-0.6c-1.2,1.6-3.2,4.4-3.2,4.4s-0.8,1.8,0.8,2.8
		C10.7,23.7,12.5,24.1,12.1,26.5z"/>
	<path class="st18" d="M20.6,13l10.9,8.1c0,0,2.4,0.2,3.6,1.4c1.2,1.2,2.2,1.4,3.4,0.4c1.2-1,3-3.2,3-3.2s0.6-1.2-0.6-2.6
		c-1.2-1.4-3-2.4-1.8-5c0.4-0.8,0-1.2-0.4-1.4S32,4.6,32,4.6s-1.2-1.2-3.2-0.4S24.6,2,24.6,2s-1-0.8-2.2,0.2c-1.2,1-4.2,4-4.2,4
		s-1,1.2,0.2,2.6c1.2,1.4,2.6,1.8,2.4,4C20.6,13,20.6,13,20.6,13z"/>
	<path class="st24" d="M15.1,52.7l-6.4-1c-1-0.2-1.8-1.2-1.6-2.2l0,0c0.2-1,1.2-1.8,2.2-1.6l6.4,1c1,0.2,1.8,1.2,1.6,2.2l0,0
		C17.3,52.1,16.3,52.9,15.1,52.7z"/>
	<path class="st24" d="M17.6,39.6l-6.2-1.8c-1-0.4-1.6-1.4-1.4-2.4l0,0c0.4-1,1.4-1.6,2.4-1.4l6.2,1.8c1,0.4,1.6,1.4,1.4,2.4l0,0
		C19.8,39.4,18.8,40,17.6,39.6z"/>
	<path class="st24" d="M30.6,16.7l-4.8-4.4c-0.8-0.8-0.8-2-0.2-2.8l0,0c0.8-0.8,2-0.8,2.8-0.2l4.8,4.4c0.8,0.8,0.8,2,0.2,2.8l0,0
		C32.6,17.5,31.4,17.5,30.6,16.7z"/>
	<path class="st24" d="M22.4,28.1l-5.6-3.2c-1-0.6-1.2-1.8-0.8-2.8l0,0c0.6-1,1.8-1.2,2.8-0.8l5.6,3.2c1,0.6,1.2,1.8,0.8,2.8l0,0
		C24.6,28.3,23.4,28.7,22.4,28.1z"/>
</g>
<g id="icon_92" class="st0">
	<ellipse class="st18" cx="20.3" cy="30.1" rx="28" ry="28.4"/>
	<path class="st24" d="M2.3,12.8c0,0,5.5-4.5,10.6-2.4s7.3,7.3,4.7,13S7.3,28.7,5.9,28.1C4.3,27.3-5.3,22.4,2.3,12.8z"/>
	<path class="st24" d="M-0.4,32.8c0,0,8.3-7.5,15.8,2.2c4.9,6.5-2,13.2-3.5,13.6c-2,0.4-9.3,2-13-5.1C-4.2,38.8-1.8,33.8-0.4,32.8z"
		/>
	<path class="st24" d="M25.2,26.5c0,0,15.4-0.2,16.3,0c1.2,0.2,3.2,1.8,2,5.7c-1.2,3.9-6.3,8.9-11.2,8.3c-5.1-0.6-10-6.5-9.8-11
		C22.6,27.3,23.8,26.5,25.2,26.5z"/>
	<path class="st24" d="M25.2,25c0,0,15.4,0.2,16.3,0c1-0.2,3.2-1.8,2-5.7c-1-3.7-6.3-8.9-11.2-8.3c-5.1,0.6-10,6.5-9.8,11
		C22.8,24.2,24,25,25.2,25z"/>
	<circle class="st24" cx="17.9" cy="7.1" r="2.2"/>
	<circle class="st24" cx="-3.4" cy="27.5" r="2.2"/>
	<circle class="st24" cx="25.8" cy="47.2" r="2.2"/>
	<circle class="st24" cx="37.2" cy="43.1" r="2"/>
	<circle class="st24" cx="19.9" cy="52.9" r="2.2"/>
	<circle class="st18" cx="9.2" cy="17.9" r="3"/>
	<circle class="st18" cx="7.3" cy="38.4" r="3"/>
	<path class="st20" d="M29.3,25.4c0,0-0.6-6.9,3.5-7.5s4.5,4.1,4.5,7.3s0.6,7.1-1.6,8.5c-2.6,1.8-6.5,0.6-6.5-3.7
		C29.3,25.8,29.3,25.4,29.3,25.4z"/>
</g>
<g id="icon_93" class="st0">
	<g class="st1">
		<g>
			<circle id="SVGID_26_" class="st8" cx="20.3" cy="30.1" r="27.8"/>
		</g>
		<g>
			<g>
				<defs>
					<circle id="SVGID_29_" cx="20.3" cy="30.1" r="27.8"/>
				</defs>
				<clipPath id="SVGID_30_">
					<use xlink:href="#SVGID_29_"  style="overflow:visible;"/>
				</clipPath>
				<line class="st75" x1="38" y1="8" x2="1.6" y2="51.6"/>
			</g>
		</g>
	</g>
	<path class="st76" d="M10.2,38.5l1.5,6.2h17l1.5-5.7c0,0,5.7-4.6,5.8-9.5c0-5.8-2.2-11.9-8.4-15.2c-6.8-3.7-14.6-1.6-18.6,2.6
		C6.2,19.5,0.7,29.7,10.2,38.5z"/>
	<rect x="10.4" y="25.2" class="st24" width="3.3" height="6.9"/>
	<rect x="26.3" y="25.2" class="st24" width="3.3" height="6.9"/>
	<rect x="18.4" y="31.9" class="st24" width="3.3" height="3.3"/>
	<rect x="15.3" y="40.3" class="st24" width="3.1" height="4.9"/>
	<rect x="21.7" y="40.3" class="st24" width="3.1" height="4.9"/>
</g>
<g id="icon_94" class="st0">
	<path class="st18" d="M1.4,2.1h37.1c0,0,3.4-0.2,3.4,3.4c0,4.6,1.2,12.4,1.6,13.8c0.4,1.4,1.6,12.5,1.6,19.4s3.2,9.7,3.4,14
		c0.2,4.2,1.2,5.7-1.8,5.7c-3,0-53.4,0-53.4,0s-2.5-0.2-1.4-5.8c1.2-5.7,3-8.1,3.5-15.4c0.4-3.9-0.2-14.1,1.4-18.7
		c1.6-4.8,1.9-12.7,1.9-13.6C-1.1,3.7-1.1,2.1,1.4,2.1z"/>
	<path class="st77" d="M21,7.6h-1.8c-0.9,0-1.6-0.7-1.6-1.6l0,0c0-0.9,0.7-1.6,1.6-1.6H21c0.9,0,1.6,0.7,1.6,1.6l0,0
		C22.6,6.9,21.9,7.6,21,7.6z"/>
	<rect x="18.7" y="46.8" class="st77" width="3.4" height="11.3"/>
	<path class="st78" d="M27,33.2L24.4,36v7.6c0,0,0.2,3.9-3.5,3.9c-3.4,0-4.6-1.8-4.6-3.2c0-1.4,0-8.8,0-8.8l-2.5-2.3"/>
</g>
<g id="icon_95" class="st0">
	<path class="st18" d="M6.6,2.8l12.5-0.4c0,0,2.8-0.6,2.2,3.7C20.8,10.5,18,35.5,17.8,37c-0.2,1.5,0,7.1,4.5,8.6
		c4.5,1.5,16.4,6.7,15.1,9.3c-1.3,2.6-3.9,3.2-6.5,2.4c-2.8-0.6-13.1-4.1-21.5-1.5c-4.1,1.3-6.5-2.6-6.3-4.9
		c0.2-2.1,2.8-5.6,3.2-7.3c0.2-1.7,0.6-4.3-0.4-9C4.9,30.3,2.3,13.7,3.2,8.4C4.2,3.4,4.4,2.8,6.6,2.8z"/>
	<path class="st22" d="M13.3,9c0,0-5.2,4.7-4.5,14s3.9,9,3.7,18.3c-0.2,6.2-0.9,8.8-0.9,8.8"/>
	<path class="st22" d="M12.9,43.6c0,0,2.2,5.8,5,7.8"/>
	<path class="st22" d="M10.7,13.9c0,0,3.4,3.5,3.4,8s1.9,7.5,1.9,7.5"/>
	<path class="st22" d="M5.1,15.4c0,0,0.7,6.2,3.5,9"/>
	<path class="st79" d="M10.5,31c0,0-0.7,4.5-1.3,6.7"/>
	<path class="st80" d="M15.2,47.3c0,0,8.2,0.7,11.2,2.8"/>
	<path class="st79" d="M22.1,49.2c0,0-0.2,3.2,2.6,4.5"/>
	<path class="st79" d="M25.8,49.9c0,0,0.4,2.6,2.6,2.6"/>
</g>
<g id="icon_96" class="st0">
	<path class="st18" d="M1.2,2.2h37.2c0,0,3.6-0.4,2.5,3.3c-0.4,1-0.8,10.7,1.9,16.7s5.4,14.4,2.3,29.5c-1.1,5.7-1.5,6.1-4.6,6.3
		c-3.1,0-41.8,0-41.8,0s-2.3,0.6-3.1-3.1s-3.8-20.9,0-30.5C-3,20.9-1.7,15-1.5,10.8s-0.2-7.3-0.2-7.3S-1.5,2.2,1.2,2.2z"/>
	<path class="st32" d="M15.6,32.4c0,0-0.8,19.3,4,19.3s4.4-19,4.4-19"/>
	<path class="st32" d="M31.7,39.9c0,0-2.1,5.7-7.9,5.2"/>
	<rect x="18.3" y="51" class="st24" width="2.7" height="6.9"/>
	<circle class="st17" cx="16.4" cy="45.1" r="3.3"/>
	<circle class="st17" cx="23.6" cy="39.5" r="4.4"/>
	<circle class="st81" cx="23.4" cy="39.7" r="2.3"/>
</g>
<g id="icon_97" class="st0">
	<path class="st18" d="M-2.4,52.5L-2.4,52.5c-6.3-6.3-6.1-16.3,0-22.6L20.4,7.3C26.7,1,36.7,1.2,43,7.3l0,0c6.3,6.3,6.1,16.3,0,22.6
		L20.2,52.5C13.9,58.8,3.7,58.6-2.4,52.5z"/>
	
		<rect x="17.5" y="13.9" transform="matrix(0.7098 -0.7044 0.7044 0.7098 -15.1781 22.9028)" class="st24" width="5.3" height="31.9"/>
	<path class="st82" d="M17.5,43.9c0,0,1,13.5,12.9,13.7c12,0.2,13.5-11,13.3-13.7c0,0,0.6-1.5-1.5-1.5c-1.9,0-6.5,1.3-8,3.4
		l-5.7,2.9l-2.1-3.8c0,0-3-2.3-7.4-2.5C19.3,42.2,17.5,41.8,17.5,43.9z"/>
	<path class="st40" d="M31.2,37.5c0,0,9.7,8.6,0.4,19.2c0,0-1,1-1.7,0.2c-0.8-0.8-8.7-9.9-0.4-19.2C29.5,37.7,30.3,36.5,31.2,37.5z"
		/>
</g>
<g id="icon_98" class="st0">
	<circle class="st18" cx="20" cy="8.7" r="6.8"/>
	<path class="st18" d="M5.1,48.9l10-3.9L3.2,40.8c0,0-3.1-0.9-4.1,1.7c-1.1,3,1.5,4.4,1.8,4.6C1.6,47.5,5.1,48.9,5.1,48.9z"/>
	<path class="st18" d="M26.1,56.1l7.7-3.1c0,0,1.5,3.3-0.6,4.4C31.5,58.7,29.4,58.3,26.1,56.1z"/>
	<path class="st18" d="M39.9,46.9L10.1,58c-1.7,0.6-3.5-0.2-4.2-1.8v-0.2c-0.6-1.7,0.2-3.5,1.8-4.2l29.9-11.1
		c1.7-0.6,3.5,0.2,4.2,1.8v0.2C42.3,44.5,41.6,46.4,39.9,46.9z"/>
	<path class="st18" d="M13,27.7l0.2,12.7l7.2,3l7-3V27.5l3.9,7.4c0,0,1.1,2.4,2.8,2.4s12.4-0.2,12.4-0.2s2.6-0.2,2.4-3.5
		c0-3.5-3.3-3.3-3.3-3.3l-8.7,0.2l-5.7-11.8c0,0-0.9-2.8-4.6-2.8s-12.9,0.2-12.9,0.2s-2.8,0-4.2,3.3C8,22.8,4.2,30.1,4.2,30.1h-10
		c0,0-2.2,0-2.4,3.3c-0.2,3.3,2.4,3.7,3.3,3.7c0.7,0,11.1-0.2,11.1-0.2s2.2,0,3.5-2.6C10.8,31.8,13,27.7,13,27.7z"/>
</g>
</svg>
