<svg xmlns="http://www.w3.org/2000/svg" width="339" height="46" viewBox="0 0 339 46">
    <g fill="none" fill-rule="evenodd">
        <g fill="#286231" fill-rule="nonzero">
            <g>
                <path d="M216.857 41.83h-.056l-.18.932H215V30h2.057v3.323L217 34.796c.687-.66 1.585-1.053 2.532-1.106 2.197 0 3.467 1.78 3.467 4.506 0 3.048-1.797 4.804-3.746 4.804-.92-.058-1.78-.478-2.397-1.17zm4.026-3.634c0-1.769-.571-2.826-1.909-2.826-.639 0-1.25.327-1.917.997V40.5c.478.455 1.105.718 1.761.739 1.17.02 2.065-1.022 2.065-3.032v-.012zM224.504 45.843l.38-1.548c.192.065.392.104.595.116.875 0 1.384-.611 1.664-1.463l.156-.534L224 34h1.983l1.437 4.172c.254.755.489 1.59.735 2.404h.069c.208-.774.42-1.63.637-2.404L230.104 34H232l-3.014 8.902c-.69 1.912-1.566 3.096-3.386 3.096-.371.013-.742-.04-1.096-.155zM20.273 14.133L20.387 31.425.236 13 0 13 0 42.828 5.762 42.828 5.652 25.864 25.843 44 26 44 26 14.133zM35 28.052c-.009-1.975.386-3.931 1.16-5.748 1.533-3.627 4.395-6.528 7.996-8.11 3.702-1.592 7.894-1.592 11.596 0 1.79.79 3.416 1.907 4.798 3.294 1.384 1.379 2.494 3.01 3.27 4.804.786 1.814 1.188 3.77 1.18 5.748.013 2.005-.388 3.99-1.18 5.832-.768 1.79-1.88 3.41-3.27 4.772-1.385 1.36-3.013 2.446-4.798 3.202-3.713 1.539-7.883 1.539-11.596 0-3.604-1.525-6.473-4.397-7.996-8.006-.774-1.83-1.168-3.8-1.16-5.788zm5.998 0c-.026 2.48.926 4.871 2.65 6.653 1.704 1.776 4.067 2.766 6.526 2.734 2.393.026 4.684-.968 6.301-2.734.805-.875 1.441-1.891 1.875-2.998 1.4-3.542.643-7.574-1.947-10.364-2.584-2.664-6.54-3.46-9.952-2.002-1.08.47-2.058 1.15-2.874 2.002-.83.864-1.484 1.88-1.928 2.994-.455 1.185-.68 2.446-.663 3.715h.012zM78.84 32.077c.008.933.302 1.843.844 2.615.569.838 1.335 1.533 2.235 2.029.922.52 1.972.79 3.039.782 2.198.045 4.263-1.017 5.455-2.807.534-.775.822-1.684.827-2.616V14h5.758v18.194c.036 1.978-.525 3.924-1.614 5.598-1.075 1.625-2.576 2.944-4.35 3.823-1.877.934-3.962 1.41-6.072 1.384-2.093.025-4.16-.45-6.017-1.384-1.766-.882-3.26-2.2-4.33-3.823-1.088-1.674-1.65-3.62-1.613-5.598V14h5.838v18.077zM129 42.98l-6.665-10.535c.874-.49 1.65-1.139 2.29-1.915.779-.95 1.36-2.048 1.71-3.23.348-1.153.525-2.35.527-3.554.021-1.384-.23-2.757-.74-4.04-.48-1.176-1.217-2.227-2.155-3.072-1.02-.897-2.215-1.57-3.505-1.975-1.555-.47-3.173-.691-4.795-.655H107V43h5.636v-9.252h3.751l6.042 9.22 6.571.012zm-16.36-23.483h4.043c.81-.036 1.615.14 2.338.513.535.297.985.732 1.304 1.26.268.458.458.958.561 1.48.082.39.127.787.137 1.185-.006.461-.078.919-.215 1.358-.14.508-.366.986-.67 1.414-.356.48-.824.865-1.363 1.118-.669.31-1.4.459-2.134.434h-4.005l.004-8.762zM168.845 21.05c-1.072-.585-2.192-1.079-3.347-1.477-1.024-.366-2.103-.562-3.191-.58-1.019-.055-2.03.201-2.896.735-.715.507-1.115 1.343-1.06 2.211.004.686.296 1.339.804 1.804.608.58 1.308 1.058 2.073 1.414.862.42 1.744.796 2.645 1.127.853.313 1.686.679 2.492 1.096.811.42 1.556.955 2.21 1.59.683.672 1.217 1.478 1.57 2.366.421 1.108.621 2.287.588 3.47.007 1.423-.386 2.82-1.134 4.034-.808 1.287-1.96 2.326-3.328 3.004-1.68.812-3.533 1.207-5.4 1.15-3.53 0-6.973-1.068-9.871-3.062l2.496-4.391c.695.502 1.436.938 2.214 1.302.774.369 1.582.663 2.413.878.729.196 1.479.3 2.233.311.696-.002 1.388-.1 2.057-.291.652-.173 1.246-.514 1.723-.987.48-.532.726-1.232.683-1.944.002-.567-.199-1.118-.565-1.554-.432-.51-.948-.944-1.527-1.282-.666-.4-1.368-.736-2.096-1.007-.887-.334-1.803-.723-2.747-1.166-.938-.438-1.824-.978-2.641-1.609-1.822-1.382-2.847-3.558-2.748-5.829-.045-1.51.336-3.002 1.1-4.31.758-1.23 1.844-2.228 3.139-2.887 1.462-.732 3.071-1.13 4.71-1.166 2.323 0 4.21.27 5.659.812 1.367.504 2.674 1.156 3.897 1.943l-2.155 4.295zM203 14L203 43 197.378 43 197.378 31.219 184.622 31.219 184.622 43 179 43 179 14 184.622 14 184.622 25.702 197.378 25.702 197.378 14zM135.249 11.081c.28.933.924 1.729 1.802 2.224.046.043.096.079.146.118.594.712.876 1.615.786 2.52l-2.422 23.496c-.19 1.776 1.169 3.363 3.037 3.544.115.011.23.017.346.017h.113c1.877 0 3.4-1.446 3.4-3.231 0-.11-.005-.22-.017-.33l-2.422-23.495c-.09-.906.192-1.809.787-2.52l.145-.12c.875-.494 1.516-1.29 1.79-2.223.05-.217.091-.439.124-.66.157-1.182.178-2.375.063-3.56-.096-1.188-.216-2.355-.316-3.534-.088-1.02-.171-2.041-.258-3.058 0-.122-.105-.221-.234-.22-.128 0-.232.098-.232.22l-.138 8.122c.005.022.005.045 0 .067-.029.147-.25.261-.516.261-.191.018-.379-.06-.495-.205-.016-.01-.025-.026-.025-.044v-.043l-.295-8.11c0-.175-.15-.317-.333-.317-.184 0-.333.142-.333.316l-.317 8.154v.024c-.07.142-.227.226-.39.21h-.042c-.163.016-.319-.069-.387-.21V8.47l-.317-8.154c0-.174-.149-.316-.333-.316-.183 0-.332.142-.332.316l-.33 8.11v.04c0 .018-.009.034-.024.044-.116.146-.304.223-.495.206-.267 0-.487-.115-.516-.262-.005-.022-.005-.045 0-.067l-.154-8.126c0-.122-.105-.221-.234-.22-.128 0-.232.098-.233.22-.087 1.017-.17 2.038-.258 3.058-.1 1.187-.22 2.354-.316 3.533-.116 1.192-.096 2.393.063 3.58M313.285 20.004c.395.072.442.371.446.699l.138 6.138c.065 2.962.135 5.924.209 8.886.034 1.524.065 3.05.094 4.574.005.833.537 1.569 1.32 1.824l.237.084c.176.045.291.216.268.399-.017.168-.153.298-.32.307-.227.044-.457.068-.689.072h-5.664c-.232-.004-.464-.028-.693-.072-.167-.007-.302-.139-.316-.307-.026-.18.086-.352.26-.4.119-.043.237-.079.36-.115.67-.198 1.13-.818 1.134-1.525.083-3.253.028-6.506.036-9.759 0-1.173 0-2.347-.04-3.516 0-.212 0-.487-.228-.551-.229-.064-.394.203-.47.399-.609 1.19-1.212 2.387-1.808 3.592-1.352 2.706-2.76 5.393-4.036 8.127-.505 1.07-.86 1.273-2.03 1.126-.438-.037-.821-.313-1.001-.719-1.844-3.68-3.795-7.304-5.73-10.937-.092-.193-.209-.373-.347-.535-.229-.235-.395-.191-.49.132-.039.155-.061.315-.066.475-.051 3.134-.174 6.267-.138 9.404-.022.906.042 1.813.193 2.706.073.377.22.735.43 1.054.192.27.47.465.788.551.151.043.299.097.441.164.13.061.202.205.174.347-.013.131-.106.24-.233.271-.232.073-.474.107-.717.1h-4.844c-.221-.005-.441-.03-.658-.076-.154-.015-.275-.139-.288-.295-.035-.171.061-.342.225-.4l.146-.06c1.032-.179 1.462-1.053 1.517-2.079.055-1.025.043-1.963.047-2.941 0-1.829.02-3.649.024-5.473v-9.18c.092-.777-.41-1.499-1.163-1.673-.193-.068-.394-.155-.354-.399.039-.243.193-.303.394-.335l.063-.056h.063c.125.056.269.056.394 0h4.245c.394 0 .58.235.705.59.465 1.354 1.143 2.611 1.734 3.908 1.068 2.335 2.385 4.535 3.579 6.786.41.772.824 1.54 1.242 2.303.076.148.174.282.291.4.22.27.615.31.882.087.05-.041.092-.09.127-.144.089-.106.164-.222.225-.347.65-1.293 1.312-2.578 1.97-3.864.659-1.285 1.258-2.462 1.884-3.696.52-1.014.927-2.08 1.407-3.113.395-.838.686-1.72 1.108-2.543.076-.212.26-.365.48-.399l3.043.004zM266.615 20.027l.153.079c.11.043.216.09.228.227.021.14-.046.277-.169.348l-.291.117c-.413.1-.763.374-.956.751-.324.609-.587 1.247-.787 1.906l-6.22 16.781c-.239.657-.517 1.3-.833 1.925-.403.689-1.261.967-1.994.646-.235-.122-.406-.34-.469-.595-.278-.975-.503-1.963-.676-2.962-.748-3.63-1.475-7.25-2.223-10.897-.059-.273-.11-.633-.468-.665-.358-.031-.5.305-.641.568-2.046 3.8-4.089 7.604-6.13 11.413-.46.857-.92 1.713-1.388 2.566-.348.6-1.058.892-1.73.712-.274-.061-.49-.27-.56-.54-.111-.424-.17-.86-.176-1.298-.13-2.892-.374-5.775-.563-8.663-.15-2.316-.299-4.633-.472-6.941-.083-1.148-.27-2.286-.558-3.4-.117-.605-.579-1.086-1.18-1.229-.199-.034-.38-.135-.512-.285v-.329c.075-.211.28-.195.44-.25h.19c.125.054.267.054.393 0h5.153c.126.054.268.054.393 0h.126l.177.043c.152.018.275.132.303.281.027.153-.04.306-.169.392-.148.1-.313.175-.488.219-.72.164-1.205.834-1.133 1.565-.027 1.076.04 2.152.087 3.228.047 1.076.138 2.25.216 3.372.06.81.107 1.624.154 2.438.047.814.102 1.604.157 2.406.055.802.114 1.604.15 2.407 0 .187.019.375.055.56.023.116 0 .285.165.3.165.016.208-.129.263-.238.177-.349.394-.677.555-1.025.913-1.789 1.865-3.56 2.793-5.345 1.18-2.293 2.427-4.566 3.584-6.878.094-.188.173-.392.263-.572.223-.562.831-.872 1.42-.724.407.072.728.382.815.783.09.313.114.638.18.955.819 4.03 1.712 8.04 2.566 12.062.039.287.103.57.192.845.044.11.087.227.229.227.141 0 .177-.098.236-.187.06-.111.109-.228.145-.349.307-.923.633-1.839.944-2.762.972-2.864 1.967-5.724 2.915-8.608.291-.853.563-1.71.854-2.563.291-.852.035-1.365-.787-1.721-.28-.121-.586-.176-.861-.301-.224-.065-.352-.298-.287-.52.019-.063.052-.12.098-.169.106-.106.255-.07.393-.133l5.736.027zM325.972 20.036L316.188 20.036 316 19.964 325.976 19.964 326 20.01zM238.29 19.846l-.571.326c-.077-.576.372-.234.571-.326z" transform="translate(-551 -1806) translate(551 1806)"/>
                <path d="M326.41 20.017c-.27 0-.56.107-.82-.067h.82v.067zM239.255 19.95c-.144.133-.366.133-.51 0h.51zM245.255 19.95c-.144.133-.366.133-.51 0h.51z" transform="translate(-551 -1806) translate(551 1806)"/>
                <path d="M325.745 20.029v-.072h.51c-.168.143-.342.061-.51.072zM290.255 19.949c-.142.137-.368.137-.51 0h.51zM278.059 32.026L277.941 32.148 277.972 31.852z" transform="translate(-551 -1806) translate(551 1806)"/>
                <path d="M336.963 26.075c-.883-2.397-2.77-4.265-5.145-5.093-1.67-.563-3.411-.876-5.17-.93-.203-.06-.426.028-.63-.052h-.124c-.148.037-.3.047-.45.032h-9.337c-.113.02-.23.011-.34-.028h-.063c-.09.116-.23.056-.344.096-.188.064-.344.131-.36.375-.003.194.13.362.317.4.207.075.423.123.626.21.511.165.857.651.85 1.198.027 1.257.109 2.514.113 3.768 0 4.993.02 9.978-.024 14.975-.06 1.027.709 1.91 1.716 1.97.068.005.137.005.205.001 1.644-.036 3.291 0 4.935 0 1.611.012 3.22-.162 4.793-.518 2.86-.651 5.325-2.024 7.098-4.427 2.723-3.708 3.005-7.77 1.334-11.977zm-4.543 9.782c-1.174 2.73-3.302 4.295-6.147 4.877-1.382.256-2.793.296-4.187.12-1.444-.152-2.03-.858-2.03-2.395v-7.647-6.386c0-.598.027-1.197.039-1.792 0-.108 0-.203.148-.22 2.348-.279 4.75-.514 7.083.136 3.095.862 4.965 3.026 5.705 6.15.587 2.389.372 4.909-.61 7.157zM289 31.685c-.003-.494-.07-.985-.197-1.462-.538-1.964-2.117-2.609-4.017-2.44-1.285.158-2.504.65-3.53 1.422-1.217.883-2.33 1.895-3.318 3.018-.153 0-.088-.067-.068-.134.056-.232.104-.471.172-.7l2.94-9.664c.076-.207.107-.426.093-.645-.058-.537-.467-.975-1.008-1.08h-3.808l-.124.07c-.165.052-.302.138-.31.319-.017.183.107.35.29.393l.277.09c.612.158 1.08.642 1.205 1.25.14.553.132 1.132-.024 1.681-.788 3.06-1.578 6.118-2.37 9.174-.257.982-.438 1.988-1.008 2.872-.368.558-.783 1.083-1.242 1.572-.962 1.076-2.078 2.012-3.313 2.778-1.062.715-2.326 1.086-3.615 1.06-1.26-.002-2.302-.965-2.374-2.196-.04-.797.017-1.597.173-2.38.044-.244.14-.335.401-.354.813-.07 1.619-.202 2.41-.393 1.721-.335 3.358-.996 4.82-1.945 1.322-.916 2.225-2.09 2.31-3.737.104-.83-.326-1.636-1.08-2.027-.313-.166-.648-.285-.997-.353-1.502-.288-3.06-.037-4.39.707-2.526 1.32-4.241 3.375-5.374 5.893-.802 1.65-1.091 3.495-.831 5.304.309 1.886 1.674 3.116 3.538 3.21 1.574.077 3.14-.265 4.53-.99 1.853-1 3.427-2.427 4.588-4.157.06-.09.092-.216.22-.251v.247c-.11.589-.17 1.186-.176 1.784-.076 1.512.972 2.857 2.482 3.186 1.442.348 2.96.223 4.322-.357 3.213-1.214 5.527-3.41 7.182-6.286.812-1.358 1.234-2.906 1.22-4.48zm-24.766 3.257c.64-1.854 1.701-3.541 3.104-4.935.522-.549 1.194-.94 1.936-1.128 1.129-.255 1.856.319 1.824 1.71-.052 1.292-.832 2.44-2.1 3.3-1.274.828-2.734 1.342-4.254 1.497h-.129c-.562.063-.562.059-.381-.444zm22.09-3.497c-.065 1.344-.4 2.663-.983 3.882-.853 2.108-2.199 3.991-3.929 5.5-.68.61-1.51 1.039-2.41 1.246-1.474.306-2.41-.334-2.675-1.792-.161-1.197-.005-2.415.454-3.536.818-2.46 2.314-4.651 4.322-6.333.844-.739 1.906-1.196 3.033-1.305 1.273-.102 2.084.558 2.185 1.8.012.18 0 .357 0 .538h.004z" transform="translate(-551 -1806) translate(551 1806)"/>
                <text font-family="Helvetica" font-size="2.525" transform="translate(-551 -1806) translate(551 1806)">
                    <tspan x="336" y="21">®</tspan>
                </text>
            </g>
        </g>
    </g>
</svg>
