<svg id="Layer_1" data-name="Layer 1" xmlns="http://www.w3.org/2000/svg" viewBox="0 0 55.41 55.4"><defs><style>.cls-1{fill:#1341a3;}</style></defs><title>obstetrician-and-gynaecologist</title><g id="icon_53" data-name="icon 53"><path class="cls-1" d="M53.3,16l-1.4,4.6s-1,2.7-4.9,2.7-6.3-1-6.6,1.7c-.5,2.7-1.7,9-9.6,9.6,0,0-.5.5.3.7a12.93,12.93,0,0,0,5.7-1c1.5-.8,3.4.3,4.4,2.7s1.5,2.7,2,2.5c.5,0,2.5-.5,3,0s1.2,1.5-.7,2.7a3.44,3.44,0,0,1-4.9-.5c-1.2-1.4-1.9-1.9-2.5-2s-2.4,0-2.5,1.5a8.29,8.29,0,0,1-9,6.3c-6.1-.7-9.3-3.4-10.5-7.9s.8-9.3,1.4-10.6c.7-2.4.5-3.4-.3-4.7s-2.4-1-2.9-5.2C13.6,15,17,11,19.5,9.54a7.87,7.87,0,0,1,5.7-1.2,13.07,13.07,0,0,1,7.4,4.2c2.2,2.4,2,5.7.2,8.4-.3.5-.5.8-.2,1.4s.8,3.2-1,3.7-3.9.5-4.4,1.2-.2,1.2.5,1.7a5.16,5.16,0,0,0,2,.7c.2,0,0-.7,0-1.2s1-1,1.9-.2,1.5,1.7,1,2.9c-.3,1.2-.7.7.2.8.7.2.3-.3,1.2-.7.7-.3,1.2-.3,1.4-.8s1.9-5.9,2.4-6.6,1-2.9,7.1-4.4c3-.7,3.2-2.4,2.7-5.1-.5-2-1.5-5.7-2-7.4A26.12,26.12,0,0,0,28.5.64a27.7,27.7,0,1,0,27.6,27.9A27,27,0,0,0,53.3,16Z" transform="translate(-0.7 -0.64)"/></g></svg>