<?xml version="1.0" encoding="utf-8"?>
<!-- Generator: Adobe Illustrator 23.0.1, SVG Export Plug-In . SVG Version: 6.00 Build 0)  -->
<svg version="1.1" id="Layer_1" xmlns="http://www.w3.org/2000/svg" xmlns:xlink="http://www.w3.org/1999/xlink" x="0px" y="0px"
	 viewBox="0 0 60 51.4" style="enable-background:new 0 0 60 51.4;" xml:space="preserve">
<style type="text/css">
	.st0{display:none;}
	.st1{display:inline;}
	.st2{fill:#FDD7AD;stroke:#ED6D63;stroke-linecap:round;stroke-miterlimit:10;}
	.st3{fill:#FDB8AD;}
	.st4{fill:none;stroke:#ED6D63;stroke-miterlimit:10;}
	.st5{fill:none;stroke:#ED6D63;stroke-linecap:round;stroke-miterlimit:10;}
	.st6{fill:none;stroke:#1341A3;stroke-miterlimit:10;}
	.st7{fill:#EF5361;}
	.st8{fill:#1341A3;}
	.st9{fill:#E4E8F1;}
	.st10{fill:#FDD7AD;stroke:#ED6D63;stroke-miterlimit:10;}
	.st11{fill:none;stroke:#1341A3;stroke-width:1.5;stroke-miterlimit:10;}
	.st12{fill:#65B54E;}
	.st13{fill:#477F37;}
	.st14{display:inline;fill:#ED6D63;}
	.st15{display:inline;fill:#FFD3DD;}
	
		.st16{clip-path:url(#SVGID_4_);fill:none;stroke:#E4E8F1;stroke-width:2;stroke-linecap:round;stroke-linejoin:round;stroke-miterlimit:10;}
	.st17{display:inline;fill:#EF5361;}
	.st18{display:inline;fill:#1341A3;}
	.st19{display:inline;fill:none;stroke:#1341A3;stroke-width:2;stroke-linecap:round;stroke-miterlimit:10;}
	.st20{display:inline;fill:none;stroke:#1341A3;stroke-width:1.5;stroke-miterlimit:10;}
	.st21{clip-path:url(#SVGID_7_);fill:#EF5361;}
	.st22{display:inline;fill:none;stroke:#E4E8F1;stroke-linecap:round;stroke-miterlimit:10;}
	
		.st23{clip-path:url(#SVGID_9_);fill:none;stroke:#E4E8F1;stroke-width:2;stroke-linecap:round;stroke-linejoin:round;stroke-miterlimit:10;}
	.st24{display:inline;fill:#E4E8F1;}
	.st25{clip-path:url(#SVGID_13_);fill:#0F367C;}
	.st26{clip-path:url(#SVGID_15_);fill:#5CA547;}
	.st27{display:inline;fill:#FDD7AD;stroke:#ED6D63;stroke-linecap:round;stroke-linejoin:round;stroke-miterlimit:10;}
	.st28{display:inline;fill:none;stroke:#ED6D63;stroke-linecap:round;stroke-miterlimit:10;}
	.st29{display:inline;fill:#FDD7AD;stroke:#FF736C;stroke-linecap:round;stroke-linejoin:round;stroke-miterlimit:10;}
	.st30{display:inline;fill:none;stroke:#FF736C;stroke-linecap:round;stroke-linejoin:round;stroke-miterlimit:10;}
	.st31{display:inline;fill:none;stroke:#FF736C;stroke-linecap:round;stroke-miterlimit:10;}
	.st32{display:inline;fill:none;stroke:#E4E8F1;stroke-width:1.5;stroke-linecap:round;stroke-miterlimit:10;}
	.st33{display:inline;fill:none;stroke:#1341A3;stroke-width:1.7;stroke-miterlimit:10;}
	.st34{display:inline;fill:#89D7F4;}
	.st35{fill:#ED6D63;}
	.st36{clip-path:url(#SVGID_18_);fill:#FDD7AD;}
	.st37{display:inline;fill:#3A3A3A;}
	.st38{display:inline;fill:none;stroke:#1341A3;stroke-miterlimit:10;}
	.st39{display:inline;fill:#C1434E;}
	.st40{display:inline;fill:#65B54E;}
	.st41{display:inline;fill:none;stroke:#559842;stroke-width:0.5;stroke-linecap:round;stroke-miterlimit:10;}
	.st42{fill:none;stroke:#E4E8F1;stroke-linecap:round;stroke-miterlimit:10;stroke-dasharray:2.0138,2.0138;}
	.st43{fill:#FDD7AD;stroke:#ED6D63;stroke-linecap:round;stroke-linejoin:round;stroke-miterlimit:10;}
	.st44{display:inline;fill:none;stroke:#EF5361;stroke-width:3;stroke-miterlimit:10;}
	.st45{display:inline;fill:none;stroke:#1341A3;stroke-width:3;stroke-miterlimit:10;}
	.st46{display:inline;fill:none;stroke:#E4E8F1;stroke-width:1.2;stroke-miterlimit:10;}
	.st47{display:inline;fill:none;stroke:#E4E8F1;stroke-width:1.2;stroke-linecap:round;stroke-miterlimit:10;}
	.st48{display:inline;fill:#1341A3;stroke:#E4E8F1;stroke-miterlimit:10;}
	.st49{display:inline;fill:none;stroke:#1341A3;stroke-width:1.5;stroke-linecap:round;stroke-miterlimit:10;}
	.st50{fill:#FF9289;stroke:#ED6D63;stroke-width:0.7;stroke-miterlimit:10;}
	.st51{fill:none;stroke:#ED6D63;stroke-width:0.7;stroke-linecap:round;stroke-miterlimit:10;}
	.st52{fill:#FF9289;stroke:#ED6D63;stroke-miterlimit:10;}
	.st53{display:inline;fill:#FF9289;stroke:#ED6D63;stroke-miterlimit:10;}
	.st54{display:inline;fill:none;stroke:#E4E8F1;stroke-width:1.5;stroke-miterlimit:10;}
	.st55{display:inline;fill:none;stroke:#E4E8F1;stroke-width:1.5;stroke-linejoin:round;stroke-miterlimit:10;}
	.st56{display:inline;fill:none;stroke:#1341A3;stroke-linecap:round;stroke-miterlimit:10;}
	.st57{font-family:'Montserrat-Bold';}
	.st58{font-size:8.4097px;}
	.st59{font-size:6.761px;}
	.st60{font-size:5.5917px;}
	.st61{font-size:4.6914px;}
	
		.st62{display:inline;fill:none;stroke:#E4E8F1;stroke-width:1.5;stroke-linecap:round;stroke-linejoin:round;stroke-miterlimit:10;}
	.st63{display:inline;fill:none;stroke:#E4E8F1;stroke-miterlimit:10;}
	.st64{clip-path:url(#SVGID_21_);fill:none;stroke:#E4E8F1;stroke-width:1.5;stroke-linecap:round;stroke-miterlimit:10;}
	
		.st65{display:inline;fill:none;stroke:#1341A3;stroke-width:1.5;stroke-linecap:round;stroke-linejoin:round;stroke-miterlimit:10;}
	.st66{display:inline;fill:#1341A3;stroke:#89D7F4;stroke-width:1.5;stroke-miterlimit:10;}
	.st67{fill:#89D7F4;}
	.st68{display:inline;fill:none;stroke:#1341A3;stroke-width:2;stroke-miterlimit:10;}
	.st69{clip-path:url(#SVGID_23_);fill:#1341A3;}
	.st70{clip-path:url(#SVGID_25_);fill:none;stroke:#E4E8F1;stroke-linecap:round;stroke-miterlimit:10;}
	
		.st71{display:inline;fill:none;stroke:#1341A3;stroke-width:2.5;stroke-linecap:round;stroke-linejoin:round;stroke-miterlimit:10;}
	.st72{display:inline;fill:none;stroke:#1341A3;stroke-width:2.5;stroke-linecap:round;stroke-miterlimit:10;}
	.st73{clip-path:url(#SVGID_28_);fill:none;stroke:#E4E8F1;stroke-width:3;stroke-miterlimit:10;}
	.st74{display:inline;fill:#1341A3;stroke:#E4E8F1;stroke-width:2.5;stroke-miterlimit:10;}
	.st75{display:inline;fill:#E6EAF2;}
	.st76{display:inline;fill:none;stroke:#E6EAF2;stroke-width:1.5;stroke-linecap:round;stroke-miterlimit:10;}
	.st77{display:inline;fill:none;stroke:#E4E8F1;stroke-width:0.5;stroke-linecap:round;stroke-miterlimit:10;}
	.st78{display:inline;fill:none;stroke:#E4E8F1;stroke-width:0.8;stroke-linecap:round;stroke-miterlimit:10;}
	.st79{display:inline;fill:#D84B58;}
	.st80{display:inline;fill:#579B43;}
</style>
<g id="icon_1" class="st0">
	<g class="st1">
		<path class="st2" d="M21.3,19c0.4,0.1,0.8-0.2,0.8-0.6v-7.1c0,0,0-2.7,3.4-2.1c0.3,0.1,0.6-0.1,0.7-0.4c0.2-0.6,0.9-1.5,2.9-1.5
			c1.2,0,1.7,0.7,1.9,1.3c0.1,0.3,0.5,0.5,0.8,0.4c0.7-0.2,1.7-0.4,2.3,0.3c0.8,0.8,0.9,1.5,1,2.3c0,0.4,0.3,0.6,0.7,0.6
			c1.2-0.1,3.3-0.1,3.3,2.1v14c0,0,0,3.6-1.7,4.8c-0.2,0.1-0.3,0.3-0.3,0.6v10c0,0.4-0.3,0.7-0.7,0.7H25.7c-0.4,0-0.6-0.3-0.6-0.7
			v-9.8c0-0.3-0.2-0.5-0.5-0.6c-0.8-0.3-2.9-1.7-6.5-9l0,0c-0.1-0.1-2-4,0-5C19.3,18.7,20.5,18.8,21.3,19z"/>
		<path class="st3" d="M38.6,27.8c0,0-1,0-1-1s0-3-3-3s-3,2-3,2s0,1-1,2s-2,3-1,4s4,1,5,2s2,1,2,1v-1l0,0c1.3-1.3,2-3,2-4.8v-0.2
			V27.8z"/>
		<path class="st4" d="M31.1,9.3"/>
		<line class="st5" x1="31.1" y1="21.3" x2="31.1" y2="9.3"/>
		<line class="st5" x1="35.1" y1="22.3" x2="35.1" y2="12.3"/>
		<line class="st5" x1="26.1" y1="21.3" x2="26.1" y2="9.3"/>
		<line class="st5" x1="22.1" y1="24.3" x2="22.1" y2="12.3"/>
		<circle class="st3" cx="24.6" cy="26.8" r="0.5"/>
		<circle class="st3" cx="25.1" cy="25.3" r="0.5"/>
		<circle class="st3" cx="30.1" cy="24.3" r="0.5"/>
		<circle class="st3" cx="29.6" cy="26.8" r="1"/>
		<circle class="st3" cx="25.1" cy="30.3" r="1.5"/>
		<circle class="st3" cx="28.1" cy="30.3" r="0.5"/>
		<circle class="st3" cx="28.1" cy="33.3" r="0.5"/>
		<circle class="st3" cx="28.1" cy="36.3" r="0.5"/>
		<circle class="st3" cx="31.1" cy="37.3" r="0.5"/>
		<circle class="st3" cx="34.6" cy="35.8" r="1"/>
		<circle class="st3" cx="27.6" cy="39.8" r="2"/>
		<circle class="st3" cx="34.1" cy="41.3" r="0.5"/>
	</g>
</g>
<g id="icon_2" class="st0">
	<g class="st1">
		<path class="st6" d="M37.1,17.8c0,0-4.3,0.5-4.6,3.5s-0.3,7.2-0.3,7.2L30,28.7l0.3-6.7l0,0c0-0.2-0.2-3.7,2.8-5.6
			c1.7-1.1,4.4-1.1,4.4-1.1"/>
		<path class="st6" d="M21.7,15.3c0,0,3.6,0.9,5.3,2.9c1.3,1.5,1.2,3.5,1.2,5.8c0,1.6,0,3,0,4.7h-1.9v-6.3c0,0,0.2-2.3-2.2-3.7
			c-0.8-0.5-2.3-1-4.2-0.9"/>
		<path class="st7" d="M38.2,10.8c0,0,2.5-1,4.2,0.6c1.3,1.2,2.5,2.9,2.5,7.1s-3,5.4-3.6,5.7c-0.2,0.1-3.8,1.1-4.9-2.3
			c-0.5-1.5,0.2-4.6,0.2-4.6s0.1-0.9-0.3-2.1C35.7,13.9,36,11.7,38.2,10.8z"/>
		<path class="st7" d="M25.8,27.5h7c0,0,2.7,0.3,2.6,3.4S33.6,35,33.6,35s-1.8,1.4-2,3.3c-0.2,1.8-0.2,2.9-0.2,2.9h-4
			c0,0,0-2.3-0.1-2.9s-1-2.6-1.8-3.5c-0.4-0.4-2.1-2-1.9-4.5C23.7,28.6,25.8,27.5,25.8,27.5z"/>
		<path class="st7" d="M20.7,10.8c0,0-2.5-1-4.2,0.6c-1.4,1.2-2.5,2.9-2.5,7.1s3,5.4,3.6,5.7c0.1,0.1,3.8,1.1,4.9-2.3
			c0.5-1.5-0.1-4.6-0.1-4.6s-0.1-0.9,0.4-2.1C23.2,13.9,22.8,11.7,20.7,10.8z"/>
	</g>
</g>
<g id="icon_3" class="st0">
	<g class="st1">
		
			<rect x="19.2" y="20.2" transform="matrix(0.6787 -0.7344 0.7344 0.6787 -7.8528 30.4878)" class="st8" width="23.5" height="8.1"/>
		
			<rect x="20.8" y="31.9" transform="matrix(0.6787 -0.7344 0.7344 0.6787 -17.7146 27.0474)" class="st8" width="2.6" height="3.8"/>
		<path class="st8" d="M21.7,34.3L21.7,34.3c0.2,0.2,0.2,0.4,0,0.6l-6.3,6.8c-0.1,0.2-0.4,0.2-0.6,0l0,0c-0.2-0.2-0.2-0.4,0-0.6
			l6.3-6.8C21.2,34.1,21.5,34.1,21.7,34.3z"/>
		<path class="st8" d="M43.2,19.4l-8.4-7.8c-0.3-0.2-0.3-0.6,0-0.9l0,0c0.2-0.3,0.7-0.3,0.9,0l8.4,7.7c0.3,0.2,0.3,0.6,0,0.9l0,0
			C43.8,19.6,43.4,19.6,43.2,19.4z"/>
		<path class="st8" d="M44.6,15.2l-5.8-5.4c-0.3-0.3-0.3-0.7,0-1l0,0c0.3-0.3,0.7-0.3,1,0l5.9,5.4c0.3,0.3,0.3,0.7,0,1l0,0
			C45.4,15.5,44.9,15.5,44.6,15.2z"/>
		<rect x="40.1" y="11.3" transform="matrix(0.6787 -0.7344 0.7344 0.6787 3.7186 34.4276)" class="st8" width="2.3" height="3.4"/>
		<path class="st9" d="M35,17.5l-1.8-1.7l0.7-0.7l1.8,1.7c0.2,0.2,0.2,0.5,0,0.7l0,0C35.5,17.7,35.2,17.7,35,17.5z"/>
		<path class="st9" d="M32.8,19.9l-1.9-1.7l0.6-0.7l1.8,1.7c0.2,0.2,0.2,0.5,0,0.7l0,0C33.3,20.1,33,20.1,32.8,19.9z"/>
		<path class="st9" d="M30.6,22.3l-1.9-1.7l0.6-0.7l1.9,1.7c0.2,0.2,0.2,0.5,0,0.7l0,0C31.1,22.5,30.8,22.5,30.6,22.3z"/>
		<path class="st9" d="M28.4,24.7L26.5,23l0.6-0.7L29,24c0.2,0.2,0.2,0.5,0,0.7l0,0C28.9,24.9,28.6,24.9,28.4,24.7z"/>
		<path class="st9" d="M26.1,27.2l-1.9-1.7l0.6-0.7l1.9,1.7c0.2,0.2,0.2,0.5,0,0.7l0,0C26.6,27.3,26.3,27.3,26.1,27.2z"/>
		<path class="st9" d="M23.9,29.6L22,27.9l0.6-0.7l1.9,1.7c0.2,0.2,0.2,0.5,0,0.7l0,0C24.4,29.7,24.1,29.8,23.9,29.6z"/>
	</g>
</g>
<g id="icon_4" class="st0">
	<g class="st1">
		<path class="st10" d="M24.7,10.2c0,0,1.3,0.1,2,0.1c1.1,0.1,7.9,0.8,8.3,8.5c0.4,7.2-3.3,9.4-4.4,10.9c-0.8,1-1.5,2-1,5
			c0.6,3.6-1.8,6.5-4.5,7s-8,0.3-8.8-5.5c-0.8-5.7-1.3-11.6-1.6-13.9c-0.4-3.2-0.1-8,3.6-10.4C21.3,9.9,24.2,10.2,24.7,10.2z"/>
		<path class="st4" d="M27.8,24.8c0,0,4.9-7.4-0.9-9.5c-4.4-1.6-6.6,0.6-7.6,3.1c-0.2,0.5-0.6,2-0.7,3.9c-0.2,2.5-0.1,5.9,1.3,8.6
			C22.4,35.8,25,33,25,33s2.4-2.9,0.6-7s-6.7-3.7-6.7-3.7"/>
		<line class="st11" x1="39.9" y1="18.1" x2="46" y2="14.8"/>
		<line class="st11" x1="41.9" y1="25.9" x2="49.9" y2="25.9"/>
		<line class="st11" x1="39.9" y1="33" x2="46.6" y2="36.7"/>
	</g>
</g>
<g id="icon_5" class="st0">
	<g class="st1">
		<path class="st8" d="M10.8,30l4.7,8.7l-1.9,1.2c0,0-0.9,0.7-1.4-0.3c-0.5-0.9-3.9-7-3.9-7S7.8,32,8.6,31.4
			C9.4,30.9,10.8,30,10.8,30z"/>
		<path class="st8" d="M17,37.8l2.7-1.5l11.4,2.3c0,0,3.6,0.8,5.8,0s13-5.5,13-5.5s1.8-0.5,1.1-2.3c-0.7-1.7-2.5-1.1-2.5-1.1
			l-8.4,3.6c-0.1,0-0.2,0-0.2,0.1c-0.9,0.4-2.9,0.2-4.8,0C33,33.3,27.9,33,27.9,33s-0.5,0-0.5-0.6c0.1-0.6,1.7-0.4,1.7-0.4l8.4,0.4
			c0,0,0.2,0,0.5-0.1c0.5-0.2,1.3-0.8,1.1-1.9c-0.2-1.6-1.2-2.1-2.7-2.1s-7.9-1.3-9.3-1.9c-1.3-0.5-3.6-1.7-5.9-1.4
			c-2.2,0.3-3.8,0.9-5.6,2c-1.9,1.1-3.4,2.1-3.4,2.1L17,37.8z"/>
		<path class="st8" d="M40.6,29.9v1.7l7.2-2.7c0,0-0.6-1-2.4-0.5C43.5,28.8,40.6,29.9,40.6,29.9z"/>
		<path class="st8" d="M40.1,28.7l4.5-1.3c0,0-0.7-0.6-2.9-0.2s-2.5,0.5-2.5,0.5L40.1,28.7z"/>
		<path class="st12" d="M29.2,25.8c0,0,6.6,0.3,9.5-3.3s3.4-6.8,2.8-10.8c0,0-3.7-1.3-8.5,1c-2.4,1.2-6.1,3.9-5.8,11.4l3.8-2
			L29.2,25.8z"/>
		<path class="st12" d="M31.1,12.5c0,0-4.3,2.1-4.8,7.1c0,0-3-1.8-1.9-8.1C24.4,11.5,28.7,10.8,31.1,12.5z"/>
		<polygon class="st13" points="30.1,23.8 32.7,21.1 35.8,20.4 33.4,20.4 36.7,16.7 37.8,16.3 37,16.3 39.3,13.8 37.9,15 37.8,14.6 
			37.6,15.2 34.6,18 34.4,16.7 34,18.4 29.2,23 31,22 		"/>
	</g>
</g>
<g id="icon_6" class="st0">
	<path class="st14" d="M21.6,13.8c0,0,0.5,4.1,5.7,3.9c0,0,0.5-4.3,3.8-5.2c3.3-0.9,9,0.6,11.4,4.1c2.4,3.4,4.7,8.3-0.7,17.6
		C37.7,41.4,26,43,23.7,39.5c-0.5-0.8-0.4-1.8-0.4-1.8s-1.7,0.5-1.9,2.1c-0.2,1.5-0.6,1.6-0.9,1.6c-0.4,0-3.8,0-3.8,0
		s-0.8-0.4-0.6-1.5c0.2-1.2,1.4-6.9,6.8-7.3c3.1-0.3,3.9,0,4-3c0.1-2.6,0-6.4,0-6.4s-5.3,0.5-7.9-2.7s-2.9-7.1-2.9-7.1s0-1,0.9-1
		s3.7,0,3.7,0s0.6,0.1,0.7,1L21.6,13.8z"/>
	<path class="st15" d="M31.8,27.8c0,0,3.5,0.6,5.7-0.3c2.1-1,2.9-1.7,3.8-1.4c0.9,0.4,1.3,1.4,0.9,3.6c-0.4,2.2-3.9,7-8.8,8.9
		s-7.5,0.9-8.5-1.4c-0.4-0.9,0.1-2.1,2.3-3.2c2.2-1.1,1.9-2.8,1.8-3.8s-0.2-2.3,0.6-2.5C30.3,27.5,31.8,27.8,31.8,27.8z"/>
	<circle class="st14" cx="31.9" cy="31.1" r="0.9"/>
	<circle class="st14" cx="36.5" cy="32" r="0.4"/>
	<circle class="st14" cx="32" cy="34.2" r="0.4"/>
	<circle class="st14" cx="32.5" cy="36.9" r="0.3"/>
	<circle class="st14" cx="28.7" cy="36.6" r="0.5"/>
</g>
<g id="icon_7" class="st0">
	<g class="st1">
		<g>
			<g>
				<path id="SVGID_1_" class="st7" d="M30.2,14.6c0,0,4.1-3,8.2-2.8s7.4,2.1,8.7,5.5c1.4,3.4,0.7,8.1-4,14.2S30.2,44.6,30.2,44.6
					S21,37.4,16.1,30.1s-4.2-11.8-2.2-14.3s5.2-4.3,8.3-4C25.3,12.1,27.2,12.7,30.2,14.6z"/>
			</g>
			<g>
				<g>
					<g>
						<g>
							<g>
								<g>
									<g>
										<g>
											<defs>
												<path id="SVGID_2_" d="M30.2,14.6c0,0,4.1-3,8.2-2.8s7.4,2.1,8.7,5.5c1.4,3.4,0.7,8.1-4,14.2S30.2,44.6,30.2,44.6
													S21,37.4,16.1,30.1s-4.2-11.8-2.2-14.3s5.2-4.3,8.3-4C25.3,12.1,27.2,12.7,30.2,14.6z"/>
											</defs>
											<clipPath id="SVGID_4_">
												<use xlink:href="#SVGID_2_"  style="overflow:visible;"/>
											</clipPath>
											<polyline class="st16" points="14.6,29.1 21,29.1 23.6,26.7 27.3,32 32.5,22.8 37,29.2 45.7,29.1 											"/>
										</g>
									</g>
								</g>
							</g>
						</g>
					</g>
				</g>
			</g>
		</g>
	</g>
</g>
<g id="icon_8" class="st0">
	<path class="st17" d="M17.6,37.7v2.7c0,0-0.2,2.3,2.2,0.8c1.2-0.8,1.2-1.8,2.6-1.8s1-0.9,1.9-1.1c0.9-0.2,1-1.3,1-1.3
		s0.1-0.9,1.5-0.4c0.7,0.3,2-0.8,2.4-0.8c0.3-0.1,1.3-0.5,1.9,0c0.6,0.5,0,0.9,0.8,1.2c0.4,0.1,1.2-0.7,1.7-0.4s0.8,1.6,1.6,2.1
		s1.9,0.2,2.2,0.4s1.3,2.9,3.2,2.6c1.9-0.2,2-1.6,1.5-3.7c-0.5-2.1-8.6-8.5-8.6-8.5s-4-1.5-6.4,0.4C24.6,31.5,17.6,37.7,17.6,37.7z"
		/>
	<path class="st18" d="M36.4,13.4c0,0,5.5,3.8,6.8,11.5c0.9,5.4,0.9,8.9,0,11.9c-0.9,2.9-4,1.6-4.7,0.8s-5.2-3.9-5.2-3.9
		s-3.1-2.4-2.6-6.4s1.8-11.8,1.8-11.8S33,11.4,36.4,13.4z"/>
	<path class="st18" d="M26.5,17.7l1.2-1.5c0,0,0.5-0.5,0.4-1.4s0-7,0-7S28,7.3,28.9,7.3s1.6,0,1.6,0s0.3,0.2,0.3,0.6c0,0.5,0,7,0,7
		s0.2,1.9,1.8,2.3c1.6,0.5,2.1,2.7,2.1,2.7l-1,0.7l-1.5-0.3l-1.3-1.5c0,0-0.6-0.6-0.9-0.7s-0.8,0-1.3,0.4S27,20,27,20l-0.7-1.6
		L26.5,17.7z"/>
	<path class="st18" d="M22.8,13.4c0,0-5.5,3.8-6.8,11.5c-0.9,5.4-0.9,8.9,0,11.9c0.9,3,4,1.6,4.7,0.8s5.2-3.9,5.2-3.9
		s3.1-2.4,2.6-6.4s-1.8-11.8-1.8-11.8S26.2,11.4,22.8,13.4z"/>
</g>
<g id="icon_9" class="st0">
	<path class="st14" d="M24.1,26.1c0,0,2.2-1.1,2.3-3.2c0.1-2.3-0.8-3.5-1.8-4.8s-2.4-5.9,0.6-7.9s6.1-1,7.2,0
		c0.6,0.6,2.5,3.3,1.3,6.5c-0.8,2.1-2.4,3.4-2.6,5s0.1,3.1,2.3,4.4l0.9,0.7H23.7L24.1,26.1z"/>
	<path class="st18" d="M39,29.8H19c-1,0-1.9-0.8-1.9-1.9l0,0c0-1,0.8-1.9,1.9-1.9h20c1,0,1.9,0.8,1.9,1.9l0,0
		C40.8,29,40,29.8,39,29.8z"/>
	<path class="st18" d="M28.9,32L28.9,32c-0.8,0-1.5-0.7-1.5-1.5v-2.1c0-0.8,0.7-1.5,1.5-1.5l0,0c0.8,0,1.5,0.7,1.5,1.5v2.1
		C30.5,31.3,29.8,32,28.9,32z"/>
	<path class="st18" d="M25.2,29.4c0,0-2.6,3.6-1.2,7.3c1.4,3.8,4.2,4.2,4.9,4.2s5.5-0.6,5.5-6.8c0-2.3-1.6-4.9-1.6-4.9h2.6
		c0,0,1.4,1.2,2,3.4c0.5,1.8,1.1,5.1-1.9,8.9s-9.5,2.6-11.4,1.4c-2-1.4-4.4-3.9-4-8.6c0.3-3.4,2.6-5.5,2.6-5.5L25.2,29.4z"/>
</g>
<g id="icon_10" class="st0">
	<path class="st18" d="M25.2,45.1c0.1,0.9,0.9,0.7,1.3,0.7h9.4c0,0,0.7,0.3,0.7-1v-4.9c0-0.1,0-0.2,0-0.3c0.2-0.7,0.9-3.4,1.7-4.3
		c1.3-1.5,1.3-5.2,1.3-5.2l0.2-17.3c0,0-0.1-1.7-1.7-1.8c-1.6-0.1-1.7,1.5-1.7,1.5l-0.2,7.9c0,0-0.1,0.8-0.6,0.8
		c-0.6,0-0.7-0.6-0.6-1s0.1-11.3,0.1-11.3S35,7.7,33.3,7.6s-1.6,1.7-1.6,1.7v10c0,0,0,0.8-0.6,0.7c-0.7,0-0.5-1.2-0.5-1.2V7.7
		c0,0-0.1-1.4-2-1.4s-1.8,2-1.8,2l-0.2,11.3c0,0,0,0.5-0.5,0.5s-0.4-1-0.4-1v-9c0,0,0-1.6-1.7-1.5c-1.1,0-1.3,0.8-1.3,1.6v8
		c0,0.2,0,0.3,0.1,0.5l0.3,0.8c0,0.1,0.1,0.2,0.1,0.3l2.5,3.5c0,0,0.5,0.6,0.9,0.5s3.8,0.6,5,1.1c1,0.5,2,0.7,2,0.7s0.9,0.4,0.5,1.5
		c-0.2,0.6-1.7,0.3-1.7,0.3l-1.1-0.3v0.3l3.8,4.6c0,0,0.4,0.7-0.2,1.1c-0.6,0.4-1.1-0.2-1.1-0.2l-2.4-3.1c0,0-0.5-0.1-0.4,0.3
		c0.1,0.5,3.3,4.1,3.3,4.1s0.3,0.6-0.2,1c-0.2,0.2-0.8,0.3-1.2-0.1c-0.3-0.3-3.1-4-3.1-4s-0.5-0.2-0.4,0.3l2.8,3.6
		c0,0,0.4,0.7,0,1.1c-0.4,0.4-0.9,0.2-1.3-0.3c-0.4-0.4-3.1-3.9-3.1-3.9s-0.5-0.2-0.5,0.3l2.2,2.8c0,0,0.4,0.6-0.1,1s-1,0.3-1.5-0.3
		c-0.5-0.5-4.2-5.5-4.8-6.3C23,29.3,23,29.2,23,29.2c-0.2-0.4-0.6-1.5-0.6-2.4c0-0.3-0.1-0.5-0.2-0.8l-3.3-4.4c0,0-1.1-1.2-2.6-0.3
		c-1.5,0.9-0.5,3-0.4,3.3s5.1,8,5.1,8s2,2.9,2.7,3.9c0.7,1.1,1.7,2.1,1.6,4.4c-0.1,1.7-0.1,2.9-0.1,3.5
		C25.2,44.5,25.2,45.1,25.2,45.1z"/>
</g>
<g id="icon_11" class="st0">
	<circle class="st18" cx="12.5" cy="29.1" r="3.3"/>
	<circle class="st18" cx="29" cy="12.1" r="3.4"/>
	<path class="st18" d="M25.7,14.4c0,0,1.3,2.3,3.6,2c2.2-0.3,3-1.8,3-1.8s1.2,0,1.6,0.5c0.4,0.4,0.7,0.5,1.1,1.8
		c0.4,1.3,1.5,4.8,1.5,4.8l4.3,1.7c0,0,0,0,0.1,0c0.3,0.1,2.1,1.1,2.2,1.2l-5.9,0.8l-2.5-0.9c0,0-0.6-0.2-1.1-1.6
		c-0.5-1.5-1.1-2.6-1.1-2.6l0.1,3.9l-6.5,0.1l-2.5-2.5l-0.1-2.9l-1.3,2.9l3.1,2.9c0,0,1.2,0.9,0.5,2.2s-2.7,0.2-2.7,0.2l-4-3.7
		c0,0-0.7-0.8,0-2.4s1.9-4.4,1.9-4.4s1-2.1,2.8-2.2C25.5,14.3,25.7,14.4,25.7,14.4z"/>
	<path class="st18" d="M18.8,29.3l-0.2,4.1L16.9,38c0,0-0.9,2.2,0.9,2.4s2.1-0.9,2.3-1.5c0.2-0.6,1.5-4.6,1.5-4.6l0.2-2.6l0.6-2.5
		v3.6l6.6,0.1v6c0,0,0.1,1.6,1.8,1.6c2,0,10.8,0,10.8,0s1.3-0.3,1.1-1.8s-0.6-1.9-1.5-1.9s-8.3,0.1-8.3,0.1l0.1-6.4l17.6-2
		c0,0,1.9-0.4,1.5-2c-0.4-1.6-1.4-1.6-2.3-1.6c-0.9,0-17,2-17,2s0.1-1.5-1.2-1.6s-4.7,0-4.7,0s0.3,2.5-1.3,3.1
		C24,29,23,28.3,22,27.4c-1-0.9-1.9-2-1.9-2h-2c0,0-1.5,0.4-1.6,1.6c-0.1,1.3,0,4.2,0,4.2s0.2,1.2,1.2,1.4L18.8,29.3z"/>
	<path class="st18" d="M22.6,33.9h2l1.2,3.4c0,0,0.7,2.5-0.7,3.1c-1.4,0.6-2.4-0.3-2.8-1.6s-0.4-1.9-0.4-1.9L22.6,33.9z"/>
	<polygon class="st18" points="33.8,31.5 36.8,31.5 35,35.7 33.8,35.7 	"/>
</g>
<g id="icon_12" class="st0">
	<path class="st19" d="M30.4,9.3c0,0-4,7.5-0.8,15.8s1.7,13.9-1.2,17.4"/>
	<path class="st19" d="M43.7,16.3c0,0-1.6,7.2-13.9,9.5c-8.9,1.6-10.7,4.4-13.9,8.7"/>
	<line class="st20" x1="30.5" y1="10.7" x2="42.9" y2="18.2"/>
	<line class="st20" x1="28.7" y1="14.5" x2="39.8" y2="21.1"/>
	<line class="st20" x1="28.4" y1="19.4" x2="35.4" y2="24"/>
	<line class="st20" x1="24.2" y1="27.9" x2="31.3" y2="32"/>
	<line class="st20" x1="19.8" y1="30.4" x2="31" y2="36.5"/>
	<line class="st20" x1="17.1" y1="33.4" x2="29.6" y2="40.7"/>
</g>
<g id="icon_13" class="st0">
	<g class="st1">
		<g>
			<path id="SVGID_3_" class="st8" d="M38.9,38.3l-0.6,0.4c-3,2.1-7.1,1.4-9.3-1.5L18.7,22.6c-2.1-3-1.4-7.1,1.5-9.3l0.6-0.4
				c3-2.1,7.1-1.4,9.3,1.5l10.4,14.5C42.6,32,41.9,36.1,38.9,38.3z"/>
		</g>
		<g>
			<g>
				<g>
					<g>
						<g>
							<g>
								<g>
									<g>
										<defs>
											<path id="SVGID_6_" d="M31.2,41.2l-0.6-0.5c-2.8-2.3-3.1-6.5-0.8-9.4l11.7-13.6c2.3-2.8,6.5-3.1,9.4-0.8l0.6,0.5
												c2.8,2.3,3.1,6.5,0.8,9.4L40.7,40.3C38.3,43.2,34.1,43.5,31.2,41.2z"/>
										</defs>
										<clipPath id="SVGID_7_">
											<use xlink:href="#SVGID_6_"  style="overflow:visible;"/>
										</clipPath>
										
											<rect x="20.1" y="25.2" transform="matrix(0.814 -0.5809 0.5809 0.814 -14.0561 25.7388)" class="st21" width="26.2" height="19.3"/>
									</g>
								</g>
							</g>
						</g>
					</g>
				</g>
			</g>
		</g>
	</g>
	<path class="st22" d="M21.4,16.7c0,0-2.2,1.2-0.4,3.9"/>
</g>
<g id="icon_14" class="st0">
	<path class="st17" d="M13.6,25.3h0.1h27.1L33.1,21c0,0-1.9-0.9-3.4-0.3s-2.1,1.2-3,0.8c-1.2-0.6-2.1-0.8-2.1-0.8s-1.7-0.4-2.9,0.2
		C20.4,21.5,13.6,25.3,13.6,25.3z"/>
	<path class="st18" d="M40.8,25.3l-6.5,5.4c0,0-2.1,1.5-4,1.3c-1.9-0.2-1.7-0.7-2.6-1c-0.8-0.3-1.4-0.3-2.5,0.4
		c-0.6,0.4-1.2,0.8-2.5,0.6s-2.6-1.2-3.6-2.1c-1-0.9-5.4-4.6-5.4-4.6L40.8,25.3z"/>
	<path class="st18" d="M41.4,15.8c0,0,0.1,2-1.7,2.3c0,0,1.6,0.1,1.7,2.1c0,0,0.1-2.1,1.8-2.1C43.2,18.1,41.4,17.8,41.4,15.8z"/>
	<path class="st18" d="M38.4,9.7c0,0,0.1,1.5-1.3,1.7c0,0,1.2,0.1,1.3,1.6c0,0,0.1-1.5,1.4-1.5C39.8,11.4,38.5,11.2,38.4,9.7z"/>
	<path class="st18" d="M43.1,4.7c0,0,0.1,2.1-1.8,2.3c0,0,1.7,0.1,1.8,2.2c0,0,0.1-2.1,1.9-2.1C45,7.1,43.2,6.8,43.1,4.7z"/>
	<g id="icon_3_1_" class="st1">
		<g>
			
				<rect x="38.2" y="32.4" transform="matrix(0.7214 -0.6925 0.6925 0.7214 -14.9166 38.1509)" class="st8" width="3.6" height="10.5"/>
			
				<rect x="35.1" y="32.8" transform="matrix(0.7214 -0.6925 0.6925 0.7214 -13.099 34.1601)" class="st8" width="1.7" height="1.2"/>
			<path class="st8" d="M35.8,33.2L35.8,33.2c-0.1,0.1-0.2,0.1-0.3,0l-2.8-3c-0.1-0.1-0.1-0.2,0-0.3l0,0c0.1-0.1,0.2-0.1,0.3,0
				l2.8,3C35.8,33,35.8,33.1,35.8,33.2z"/>
			<path class="st8" d="M41.8,43.2l3.7-3.5c0.1-0.1,0.3-0.1,0.4,0l0,0c0.1,0.1,0.1,0.3,0,0.4l-3.7,3.5c-0.1,0.1-0.3,0.1-0.4,0l0,0
				C41.7,43.5,41.7,43.3,41.8,43.2z"/>
			<path class="st8" d="M43.6,43.9l2.6-2.5c0.1-0.1,0.3-0.1,0.4,0l0,0c0.1,0.1,0.1,0.3,0,0.4L44,44.3c-0.1,0.1-0.3,0.1-0.4,0l0,0
				C43.5,44.3,43.5,44.1,43.6,43.9z"/>
			<rect x="43.9" y="42" transform="matrix(0.7214 -0.6925 0.6925 0.7214 -16.9805 42.7196)" class="st8" width="1.5" height="1"/>
			<path class="st9" d="M42.8,39.6l0.8-0.8l0.3,0.3l-0.8,0.8c-0.1,0.1-0.2,0.1-0.3,0l0,0C42.7,39.8,42.7,39.7,42.8,39.6z"/>
			<path class="st9" d="M41.8,38.5l0.8-0.7l0.3,0.3l-0.8,0.8c-0.1,0.1-0.2,0.1-0.3,0l0,0C41.7,38.8,41.7,38.6,41.8,38.5z"/>
			<path class="st9" d="M40.8,37.5l0.8-0.8l0.3,0.3l-0.8,0.8c-0.1,0.1-0.2,0.1-0.3,0l0,0C40.7,37.7,40.7,37.6,40.8,37.5z"/>
			<path class="st9" d="M39.8,36.5l0.8-0.8l0.3,0.3l-0.8,0.8c-0.1,0.1-0.2,0.1-0.3,0l0,0C39.7,36.7,39.7,36.5,39.8,36.5z"/>
			<path class="st9" d="M38.8,35.4l0.8-0.8l0.3,0.3l-0.8,0.8c-0.1,0.1-0.2,0.1-0.3,0l0,0C38.7,35.6,38.7,35.5,38.8,35.4z"/>
			<path class="st9" d="M37.8,34.3l0.8-0.8l0.3,0.3l-0.8,0.8c-0.1,0.1-0.2,0.1-0.3,0l0,0C37.7,34.6,37.7,34.4,37.8,34.3z"/>
		</g>
	</g>
</g>
<g id="icon_15_1_" class="st0">
	<g class="st1">
		<g>
			<g>
				<path id="SVGID_5_" class="st7" d="M26.2,18.9c0,0,3.1-2.3,6.2-2.1c3.1,0.2,5.6,1.6,6.6,4.1s0.5,6.2-3,10.8
					c-3.6,4.6-9.8,9.9-9.8,9.9s-7-5.4-10.7-11s-3.2-9-1.7-10.9s3.9-3.3,6.3-3C22.5,17,23.9,17.5,26.2,18.9z"/>
			</g>
			<g>
				<g>
					<g>
						<g>
							<g>
								<g>
									<g>
										<g>
											<defs>
												<path id="SVGID_8_" d="M26.2,18.9c0,0,3.1-2.3,6.2-2.1c3.1,0.2,5.6,1.6,6.6,4.1s0.5,6.2-3,10.8
													c-3.6,4.6-9.8,9.9-9.8,9.9s-7-5.4-10.7-11s-3.2-9-1.7-10.9s3.9-3.3,6.3-3C22.5,17,23.9,17.5,26.2,18.9z"/>
											</defs>
											<clipPath id="SVGID_9_">
												<use xlink:href="#SVGID_8_"  style="overflow:visible;"/>
											</clipPath>
											<polyline class="st23" points="14.4,29.9 19.2,29.9 21.2,28 24,32.1 27.9,25.1 31.3,29.9 37.9,29.9 											"/>
										</g>
									</g>
								</g>
							</g>
						</g>
					</g>
				</g>
			</g>
		</g>
	</g>
	<path class="st18" d="M37.5,7.7l-8.1,14c-0.4,0.7,0.1,1.6,0.9,1.6h16.3c0.8,0,1.4-0.9,0.9-1.6l-8.1-14C39,7,38,7,37.5,7.7z"/>
	<path class="st24" d="M38.5,18.5L38.5,18.5c-0.3,0-0.6-0.3-0.6-0.6v-5.7c0-0.3,0.3-0.6,0.6-0.6l0,0c0.3,0,0.6,0.3,0.6,0.6v5.7
		C39.1,18.2,38.9,18.5,38.5,18.5z"/>
	<path class="st24" d="M38.5,21.4L38.5,21.4c-0.3,0-0.6-0.3-0.6-0.6v-0.3c0-0.3,0.3-0.6,0.6-0.6l0,0c0.3,0,0.6,0.3,0.6,0.6v0.3
		C39.1,21.1,38.9,21.4,38.5,21.4z"/>
</g>
<g id="icon_16" class="st0">
	<path class="st24" d="M34.7,12.7c0,0,4.1-0.9,6,0c2.3,1.1,4.1,3.9,2.8,8.7s-2.3,8.8-2.6,12.9c-0.4,4.1-3.3,6.8-5.2,7.1
		c-1.9,0.4-3.3-1.6-2.9-3.1c0.4-1.5,0.9-5.9,0.8-7c-0.2-2.1-1.2-3.8-2.9-3.8c-1.7,0-2.5,0.9-2.9,1.9c-0.4,1.1-1.1,5.2-0.6,7.1
		c0.4,1.9,0.2,4.7-1.6,4.8s-5.2-1.8-6.5-9.8s-2-9.8-2.3-10.9c-1-3.7,0-8.4,4.1-8.7s7.4,1.5,8.8,1.6C31,13.8,33.2,13,34.7,12.7z"/>
	<path class="st17" d="M27.3,16.7c0,0,2.4,1.3,3.4,0.9c1-0.5,3.2-1.7,5.8-0.4c2.6,1.3,2.6,2.8,2.6,2.8s0.8,2.8-0.6,5.1s-1,6.9-1,6.9
		s0.1,1.6-0.7,1.6c-0.7,0-1.2-1.5-1.2-1.8s-0.8-6-4.6-6.7s-4.5,2.9-5,4.2c-0.3,0.9-0.6,3.6-0.6,3.6s-0.2,1.3-0.9,1.2
		c-0.7-0.1-0.9-1.5-0.9-4.7s-1-3.6-1.5-5.5s-0.4-5.2,1.5-6.6C25.4,15.9,27.3,16.7,27.3,16.7z"/>
	<path class="st18" d="M15.8,7c0,0,0.1,2.1-1.8,2.3c0,0,1.7,0.1,1.8,2.2c0,0,0.1-2.1,1.9-2.1C17.7,9.3,15.9,9.1,15.8,7z"/>
	<path class="st18" d="M46.1,33.9c0,0,0.1,2.1-1.8,2.4c0,0,1.7,0.1,1.8,2.2c0,0,0.1-2.2,1.9-2.2C48,36.3,46.2,36,46.1,33.9z"/>
	<path class="st18" d="M48,6.7c0,0,0,1.1-0.9,1.3c0,0,0.9,0,0.9,1.2c0,0,0.1-1.2,1-1.2C49,8,48,7.8,48,6.7z"/>
</g>
<g id="icon_17" class="st0">
	<path class="st18" d="M29.1,10.5c0,0,5.2-0.8,8.3,1.3c3.1,2,5.1,4.2,5.6,7.4s-0.2,7.1-1.7,9.5s-2.4,3.9-2.6,4.3
		c-0.1,0.4-0.8,2.3-0.3,4.9s0.8,3,0.8,3l-14.3,0.3v-3c0,0-4.5,0.1-5.6-0.8c-1.1-0.9-1.1-1.9-0.8-2.5c0.2-0.6,0-0.7,0-0.8
		c0,0-0.6-0.3-0.6-0.9c0-0.4,0.4-0.5,0.4-0.5s-0.1-0.2-0.2-0.2c-0.1-0.1-0.6-0.2-0.6-0.7s0.3-2.6,0.3-2.6S16.2,29,16,28
		c-0.1-1,0.7-2.2,1.1-2.7s2.1-2.5,2.1-2.5s-0.6-5,1.1-7.3S23.7,11.1,29.1,10.5z"/>
	<circle class="st24" cx="25.8" cy="25.1" r="1.1"/>
	<circle class="st24" cx="29.1" cy="26.5" r="0.6"/>
	<circle class="st24" cx="27.8" cy="29" r="0.7"/>
	<circle class="st24" cx="26.4" cy="31.5" r="1"/>
	<circle class="st24" cx="23.6" cy="29" r="0.6"/>
	<circle class="st24" cx="23.4" cy="26.4" r="0.6"/>
</g>
<g id="icon_18" class="st0">
	<path class="st18" d="M36.4,33H21.3c-1.1,0-2-0.9-2-2V11.4c0-1.1,0.9-2,2-2h15.1c1.1,0,2,0.9,2,2V31C38.4,32.1,37.5,33,36.4,33z"/>
	<path class="st24" d="M33.7,22.9h-9.6c-1.1,0-2-0.9-2-2V14c0-1.1,0.9-2,2-2h9.6c1.1,0,2,0.9,2,2v6.9C35.7,22.1,34.8,22.9,33.7,22.9
		z"/>
	<path class="st24" d="M29.8,29.5h-2c-1,0-1.8-0.8-1.8-1.8l0,0c0-1,0.8-1.8,1.8-1.8h2c1,0,1.8,0.8,1.8,1.8l0,0
		C31.5,28.6,30.7,29.5,29.8,29.5z"/>
	<path class="st18" d="M29.2,37.6h-0.8c-1.1,0-2-0.9-2-2v-3.3c0-1.1,0.9-2,2-2h0.8c1.1,0,2,0.9,2,2v3.3
		C31.2,36.6,30.3,37.6,29.2,37.6z"/>
	<path class="st18" d="M28.8,42.2L28.8,42.2c-0.3,0-0.5-0.2-0.5-0.5V37c0-0.3,0.2-0.5,0.5-0.5l0,0c0.3,0,0.5,0.2,0.5,0.5v4.7
		C29.3,42.1,29.1,42.2,28.8,42.2z"/>
	<path class="st17" d="M36.4,15.7c0,0,1.9,1.4,2.9,3.1c0.8,1.5,1.1,4.5-1.9,5.2c-2.7,0.7-4.3-1.8-4.3-3
		C33.2,20.3,33.4,17.8,36.4,15.7z"/>
	<path class="st22" d="M37.9,19.1c0,0,1.6,2.3,0.3,3.6"/>
</g>
<g id="icon_19" class="st0">
	<g class="st1">
		<g>
			<path id="SVGID_10_" class="st8" d="M34.4,39.7H17.2c-1.1,0-2-0.9-2-2V16.6c0-1.1,0.9-2,2-2h17.2c1.1,0,2,0.9,2,2v21.1
				C36.4,38.8,35.5,39.7,34.4,39.7z"/>
		</g>
		<g>
			<g>
				<g>
					<g>
						<g>
							<g>
								<defs>
									<path id="SVGID_11_" d="M34.4,39.7H17.2c-1.1,0-2-0.9-2-2V16.6c0-1.1,0.9-2,2-2h17.2c1.1,0,2,0.9,2,2v21.1
										C36.4,38.8,35.5,39.7,34.4,39.7z"/>
								</defs>
								<clipPath id="SVGID_13_">
									<use xlink:href="#SVGID_11_"  style="overflow:visible;"/>
								</clipPath>
								<path class="st25" d="M30.3,18.2h-8.9c-1,0-1.8-0.8-1.8-1.8v-1.3c0-1,0.8-1.8,1.8-1.8h8.9c1,0,1.8,0.8,1.8,1.8v1.3
									C32,17.4,31.3,18.2,30.3,18.2z"/>
							</g>
						</g>
					</g>
				</g>
			</g>
		</g>
	</g>
	<path class="st18" d="M26.2,16.5l-0.6,0.2c-1.1,0-1.7,0.9-1.7-0.2v-3.3c0-1.1,0.9-2,2-2l0,0c1.1,0,2,0.9,2,2v3.3
		C27.8,17.6,27.2,16.5,26.2,16.5z"/>
	<path class="st24" d="M32,37.3H19.7c-1.1,0-2-0.9-2-2V19.6c0-1.1,0.9-2,2-2h12.4c1.1,0,2,0.9,2,2v15.7C34,36.4,33.1,37.3,32,37.3z"
		/>
	<path class="st18" d="M29.9,17.2h-8.2c-1,0-1.8-0.8-1.8-1.8v-0.5c0-1,0.8-1.8,1.8-1.8h8.2c1,0,1.8,0.8,1.8,1.8v0.5
		C31.7,16.4,30.9,17.2,29.9,17.2z"/>
	<path class="st24" d="M28.9,16.5h-6c-0.3,0-0.6-0.3-0.6-0.6l0,0c0-0.3,0.3-0.6,0.6-0.6h6c0.3,0,0.6,0.3,0.6,0.6l0,0
		C29.5,16.2,29.2,16.5,28.9,16.5z"/>
	<path class="st24" d="M26,13.5h-0.4c-0.2,0-0.4-0.2-0.4-0.4l0,0c0-0.2,0.2-0.4,0.4-0.4H26c0.2,0,0.4,0.2,0.4,0.4l0,0
		C26.5,13.3,26.3,13.5,26,13.5z"/>
	<path class="st18" d="M30.4,22.9h-8.5c-0.3,0-0.6-0.3-0.6-0.6l0,0c0-0.3,0.3-0.6,0.6-0.6h8.5c0.3,0,0.6,0.3,0.6,0.6l0,0
		C31,22.7,30.7,22.9,30.4,22.9z"/>
	<path class="st18" d="M30.4,26.3h-8.5c-0.3,0-0.6-0.3-0.6-0.6l0,0c0-0.3,0.3-0.6,0.6-0.6h8.5c0.3,0,0.6,0.3,0.6,0.6l0,0
		C31,26,30.7,26.3,30.4,26.3z"/>
	<path class="st18" d="M30.4,29.7h-8.5c-0.3,0-0.6-0.3-0.6-0.6l0,0c0-0.3,0.3-0.6,0.6-0.6h8.5c0.3,0,0.6,0.3,0.6,0.6l0,0
		C31,29.4,30.7,29.7,30.4,29.7z"/>
	<path class="st17" d="M37.5,29.7c0,0,1.7-0.8,3.3-0.5s3.5,1.7,3.2,5.9s-3,5.1-3.7,5.3c-0.7,0.1-1.9,0-2.7-0.3c-0.1,0-0.7,0.1-1,0.2
		c-0.2,0.1-2.1,0.6-3.7-1.4c-1.6-2-2.3-4.1-1.8-6.4s2.5-3.6,4.3-3.3C36.2,29.2,37.3,29.7,37.5,29.7z"/>
	<g class="st1">
		<g>
			<path id="SVGID_12_" class="st12" d="M42.8,24.1c0,0,0.1,2.3-0.9,3.3c-1.5,1.4-3.7,1-3.8,1c0,0-0.4-2.4,1.2-3.5
				C40.7,24,42.8,24.1,42.8,24.1z"/>
		</g>
		<g>
			<g>
				<g>
					<g>
						<g>
							<g>
								<defs>
									<path id="SVGID_14_" d="M42.8,24.1c0,0,0.1,2.3-0.9,3.3c-1.5,1.4-3.7,1-3.8,1c0,0-0.4-2.4,1.2-3.5
										C40.7,24,42.8,24.1,42.8,24.1z"/>
								</defs>
								<clipPath id="SVGID_15_">
									<use xlink:href="#SVGID_14_"  style="overflow:visible;"/>
								</clipPath>
								<polygon class="st26" points="43.6,23.5 37.7,28.6 39.7,29.4 44.5,26.2 								"/>
							</g>
						</g>
					</g>
				</g>
			</g>
		</g>
	</g>
</g>
<g id="icon_20" class="st0">
	<path class="st18" d="M29.4,10c0,0,6.5-0.4,8.1,5.3c0.2,0.7,0.1,3.8-0.4,5.2c0,0,0,0.3,0.5,0.2c0.5-0.1,1.4,0.1,0.8,1.9
		c-0.6,1.8-1.5,2.8-1.5,2.8s-0.7,0.1-0.7-0.2s-0.2,0.2-0.6,1.1c-0.4,0.9-0.8,2.5-2.2,3.9v1.9c0,0,0.1,1.7,2.1,2.6
		c2,0.9,3.4,1.4,4.4,1.4c1.1,0,6.4,2,7.3,4.1c0.4,0.8,0.6,1.4-0.7,1.5c-1.2,0-34.2,0-34.2,0s-1.1-0.1-0.1-1.4s2-3.4,7.3-4.2
		c0.6-0.1,5.9-1.3,6.2-3.1c0.3-1.7,0.1-2.6,0.1-2.6s-1.6-1.7-2.6-5.1c0,0-0.2-0.1-0.3,0.1c-0.1,0.2-0.9,0.2-1.5-1.1
		c-0.6-1.2-1.1-2.6-0.6-3.3c0.6-0.6,1.1-0.2,1.1-0.2s0.1,0,0.1-0.2s-0.9-4.4-0.3-5.9C22.2,13,23.8,10.4,29.4,10z"/>
	<path class="st17" d="M29.1,32.9c0,0,0.5-0.6,1.1-0.1c0,0,0.6-2.2,1.4-2.6C32,30,32,30.4,32,30.9s0.7,1.6,0.7,2.4
		c0,0.8-0.1,1.9-1.4,1.9c-0.6,0-1-0.3-1.1-0.5s-0.6-0.2-0.9,0c-0.4,0.2-1,1.1-2,0.2c-1-0.9-0.2-3.4-0.1-3.5c0-0.1,0.2-0.4,0.2-1.2
		c0-0.3,0.4-0.2,1,0.5C28.9,31.3,29.1,32.2,29.1,32.9z"/>
</g>
<g id="icon_21" class="st0">
	<path class="st24" d="M34.1,15.6c0,0,4.1-0.9,6,0c2.3,1.1,4.1,3.9,2.8,8.7s-2.3,8.8-2.6,12.9c-0.4,4.1-3.3,6.8-5.2,7.1
		c-1.9,0.4-3.3-1.6-2.9-3.1c0.4-1.5,0.9-5.9,0.8-7c-0.2-2.1-1.2-3.8-2.9-3.8c-1.7,0-2.5,0.9-2.9,1.9c-0.4,1.1-1.1,5.2-0.6,7.1
		c0.4,1.9,0.2,4.7-1.6,4.8s-5.2-1.8-6.5-9.8s-2-9.8-2.3-10.9c-1-3.7,0-8.4,4.1-8.7s7.4,1.5,8.8,1.6C30.4,16.7,32.6,15.9,34.1,15.6z"
		/>
	<path class="st17" d="M26.7,19.6c0,0,2.4,1.3,3.4,0.9c1-0.5,3.2-1.7,5.8-0.4c2.6,1.3,2.6,2.8,2.6,2.8s0.8,2.8-0.6,5.1s-1,6.9-1,6.9
		s0.1,1.6-0.7,1.6c-0.7,0-1.2-1.5-1.2-1.8s-0.8-6-4.6-6.7s-4.5,2.9-5,4.2c-0.3,0.9-0.6,3.6-0.6,3.6s-0.2,1.3-0.9,1.2
		c-0.7-0.1-0.9-1.5-0.9-4.7s-1-3.6-1.5-5.5c-0.5-1.9-0.4-5.2,1.5-6.6C24.8,18.8,26.7,19.6,26.7,19.6z"/>
	<path class="st18" d="M35.3,29.8L35.3,29.8c-0.3,0.1-0.7,0-0.8-0.3L24.5,8c-0.1-0.3,0-0.7,0.3-0.8l0,0c0.3-0.1,0.7,0,0.8,0.3
		l10,21.5C35.7,29.3,35.6,29.7,35.3,29.8z"/>
	<path class="st24" d="M33.6,21.4l-3.7,1.7c-0.2,0.1-0.5,0-0.5-0.2l0,0c-0.1-0.2,0-0.5,0.2-0.5l3.7-1.7c0.2-0.1,0.5,0,0.5,0.2l0,0
		C33.9,21.1,33.8,21.3,33.6,21.4z"/>
	<path class="st24" d="M34.7,23.7L31,25.4c-0.2,0.1-0.5,0-0.5-0.2l0,0c-0.1-0.2,0-0.5,0.2-0.5l3.7-1.7c0.2-0.1,0.5,0,0.5,0.2l0,0
		C35,23.4,34.9,23.6,34.7,23.7z"/>
	<path class="st24" d="M35.7,26L32,27.7c-0.2,0.1-0.5,0-0.5-0.2l0,0c-0.1-0.2,0-0.5,0.2-0.5l3.7-1.7c0.2-0.1,0.5,0,0.5,0.2l0,0
		C36,25.7,35.9,25.9,35.7,26z"/>
</g>
<g id="icon_22_1_" class="st0">
	<circle class="st18" cx="29.4" cy="18.1" r="6.3"/>
	<path class="st18" d="M17,39.8h25.1c0,0,1.5-11.3-4.9-13.4s-13.2-0.8-15-0.2s-4.1,1-4.9,7.5C17,37.8,17,39.8,17,39.8z"/>
	<path class="st24" d="M25.1,33.1v-0.7c0-0.8,0.7-1.5,1.5-1.5h6.2c0.8,0,1.5,0.7,1.5,1.5v0.7c0,0.8-0.7,1.5-1.5,1.5h-6.2
		C25.8,34.6,25.1,33.9,25.1,33.1z"/>
	<path class="st24" d="M29.4,28.1h0.7c0.8,0,1.5,0.7,1.5,1.5v6.2c0,0.8-0.7,1.5-1.5,1.5h-0.7c-0.8,0-1.5-0.7-1.5-1.5v-6.2
		C27.9,28.8,28.6,28.1,29.4,28.1z"/>
</g>
<g id="icon_23" class="st0">
	<path class="st27" d="M35.6,10.4c-7.6,1.4-5.4,7-5.4,8.7s-0.5,1.7-0.6,2.6s1,1.2,1,1.2s-0.4,2.2-3.6,0.2s-8.2,0.5-8.9,0.5
		s0.6-2.6,0.6-2.6c-0.6-0.8-1.8-0.2-2.9,1.4c-1.3,1.9-1.1,4.2-0.9,4.3c0.2,0.1,3.8-0.1,5.5-0.5s2.5-0.5,2.2-0.1s-1.1,1.9-1.5,2.1
		c-0.5,0.2-8.5,9.1-1,12s12.8-0.7,14.8-2.3c2.2-1.8,5.9-4.4,7.2-6.5s0.4-5.3,0.2-6.4s1.6-3.9,2-6.4C44.7,16.1,43.2,9,35.6,10.4z"/>
	<path class="st28" d="M26.6,28.9c0,0,0.6,3.4-1.5,5"/>
	<path class="st28" d="M21.9,27.5c0,0,1.6-2.2,1.8-3.1"/>
	<path class="st28" d="M26.6,23.2c0,0-2.2,5.3,1.1,6.5s8.6,0.6,8.6,0.6"/>
	<path class="st28" d="M30.4,23.7c0,0,0.9,0.4,1.3,1.7"/>
	<path class="st28" d="M29.5,26.3c0,0,6.1-2.3,11-0.6"/>
	<path class="st28" d="M37.8,16.8c0,0,2.3-0.1,2,1.9s-1.3,3.5-3.4,1.9"/>
</g>
<g id="icon_24" class="st0">
	<path class="st29" d="M25.7,26.2c0,0-0.1-6.4-0.6-7.4c0,0,0.8-0.1,1-0.8c0,0,1.4,1.5,1.8,1.4s4.2-3.3,4.1-4.1s-1.6-3.4-2.5-3.6
		c-0.8-0.2-0.8-0.8-2.6,0c-1.8,0.8-5.3,2.1-5.3,2.1s-1.8,0.7-2.3,2.6s-3.9,14.7-3.9,14.7s-0.5,3.2,1.9,3.4c0,0,5.2,7.5,17.9,4.3
		c0,0,6.9,2.2,7.9,1.1c1.1-1.1,0.6-2.7,0.6-2.7L43.8,27c0,0-0.1-2.1-2-2.5C39.9,24,36,23.6,34,26C33.9,26,28.7,23.8,25.7,26.2z"/>
	<path class="st30" d="M23.6,18.8c0,0,2.1,0.2,2.7-1.6"/>
	<path class="st30" d="M35.8,29.2c0,0-1.2-3.2-3.4-3.7"/>
	<path class="st31" d="M25.7,25.7c0,0,0,3.2-1.7,3.7"/>
	<path class="st31" d="M21.3,32.7c0,0,3.9,4.8,10.1,3.3"/>
</g>
<g id="icon_25" class="st0">
	<path class="st18" d="M30.6,43.6h-1.7c-4.3,0-7.9-3.5-7.9-7.9v-21h17.4v21C38.4,40,34.9,43.6,30.6,43.6z"/>
	<path class="st18" d="M38.8,12.9H20.4c-0.7,0-1.3-0.6-1.3-1.3V9.4c0-0.7,0.6-1.3,1.3-1.3h18.4c0.7,0,1.3,0.6,1.3,1.3v2.2
		C40.1,12.3,39.5,12.9,38.8,12.9z"/>
	<path class="st32" d="M26.1,34.7c0,0,0-7.1,3.7-7.1s3.7,4.9,3.7,7.1"/>
	<line class="st32" x1="26.3" y1="32" x2="33.2" y2="32"/>
	<path class="st32" d="M33.4,19.6c0,0,0,7.1-3.7,7.1S26,21.8,26,19.6"/>
	<line class="st32" x1="33.2" y1="22.4" x2="26.3" y2="22.4"/>
</g>
<g id="icon_26" class="st0">
	<path class="st18" d="M33.7,19.3h-8.1c-1.3,0-2.4-1.1-2.4-2.4v-3.6c0-1.3,1.1-2.4,2.4-2.4h8.1c1.3,0,2.4,1.1,2.4,2.4v3.6
		C36.1,18.2,35,19.3,33.7,19.3z"/>
	<path class="st18" d="M43.1,40.6H16.2c-2.1,0-3.8-1.7-3.8-3.8V19.7c0-2.1,1.7-3.8,3.8-3.8h26.9c2.1,0,3.8,1.7,3.8,3.8v17.1
		C46.9,39,45.2,40.6,43.1,40.6z"/>
	<path class="st24" d="M22.7,29v-1.9c0-1.1,0.9-2.1,2.1-2.1h9.8c1.1,0,2.1,0.9,2.1,2.1V29c0,1.1-0.9,2.1-2.1,2.1h-9.8
		C23.6,31.1,22.7,30.1,22.7,29z"/>
	<path class="st24" d="M30.6,35h-1.9c-1.1,0-2.1-0.9-2.1-2.1v-9.8c0-1.1,0.9-2.1,2.1-2.1h1.9c1.1,0,2.1,0.9,2.1,2.1v9.8
		C32.7,34.1,31.8,35,30.6,35z"/>
	<rect x="23.1" y="15.2" class="st24" width="13" height="0.6"/>
	<path class="st24" d="M30.6,35h-1.9c-1.1,0-2.1-0.9-2.1-2.1v-9.8c0-1.1,0.9-2.1,2.1-2.1h1.9c1.1,0,2.1,0.9,2.1,2.1v9.8
		C32.7,34.1,31.8,35,30.6,35z"/>
</g>
<g id="icon_27" class="st0">
	<circle class="st18" cx="29.4" cy="18.1" r="6.3"/>
	<path class="st18" d="M17,39.8h25.1c0,0,1.5-11.3-4.9-13.4s-13.2-0.8-15-0.2c-1.8,0.6-4.1,1-4.9,7.5C17,37.8,17,39.8,17,39.8z"/>
	<path class="st24" d="M25.2,33v-0.7c0-0.8,0.7-1.5,1.5-1.5h6.2c0.8,0,1.5,0.7,1.5,1.5V33c0,0.8-0.7,1.5-1.5,1.5h-6.2
		C25.9,34.5,25.2,33.8,25.2,33z"/>
	<path class="st24" d="M29.4,28.1h0.7c0.8,0,1.5,0.7,1.5,1.5v6.2c0,0.8-0.7,1.5-1.5,1.5h-0.7c-0.8,0-1.5-0.7-1.5-1.5v-6.2
		C27.9,28.7,28.6,28.1,29.4,28.1z"/>
</g>
<g id="icon_28" class="st0">
	<path class="st18" d="M39.5,24.3"/>
	<path class="st18" d="M36.7,11.2v29.3h5.2V17C41.9,17,41.5,12.5,36.7,11.2z"/>
	<polygon class="st24" points="39.5,24.3 41.9,25.4 41.9,23 	"/>
	<polygon class="st24" points="36.7,25.9 41.9,28.4 41.9,30.6 36.7,27.8 	"/>
	<polygon class="st24" points="36.7,29.6 41.9,32.3 41.9,34.3 36.7,31.6 	"/>
	<circle class="st33" cx="20.5" cy="15.6" r="3.2"/>
	<circle class="st33" cx="30.4" cy="15.4" r="3.2"/>
	<path class="st18" d="M22.8,18.8v12.8c0,0,0.7,7,2.6,8.9c0,0,2.9-4.2,2.7-9V18.9l-1.4-3.2l-0.4,0.4v5.6l-1.9,0.1v-6.2l-0.8-0.2
		L22.8,18.8z"/>
	<circle class="st24" cx="25.4" cy="24.5" r="0.9"/>
</g>
<g id="icon_29" class="st0">
	<path class="st18" d="M38.1,10c0,2.5-2,4.4-4.4,4.4c-2.5,0-4.4-2-4.4-4.4s2-4.4,4.4-4.4S38.1,7.5,38.1,10z"/>
	<path class="st18" d="M17.4,18.3l9-4.8c0,0,0.8-0.4,1.7,0s4.9,1.8,4.9,1.8s0.9,0,1.4,2c0.5,2.1,1.7,5.7,1.7,5.7l4.7,1.9
		c0,0,1.8,0.9,1.2,3s-3.4,1-3.4,1l-6-2.7c0,0-0.4-0.1-0.6-1.1c-0.2-1-1.2-4.1-1.2-4.1l-2.5,7.5l3.5,7l-0.5,9c0,0-0.3,1.6-2.1,1.6
		c-1.8,0-2.4-1.5-2.4-2.5c0.1-1,0.8-6.6,0.8-6.6l-3.4-6.3l0.3,6.8l-1.6,6.8c0,0-0.6,1.9-2.8,1.4s-1.3-3.5-1.3-3.5l1.2-5.1l-0.6-7.5
		l0.3-0.9l-3.6-8.2C16.2,20.7,15.8,19.1,17.4,18.3z"/>
	<polygon class="st34" points="21.4,21.4 22.5,23.4 24.2,19.9 	"/>
	<path class="st18" d="M37.4,28l3.7,16.7c0,0,0.2,1,1.3,0.7c1.1-0.2,0.6-1.5,0.6-1.5l-3.4-15.8L37.4,28z"/>
</g>
<g id="icon_30" class="st0">
	<g class="st1">
		<g>
			<path id="SVGID_16_" class="st35" d="M46.1,43.1h-33c-1.4,0-2.6-1.2-2.6-2.6V33c0-1.4,1.2-2.6,2.6-2.6h33c1.4,0,2.6,1.2,2.6,2.6
				v7.5C48.7,41.9,47.5,43.1,46.1,43.1z"/>
		</g>
		<g>
			<g>
				<g>
					<g>
						<g>
							<defs>
								<path id="SVGID_17_" d="M46.1,43.1h-33c-1.4,0-2.6-1.2-2.6-2.6V33c0-1.4,1.2-2.6,2.6-2.6h33c1.4,0,2.6,1.2,2.6,2.6v7.5
									C48.7,41.9,47.5,43.1,46.1,43.1z"/>
							</defs>
							<clipPath id="SVGID_18_">
								<use xlink:href="#SVGID_17_"  style="overflow:visible;"/>
							</clipPath>
							<rect x="8.1" y="28.3" class="st36" width="41.5" height="5.3"/>
						</g>
					</g>
				</g>
			</g>
		</g>
	</g>
	<circle class="st34" cx="29.9" cy="33.8" r="3.9"/>
	<path class="st37" d="M27.7,25.1c0,0,1.8-14.4,7.6-16.5c0,0-3.9,9.4-3.4,16.1c0,0,1.2,0.7,1.2,2c0,1.5-0.6,3.1-3.2,3.1
		c-2.5,0-3.1-1.1-3.2-2.1C26.5,26.4,26.9,25.4,27.7,25.1z"/>
	<rect x="40.8" y="19.1" class="st18" width="1" height="6.1"/>
	<polyline class="st38" points="39.2,23.3 41.3,25.3 43.3,23.4 	"/>
	<rect x="17.4" y="19.1" class="st18" width="1" height="6.1"/>
	<polyline class="st38" points="15.7,23.3 17.8,25.3 19.9,23.4 	"/>
</g>
<g id="icon_31" class="st0">
	<ellipse transform="matrix(0.9934 -0.115 0.115 0.9934 -1.9194 2.4592)" class="st17" cx="20.4" cy="17.9" rx="10.7" ry="9.5"/>
	<ellipse class="st17" cx="41.1" cy="20" rx="8.4" ry="8.9"/>
	<ellipse transform="matrix(0.9708 -0.2398 0.2398 0.9708 -7.8175 7.6795)" class="st17" cx="27.6" cy="36" rx="10.2" ry="6.9"/>
	<ellipse transform="matrix(0.9554 -0.2952 0.2952 0.9554 -4.892 7.1231)" class="st24" cx="21.1" cy="19.8" rx="6.4" ry="5.5"/>
	<ellipse transform="matrix(0.9666 -0.2564 0.2564 0.9666 -4.0789 10.8442)" class="st24" cx="39.5" cy="21.1" rx="5.2" ry="6.5"/>
	<ellipse transform="matrix(0.9359 -0.3522 0.3522 0.9359 -10.4569 11.8515)" class="st24" cx="27.3" cy="34.7" rx="6.4" ry="3.7"/>
</g>
<g id="icon_32" class="st0">
	<path class="st39" d="M24.8,10.3c0,0,4.4-3.1,9.6,0L33.5,15l-0.3,0.5l-0.5-0.8c0,0-3.3-1-6.1,0l-1.5-2.3l-0.2-1.6L24.8,10.3z"/>
	<path class="st17" d="M25.2,10c0,0-0.6,0.2-1,0.9S22,17.4,22,17.4s-0.3,2.1,0.2,2.7s3.4,4.5,3.4,4.5l-8.9,11.6c0,0-1.1,1-0.4,2.2
		c0.7,1.2,3.2,4.1,3.2,4.1s0.6,0.7,1.6-0.3c1.1-1.1,8.4-11.3,8.4-11.3l8.1,10.9c0,0,0.8,0.8,1.6,0s3.8-3.9,3.8-3.9s0.4-0.8-0.4-1.5
		s-9.1-12.1-9.1-12.1s2.8-3.4,2.9-3.6c0.1-0.2,1-2.2,0.5-3.7s-2-6.1-2-6.1s-0.4-0.7-1.1-0.8c0,0-0.5,3.7-4.2,8.7
		C29.6,18.7,26.6,15.9,25.2,10z"/>
</g>
<g id="icon_33" class="st0">
	<path class="st24" d="M33.1,19.4l10.2-8.2c0,0,0.8-0.5,1.8-3.5c1-3,4.2-7.9,8.9-5.9s3.5,6.7,2.8,7.9s-4.2,3.3-6.5,4.3
		s-5.5,5.9-5.5,5.9L33.1,19.4z"/>
	<path class="st40" d="M30.6,19.7c0,0,3-2.5,2.5-8.7c-0.2-1.8,1.2-3.8,1.2-3.8s-13-2.8-15.9,6.2c0,0-1.2-4.8-13.2-4
		c0,0,1.7,3,1.3,4.8c-0.5,1.8-0.3,5,1.3,6.4L30.6,19.7z"/>
	<path class="st41" d="M19.2,19.7c0,0,4-8.5,11.7-10.4"/>
	<path class="st41" d="M8.4,11.5c0,0,6.4,3.2,9,8.2"/>
	<path class="st18" d="M2.7,19.4h53.7c0,0,1.8-0.5,1.7,0.8c-0.2,1.3-1.5,18.6-19.4,24.7l-18.4,0.2c0,0-14.7-5-19.1-23.7
		C1,21.6,0.5,19.6,2.7,19.4z"/>
	<ellipse class="st18" cx="29.6" cy="47" rx="12" ry="3.2"/>
	<path class="st41" d="M27.2,8.9c0,0-0.2,2.2-1,2.7"/>
	<path class="st41" d="M25.1,12.5c0,0,2.3-0.8,4.7-0.5"/>
	<path class="st41" d="M19.7,18.9c0,0,3.3-2.2,7.7-2"/>
	<path class="st41" d="M22.4,11.2c0,0,0.7,2.7,0,3.7"/>
	<path class="st41" d="M15.2,13.6c0,0-0.5,1.8,0.7,4.2"/>
	<path class="st41" d="M8.9,13.9c0,0,1.3-0.3,3.2,0"/>
	<path class="st41" d="M10.5,17.9c0,0,4.5-0.3,6.2,1"/>
</g>
<g id="icon_34" class="st0">
	<path class="st18" d="M24.5,17.2h9.7c0,0,2,0,2.9,2.6s2,3.2,2,3.2l2.1,2.1c0,0,0.6,1.4-0.3,2.2s-2.1,0.6-2.5,0.3s-3.1-2.8-3.1-2.8
		l-1.2-2v5.5l2.7,9.6c0,0,0.8,2.3-1.4,2.9s-3.3-0.6-3.6-1.7c-0.2-1.1-2.7-8.3-2.7-8.3l-2.3,8.1c0,0-0.6,2.1-3.4,1.6
		c-2-0.4-1.4-3.3-1.4-3.3l2.4-8.7l0.1-5.6l-1.2,1.9l-3.2,3.3c0,0-1.3,1.1-2.5-0.2c-1.1-1.1,0.2-3,0.2-3l2.4-2.7l1.9-3.7
		C22.2,18.6,22.7,17.2,24.5,17.2z"/>
	<circle class="st18" cx="29.3" cy="14.4" r="4.4"/>
	<g class="st1">
		<circle class="st42" cx="29.4" cy="25.8" r="19.2"/>
	</g>
</g>
<g id="icon_35" class="st0">
	<path class="st18" d="M21.4,16.6c0,0,3.8-2.3,8.3-2.1l2.4-3c0,0,1.7-1.9,2.5,0.2l0.6,3.4c0,0,4.8,1.3,5.5,3.7l2.4-0.4
		c0,0,1.2-0.2,1.5,0.5s-0.2,1.4-0.2,1.4L43,22.4c0,0,1.3,7.2-2.2,10.6l1.1,4.3c0,0,0.4,1.5-0.2,2c-0.6,0.5-1.6,0.3-2.3-0.2
		c-0.7-0.6-3-2.3-3-2.3s-2.8,2.1-8.8,1.5l-2,2.1c0,0-0.6,0.6-1.5,0.4c-0.9-0.2-1-2.3-1-2.3L23,36.8c0,0-2-0.5-3.8-2.7l-3.5,0.6
		c0,0-2,0-0.8-2.4l1.6-2.7c0,0-1.6-5,0.4-8.3l-2.2-4.9c0,0-0.3-1.5,0.3-1.8s2,0.2,2,0.2L21.4,16.6z"/>
	<line class="st32" x1="22.9" y1="21" x2="26.5" y2="23.6"/>
	<line class="st32" x1="31.5" y1="23.4" x2="36.4" y2="21"/>
	<path class="st32" d="M25.6,31.5c0,0,1.4-2.3,4-2.1s3.6,2.7,3.6,2.7"/>
</g>
<g id="icon_36" class="st0">
	<g id="icon_23_1_" class="st1">
		<path class="st43" d="M33.4,13.2c-5.9,1.1-4.2,5.5-4.2,6.8s-0.4,1.3-0.5,2s0.8,0.9,0.8,0.9s-0.3,1.7-2.8,0.2
			c-2.5-1.6-6.4,0.4-7,0.4c-0.5,0,0.5-2,0.5-2c-0.5-0.6-1.4-0.2-2.3,1.1c-1,1.5-0.9,3.3-0.7,3.4c0.2,0.1,3-0.1,4.3-0.4
			s2-0.4,1.7-0.1C23,25.8,22.3,27,22,27.1c-0.4,0.2-6.6,7.1-0.8,9.4c5.9,2.3,10-0.5,11.6-1.8c1.7-1.4,4.6-3.4,5.6-5.1
			c1-1.6,0.3-4.1,0.2-5c-0.2-0.9,1.2-3,1.6-5C40.5,17.6,39.4,12.1,33.4,13.2z"/>
		<path class="st5" d="M26.4,27.6c0,0,0.5,2.7-1.2,3.9"/>
		<path class="st5" d="M22.7,26.5c0,0,1.2-1.7,1.4-2.4"/>
		<path class="st5" d="M26.4,23.2c0,0-1.7,4.1,0.9,5.1c2.6,0.9,6.7,0.5,6.7,0.5"/>
		<path class="st5" d="M29.4,23.6c0,0,0.7,0.3,1,1.3"/>
		<path class="st5" d="M28.7,25.6c0,0,4.8-1.8,8.6-0.5"/>
		<path class="st5" d="M35.1,18.2c0,0,1.8-0.1,1.6,1.5s-1,2.7-2.7,1.5"/>
	</g>
	<circle class="st44" cx="29.6" cy="25.8" r="20.3"/>
	<line class="st44" x1="40.8" y1="10.3" x2="18" y2="41.6"/>
</g>
<g id="icon_37" class="st0">
	<circle class="st45" cx="33.2" cy="22.3" r="12.3"/>
	<circle class="st45" cx="26" cy="29.3" r="12.3"/>
	<path class="st45" d="M22.4,17.8"/>
	<path class="st18" d="M29.5,17.8l5.2,3l3.2,2.8l0.9,4.4c0,0-0.5,3.4-0.9,3.6c-0.4,0.2-1.1,1.7-1.1,1.7s-3.1,1.5-3.2,1.4
		c-0.1-0.2-5.3-2.9-5.3-2.9l-3.4-0.6l-2.5-5.4l-1.6-5.4l1.2-2l2-0.9L29.5,17.8z"/>
</g>
<g id="icon_38" class="st0">
	<circle class="st18" cx="27.3" cy="9.8" r="3.9"/>
	<path class="st18" d="M23.4,13.9l7.4-0.1c0,0,2.5,0.3,3.5,4.1l-4,4.8l0.4,5l1.7,3.5l0.1,11.6c0,0,0.6,2.7-1.9,2.7
		c-2,0-2.2-1.5-2.2-2.5c0-1.1-0.1-13-0.1-13s-0.3-0.8-1.1-0.8c-0.8,0.1-0.9,1-0.9,1V44c0,0-0.1,1.5-2,1.6s-2.2-1.9-2.2-1.9L22,23.4
		l-1.7,4c0,0-0.5,1.8-2.7,1.1c-1.8-0.6-0.6-3.4-0.6-3.4l4.3-9.5C21.2,15.6,22,13.9,23.4,13.9z"/>
	<circle class="st24" cx="35" cy="25" r="7.6"/>
	<circle class="st14" cx="32.5" cy="26.5" r="3"/>
	<rect x="32" y="23.4" transform="matrix(0.2802 -0.9599 0.9599 0.2802 -2.1098 50.1104)" class="st24" width="0.7" height="6.2"/>
	<path class="st17" d="M37.1,29.5L37.1,29.5c-1,0-1.9-0.8-1.9-1.9V22c0-1,0.8-1.9,1.9-1.9l0,0c1,0,1.9,0.8,1.9,1.9v5.6
		C39,28.7,38.2,29.5,37.1,29.5z"/>
	<rect x="35.3" y="24.5" class="st24" width="3.7" height="0.8"/>
</g>
<g id="icon_39" class="st0">
	<path class="st18" d="M23,10.6l12.7-0.1c0,0,1.9,9.2-6.1,9.2C22.6,19.7,23,15.3,23,10.6z"/>
	<polygon class="st18" points="24.7,32.7 34.1,32.7 35.6,40.1 37.5,40.1 37.5,41.7 21.1,41.7 21.1,39.8 23.2,39.8 	"/>
	<rect x="24.9" y="27.2" class="st18" width="9.1" height="3.5"/>
	<path class="st18" d="M26.2,21c0,0-1.6,0.5-1.4,4.1L23,25.3l0.1,4c0,0-0.9-0.6-1.5-2.4l-1.8,0.6c0,0,1.4,3.1,2.1,3.7l1-0.8
		l-0.7,5.4c0,0-6.5-3.4-6.6-12.5c-0.1-5.4,5.5-9.8,5.5-9.8s0.2,3.1,1.6,4.4c0,0-1.5-0.3-2.8,3.3l1.7,0.8c0,0,0.5-2.3,1.8-3.1
		C23.2,18.9,24.7,20.6,26.2,21z"/>
	<path class="st18" d="M32.5,21c0,0,1.6,0.5,1.4,4.1l1.8,0.2l-0.1,4c0,0,0.9-0.6,1.5-2.4l1.8,0.6c0,0-1.4,3.1-2.1,3.7l-1-0.8
		l0.8,5.4c0,0,6.5-3.4,6.6-12.5c0.1-5.4-5.5-9.8-5.5-9.8s-0.2,3.1-1.6,4.4c0,0,1.5-0.3,2.8,3.3L37.2,22c0,0-0.5-2.3-1.8-3.1
		C35.4,18.9,34,20.6,32.5,21z"/>
</g>
<g id="icon_40" class="st0">
	<circle class="st18" cx="29.5" cy="12.9" r="6.6"/>
	<path class="st18" d="M35.4,36.1c0,0,0-0.3-0.6-0.2c-0.6,0-4.7,0.4-6.6-3.9s-3.9-2.8-4-2.3c-0.1,0.4-0.1,1.4,0.3,2.9
		s1.1,3.4-0.1,3.5s-3.2,0.4-3.7,0.5c-0.5,0.2-1,0.5,0.1,1.1s2.7,1.1,4.2,1.2c1.6,0.1,6.6,0.1,7,2.6c0.3,2-1.3,3.5-3.8,3.8
		c-3.1,0.3-8.3-0.2-11.9-3.9c-3.6-3.6-2.2-8-1.7-9.4s3-8.5,6.5-11.2c0.9-0.6,1.8-1,3.9-1.1s10.8-0.1,10.8-0.1s3.8,0.4,6,4.6
		C44.1,28.4,45,31,45,31s0.6,2.2-0.1,3.6C44.2,36,42,39,41.5,39.4c-0.4,0.4-3,3.4-6.8,2.1c-2-0.7-1.6-2.8-1.5-3.1
		c0.1-0.4,0.7-1.4,1.7-2C35.6,36.2,35.4,36.1,35.4,36.1z"/>
	<circle class="st34" cx="34.1" cy="30.4" r="4.6"/>
</g>
<g id="icon_41" class="st0">
	<path class="st18" d="M35.8,9.5c0,0-2.7,7.5-6.9,7.7s-8.3,2.5-8.3,2.5s-0.3-2.9-2.3-4l0.1-3.8C18.4,11.8,26,6.2,35.8,9.5z"/>
	<path class="st18" d="M37.1,9.7c0,0-1.8,5.9-4.8,7.4c0,0,5.5,1,6.2,2.6c0,0,1-3.1,2.2-4.1l0.2-3.6C40.9,12,38.9,10.5,37.1,9.7z"/>
	<path class="st18" d="M17.1,8.4l0.2,7.8c0,0,2.1,2,2.2,4.8c0.1,2.7,0.1,7.1,0.1,7.1s-0.1,0.8-1.2,0.9c-1.1,0.1-1.3-1.5-1.3-1.5V23
		c0,0-0.1-0.3-0.6-0.3c-0.5,0-0.6,0.3-0.6,0.5s0,6,0,6l3.2,6.1c0,0,0.4,1.2-0.5,1.8c-1,0.5-1.7-0.3-1.7-0.3l-4.6-8.5
		c0,0-0.2-0.6-0.2-2s0-18,0-18L17.1,8.4z"/>
	<path class="st18" d="M21,21.1l-0.1,7.2c0,0-0.3,2.3-2.9,2l2.2,4.5c0,0,0.7,2.1-0.3,2.6c0,0,4.1,6,8.9,6c4.9-0.1,8.8-3.1,10.5-5.8
		c0,0-1.1-1.5-0.1-3.2s2.3-4.2,2.3-4.2s-2.2,0.7-3.1-1.8V21C38.3,21,29.7,14.8,21,21.1z"/>
	<path class="st22" d="M22.7,29c0,0,0.1,1.4,1.2,1.4c0.8,0,1.3-0.2,1.4-1.4"/>
	<path class="st22" d="M34,29c0,0,0.1,1.4,1.2,1.4c0.8,0,1.3-0.2,1.4-1.4"/>
	<polyline class="st22" points="28.4,30 28.4,32.5 30.8,32.5 	"/>
	<path class="st32" d="M24.9,35.1c0,0,2.1,2.9,4.6,2.8c2.4-0.1,4.5-2.7,4.5-2.8"/>
	<path class="st18" d="M42.3,8.3l-0.2,7.8c0,0-2.1,2-2.2,4.8S39.8,28,39.8,28s0.1,0.8,1.2,0.9c1.1,0.1,1.3-1.5,1.3-1.5v-4.5
		c0,0,0.1-0.3,0.6-0.3s0.6,0.3,0.6,0.5s0,6,0,6l-3.2,6.1c0,0-0.4,1.2,0.5,1.8c0.9,0.5,1.6-0.2,1.6-0.3s4.6-8.5,4.6-8.5
		s0.2-0.6,0.2-2s0-18,0-18L42.3,8.3z"/>
</g>
<g id="icon_42" class="st0">
	<path class="st14" d="M26,22l-0.1,7c0,0,0.3,2.3-2,2.3s-7.3,0.9-8.6,6c-0.4,1.5-0.4,2.2-0.3,2.4c0.1,0.2,0,0.8,0.8,0.8s3.7,0,3.7,0
		s0.6-0.1,0.8-1.1c0.2-1,1-2.5,2-2.6c0,0-0.1,3.6,4.2,3.7c4.3,0.1,15-3.3,16.9-12.1c1.4-6.3,1.1-10.5-2.5-13.7
		c-3.6-3.3-8.1-3.9-10.6-3.4c-2.6,0.5-4.1,3.4-4.1,5.2c0,0-3.8,0.4-5.5-2.8c-0.4-0.9-0.4-1.9-0.4-1.9s0-0.8-0.8-0.8s-3.6,0-3.6,0
		s-1.1,0.1-0.9,1.4c0.2,1.3,1.5,8.1,6.7,9C23.8,21.9,25.6,22,26,22z"/>
</g>
<g id="icon_43" class="st0">
	<circle class="st18" cx="29.5" cy="9.9" r="5.1"/>
	<path class="st18" d="M21.5,19h16.2c0,0-0.9-2.8-3.8-2.9s-8.6,0-8.6,0S21.7,16.2,21.5,19z"/>
	<path class="st18" d="M40.6,38.6h-22c-1.6,0-2.8-1.3-2.8-2.8V22.9c0-1.6,1.3-2.8,2.8-2.8h22c1.6,0,2.8,1.3,2.8,2.8v12.8
		C43.4,37.2,42.1,38.6,40.6,38.6z"/>
	<path class="st18" d="M23.7,39.6h5.1V45c0,0-0.1,1.7-1.5,1.7s-2.1,0-2.1,0s-1.6-0.1-1.6-2.1C23.6,43.1,23.7,39.6,23.7,39.6z"/>
	<path class="st18" d="M30.2,39.6h5.1V45c0,0-0.1,1.7-1.5,1.7s-2.1,0-2.1,0s-1.6-0.3-1.6-2.1C30.2,43.1,30.2,39.6,30.2,39.6z"/>
	<path class="st24" d="M25.5,37.3l7.9-0.1c0,0-0.6-1.3-1.4-1.4c-0.9-0.1-1.6,0.1-2,0.6s-0.8,0.4-1.1,0.1c-0.3-0.4-1.3-0.8-1.9-0.7
		C26.5,36.1,25.5,36.7,25.5,37.3z"/>
	<path class="st46" d="M28,33.9l0.1-8.9c0,0-0.1-1.9,1.2-2c1.4-0.1,1.4,1.9,1.4,1.9v8.9"/>
	<path class="st47" d="M35.6,37.2c0,0-1-3.8-4.9-3.3"/>
	<path class="st47" d="M31,32.2h4.4c0,0,2.8-0.3,3.4-2.7"/>
	<path class="st47" d="M31,28.8h3.1c0,0,2.7-0.2,3.2-2.6"/>
	<path class="st22" d="M30.9,25.6l2.3-0.1h0.1c0.3-0.1,2-0.2,2.5-2.2"/>
	<path class="st47" d="M23.2,37.1c0,0,1-3.8,4.9-3.3"/>
	<path class="st47" d="M27.9,32.1h-4.4c0,0-2.8-0.3-3.4-2.7"/>
	<path class="st47" d="M28,28.7h-3.1c0,0-2.7-0.2-3.2-2.6"/>
	<path class="st22" d="M28,25.5l-2.3-0.1h-0.1c-0.3-0.1-2-0.2-2.5-2.2"/>
</g>
<g id="icon_44" class="st0">
	<path class="st48" d="M21.1,13.8c0,0,2.5-3.3,7.4-2.5c0,0,6.8-2.2,9.8,2.6c0,0,5.5,1.6,5.3,7.1c0,0,3.1,4.3,0.1,9.5
		c0,0-0.6,6.2-6.2,7.5c0,0-1.7,4.1-8.4,2.4c0,0-4.6,1.7-7.9-2.4c0,0-4.4-1.5-5.4-6.4c0,0-3.8-7.1,0.2-10.6
		C16,20.9,16.1,15.8,21.1,13.8z"/>
	<path class="st22" d="M43.3,21c0,0-2.8-6.8-12.1,0.1"/>
	<path class="st22" d="M43.4,21.2c0,0,0.2,5.9-4.9,7.5"/>
	<path class="st22" d="M39.9,33.2c0,0,2.9-1.4,4-3.3"/>
	<path class="st22" d="M25.8,13.9c0,0,2.3-2.4,3.8-2.8"/>
	<path class="st22" d="M33,37.4c0,0,2.9,1,5.1,0.4"/>
	<path class="st22" d="M30.8,40.7c0,0-7.5-1.3-6.6-7.2c0.4-2.2,1.9-4.9,1.9-4.9s-3.7,1.1-5.3,0.1"/>
	<path class="st22" d="M15,29.6c0,0,2.2,3.1,4.2,3.7"/>
	<path class="st22" d="M15.2,21.9c0,0,3.1-4.4,13-0.6"/>
</g>
<g id="icon_45" class="st0">
	<g class="st1">
		<path class="st8" d="M30.2,17.2c-1.2,0-2.3,0.2-3.4,0.7c0.1,0.3,0.2,0.7,0.2,1c0,2.1-1.7,3.8-3.8,3.8c-0.4,0-0.8-0.1-1.1-0.2
			c-0.5,1.1-0.8,2.3-0.8,3.6c0,0.6,0.1,1.1,0.2,1.7c0.5-0.3,1.1-0.5,1.8-0.5c2,0,3.6,1.6,3.6,3.6c0,1.1-0.5,2.1-1.3,2.8
			c1.4,0.9,3,1.4,4.7,1.4c0.8,0,1.6-0.1,2.4-0.3c-0.6-0.8-1-1.8-1-2.9c0-2.5,2.1-4.6,4.6-4.6c1,0,2,0.3,2.7,0.9
			c0.2-0.7,0.2-1.3,0.2-2C39.1,21.2,35.1,17.2,30.2,17.2z"/>
	</g>
	<circle class="st18" cx="36.1" cy="31.9" r="2.9"/>
	<circle class="st18" cx="23.2" cy="30.9" r="1.9"/>
	<circle class="st18" cx="23.2" cy="19" r="2.1"/>
	<path class="st18" d="M37.3,18.5c0-0.1,0-0.3,0-0.4c0-2.8-2.3-5-5-5c-2,0-3.6,1.1-4.5,2.8c0.8-0.2,1.6-0.3,2.5-0.3
		C33.1,15.5,35.6,16.7,37.3,18.5z"/>
	<path class="st18" d="M43.3,17.5l-2.7,2.6c-0.5,0.5-1.3,0.2-1.5-0.4l-0.9-3.6l-0.9-3.6c-0.2-0.7,0.5-1.3,1.1-1.1l3.6,1l3.6,1
		c0.7,0.2,0.9,1,0.4,1.5L43.3,17.5z"/>
	<path class="st49" d="M43.3,17.5c0,0,5.7,6.5,1.2,15.6s-14.4,8.6-14.4,8.6"/>
	<path class="st18" d="M16,34.2l2.7-2.6c0.5-0.5,1.3-0.2,1.5,0.4l0.9,3.6l0.9,3.6c0.2,0.7-0.5,1.3-1.1,1.1l-3.6-1l-3.6-1
		c-0.7-0.2-0.9-1-0.4-1.5L16,34.2z"/>
	<path class="st49" d="M16,34.2c0,0-5.4-7.8-1.3-15.6C20,8.3,29.1,9.9,29.1,9.9"/>
</g>
<g id="icon_46" class="st0">
	<path class="st18" d="M26.2,37.9h-8.4c-0.6,0-1.2-0.5-1.2-1.2l0,0c0-0.6,0.5-1.2,1.2-1.2h8.4c0.6,0,1.2,0.5,1.2,1.2l0,0
		C27.3,37.3,26.8,37.9,26.2,37.9z"/>
	<path class="st18" d="M43.8,41.4H15.5c-0.6,0-1.1-0.5-1.1-1.1l0,0c0-0.6,0.5-1.1,1.1-1.1h28.3c0.6,0,1.1,0.5,1.1,1.1l0,0
		C44.9,40.9,44.5,41.4,43.8,41.4z"/>
	<path class="st18" d="M24.6,31.7l-3.9-2.4c-1-0.6-1.4-2-0.7-3L27.5,14c0.6-1,2-1.4,3-0.7l3.9,2.4c1,0.6,1.4,2,0.7,3L27.6,31
		C27,32.1,25.6,32.4,24.6,31.7z"/>
	<path class="st18" d="M21.2,33.1L21.2,33.1c-0.7-0.4-0.8-1.2-0.5-1.7l1.5-2.5c0.3-0.6,1.1-0.8,1.7-0.4l0.1,0.1
		c0.6,0.3,0.8,1.1,0.4,1.7l-1.5,2.4C22.5,33.1,21.8,33.3,21.2,33.1z"/>
	<path class="st18" d="M35.1,14.7l-3.8-2.3c-0.4-0.2-0.5-0.7-0.3-1.1l0.4-0.7c0.2-0.4,0.7-0.5,1.1-0.3l3.8,2.3
		c0.4,0.2,0.5,0.7,0.3,1.1l-0.4,0.7C36,14.8,35.5,14.9,35.1,14.7z"/>
	<path class="st49" d="M35.2,24.4c0,0,8,2.8,6.8,8.1c-0.9,4.1-3.1,7.1-3.1,7.1"/>
</g>
<g id="icon_47" class="st0">
	<path class="st18" d="M13.4,39.6l-3.3-6.1c-0.3-0.6-0.1-1.3,0.5-1.6l1.5-0.8l4.4,8L14.8,40C14.3,40.2,13.7,40,13.4,39.6z"/>
	<path class="st18" d="M13.5,30l4.1,8.1l2.6-1.4l11.7,2.4c0,0,1.9,0.5,4.9-0.6s11.7-4.9,11.7-4.9s1.1-0.6,0.7-1.9s-1.4-1.3-2.5-0.9
		c-1.1,0.3-7.4,3.1-7.4,3.1s-0.9,0.4-2.5,0.4c-1.5,0-9.1-0.5-9.1-0.5s-0.4,0-0.4-0.6c0.1-0.6,1.3-0.4,1.3-0.4l8.1,0.3
		c0,0,1.5-0.2,1.5-1.7s-1-1.8-1.6-1.9c-0.6-0.1-5.8-0.2-12.8-3.1c-1.2-0.5-5,0.4-6.2,1.1C16.4,28.2,13.5,30,13.5,30z"/>
	<path class="st18" d="M39.6,30.9c0,0,0.1,1.1,0,1.4l6.5-2.4c0,0-0.4-1-2.1-0.5S39.6,30.9,39.6,30.9z"/>
	<path class="st18" d="M38.3,28.8l0.8,0.9l4.2-1.2c0,0-0.7-0.6-2.6-0.2C38.7,28.6,38.3,28.8,38.3,28.8z"/>
	<path class="st40" d="M41.4,11.6c0,0,1,12.1-11.6,11.5c0,0,2.1-4,7-6.2c0,0-6.6,0.5-10,9.5c0,0-0.2,0.5-0.7,0.4
		c-0.5-0.2-0.5-0.7-0.4-1.3c0.1-0.6,0.7-2.2,1.7-2.9c0,0-1.2-7.2,7.7-7.7C37.2,14.9,40.2,13,41.4,11.6z"/>
</g>
<g id="icon_48" class="st0">
	<path class="st17" d="M29.2,9.5h2.9v10c0,0,0,2.4,4.1,2.1l1.3,1.6L36,23.4c0,0-2.5,0.4-3.3-0.5s-0.6,0.7-0.6,0.7V42h-3l-1-18.9
		c0,0-0.5,2.1-5.2,1.6l-0.6-1.3l0.2-0.4c0,0,2.3,0.6,5.3-0.8c1.1-0.5,1.1-4.1,1.1-4.1L29.2,9.5z"/>
	<path class="st18" d="M36.1,25.6c0,0-5.8,1.5-6.7-3.9V9.5h-2.7v15.3c0,0,0.5,1.9-3.6,2.2l-1.2,1.2l0.7,0.6l0.8,0.2l1.8-0.5
		c0,0,1.5-0.5,1.6,0.6c0,1,0,13.1,0,13.1l2.7-0.1V25.6c0,0,1.8,2.6,6.4,2.1l0.7-1.6L36.1,25.6z"/>
	<path class="st17" d="M37.4,14.6c0,0,3.6-1.6,5.9,1.1s3.6,10.7,0.9,15.9s-5.8,3.8-7.2,3.2c-1.5-0.6-2.5-3-1.9-4.8
		c0.5-1.8,1.1-3.4,1-4c-0.2-0.6-0.6-2.2-0.3-2.8c0.3-0.6,0.4-1.7,0.1-2c-0.3-0.3-1-1.1-1-1.9C34.9,18.6,34.7,16.2,37.4,14.6z"/>
	<path class="st17" d="M21.7,15.8c0,0-3.6-1.6-5.9,1.1s-3.6,10.4-0.9,15.5s5.9,3.6,7.2,3.1s2.5-2.9,1.9-4.6s-1.1-3.3-1-3.9
		c0.2-0.6,0.6-2.1,0.3-2.7c-0.3-0.6-0.4-1.7-0.1-2s1-1.1,1-1.8S24.4,17.3,21.7,15.8z"/>
</g>
<g id="icon_49" class="st0">
	<g id="brain" class="st1">
		<path class="st50" d="M23.3,21.9c0,0-1.4-1.8,0.3-3.1c0,0,0.4-1.9,2.3-1.6c0,0,0.9-2.1,3-1.5c0,0,1.8-1.3,2.9,0
			c0,0,2.3-0.8,3.1,0.9c0,0,2.1,0.1,2.3,1.8c0,0,2.7,2.7-0.1,4.5L23.3,21.9z"/>
		<path class="st51" d="M24,17.9c0,0-0.8,1.4,0.5,2"/>
		<path class="st51" d="M26.2,16.6c0,0-1.3,2.7,1.7,3.2"/>
		<path class="st51" d="M28.9,20.9c0,0,2-2.8-1-3.6"/>
		<path class="st51" d="M31.2,18.1c0,0,0,1.4-1.6,1.5"/>
		<path class="st51" d="M31.1,15.3c0,0.1,1.1,0.2,1.3,2.3"/>
		<path class="st51" d="M31.7,21.6c0,0,0.2-2,2.4-1.9"/>
		<path class="st51" d="M36.1,21.3c0,0-1.9-0.1-1.9-2.2"/>
		<path class="st51" d="M25.9,21c0,0,0.1,1,0.9,1.2"/>
		<path class="st52" d="M23.3,22c0,0-1.7,1.5-0.2,3.1c0,0,0.1,1.9,2,1.9c0,0,0.6,2.2,2.8,1.9c0,0,1.6,1.5,2.9,0.4
			c0,0,2.2,1.1,3.2-0.4c0,0,2.1,0.1,2.5-1.5c0,0,3.1-2.3,0.5-4.5L23.3,22z"/>
		<path class="st5" d="M23.5,26c0,0-0.6-1.5,0.8-1.9"/>
		<path class="st5" d="M25.5,27.7c0,0-0.9-2.8,2.2-3"/>
		<path class="st5" d="M28.7,23.8c0,0,1.6,3-1.5,3.4"/>
		<path class="st5" d="M30.5,26.9c0,0,0.2-1.3-1.4-1.7"/>
		<path class="st5" d="M30.1,29.7c0-0.1,1.1,0,1.6-2.1"/>
		<path class="st5" d="M31.6,23.5c0,0-0.1,2,2.1,2.2"/>
		<path class="st5" d="M35.8,24.3c0,0-1.9-0.1-2.1,1.9"/>
		<path class="st5" d="M27.1,23.3c0,0,0.2-1,1.1-1"/>
		<path class="st5" d="M33.7,24.2c0,0,0.4-1.2,1.4-1.5"/>
	</g>
	<path class="st18" d="M26.2,12.4c-4.9,0.7-6.5,2.7-8.2,4.9c-1.7,2.3-1.1,7.3-1.1,7.3s-1.7,2-2.1,2.5s-1.2,1.7-1.1,2.7
		c0.2,1,1.8,1.2,1.8,1.2s-0.2,2.1-0.2,2.6s0.5,0.6,0.6,0.7c0.1,0,0.2,0.2,0.2,0.2s-0.4,0.1-0.4,0.5c0,0.6,0.6,0.9,0.6,0.9
		c0,0.1,0.2,0.2,0,0.8c-0.3,0.6-0.3,1.6,0.8,2.5c1.1,0.9,5.6,0.8,5.6,0.8v3L37,42.7c0,0-0.3-0.4-0.8-3s0.2-4.5,0.3-4.9
		c0.2-0.4,1.1-1.9,2.6-4.3c1-1.6,1.6-3.9,1.8-6.2c-0.1,0-0.2,0-0.2,0C32.8,23.8,26.6,18.6,26.2,12.4z"/>
	<path class="st18" d="M26.5,12.2c0,0,5.1,8.7,19,5.1C45.5,17.3,39.8,1.7,26.5,12.2z"/>
</g>
<g id="icon_50" class="st0">
	<path class="st53" d="M29.6,11.3c0,0,3.4-3.1,6.2,0.1c0,0,3.9,0.5,3.5,4.4c0,0,4.4,1.5,3.5,5.9c0,0,2.8,3.5,0.5,5.9
		c0,0,1.9,4.6-1.3,6.4c0,0,0,4.3-3.3,4.9c0,0-5.1,5.9-9.1,0.4L29.6,11.3z"/>
	<path class="st28" d="M37.9,12.3c0,0-3-1.4-4,1.4"/>
	<path class="st28" d="M40.9,16.6c0,0-5.6-2.2-6.3,3.9"/>
	<path class="st28" d="M32.4,22.6c0,0,5.9,3.6,7.1-2.6"/>
	<path class="st28" d="M38.4,26.7c0,0-2.7,0.2-3.2-3"/>
	<path class="st28" d="M44.2,26.3c-0.1,0-0.2,2.2-4.5,2.9"/>
	<path class="st28" d="M31.4,28.3c0,0,4.1,0,4.2,4.5"/>
	<path class="st28" d="M32.6,37.1c0,0,0-3.9,4.1-4.1"/>
	<path class="st28" d="M31.9,16.4c0,0-2,0.3-2.3,2"/>
	<path class="st53" d="M29.5,11.3c0,0-3.4-3.1-6.2,0.1c0,0-3.9,0.5-3.5,4.4c0,0-4.4,1.5-3.5,5.9c0,0-2.8,3.5-0.5,5.9
		c0,0-1.9,4.6,1.3,6.4c0,0,0,4.3,3.3,4.9c0,0,5.1,5.9,9.1,0.4V11.3z"/>
	<path class="st28" d="M21.3,12.3c0,0,3-1.4,4,1.4"/>
	<path class="st28" d="M18.3,16.6c0,0,5.6-2.2,6.3,3.9"/>
	<path class="st28" d="M26.6,22.6c0,0-5.9,3.6-7.1-2.6"/>
	<path class="st28" d="M20.6,26.7c0,0,2.7,0.2,3.2-3"/>
	<path class="st28" d="M14.9,26.3c0.1,0,0.2,2.2,4.5,2.9"/>
	<path class="st28" d="M27.7,28.3c0,0-4.1,0-4.2,4.5"/>
	<path class="st28" d="M26.5,37.1c0,0,0-3.9-4.1-4.1"/>
	<path class="st28" d="M27.3,19.3c0,0,2,0.3,2.3,2"/>
	<path class="st28" d="M26.4,32.7c0,0,2.5,0.6,3.1,2.6"/>
</g>
<g id="icon_51" class="st0">
	<circle class="st18" cx="29.6" cy="25.8" r="19.5"/>
	<circle class="st54" cx="29.4" cy="26.2" r="5.4"/>
	<path class="st55" d="M26.7,20.9l-3.5-6.4c0,0,6.8-3.2,12-0.1l-3.4,6.5"/>
	<path class="st55" d="M35.2,26.1l7.3,0.1c0,0-0.5,7.5-5.7,10.5l-4-6.1"/>
	<path class="st55" d="M25.9,30.9l-4.2,6c0,0-5.9-4.7-5.4-10.7l7.3,0.2"/>
</g>
<g id="icon_52" class="st0">
	<path class="st18" d="M40.1,39.5h-21c-1.8,0-3.3-1.5-3.3-3.3V15.4c0-1.8,1.5-3.3,3.3-3.3H40c1.8,0,3.3,1.5,3.3,3.3v20.7
		C43.4,38,41.9,39.5,40.1,39.5z"/>
	<path class="st24" d="M24.7,22.6h10.2l3.6-5.1c0,0-8.7-7.6-17.5,0.1L24.7,22.6z"/>
	<path class="st17" d="M29.5,26c0,0,1.4-2.1,4.1-1.4c2.8,0.8,3.1,2.9,3.1,2.9s1,5.7-6.9,9.8c0,0-8.1-2.9-7.5-9.2
		c0.2-2.5,2.1-3.7,3.1-3.8C26.6,24.3,28.3,24.4,29.5,26z"/>
	<circle class="st38" cx="29.6" cy="22.1" r="2"/>
	<line class="st56" x1="32.4" y1="17.2" x2="30.6" y2="20.2"/>
	<path class="st18" d="M29.4,33.4L29.4,33.4c-0.4,0-0.7-0.3-0.7-0.7v-3.5c0-0.4,0.3-0.7,0.7-0.7l0,0c0.4,0,0.7,0.3,0.7,0.7v3.5
		C30.2,33.1,29.8,33.4,29.4,33.4z"/>
	<path class="st18" d="M31.9,30.9L31.9,30.9c0,0.4-0.3,0.7-0.7,0.7h-3.5c-0.4,0-0.7-0.3-0.7-0.7l0,0c0-0.4,0.3-0.7,0.7-0.7h3.5
		C31.6,30.2,31.9,30.5,31.9,30.9z"/>
</g>
<g id="icon_53" class="st0">
	<path class="st18" d="M44.3,18.5l-0.8,2.7c0,0-0.6,1.6-2.9,1.6s-3.7-0.6-3.9,1c-0.3,1.6-1,5.3-5.7,5.7c0,0-0.3,0.3,0.2,0.4
		c0.5,0.1,2.5-0.1,3.4-0.6s2,0.2,2.6,1.6c0.6,1.4,0.9,1.6,1.2,1.5c0.3,0,1.5-0.3,1.8,0s0.7,0.9-0.4,1.6c-1.1,0.8-2.2,0.5-2.9-0.3
		s-1.1-1.1-1.5-1.2c-0.4-0.1-1.4,0-1.5,0.9s-1.6,4.1-5.3,3.7c-3.6-0.4-5.5-2-6.2-4.7s0.5-5.5,0.8-6.3c0.4-1.4,0.3-2-0.2-2.8
		s-1.4-0.6-1.7-3.1c-0.4-2.4,1.6-4.8,3.1-5.7c0,0,1.6-1.1,3.4-0.7s3.3,1.2,4.4,2.5c1.3,1.4,1.2,3.4,0.1,5c-0.2,0.3-0.3,0.5-0.1,0.8
		s0.5,1.9-0.6,2.2c-1.1,0.3-2.3,0.3-2.6,0.7c-0.3,0.4-0.1,0.7,0.3,1s1.1,0.4,1.2,0.4s0-0.4,0-0.7c0-0.3,0.6-0.6,1.1-0.1
		c0.5,0.5,0.9,1,0.6,1.7c-0.2,0.7-0.4,0.4,0.1,0.5c0.4,0.1,0.2-0.2,0.7-0.4c0.4-0.2,0.7-0.2,0.8-0.5c0.2-0.3,1.1-3.5,1.4-3.9
		c0.3-0.4,0.6-1.7,4.2-2.6c1.8-0.4,1.9-1.4,1.6-3c-0.3-1.2-0.9-3.4-1.2-4.4c-2.8-2.2-6.4-3.6-10.2-3.6c-9.1,0-16.4,7.4-16.4,16.4
		c0,9.1,7.4,16.4,16.4,16.4S46,35,46,25.9C46,23.2,45.4,20.7,44.3,18.5z"/>
</g>
<g id="icon_54" class="st0">
	<path class="st18" d="M16.1,15c0,0,0.9-2.1,2.9-1.4s2.1,2.3,2,3.5s0.3,3.1,0.3,3.1s1.1,2.2,2.3,0.4c1.5-2.2,5.4-7.9,5.4-7.9
		s1.4-2,3.5-0.8c2.1,1.1,0.6,3.6,0.6,3.6l-3,6l6.9-6.4c0,0,2.1-1.4,3.5,0.5s-0.4,3.5-0.4,3.5l-5.8,6.2l5.6-2.8c0,0,2.3-0.8,3.1,1
		s-0.1,2.9-0.6,3.3s-6.8,4.6-6.8,4.6l4-0.9c0,0,2.6-0.5,3,1.6s-0.9,2.8-1.6,3c-0.6,0.3-12.2,4.6-12.2,4.6s-5.3,1.9-9.6-2
		c-3.8-3.4-3.2-9.5-3.2-9.5S15.8,15.6,16.1,15z"/>
	<circle class="st24" cx="21.9" cy="28.4" r="1.4"/>
	<circle class="st24" cx="29.5" cy="28.4" r="1.4"/>
	<path class="st22" d="M20.4,31.6c0,0,1.2,4,4.9,4.1s5.1-2.6,5.5-4"/>
</g>
<g id="icon_55" class="st0">
	<path class="st18" d="M39.9,41.4H19.3c-2.1,0-3.7-1.7-3.7-3.7V14c0-2.1,1.7-3.7,3.7-3.7h20.5c2.1,0,3.7,1.7,3.7,3.7v23.6
		C43.6,39.7,41.9,41.4,39.9,41.4z"/>
	<text transform="matrix(1 0 0 1 26.7938 19.5649)" class="st24 st57 st58">E</text>
	<text transform="matrix(1 0 0 1 23.4408 26.046)" class="st24 st57 st59">F</text>
	<text transform="matrix(1 0 0 1 31.6761 26.046)" class="st24 st57 st59">P</text>
	<text transform="matrix(1 0 0 1 33.7348 31.7582)" class="st24 st57 st60">Z</text>
	<text transform="matrix(1 0 0 1 27.4406 31.7582)" class="st24 st57 st60">O</text>
	<text transform="matrix(1 0 0 1 21.7936 31.7582)" class="st24 st57 st60">T</text>
	<text transform="matrix(1 0 0 1 20.0292 37.1699)" class="st24 st57 st61">L</text>
	<text transform="matrix(1 0 0 1 25.1468 37.1699)" class="st24 st57 st61">P</text>
	<text transform="matrix(1 0 0 1 29.9704 37.1699)" class="st24 st57 st61">E</text>
	<text transform="matrix(1 0 0 1 35.2645 37.1699)" class="st24 st57 st61">D</text>
</g>
<g id="icon_56" class="st0">
	<path class="st18" d="M20.9,38.5l-6.2-6.7l14.6-13.4c1.9-1.7,4.8-1.6,6.5,0.3l0,0c1.7,1.9,1.6,4.8-0.3,6.5L20.9,38.5z"/>
	
		<rect x="28.6" y="23.5" transform="matrix(0.7362 -0.6768 0.6768 0.7362 -8.6866 26.2783)" class="st24" width="1.6" height="1.6"/>
	
		<rect x="28.6" y="23.5" transform="matrix(0.7362 -0.6768 0.6768 0.7362 -8.6866 26.2783)" class="st24" width="1.6" height="1.6"/>
	
		<rect x="26.1" y="25.8" transform="matrix(0.7362 -0.6768 0.6768 0.7362 -10.9023 25.1931)" class="st24" width="1.6" height="1.6"/>
	
		<rect x="23.7" y="24.4" transform="matrix(0.7362 -0.6768 0.6768 0.7362 -13.139 24.2432)" class="st24" width="1.7" height="9.2"/>
	<polyline class="st49" points="35.5,18.9 41.8,13.1 44.5,13.2 	"/>
</g>
<g id="icon_57" class="st0">
	<path class="st18" d="M24.4,41.6l0.1-1.7c0-0.3,0.4-0.5,0.6-0.3l1.4,0.9l1.4,0.9c0.3,0.2,0.2,0.6,0,0.7l-1.5,0.7l-1.5,0.8
		c-0.3,0.2-0.6,0-0.6-0.4L24.4,41.6z"/>
	<path class="st49" d="M24.8,41.6c0,0-12.8-2.3-13.7-13.7c-0.3-9.8,6.2-14.6,6.2-14.6"/>
	<path class="st24" d="M33.4,16.4c0,0,3-0.7,4.4,0c1.7,0.8,3,2.9,2.1,6.4s-1.7,6.5-1.9,9.5c-0.3,3-2.4,5-3.8,5.2
		c-1.4,0.3-2.4-1.2-2.1-2.3c0.3-1.1,0.7-4.3,0.6-5.1c-0.1-1.5-0.9-2.8-2.1-2.8c-1.2,0-1.8,0.7-2.1,1.4c-0.3,0.8-0.8,3.8-0.4,5.2
		c0.3,1.4,0.1,3.5-1.2,3.5c-1.3,0.1-3.8-1.3-4.8-7.2c-1-5.9-1.5-7.2-1.7-8c-0.7-2.7,0-6.2,3-6.4s5.4,1.1,6.5,1.2
		C30.7,17.2,32.3,16.6,33.4,16.4z"/>
	<path class="st17" d="M28,19.3c0,0,1.8,1,2.5,0.7c0.7-0.4,2.4-1.2,4.3-0.3c1.9,1,1.9,2.1,1.9,2.1s0.6,2.1-0.4,3.7
		c-1,1.7-0.7,5.1-0.7,5.1s0.1,1.2-0.5,1.2c-0.5,0-0.9-1.1-0.9-1.3s-0.6-4.4-3.4-4.9s-3.3,2.1-3.7,3.1c-0.2,0.7-0.4,2.6-0.4,2.6
		s-0.1,1-0.7,0.9c-0.5-0.1-0.7-1.1-0.7-3.5s-0.7-2.6-1.1-4s-0.3-3.8,1.1-4.9C26.6,18.7,28,19.3,28,19.3z"/>
	<path class="st18" d="M33.8,10v1.7c0,0.3-0.3,0.5-0.6,0.4l-1.5-0.8l-1.5-0.8c-0.3-0.1-0.3-0.6,0-0.7l1.4-0.9L33,8
		c0.3-0.2,0.6,0,0.6,0.3L33.8,10z"/>
	<path class="st49" d="M33.4,10c0,0,12.9,1.5,14.6,12.8c1,9.8-5.2,15-5.2,15"/>
</g>
<g id="icon_58" class="st0">
	<path class="st24" d="M31.4,13.4c0,0,3.6-0.8,5.3,0c2,1,3.6,3.5,2.5,7.7s-2,7.8-2.3,11.5c-0.4,3.6-2.9,6.1-4.6,6.3
		c-1.7,0.4-2.9-1.4-2.6-2.8c0.4-1.3,0.8-5.3,0.7-6.2c-0.2-1.9-1.1-3.4-2.6-3.4s-2.2,0.8-2.6,1.7c-0.4,1-1,4.6-0.5,6.3
		c0.4,1.7,0.2,4.2-1.4,4.3s-4.6-1.6-5.8-8.7s-1.8-8.7-2-9.7c-0.9-3.3,0-7.5,3.6-7.7c3.6-0.3,6.6,1.3,7.8,1.4
		C28.1,14.4,30.1,13.6,31.4,13.4z"/>
	<path class="st17" d="M24.8,16.9c0,0,2.1,1.2,3,0.8c0.9-0.4,2.8-1.5,5.2-0.4c2.3,1.2,2.3,2.5,2.3,2.5s0.7,2.5-0.5,4.5
		s-0.9,6.1-0.9,6.1s0.1,1.4-0.6,1.4c-0.6,0-1.1-1.3-1.1-1.6s-0.7-5.3-4.1-6s-4,2.6-4.4,3.7c-0.3,0.8-0.5,3.2-0.5,3.2
		s-0.2,1.2-0.8,1.1c-0.6-0.1-0.8-1.3-0.8-4.2c0-2.8-0.9-3.2-1.3-4.9c-0.4-1.7-0.4-4.6,1.3-5.9C23.1,16.2,24.8,16.9,24.8,16.9z"/>
	<circle class="st18" cx="37.9" cy="30.6" r="6.2"/>
	<path class="st24" d="M38.2,34.1h-0.9c-0.5,0-0.9-0.4-0.9-0.9v-5.1c0-0.5,0.4-0.9,0.9-0.9h0.9c0.5,0,0.9,0.4,0.9,0.9v5.1
		C39.1,33.7,38.7,34.1,38.2,34.1z"/>
	<path class="st24" d="M34.4,31.1v-0.9c0-0.5,0.4-0.9,0.9-0.9h5.1c0.5,0,0.9,0.4,0.9,0.9v0.9c0,0.5-0.4,0.9-0.9,0.9h-5.1
		C34.8,32,34.4,31.6,34.4,31.1z"/>
</g>
<g id="icon_59" class="st0">
	<path class="st18" d="M25.9,6.9h9.4l-4.8,10.2c0,0,2.1,1.9,1.6,4.1c-0.4,2.1-1.4,3.4-4.8,3c-1.4-0.2-3.1-1.9-3.6-2
		c-0.4-0.1-1.5-0.5-2.6-0.4C20,22,17,21.5,17,17.3c0-3.1,3.1-4.7,5.8-3.8L25.9,6.9z"/>
	<path class="st18" d="M23.2,44.7h9.1l-2-8.7c0,0,3.2-1.3,2.3-5s-5.1-2.8-5.8-2.5c-0.7,0.4-1.3,1.1-3,0.7c-1.7-0.4-3.8-0.4-4.9,1.3
		c-0.9,1.4-0.9,5.2,2.7,6.4L23.2,44.7z"/>
	<path class="st18" d="M41,27h-2.1c-0.6,0-1.1-0.5-1.1-1.1l0,0c0-0.6,0.5-1.1,1.1-1.1H41c0.6,0,1.1,0.5,1.1,1.1l0,0
		C42.1,26.5,41.6,27,41,27z"/>
	<path class="st18" d="M39.3,21.2l-1.5,1.5c-0.4,0.4-1.1,0.4-1.5,0l0,0c-0.4-0.4-0.4-1.1,0-1.5l1.5-1.5c0.4-0.4,1.1-0.4,1.5,0l0,0
		C39.7,20.1,39.7,20.8,39.3,21.2z"/>
	<path class="st18" d="M37.6,31.9l-1.4-1.6c-0.4-0.4-0.4-1.1,0.1-1.5l0,0c0.4-0.4,1.1-0.4,1.5,0.1l1.4,1.6c0.4,0.4,0.4,1.1-0.1,1.5
		l0,0C38.7,32.4,38,32.3,37.6,31.9z"/>
</g>
<g id="icon_60" class="st0">
	<circle class="st18" cx="25.6" cy="15.7" r="3.8"/>
	<circle class="st18" cx="40" cy="32" r="4.3"/>
	<path class="st18" d="M11.8,39.5v1.8c0,0,0,0.5,0.6,0.5s22.6,0,22.6,0s-1.5-1.1-1.6-1.5l-20-0.2C13.3,40.1,12.4,40.2,11.8,39.5z"/>
	<path class="st18" d="M33.7,39.1l1.6,1.5c0,0,0.5,1,2.1,1s9,0,9,0s1.1-0.5,1.1-1.9s-1-2-2.4-2s-7.3,0-7.3,0s-5-5.6-5.9-5.7H13.1
		c0,0-1.2,0-1.3,1.2c-0.1,1.1,0,4.5,0,4.5s0,1.5,1,1.5S33.7,39.1,33.7,39.1z"/>
	<path class="st18" d="M22.6,30.7c0,0,0.8-1.7,1.9-2.3s1.1-2,1-2.3l1.9,1.8l6,2.6c0,0,1.5,0.4,1.9-0.7c0.4-1.2,0.2-1.8-0.6-2.2
		s-5.5-2.1-5.5-2.1l-4.1-4c0,0-0.8-0.6-1.8-0.8c-0.9-0.2-2.5-0.4-2.5-0.4s-1.3-0.2-1.9,1.3s-3.6,8.6-3.6,8.6s-0.4,0.9,0.2,0.9
		c0.6,0,6.6,0,6.6,0S22.5,31.1,22.6,30.7z"/>
	<path class="st18" d="M20.9,14.4c0,0,0.5-2.3,2.9-3.2c0,0-0.5-1.6-2.7-1.3s-1.8,2.8-1.6,3.1C19.6,13.3,20,14.2,20.9,14.4z"/>
</g>
<g id="icon_61" class="st0">
	<path class="st18" d="M29.1,10.2c0,0,5.3-0.8,8.5,1.3c3.2,2,5.2,4.3,5.7,7.6s-0.2,7.3-1.7,9.7c-1.5,2.5-2.5,4-2.7,4.4
		c-0.1,0.4-0.8,2.4-0.3,5c0.5,2.7,0.8,3.1,0.8,3.1l-14.6,0.3v-3.1c0,0-4.6,0.1-5.7-0.8c-1.1-0.9-1.1-1.9-0.8-2.6
		c0.2-0.6,0-0.7,0-0.8c0,0-0.6-0.3-0.6-0.9c0-0.4,0.4-0.5,0.4-0.5s-0.1-0.2-0.2-0.2c-0.1-0.1-0.6-0.2-0.6-0.7s0.3-2.7,0.3-2.7
		s-1.6-0.2-1.8-1.2c-0.1-1,0.7-2.3,1.1-2.8s2.1-2.6,2.1-2.6s-0.6-5.1,1.1-7.5C21.9,12.9,23.6,10.8,29.1,10.2z"/>
	<path class="st17" d="M16.1,28.8c0,0,1.7-3.3,4.1-4.6c2.4-1.4,5.5-0.9,6.8-0.5s3.9,2.2,7.1,1.1c0.9-0.3,2.9-1.3,3.1-1.7
		c0,0,0.8-0.2,0.9,0.4c0.1,0.7-0.4,1.4-1.6,2.4c-1.2,1-1.9,5-3.8,15.5H31c0,0,0.2-8.6-1.6-11.8c-1.7-3.1-4.7-7.2-12.5-0.6l-0.2,0.2
		L16.1,28.8z"/>
</g>
<g id="icon_62" class="st0">
	<circle class="st18" cx="29.7" cy="27.1" r="13"/>
	<circle class="st18" cx="18.5" cy="27.9" r="4.6"/>
	<circle class="st18" cx="40.7" cy="27.9" r="4.6"/>
	<rect x="32.7" y="12.2" class="st18" width="1.8" height="4.4"/>
	<rect x="28.7" y="11.5" class="st18" width="1.8" height="4.4"/>
	<rect x="24.7" y="12.3" class="st18" width="1.8" height="4.4"/>
	<path class="st62" d="M23.2,25.5h12.7c0,0,0.8,9.3-6,9.4C21.9,34.9,23.1,25.8,23.2,25.5z"/>
	<polyline class="st63" points="27.3,25.9 27.3,29.1 31.6,29.1 31.6,25.8 	"/>
</g>
<g id="icon_63" class="st0">
	<g class="st1">
		<g>
			<circle id="SVGID_19_" class="st8" cx="29.7" cy="27.6" r="12.2"/>
		</g>
		<g>
			<g>
				<g>
					<defs>
						<circle id="SVGID_20_" cx="29.7" cy="27.6" r="12.2"/>
					</defs>
					<clipPath id="SVGID_21_">
						<use xlink:href="#SVGID_20_"  style="overflow:visible;"/>
					</clipPath>
					<path class="st64" d="M32.4,15.3c0,0,3,5.4-0.6,7.1s-6.2-0.3-6.7-3.6"/>
				</g>
			</g>
		</g>
	</g>
	<path class="st18" d="M18.7,30.3h-1.8c-1.4,0-2.6-1.2-2.6-2.6l0,0c0-1.4,1.2-2.6,2.6-2.6h1.8c1.4,0,2.6,1.2,2.6,2.6l0,0
		C21.3,29.1,20.1,30.3,18.7,30.3z"/>
	<path class="st18" d="M42.3,30.3h-1.8c-1.4,0-2.6-1.2-2.6-2.6l0,0c0-1.4,1.2-2.6,2.6-2.6h1.8c1.4,0,2.6,1.2,2.6,2.6l0,0
		C44.9,29.1,43.7,30.3,42.3,30.3z"/>
	<path class="st65" d="M24.9,11.8c0,0,0,3.8,4.2,4.9c0,0-8.1,1.3-9-4"/>
	<path class="st32" d="M33.2,28c0,0,0.2-2.3,2.1-2.3s2.6,2,2.6,2"/>
	<path class="st32" d="M21.4,28c0,0,0.2-2.3,2.1-2.3s2.6,2,2.6,2"/>
	<path class="st32" d="M25.8,33c0,0,1.6,2.2,3.8,2.1c2.7-0.1,3.7-2.1,3.7-2.1"/>
</g>
<g id="icon_64" class="st0">
	<circle class="st45" cx="29.3" cy="33.4" r="8"/>
	<ellipse class="st66" cx="29.6" cy="26.8" rx="11.5" ry="4.3"/>
	<g class="st1">
		<path class="st8" d="M31.7,27.7c0,0-3.2-0.1-4-0.1c-1.3,0-2.2-1.3-2.2-3.2c0-1-1-2.9-1.4-3.5c-1.3-2-1.7-4.2-1.1-6.6
			c0.4-2,2.8-4.9,6.5-5h0.2c3.6,0,6.1,2.3,6.9,4.5c0.7,2,0.5,6.1-1.4,7.8c-1.6,1.4-2,4-2,4.3C33,27.2,32.2,27.7,31.7,27.7L31.7,27.7
			L31.7,27.7z"/>
		<path class="st67" d="M29.8,10.1c3.4,0,5.6,2.2,6.2,4c0.7,1.8,0.4,5.6-1.1,6.9c-1.5,1.4-2.1,3.7-2.3,4.8c-0.1,1.1-0.9,1.2-0.9,1.2
			s-3.2-0.1-4-0.1s-1.4-0.9-1.4-2.4s-1.5-3.9-1.5-3.9c-1.5-2.3-1.4-4.5-1-6c0.4-1.6,2.3-4.3,5.8-4.4C29.7,10.1,29.8,10.1,29.8,10.1
			 M29.8,8.6c-0.1,0-0.2,0-0.2,0c-4.2,0.1-6.8,3.3-7.2,5.5c-0.6,2.6-0.2,5,1.2,7.2c0.5,0.8,1.3,2.4,1.3,3.1c0,2.7,1.5,3.9,2.9,3.9
			c0.6,0,3.1,0.1,4,0.1h0.1H32c0.7-0.1,2-0.7,2.2-2.5c0.1-0.9,0.6-2.8,1.8-3.8c2.2-1.9,2.4-6.4,1.6-8.6C36.6,11.2,33.8,8.6,29.8,8.6
			L29.8,8.6z"/>
	</g>
</g>
<g id="icon_65" class="st0">
	<path class="st17" d="M29.5,13.1c0,0,1.6-2.4,4.6-1.6c3.1,0.9,3.5,3.3,3.5,3.3s1.2,6.5-7.9,11.1c0,0-9.2-3.3-8.6-10.4
		c0.3-2.8,2.4-4.2,3.6-4.3C26.2,11.1,28.1,11.3,29.5,13.1z"/>
	<path class="st18" d="M36.6,40.4h-14c-3,0-5.4-2.4-5.4-5.4l0,0c0-3,2.4-5.4,5.4-5.4h14c3,0,5.4,2.4,5.4,5.4l0,0
		C42,38,39.6,40.4,36.6,40.4z"/>
	<rect x="28.7" y="29.5" class="st24" width="1.8" height="10.9"/>
</g>
<g id="icon_66" class="st0">
	<path class="st18" d="M40.4,39.7H18.8c-0.5,0-0.8-0.4-0.8-0.8l0,0c0-0.5,0.4-0.8,0.8-0.8h21.6c0.5,0,0.8,0.4,0.8,0.8l0,0
		C41.2,39.3,40.9,39.7,40.4,39.7z"/>
	<path class="st18" d="M37.1,39.6h-15c-1.3,0-2.4-1.1-2.4-2.4l0,0c0-1.3,1.1-2.4,2.4-2.4H37c1.3,0,2.4,1.1,2.4,2.4l0,0
		C39.5,38.5,38.4,39.6,37.1,39.6z"/>
	<path class="st18" d="M28.8,33.3h-9.9c-0.5,0-0.9-0.4-0.9-0.9l0,0c0-0.5,0.4-0.9,0.9-0.9h9.9c0.5,0,0.9,0.4,0.9,0.9l0,0
		C29.7,32.9,29.3,33.3,28.8,33.3z"/>
	<rect x="23" y="32.8" class="st18" width="4.8" height="2.7"/>
	<path class="st18" d="M30.1,28.8L24.2,23l8.1-8.2c0.6-0.6,1.5-0.6,2.1,0l3.8,3.7c0.6,0.6,0.6,1.5,0,2.1L30.1,28.8z"/>
	<rect x="26.7" y="19.6" transform="matrix(0.7032 -0.711 0.711 0.7032 -9.8495 26.9506)" class="st18" width="1.4" height="11.4"/>
	<rect x="36.8" y="12.9" transform="matrix(0.7032 -0.711 0.711 0.7032 1.196 31.8334)" class="st18" width="3.9" height="3.2"/>
	<path class="st18" d="M24.1,25.6l3.1,3.2c0,0-1.9,0.6-2.8-0.4C23.6,27.4,23.9,26.5,24.1,25.6z"/>
	<path class="st68" d="M36.4,25.3c0,0,2.5,3.3,1,7.3"/>
</g>
<g id="icon_67" class="st0">
	<path class="st18" d="M34.5,31.1v6l1.3,0.1c0,0,1.1-0.4,1.1-1.4s0-3.8,0-3.8s-0.4-1-1.2-1C34.8,31.1,34.5,31.1,34.5,31.1z"/>
	<path class="st18" d="M28.4,29.7l3.7-0.1c0,0,0.7-0.1,0.8,1s0.2,6.9,0.2,6.9s0.1,1.3-0.9,1.4s-11.6-0.2-11.6-0.2s-0.7,0.3-1-2.1
		c-0.3-2.4-2-15.6-2-15.6s-0.1-0.9,0.9-1.1s6.9-1.6,6.9-1.6s1.4-0.3,1.6,1.1C27.2,21,28.4,29.7,28.4,29.7z"/>
	<path class="st18" d="M18.1,18.3l7.4-1.7l-0.3-3.2c0,0,0-0.9-1.4-0.6s-5.4,1-5.4,1s-0.8,0.2-0.7,1.3S18.1,18.3,18.1,18.3z"/>
	<path class="st18" d="M40.8,34.2h-1.7c-0.4,0-0.8-0.4-0.8-0.8l0,0c0-0.4,0.4-0.8,0.8-0.8h1.7c0.4,0,0.8,0.4,0.8,0.8l0,0
		C41.6,33.9,41.2,34.2,40.8,34.2z"/>
	<path class="st18" d="M40.9,30.6l-1.6,0.6c-0.4,0.2-0.9,0-1-0.4l0,0c-0.2-0.4,0-0.9,0.4-1l1.6-0.6c0.4-0.2,0.9,0,1,0.4l0,0
		C41.5,30,41.3,30.4,40.9,30.6z"/>
	<path class="st18" d="M40.3,37.8l-1.6-0.6c-0.4-0.1-0.6-0.6-0.5-1l0,0c0.1-0.4,0.6-0.6,1-0.5l1.6,0.6c0.4,0.1,0.6,0.6,0.5,1l0,0
		C41.1,37.7,40.7,37.9,40.3,37.8z"/>
	<path class="st24" d="M17.9,23.1l0.2,1.5l4.8-1.1c0,0,0.6-0.3,0.4-1s-1.1-0.4-1.1-0.4L17.9,23.1z"/>
	<path class="st24" d="M18.3,26l0.2,1.5l4.9-1.1c0,0,0.6-0.3,0.4-1S22.7,25,22.7,25L18.3,26z"/>
</g>
<g id="icon_68" class="st0">
	<path class="st18" d="M23.8,19.1c0,0,5-3.2,10.2-1.1s4.5,5.6,4.2,7.1s-1.5,2.9-1.8,5.6c-0.1,1.2,0.3,3,0.7,3.7s0.8,5.7-2.3,7.1
		c-3.8,1.7-6.5,0-8.3-3.4c-1.9-3.3-4.7-10.8-5-12.7C21.3,23.5,21.2,20.6,23.8,19.1z"/>
	<circle class="st18" cx="21.6" cy="15.6" r="2.9"/>
	<circle class="st18" cx="26.5" cy="12.8" r="2.9"/>
	<circle class="st18" cx="32.3" cy="12.2" r="2.9"/>
	<circle class="st18" cx="37.6" cy="14.1" r="2.9"/>
	<path class="st24" d="M29.8,22c0,0,0.9-1.3,2.6-0.9c1.7,0.5,1.9,1.9,1.9,1.9s0.6,3.6-4.4,6.1c0,0-5.1-1.8-4.7-5.8
		c0.1-1.6,1.3-2.3,2-2.4C28,20.9,29.1,21,29.8,22z"/>
</g>
<g id="icon_69" class="st0">
	<path class="st24" d="M32.8,13.9c0,0,3-0.6,4.3,0c1.7,0.8,3,2.8,2,6.3s-1.7,6.3-1.9,9.3c-0.3,3-2.4,4.9-3.7,5.1
		c-1.4,0.3-2.4-1.2-2.1-2.2c0.3-1.1,0.6-4.2,0.6-5c-0.1-1.5-0.9-2.7-2.1-2.7s-1.8,0.6-2.1,1.4c-0.3,0.8-0.8,3.7-0.4,5.1
		c0.3,1.4,0.1,3.4-1.2,3.5c-1.3,0.1-3.7-1.3-4.7-7.1s-1.4-7.1-1.7-7.8c-0.7-2.7,0-6,3-6.3s5.3,1.1,6.3,1.2
		C30.2,14.7,31.8,14.1,32.8,13.9z"/>
	<path class="st17" d="M27.5,16.7c0,0,1.7,0.9,2.4,0.6c0.7-0.4,2.3-1.2,4.2-0.3c1.9,0.9,1.9,2,1.9,2s0.6,2-0.4,3.7s-0.7,5-0.7,5
		s0.1,1.2-0.5,1.2c-0.5,0-0.9-1.1-0.9-1.3s-0.6-4.3-3.3-4.8s-3.2,2.1-3.6,3c-0.2,0.6-0.4,2.6-0.4,2.6s-0.1,0.9-0.6,0.9
		c-0.5-0.1-0.6-1.1-0.6-3.4s-0.7-2.6-1.1-4s-0.3-3.7,1.1-4.8C26.1,16.2,27.5,16.7,27.5,16.7z"/>
	<path class="st14" d="M18,27.8c0,0,1.4-0.2,2.4,3.1c1,3.6,4,5.4,4.9,5.6s3.7,0.9,4.1-1.6c0.5-2.5,0.3-1.6,0.3-1.6s0.1,2.7,1.4,3.1
		c1.3,0.4,3.7,0.5,5.3-1.2s2.8-4.8,2.9-5.6c0-0.8,0.4-1.9,2.1-2s1.6,2,1.6,2.6s0,6.9,0,6.9s0.1,1-1.2,1s-24.8,0-24.8,0
		s-0.8-0.2-0.8-0.9s0-8.2,0-8.2S16.4,27.8,18,27.8z"/>
	<circle class="st34" cx="29.4" cy="21" r="0.8"/>
	<circle class="st34" cx="34" cy="24.7" r="0.8"/>
	<circle class="st34" cx="25.9" cy="23.3" r="0.8"/>
</g>
<g id="icon_70" class="st0">
	<path class="st18" d="M39.9,40.8H19.3c-1.1,0-2-0.9-2-2v-14c0-1.1,0.9-2,2-2h20.6c1.1,0,2,0.9,2,2v13.9
		C42,39.9,41.1,40.8,39.9,40.8z"/>
	<path class="st18" d="M28.2,11.3c0.8-0.6,2-0.6,2.8,0l8.7,6.3l5.5,4c1.6,1.1,0.6,3.3-1.4,3.3H29.6H15.4c-2,0-3-2.2-1.4-3.3l5.5-4
		L28.2,11.3z"/>
	<path class="st24" d="M30.4,35.9h-1.7c-0.6,0-1.1-0.5-1.1-1.1v-9.9c0-0.6,0.5-1.1,1.1-1.1h1.7c0.6,0,1.1,0.5,1.1,1.1v9.9
		C31.6,35.4,31.1,35.9,30.4,35.9z"/>
	<path class="st24" d="M35.7,28.9v1.7c0,0.6-0.5,1.1-1.1,1.1h-10c-0.6,0-1.1-0.5-1.1-1.1v-1.7c0-0.6,0.5-1.1,1.1-1.1h10
		C35.2,27.7,35.7,28.2,35.7,28.9z"/>
</g>
<g id="icon_71" class="st0">
	<circle class="st18" cx="25.9" cy="12.9" r="3.3"/>
	<path class="st18" d="M27,26.2v-6.9c0,0-0.5-1.5-1.5-1.7s-1.7-0.1-2.6,0.9c-1,1-4,3.9-4,3.9s-1.5,1.4-0.5,2.7
		c1.1,1.3,3.5,3.8,3.5,3.8s-2.4,7.9-2.6,8.3c-0.2,0.4-0.9,1.7-1.1,1.9s-0.6,1.5,0.6,2.4c1.1,0.9,2.5,0.6,3.1-0.2S25.1,36,26,31
		l5.5-0.1v3.6c0,0-0.1,1.1,0.5,1c0.6,0,3.7-0.1,3.7-0.1s0.4-0.1,0.3-1.4c-0.1-1.4,0-6.1,0-6.1s-0.3-1.6-1.9-1.7
		C32.3,26.2,27,26.2,27,26.2z"/>
	<path class="st18" d="M26.4,42l14-0.1c0,0,0.8-0.2,0.7-1.1c-0.1-0.9-0.3-5.3-5.9-5.6l-4,0.1c0,0-5,0.2-5.7,5.2
		C25.5,41.4,25.7,41.9,26.4,42z"/>
</g>
<g id="icon_72" class="st0">
	<g class="st1">
		<g>
			<g>
				<g>
					<defs>
						<path id="SVGID_22_" d="M18.3,19.6l0.3,9.9c0,0,0.7,5.4,5.3,9.2S29,42,29.3,42s2.8,0,6.5-4.3s4.8-7.2,4.8-9.4s0.4-8.8,0.4-8.8
							s1.2-1.5,1.5-2.1s1.7-4.1-2-6.4S24.3,9.4,23.1,9.5s-4.8-0.1-6.4,4.2c-0.7,1.9-0.2,3.3,0.6,4.4C18,19.3,18.3,19.6,18.3,19.6z"
							/>
					</defs>
					<clipPath id="SVGID_23_">
						<use xlink:href="#SVGID_22_"  style="overflow:visible;"/>
					</clipPath>
					<path class="st69" d="M18.3,19.4l0.3,9.9c0,0,0.7,5.4,5.3,9.2s5.1,3.3,5.4,3.3s2.8,0,6.5-4.3s4.8-7.2,4.8-9.4s0.4-8.8,0.4-8.8
						s1.2-1.5,1.5-2.1c0.2-0.6,1.7-4.1-2-6.4S24.3,9.2,23.1,9.3s-4.8-0.1-6.4,4.2c-0.7,1.9-0.2,3.3,0.6,4.4
						C18,19,18.3,19.4,18.3,19.4z"/>
				</g>
			</g>
		</g>
		<g>
			<g>
				<g>
					<defs>
						<path id="SVGID_24_" d="M18.3,19.6l0.3,9.9c0,0,0.7,5.4,5.3,9.2S29,42,29.3,42s2.8,0,6.5-4.3s4.8-7.2,4.8-9.4s0.4-8.8,0.4-8.8
							s1.2-1.5,1.5-2.1s1.7-4.1-2-6.4S24.3,9.4,23.1,9.5s-4.8-0.1-6.4,4.2c-0.7,1.9-0.2,3.3,0.6,4.4C18,19.3,18.3,19.6,18.3,19.6z"
							/>
					</defs>
					<clipPath id="SVGID_25_">
						<use xlink:href="#SVGID_24_"  style="overflow:visible;"/>
					</clipPath>
					<path class="st70" d="M18.1,20.3c0,0,6.1-3.7,11.2-3.5c5.5,0.2,9.1,1.7,11.6,3.6"/>
				</g>
			</g>
		</g>
	</g>
	<path class="st18" d="M17.4,21.3l-0.1,6.9c0,0-2,0-2.1-2.3s0-3.3,0-3.3S15.6,21.1,17.4,21.3z"/>
	<path class="st18" d="M41.8,21.4l0.1,6.9c0,0,2,0,2.1-2.3s0-3.3,0-3.3S43.6,21.2,41.8,21.4z"/>
	<line class="st22" x1="22.8" y1="21.2" x2="25.9" y2="21.2"/>
	<line class="st22" x1="33.1" y1="21.2" x2="36.1" y2="21.2"/>
	<polyline class="st22" points="28.4,26.8 28.5,31.7 30.8,31.6 	"/>
	<line class="st22" x1="27.5" y1="35.1" x2="31.3" y2="35.1"/>
	<line class="st22" x1="29.4" y1="37.2" x2="29.4" y2="39.9"/>
	<polyline class="st22" points="27.7,38.7 29.4,40.3 31,39 	"/>
	<path class="st22" d="M21.9,23.8c0,0,0.5,2.1,2.4,2.2c1.9,0,2.5-2.1,2.5-2.1"/>
	<path class="st22" d="M32.3,23.8c0,0,0.5,2.1,2.4,2.2c1.9,0,2.5-2.1,2.5-2.1"/>
	<path class="st22" d="M26.3,31.1c0,0-0.3,2.4-3.1,2.7"/>
	<polyline class="st22" points="23.5,32.1 23,33.8 24.3,35 	"/>
	<path class="st22" d="M26,27.8c0,0-1.9,3.2-5.6,1.5"/>
	<polyline class="st22" points="21.2,28.1 20.2,29.1 20.6,30.9 	"/>
	<path class="st22" d="M32.8,30.9c0,0,0.3,2.4,3.1,2.7"/>
	<polyline class="st22" points="35.6,31.9 36,33.6 34.8,34.9 	"/>
	<path class="st22" d="M33,27.7c0,0,1.9,3.2,5.6,1.5"/>
	<polyline class="st22" points="37.8,28 38.8,29.1 38.4,30.9 	"/>
	<line class="st22" x1="39.7" y1="15.6" x2="38.2" y2="18.4"/>
	<line class="st22" x1="34.6" y1="14" x2="33.7" y2="16.9"/>
	<line class="st22" x1="29.4" y1="13.5" x2="29.4" y2="16.5"/>
	<line class="st22" x1="24.4" y1="14" x2="25.3" y2="17"/>
	<line class="st22" x1="19.2" y1="15.9" x2="20.6" y2="18.5"/>
</g>
<g id="icon_73" class="st0">
	<path class="st18" d="M29.7,11.4l12.8,3.7c0,0,1.3,0,1.2,1.7s-0.4,17.3-14,23.5c0,0-13.5-5.2-14.1-23.7c0,0-0.1-1.1,1.3-1.5
		C18.3,14.6,29.7,11.4,29.7,11.4z"/>
	<path class="st24" d="M30.8,31.8h-1.9c-0.8,0-1.4-0.6-1.4-1.4V20.3c0-0.8,0.6-1.4,1.4-1.4h1.9c0.8,0,1.4,0.6,1.4,1.4v10.1
		C32.1,31.2,31.5,31.8,30.8,31.8z"/>
	<path class="st24" d="M36.3,24.3v1.9c0,0.8-0.6,1.4-1.4,1.4H24.8c-0.8,0-1.4-0.6-1.4-1.4v-1.9c0-0.8,0.6-1.4,1.4-1.4h10.1
		C35.7,22.9,36.3,23.5,36.3,24.3z"/>
</g>
<g id="icon_74" class="st0">
	<path class="st18" d="M29.1,9.4c0,0,5.6-0.9,8.9,1.4c3.3,2.1,5.5,4.5,6,7.9s-0.2,7.6-1.8,10.2s-2.6,4.2-2.8,4.6
		c-0.1,0.4-0.9,2.5-0.3,5.3C39.6,41.6,40,42,40,42l-15.4,0.3v-3.2c0,0-4.8,0.1-6-0.9s-1.2-2-0.9-2.7c0.2-0.6,0-0.8,0-0.9
		c0,0-0.6-0.3-0.6-1c0-0.4,0.4-0.5,0.4-0.5s-0.1-0.2-0.2-0.2c-0.1-0.1-0.6-0.2-0.6-0.8c0-0.5,0.3-2.8,0.3-2.8s-1.7-0.2-1.9-1.3
		c-0.1-1.1,0.8-2.4,1.2-2.9c0.4-0.5,2.3-2.7,2.3-2.7S18,17,19.8,14.6S23.3,10.1,29.1,9.4z"/>
	<path class="st32" d="M31.7,21.2c-0.3,0.1,0,2.8,2.6,1.7c1.6-0.7,2-3.7-0.2-4.8c-1.9-1-4.4-1.2-5.6,1.4c-1.3,2.7,0.2,5.1,1.6,6
		s6,2,8-1.7c2-3.8,1-7.6-1.7-8.8c-1.3-0.6-8.6-4-11.5,5"/>
</g>
<g id="icon_75" class="st0">
	<circle class="st18" cx="29.9" cy="20.6" r="9.5"/>
	<polygon class="st18" points="20.9,18.4 17,20.5 22.1,23.6 	"/>
	<path class="st18" d="M15.7,40.4l27.2,0.1c0,0,1.6,0.1,1.2-2.1c-0.4-2.3-1.7-6.5-8.3-6.6c-6.6,0-13.8,0-13.8,0s-6.7,0.1-7.2,7.3
		C14.9,40,15,40.4,15.7,40.4z"/>
	<rect x="25.4" y="19.7" class="st24" width="1.8" height="1.9"/>
	<rect x="28.7" y="19.7" class="st24" width="1.8" height="1.9"/>
	<rect x="32.1" y="19.7" class="st24" width="1.8" height="1.9"/>
</g>
<g id="icon_77" class="st0">
	<path class="st18" d="M30.8,23.8h-2.4V11.9c0-0.7,0.5-1.2,1.2-1.2l0,0c0.7,0,1.2,0.5,1.2,1.2C30.8,11.9,30.8,23.8,30.8,23.8z"/>
	<path class="st18" d="M27.5,25.2c0,0,1.2-0.8,1.7-0.8c0.6,0,1.1-0.1,2.6,0.8l0.3-1.4l-1.6-0.6l-1.8-0.1c0,0-1.2,0.6-1.5,0.7
		C27,24,27.1,25,27.1,25L27.5,25.2z"/>
	<path class="st18" d="M34.2,14.8c0,0,3.2-1.2,7,4.1c3.3,4.7,5,9.5,3.6,17.4c-0.7,3.6-0.8,5-2.6,4.6s-7.4-2.7-7.9-3
		s-2.8-1.4-2.6-5.1c0.2-3.7,0-13.5,0-13.5S32,15.1,34.2,14.8z"/>
	<line class="st22" x1="33.7" y1="25.3" x2="41.5" y2="29.4"/>
	<line class="st22" x1="36" y1="26.1" x2="39.4" y2="23.6"/>
	<line class="st22" x1="37.3" y1="23.3" x2="37.6" y2="24.7"/>
	<line class="st22" x1="40.7" y1="28.8" x2="42" y2="27.5"/>
	<polyline class="st22" points="38.3,28.2 38.4,31 40,32.6 	"/>
	<line class="st22" x1="36.9" y1="32.4" x2="38.4" y2="31"/>
	<path class="st18" d="M25,14.8c0,0-3.2-1.2-7,4.1c-3.3,4.7-5,9.5-3.6,17.4c0.7,3.6,0.8,5,2.6,4.6c1.8-0.4,7.4-2.7,7.9-3
		c0.5-0.4,2.8-1.4,2.6-5.1c-0.2-3.7,0-13.5,0-13.5S27.2,15.2,25,14.8z"/>
	<line class="st22" x1="25.5" y1="25.4" x2="17.7" y2="29.5"/>
	<line class="st22" x1="23.2" y1="26.1" x2="19.8" y2="23.7"/>
	<line class="st22" x1="21.9" y1="23.4" x2="21.6" y2="24.8"/>
	<line class="st22" x1="18.5" y1="28.8" x2="17.2" y2="27.6"/>
	<polyline class="st22" points="20.9,28.3 20.8,31 19.2,32.7 	"/>
	<line class="st22" x1="22.3" y1="32.5" x2="20.8" y2="31"/>
</g>
<g id="icon_78" class="st0">
	<path class="st18" d="M23.2,10.3l12.7-0.1c0,0,1.9,9.2-6.1,9.2C22.8,19.4,23.2,15,23.2,10.3z"/>
	<polygon class="st18" points="24.9,32.4 34.3,32.4 35.8,39.8 37.7,39.8 37.7,41.4 21.3,41.4 21.3,39.5 23.4,39.5 	"/>
	<rect x="25.1" y="26.9" class="st18" width="9.1" height="3.5"/>
	<path class="st18" d="M26.4,20.7c0,0-1.6,0.5-1.4,4.1L23.2,25l0.1,4c0,0-0.9-0.6-1.5-2.4L20,27.2c0,0,1.4,3.1,2.1,3.7l1-0.8
		l-0.7,5.4c0,0-6.5-3.4-6.6-12.5c-0.1-5.4,5.5-9.8,5.5-9.8s0.2,3.1,1.6,4.4c0,0-1.5-0.3-2.8,3.3l1.7,0.8c0,0,0.5-2.3,1.8-3.1
		C23.4,18.6,24.9,20.3,26.4,20.7z"/>
	<path class="st18" d="M32.7,20.7c0,0,1.6,0.5,1.4,4.1l1.8,0.2l-0.1,4c0,0,0.9-0.6,1.5-2.4l1.8,0.6c0,0-1.4,3.1-2.1,3.7l-1-0.8
		l0.8,5.4c0,0,6.5-3.4,6.6-12.5c0.1-5.4-5.5-9.8-5.5-9.8s-0.2,3.1-1.6,4.4c0,0,1.5-0.3,2.8,3.3l-1.7,0.8c0,0-0.5-2.3-1.8-3.1
		C35.6,18.6,34.2,20.3,32.7,20.7z"/>
</g>
<g id="icon_86">
	<path class="st8" d="M5,50H3.2c-0.9,0-1.6-0.7-1.6-1.6V18.6c0-0.9,0.7-1.6,1.6-1.6H5c0.9,0,1.6,0.7,1.6,1.6v29.7
		C6.6,49.3,5.9,50,5,50z"/>
	<rect x="5.5" y="36.3" class="st8" width="52" height="5"/>
	<path class="st8" d="M55.7,50h-1.2c-1.1,0-1.8-0.9-1.8-1.8v-6.8c0-1.1,0.9-1.8,1.8-1.8h1.2c1.1,0,1.8,0.9,1.8,1.8v6.8
		C57.5,49.1,56.6,50,55.7,50z"/>
	<circle class="st8" cx="20.7" cy="16.5" r="5"/>
	<circle class="st8" cx="14.6" cy="28.1" r="5"/>
	<path class="st8" d="M19.9,36.8l8-16.2c0,0,1.1-2.7,4.3-1.4c3.2,1.2,19.6,7.7,19.6,7.7s5.3,2.1,5.5,6.8v6.1L19.9,36.8z"/>
	<path class="st7" d="M49.3,13.1c0,0,1.1-1.6,2.8-1.1c2,0.5,2.1,2.1,2.1,2.1s0.7,4.1-5,7.1c0,0-5.9-2.1-5.5-6.6
		c0.2-1.8,1.6-2.7,2.3-2.7C47.2,11.9,48.4,12,49.3,13.1z"/>
	<path class="st7" d="M45.9,2.4c0,0,0.7-1.2,2.1-0.7c1.4,0.4,1.6,1.6,1.6,1.6s0.5,3-3.7,5.3c0,0-4.5-1.6-4.1-5c0.2-1.4,1.1-2,1.8-2
		C44.3,1.5,45.2,1.5,45.9,2.4z"/>
	<path class="st7" d="M36.9,9.2c0,0,0.7-1.2,2.1-0.7c1.4,0.4,1.6,1.6,1.6,1.6s0.5,3-3.7,5.3c0,0-4.5-1.6-4.1-5c0.2-1.4,1.1-2,1.8-2
		C35.3,8.3,36.1,8.3,36.9,9.2z"/>
</g>
<g id="icon_88" class="st0">
	<path class="st18" d="M18.5,53L18.5,53c-7.6,0-14-6.4-14-14V12.5c0-7.6,6.4-14,14-14l0,0c7.6,0,14,6.4,14,14V39
		C32.5,46.8,26.2,53,18.5,53z"/>
	<rect x="4.5" y="24.5" class="st24" width="28" height="3.4"/>
	<polyline class="st71" points="38.7,19.7 45.7,19.7 39.5,26.2 46.5,26.2 	"/>
	<polyline class="st71" points="46.9,6.5 53.7,6.5 47.6,13.1 54.6,13.1 	"/>
</g>
<g id="icon_89" class="st0">
	<path class="st18" d="M8,6.8l5.1-4.2c1.1-0.9,2.6-0.7,3.5,0.4l10.9,12.8c0.9,1.1,0.7,2.6-0.4,3.5l-5.1,4.2
		c-1.1,0.9-2.6,0.7-3.5-0.4L7.7,10.3C6.8,9.1,7,7.6,8,6.8z"/>
	<path class="st18" d="M7.7-2.4L7.7-2.4c0.7-0.5,1.8-0.5,2.3,0.2l4,4.8c0.5,0.7,0.5,1.8-0.2,2.3l0,0c-0.7,0.5-1.8,0.5-2.3-0.2
		l-4-4.8C7-0.6,7-1.7,7.7-2.4z"/>
	<path class="st18" d="M4.1,0.6L4.1,0.6c0.7-0.5,1.8-0.5,2.3,0.2l4,4.8C11,6.2,11,7.3,10.3,7.8l0,0C9.6,8.4,8.5,8.4,8,7.6L4,2.9
		C3.4,2.4,3.4,1.3,4.1,0.6z"/>
	<path class="st18" d="M39.9,23.5c0,0-0.7,4-6,8.4s-8.4,5.6-11.4,4.4c-3-1.4-4.4-2.3-5.3-3.7c-0.9-1.4-1.9-3.2-2.1-4
		c-0.2-0.7-0.4-1.9,2.1-4c2.5-2.1,5.3-4.4,5.3-4.4l7.9-6.9c0,0,1.4-1.1,3.9,0.5s3,1.9,3.5,2.8c0.7,1.6,2.1,4.4,2.1,4.4
		S40,22.4,39.9,23.5z"/>
	<path class="st72" d="M44.1,26.8c0,0-1.2,15.5-18,14.8"/>
	<path class="st72" d="M50.8,27.9c0,0-3,21.3-24.8,20.2"/>
	<path class="st72" d="M56.4,27.7c0,0-1.6,26-31.2,26.6"/>
</g>
<g id="icon_90" class="st0">
	<circle class="st18" cx="13" cy="29.1" r="6.1"/>
	<path class="st18" d="M3.8,53.4h18.6c0,0,1.7,0.4,1.7-3.1c0.2-3.3,0.2-5.9,0.2-5.9s-0.7-6.3-9.2-6.3c-3.5,0-6.8,0.2-6.8,0.2
		S2,38.7,2,45.3s0,7.2,0,7.2S2.2,53.4,3.8,53.4z"/>
	<circle class="st18" cx="46.8" cy="29.1" r="6.1"/>
	<path class="st18" d="M37.6,53.4h18.6c0,0,1.7,0.4,1.7-3.1C58,47,58,44.4,58,44.4s-0.7-6.3-9.2-6.3c-3.5,0-6.8,0.2-6.8,0.2
		s-6.3,0.4-6.3,7s0,7.2,0,7.2S35.9,53.4,37.6,53.4z"/>
	<ellipse class="st18" cx="29.8" cy="8.1" rx="14.2" ry="10"/>
	<path class="st18" d="M18.2,13.6l-1.5,4.1c0,0-0.6,2.2,0.2,2.4c0.9,0.2,1.8-0.2,2.9-1.1s3.7-2.6,3.7-2.6L18.2,13.6z"/>
	<path class="st18" d="M36.1,16.5l4.8,3.1c0,0,0.9,0.7,1.8,0.4c0.9-0.4,0.2-2.2,0.2-2.6c0-0.4-1.5-4.4-1.5-4.4L36.1,16.5z"/>
	<path class="st24" d="M33.7,5.5h-8.1c-0.6,0-0.9-0.4-0.9-0.9l0,0c0-0.6,0.4-0.9,0.9-0.9h8.1c0.6,0,0.9,0.4,0.9,0.9l0,0
		C34.6,5.1,34.2,5.5,33.7,5.5z"/>
	<path class="st24" d="M35,9H24.3c-0.6,0-0.9-0.4-0.9-0.9l0,0c0-0.6,0.4-0.9,0.9-0.9H35c0.6,0,0.9,0.4,0.9,0.9l0,0
		C35.9,8.6,35.5,9,35,9z"/>
	<path class="st24" d="M33.7,12.1h-8.1c-0.6,0-0.9-0.4-0.9-0.9l0,0c0-0.6,0.4-0.9,0.9-0.9h8.1c0.6,0,0.9,0.4,0.9,0.9l0,0
		C34.6,11.8,34.2,12.1,33.7,12.1z"/>
</g>
<g id="icon_91" class="st0">
	<path class="st18" d="M15.8,54.2L26.6,54c0,0,1.8-3,5.4-2.8c1.8,0,2.4-0.2,2.6-1.8c0-1.8,0.2-3.4,0.2-3.4s-0.2-0.8-2.2-1
		c-2.2-0.2-2.8-1.4-3-1.8L16,39.7c0,0-1.6,1.8-3.8,1.6c-2.2-0.2-3.2-0.8-3.4,1.2S8.3,47,8.3,47s-0.8,2,2.6,2.6
		c3.4,0.6,3.8,1.6,3.6,2.8C14.2,53.6,15,54.2,15.8,54.2z"/>
	<path class="st18" d="M16.6,36.7l13.7,3c0,0,1.2-0.8,2.4-0.4c1.2,0.4,3.8,0.6,4-0.4c0.2-1,0.8-3.8,0.8-3.8s-0.2-1.4-1.4-1.6
		c-1.2-0.2-2.6-0.6-3-2.4l-13.1-6c0,0-1,1.6-2.8,1c-1.6-0.6-4-1.6-4.6,0.4c-0.6,1.8-1.4,4.8-1.4,4.8s-0.2,2.2,1.8,2.2
		C14.6,33.5,16.4,34.7,16.6,36.7z"/>
	<path class="st18" d="M21.4,22.2l12.5,5.4c0,0,1.4,0,2.2,0.2c0.8,0,2.4,1,2.8,1.2s1.8-0.2,2.4-1.2c0.6-1,1.6-2.4,1.6-2.4
		s0.4-1.2-0.8-2.2s-2.4-1.2-3-3.4s-10.7-8.1-10.7-8.1s-2.2,1.2-4,0.2c-1.8-1-2.4-2.2-3.6-0.6c-1.2,1.6-3.2,4.4-3.2,4.4
		s-0.8,1.8,0.8,2.8C20,19.4,21.8,19.8,21.4,22.2z"/>
	<path class="st18" d="M29.9,8.6l10.9,8.1c0,0,2.4,0.2,3.6,1.4s2.2,1.4,3.4,0.4c1.2-1,3-3.2,3-3.2s0.6-1.2-0.6-2.6
		c-1.2-1.4-3-2.4-1.8-5c0.4-0.8,0-1.2-0.4-1.4c-0.4-0.2-6.8-6.2-6.8-6.2s-1.2-1.2-3.2-0.4s-4.2-2.2-4.2-2.2s-1-0.8-2.2,0.2
		c-1.2,1-4.2,4-4.2,4s-1,1.2,0.2,2.6c1.2,1.4,2.6,1.8,2.4,4C29.9,8.6,29.9,8.6,29.9,8.6z"/>
	<path class="st24" d="M24.4,48.4l-6.4-1c-1-0.2-1.8-1.2-1.6-2.2l0,0c0.2-1,1.2-1.8,2.2-1.6l6.4,1c1,0.2,1.8,1.2,1.6,2.2l0,0
		C26.6,47.8,25.6,48.6,24.4,48.4z"/>
	<path class="st24" d="M27,35.3l-6.2-1.8c-1-0.4-1.6-1.4-1.4-2.4l0,0c0.4-1,1.4-1.6,2.4-1.4l6.2,1.8c1,0.4,1.6,1.4,1.4,2.4l0,0
		C29.1,35.1,28.2,35.7,27,35.3z"/>
	<path class="st24" d="M39.9,12.4L35.1,8c-0.8-0.8-0.8-2-0.2-2.8l0,0c0.8-0.8,2-0.8,2.8-0.2l4.8,4.4c0.8,0.8,0.8,2,0.2,2.8l0,0
		C41.9,13.2,40.7,13.2,39.9,12.4z"/>
	<path class="st24" d="M31.7,23.8l-5.6-3.2c-1-0.6-1.2-1.8-0.8-2.8l0,0c0.6-1,1.8-1.2,2.8-0.8l5.6,3.2c1,0.6,1.2,1.8,0.8,2.8l0,0
		C33.9,24,32.7,24.3,31.7,23.8z"/>
</g>
<g id="icon_92" class="st0">
	<ellipse class="st18" cx="29.6" cy="25.8" rx="28" ry="28.4"/>
	<path class="st24" d="M11.6,8.4c0,0,5.5-4.5,10.6-2.4s7.3,7.3,4.7,13s-10.4,5.3-11.8,4.7C13.6,23,4,18.1,11.6,8.4z"/>
	<path class="st24" d="M8.9,28.5c0,0,8.3-7.5,15.8,2.2c4.9,6.5-2,13.2-3.5,13.6c-2,0.4-9.3,2-13-5.1C5.1,34.4,7.5,29.5,8.9,28.5z"/>
	<path class="st24" d="M34.5,22.2c0,0,15.4-0.2,16.3,0c1.2,0.2,3.2,1.8,2,5.7s-6.3,8.9-11.2,8.3c-5.1-0.6-10-6.5-9.8-11
		C31.9,23,33.1,22.2,34.5,22.2z"/>
	<path class="st24" d="M34.5,20.6c0,0,15.4,0.2,16.3,0c1-0.2,3.2-1.8,2-5.7c-1-3.7-6.3-8.9-11.2-8.3c-5.1,0.6-10,6.5-9.8,11
		C32.1,19.9,33.3,20.6,34.5,20.6z"/>
	<circle class="st24" cx="27.2" cy="2.7" r="2.2"/>
	<circle class="st24" cx="5.9" cy="23.2" r="2.2"/>
	<circle class="st24" cx="35.1" cy="42.9" r="2.2"/>
	<circle class="st24" cx="46.5" cy="38.8" r="2"/>
	<circle class="st24" cx="29.2" cy="48.6" r="2.2"/>
	<circle class="st18" cx="18.5" cy="13.6" r="3"/>
	<circle class="st18" cx="16.6" cy="34" r="3"/>
	<path class="st20" d="M38.6,21c0,0-0.6-6.9,3.5-7.5s4.5,4.1,4.5,7.3s0.6,7.1-1.6,8.5c-2.6,1.8-6.5,0.6-6.5-3.7
		C38.6,21.4,38.6,21,38.6,21z"/>
</g>
<g id="icon_93" class="st0">
	<g class="st1">
		<g>
			<circle id="SVGID_26_" class="st8" cx="29.6" cy="25.8" r="27.8"/>
		</g>
		<g>
			<g>
				<defs>
					<circle id="SVGID_27_" cx="29.6" cy="25.8" r="27.8"/>
				</defs>
				<clipPath id="SVGID_28_">
					<use xlink:href="#SVGID_27_"  style="overflow:visible;"/>
				</clipPath>
				<line class="st73" x1="47.3" y1="3.7" x2="10.9" y2="47.3"/>
			</g>
		</g>
	</g>
	<path class="st74" d="M19.5,34.2l1.5,6.2h17l1.5-5.7c0,0,5.7-4.6,5.8-9.5c0-5.8-2.2-11.9-8.4-15.2c-6.8-3.7-14.6-1.6-18.6,2.6
		C15.5,15.2,10,25.4,19.5,34.2z"/>
	<rect x="19.7" y="20.8" class="st24" width="3.3" height="6.9"/>
	<rect x="35.6" y="20.8" class="st24" width="3.3" height="6.9"/>
	<rect x="27.7" y="27.6" class="st24" width="3.3" height="3.3"/>
	<rect x="24.6" y="36" class="st24" width="3.1" height="4.9"/>
	<rect x="31" y="36" class="st24" width="3.1" height="4.9"/>
</g>
<g id="icon_94" class="st0">
	<path class="st18" d="M10.7-2.2h37.1c0,0,3.4-0.2,3.4,3.4c0,4.6,1.2,12.4,1.6,13.8c0.4,1.4,1.6,12.5,1.6,19.4s3.2,9.7,3.4,14
		C57.9,52.6,59,54,56,54S2.6,54,2.6,54s-2.5-0.2-1.4-5.8c1.2-5.7,3-8.1,3.5-15.4C5.1,28.9,4.5,18.6,6.1,14C7.7,9.3,8.1,1.3,8.1,0.4
		C8.2-0.6,8.2-2.2,10.7-2.2z"/>
	<path class="st75" d="M30.3,3.2h-1.8c-0.9,0-1.6-0.7-1.6-1.6l0,0c0-0.9,0.7-1.6,1.6-1.6h1.8c0.9,0,1.6,0.7,1.6,1.6l0,0
		C31.9,2.5,31.2,3.2,30.3,3.2z"/>
	<rect x="28" y="42.5" class="st75" width="3.4" height="11.3"/>
	<path class="st76" d="M36.3,28.9l-2.7,2.8v7.6c0,0,0.2,3.9-3.5,3.9c-3.4,0-4.6-1.8-4.6-3.2s0-8.8,0-8.8l-2.5-2.3"/>
</g>
<g id="icon_95" class="st0">
	<path class="st18" d="M15.9-1.5l12.5-0.4c0,0,2.8-0.6,2.2,3.7s-3.4,29.3-3.5,30.8c-0.2,1.5,0,7.1,4.5,8.6
		c4.5,1.5,16.4,6.7,15.1,9.3c-1.3,2.6-3.9,3.2-6.5,2.4c-2.8-0.6-13.1-4.1-21.5-1.5c-4.1,1.3-6.5-2.6-6.3-4.9
		c0.2-2.1,2.8-5.6,3.2-7.3c0.2-1.7,0.6-4.3-0.4-9C14.2,26,11.6,9.4,12.5,4.1C13.5-0.9,13.7-1.5,15.9-1.5z"/>
	<path class="st22" d="M22.6,4.7c0,0-5.2,4.7-4.5,14c0.7,9.3,3.9,9,3.7,18.3c-0.2,6.2-0.9,8.8-0.9,8.8"/>
	<path class="st22" d="M22.3,39.2c0,0,2.2,5.8,5,7.8"/>
	<path class="st22" d="M20,9.5c0,0,3.4,3.5,3.4,8s1.9,7.5,1.9,7.5"/>
	<path class="st22" d="M14.4,11c0,0,0.7,6.2,3.5,9"/>
	<path class="st77" d="M19.8,26.7c0,0-0.7,4.5-1.3,6.7"/>
	<path class="st78" d="M24.5,43c0,0,8.2,0.7,11.2,2.8"/>
	<path class="st77" d="M31.4,44.8c0,0-0.2,3.2,2.6,4.5"/>
	<path class="st77" d="M35.1,45.6c0,0,0.4,2.6,2.6,2.6"/>
</g>
<g id="icon_96" class="st0">
	<path class="st18" d="M10.5-2.2h37.2c0,0,3.6-0.4,2.5,3.3c-0.4,1-0.8,10.7,1.9,16.7s5.4,14.4,2.3,29.5c-1.1,5.7-1.5,6.1-4.6,6.3
		c-3.1,0-41.8,0-41.8,0S5.7,54.2,5,50.5S1.1,29.6,5,20.1c1.3-3.4,2.7-9.4,2.9-13.6S7.7-0.8,7.7-0.8S7.8-2.2,10.5-2.2z"/>
	<path class="st32" d="M24.9,28.1c0,0-0.8,19.3,4,19.3s4.4-19,4.4-19"/>
	<path class="st32" d="M41,35.6c0,0-2.1,5.7-7.9,5.2"/>
	<rect x="27.6" y="46.7" class="st24" width="2.7" height="6.9"/>
	<circle class="st17" cx="25.7" cy="40.7" r="3.3"/>
	<circle class="st17" cx="32.9" cy="35.2" r="4.4"/>
	<circle class="st79" cx="32.7" cy="35.4" r="2.3"/>
</g>
<g id="icon_97" class="st0">
	<path class="st18" d="M6.9,48.2L6.9,48.2c-6.3-6.3-6.1-16.3,0-22.6L29.7,2.9c6.3-6.3,16.3-6.1,22.6,0l0,0c6.3,6.3,6.1,16.3,0,22.6
		L29.5,48.2C23.2,54.4,13,54.2,6.9,48.2z"/>
	
		<rect x="26.9" y="9.6" transform="matrix(0.7098 -0.7044 0.7044 0.7098 -9.4312 28.2052)" class="st24" width="5.3" height="31.9"/>
	<path class="st80" d="M26.9,39.6c0,0,1,13.5,12.9,13.7c12,0.2,13.5-11,13.3-13.7c0,0,0.6-1.5-1.5-1.5c-1.9,0-6.5,1.3-8,3.4
		l-5.7,2.9l-2.1-3.8c0,0-3-2.3-7.4-2.5C28.6,37.9,26.9,37.5,26.9,39.6z"/>
	<path class="st40" d="M40.5,33.1c0,0,9.7,8.6,0.4,19.2c0,0-1,1-1.7,0.2c-0.8-0.8-8.7-9.9-0.4-19.2C38.8,33.3,39.6,32.2,40.5,33.1z"
		/>
</g>
<g id="icon_98" class="st0">
	<circle class="st18" cx="29.3" cy="4.4" r="6.8"/>
	<path class="st18" d="M14.4,44.6l10-3.9l-11.8-4.2c0,0-3.1-0.9-4.1,1.7c-1.1,3,1.5,4.4,1.8,4.6C10.9,43.1,14.4,44.6,14.4,44.6z"/>
	<path class="st18" d="M35.4,51.8l7.7-3.1c0,0,1.5,3.3-0.6,4.4C40.8,54.4,38.7,54,35.4,51.8z"/>
	<path class="st18" d="M49.3,42.6L19.4,53.7c-1.7,0.6-3.5-0.2-4.2-1.8v-0.2c-0.6-1.7,0.2-3.5,1.8-4.2l29.9-11.1
		c1.7-0.6,3.5,0.2,4.2,1.8v0.2C51.6,40.2,50.9,42,49.3,42.6z"/>
	<path class="st18" d="M22.3,23.4l0.2,12.7l7.2,3l7-3V23.2l3.9,7.4c0,0,1.1,2.4,2.8,2.4c1.7,0,12.4-0.2,12.4-0.2s2.6-0.2,2.4-3.5
		c0-3.5-3.3-3.3-3.3-3.3l-8.7,0.2l-5.7-11.8c0,0-0.9-2.8-4.6-2.8s-12.9,0.2-12.9,0.2s-2.8,0-4.2,3.3c-1.3,3.3-5.2,10.7-5.2,10.7h-10
		c0,0-2.2,0-2.4,3.3s2.4,3.7,3.3,3.7c0.7,0,11.1-0.2,11.1-0.2s2.2,0,3.5-2.6C20.1,27.5,22.3,23.4,22.3,23.4z"/>
</g>
</svg>
