<?xml version="1.0" encoding="utf-8"?>
<!-- Generator: Adobe Illustrator 23.0.1, SVG Export Plug-In . SVG Version: 6.00 Build 0)  -->
<svg version="1.1" id="Layer_1" xmlns="http://www.w3.org/2000/svg" xmlns:xlink="http://www.w3.org/1999/xlink" x="0px" y="0px"
	 viewBox="0 0 60 52.9" style="enable-background:new 0 0 60 52.9;" xml:space="preserve">
<style type="text/css">
	.st0{display:none;}
	.st1{display:inline;}
	.st2{fill:#FDD7AD;stroke:#ED6D63;stroke-linecap:round;stroke-miterlimit:10;}
	.st3{fill:#FDB8AD;}
	.st4{fill:none;stroke:#ED6D63;stroke-miterlimit:10;}
	.st5{fill:none;stroke:#ED6D63;stroke-linecap:round;stroke-miterlimit:10;}
	.st6{fill:none;stroke:#1341A3;stroke-miterlimit:10;}
	.st7{fill:#EF5361;}
	.st8{fill:#1341A3;}
	.st9{fill:#E4E8F1;}
	.st10{fill:#FDD7AD;stroke:#ED6D63;stroke-miterlimit:10;}
	.st11{fill:none;stroke:#1341A3;stroke-width:1.5;stroke-miterlimit:10;}
	.st12{fill:#65B54E;}
	.st13{fill:#477F37;}
	.st14{display:inline;fill:#ED6D63;}
	.st15{display:inline;fill:#FFD3DD;}
	
		.st16{clip-path:url(#SVGID_4_);fill:none;stroke:#E4E8F1;stroke-width:2;stroke-linecap:round;stroke-linejoin:round;stroke-miterlimit:10;}
	.st17{display:inline;fill:#EF5361;}
	.st18{display:inline;fill:#1341A3;}
	.st19{display:inline;fill:none;stroke:#1341A3;stroke-width:2;stroke-linecap:round;stroke-miterlimit:10;}
	.st20{display:inline;fill:none;stroke:#1341A3;stroke-width:1.5;stroke-miterlimit:10;}
	.st21{clip-path:url(#SVGID_7_);fill:#EF5361;}
	.st22{display:inline;fill:none;stroke:#E4E8F1;stroke-linecap:round;stroke-miterlimit:10;}
	
		.st23{clip-path:url(#SVGID_9_);fill:none;stroke:#E4E8F1;stroke-width:2;stroke-linecap:round;stroke-linejoin:round;stroke-miterlimit:10;}
	.st24{display:inline;fill:#E4E8F1;}
	.st25{clip-path:url(#SVGID_13_);fill:#0F367C;}
	.st26{clip-path:url(#SVGID_15_);fill:#5CA547;}
	.st27{display:inline;fill:#FDD7AD;stroke:#ED6D63;stroke-linecap:round;stroke-linejoin:round;stroke-miterlimit:10;}
	.st28{display:inline;fill:none;stroke:#ED6D63;stroke-linecap:round;stroke-miterlimit:10;}
	.st29{display:inline;fill:#FDD7AD;stroke:#FF736C;stroke-linecap:round;stroke-linejoin:round;stroke-miterlimit:10;}
	.st30{display:inline;fill:none;stroke:#FF736C;stroke-linecap:round;stroke-linejoin:round;stroke-miterlimit:10;}
	.st31{display:inline;fill:none;stroke:#FF736C;stroke-linecap:round;stroke-miterlimit:10;}
	.st32{display:inline;fill:none;stroke:#E4E8F1;stroke-width:1.5;stroke-linecap:round;stroke-miterlimit:10;}
	.st33{display:inline;fill:none;stroke:#1341A3;stroke-width:2.5;stroke-miterlimit:10;}
	.st34{display:inline;fill:#89D7F4;}
	.st35{fill:#ED6D63;}
	.st36{clip-path:url(#SVGID_18_);fill:#FDD7AD;}
	.st37{display:inline;fill:#3A3A3A;}
	.st38{display:inline;fill:none;stroke:#1341A3;stroke-miterlimit:10;}
	.st39{display:inline;fill:#C1434E;}
	.st40{display:inline;fill:#65B54E;}
	.st41{display:inline;fill:none;stroke:#559842;stroke-width:0.5;stroke-linecap:round;stroke-miterlimit:10;}
	.st42{fill:none;stroke:#E4E8F1;stroke-linecap:round;stroke-miterlimit:10;stroke-dasharray:2.0138,2.0138;}
	.st43{display:inline;fill:none;stroke:#E4E8F1;stroke-width:2;stroke-linecap:round;stroke-miterlimit:10;}
	.st44{fill:#FDD7AD;stroke:#ED6D63;stroke-linecap:round;stroke-linejoin:round;stroke-miterlimit:10;}
	.st45{display:inline;fill:none;stroke:#EF5361;stroke-width:3;stroke-miterlimit:10;}
	.st46{display:inline;fill:none;stroke:#1341A3;stroke-width:4;stroke-miterlimit:10;}
	.st47{display:inline;fill:none;stroke:#1341A3;stroke-width:3;stroke-miterlimit:10;}
	.st48{display:inline;fill:none;stroke:#E4E8F1;stroke-width:1.2;stroke-miterlimit:10;}
	.st49{display:inline;fill:none;stroke:#E4E8F1;stroke-width:1.2;stroke-linecap:round;stroke-miterlimit:10;}
	.st50{display:inline;fill:#1341A3;stroke:#E4E8F1;stroke-width:2;stroke-miterlimit:10;}
	.st51{display:inline;fill:none;stroke:#1341A3;stroke-width:2.5;stroke-linecap:round;stroke-miterlimit:10;}
	.st52{fill:#FF9289;stroke:#ED6D63;stroke-width:1.2;stroke-miterlimit:10;}
	.st53{fill:none;stroke:#ED6D63;stroke-width:1.2;stroke-linecap:round;stroke-miterlimit:10;}
	.st54{fill:#FF9289;stroke:#ED6D63;stroke-miterlimit:10;}
	.st55{display:inline;fill:#FF9289;stroke:#ED6D63;stroke-width:2;stroke-miterlimit:10;}
	.st56{display:inline;fill:none;stroke:#ED6D63;stroke-width:2;stroke-linecap:round;stroke-miterlimit:10;}
	.st57{display:inline;fill:none;stroke:#E4E8F1;stroke-width:2;stroke-miterlimit:10;}
	.st58{display:inline;fill:none;stroke:#E4E8F1;stroke-width:2;stroke-linejoin:round;stroke-miterlimit:10;}
	.st59{display:inline;fill:none;stroke:#1341A3;stroke-width:2;stroke-miterlimit:10;}
	.st60{font-family:'Montserrat-Bold';}
	.st61{font-size:8.4097px;}
	.st62{font-size:6.761px;}
	.st63{font-size:5.5917px;}
	.st64{font-size:4.6914px;}
	.st65{display:inline;fill:none;stroke:#1341A3;stroke-width:1.5;stroke-linecap:round;stroke-miterlimit:10;}
	.st66{display:inline;clip-path:url(#SVGID_21_);fill:#EF5361;}
	.st67{display:inline;fill:none;stroke:#E4E8F1;stroke-width:2;stroke-linecap:round;stroke-linejoin:round;stroke-miterlimit:10;}
	.st68{clip-path:url(#SVGID_23_);fill:none;stroke:#E4E8F1;stroke-width:1.5;stroke-linecap:round;stroke-miterlimit:10;}
	
		.st69{display:inline;fill:none;stroke:#1341A3;stroke-width:1.5;stroke-linecap:round;stroke-linejoin:round;stroke-miterlimit:10;}
	.st70{display:inline;fill:#1341A3;stroke:#89D7F4;stroke-width:2;stroke-miterlimit:10;}
	.st71{fill:#89D7F4;}
	.st72{clip-path:url(#SVGID_25_);fill:#1341A3;}
	.st73{clip-path:url(#SVGID_28_);fill:none;stroke:#E4E8F1;stroke-linecap:round;stroke-miterlimit:10;}
	
		.st74{display:inline;fill:none;stroke:#1341A3;stroke-width:2.5;stroke-linecap:round;stroke-linejoin:round;stroke-miterlimit:10;}
	.st75{clip-path:url(#SVGID_30_);fill:none;stroke:#E4E8F1;stroke-width:3;stroke-miterlimit:10;}
	.st76{display:inline;fill:#1341A3;stroke:#E4E8F1;stroke-width:2.5;stroke-miterlimit:10;}
	.st77{display:inline;fill:#E6EAF2;}
	.st78{display:inline;fill:none;stroke:#E6EAF2;stroke-width:1.5;stroke-linecap:round;stroke-miterlimit:10;}
	.st79{display:inline;fill:none;stroke:#E4E8F1;stroke-width:0.5;stroke-linecap:round;stroke-miterlimit:10;}
	.st80{display:inline;fill:none;stroke:#E4E8F1;stroke-width:0.8;stroke-linecap:round;stroke-miterlimit:10;}
	.st81{display:inline;fill:#D84B58;}
	.st82{display:inline;fill:#579B43;}
</style>
<g id="icon_1" class="st0">
	<g class="st1">
		<path class="st2" d="M21.7,19.8c0.4,0.1,0.8-0.2,0.8-0.6v-7.1c0,0,0-2.7,3.4-2.1c0.3,0.1,0.6-0.1,0.7-0.4c0.2-0.6,0.9-1.5,2.9-1.5
			c1.2,0,1.7,0.7,1.9,1.3c0.1,0.3,0.5,0.5,0.8,0.4c0.7-0.2,1.7-0.4,2.3,0.3c0.8,0.8,0.9,1.5,1,2.3c0,0.4,0.3,0.6,0.7,0.6
			c1.2-0.1,3.3-0.1,3.3,2.1v14c0,0,0,3.6-1.7,4.8c-0.2,0.1-0.3,0.3-0.3,0.6v10c0,0.4-0.3,0.7-0.7,0.7H26.1c-0.4,0-0.6-0.3-0.6-0.7
			v-9.8c0-0.3-0.2-0.5-0.5-0.6c-0.8-0.3-2.9-1.7-6.5-9l0,0c-0.1-0.1-2-4,0-5C19.7,19.5,20.9,19.6,21.7,19.8z"/>
		<path class="st3" d="M39,28.6c0,0-1,0-1-1s0-3-3-3s-3,2-3,2s0,1-1,2s-2,3-1,4s4,1,5,2s2,1,2,1v-1l0,0c1.3-1.3,2-3,2-4.8v-0.2V28.6
			z"/>
		<path class="st4" d="M31.5,10.1"/>
		<line class="st5" x1="31.5" y1="22.1" x2="31.5" y2="10.1"/>
		<line class="st5" x1="35.5" y1="23.1" x2="35.5" y2="13.1"/>
		<line class="st5" x1="26.5" y1="22.1" x2="26.5" y2="10.1"/>
		<line class="st5" x1="22.5" y1="25.1" x2="22.5" y2="13.1"/>
		<circle class="st3" cx="25" cy="27.6" r="0.5"/>
		<circle class="st3" cx="25.5" cy="26.1" r="0.5"/>
		<circle class="st3" cx="30.5" cy="25.1" r="0.5"/>
		<circle class="st3" cx="30" cy="27.6" r="1"/>
		<circle class="st3" cx="25.5" cy="31.1" r="1.5"/>
		<circle class="st3" cx="28.5" cy="31.1" r="0.5"/>
		<circle class="st3" cx="28.5" cy="34.1" r="0.5"/>
		<circle class="st3" cx="28.5" cy="37.1" r="0.5"/>
		<circle class="st3" cx="31.5" cy="38.1" r="0.5"/>
		<circle class="st3" cx="35" cy="36.6" r="1"/>
		<circle class="st3" cx="28" cy="40.6" r="2"/>
		<circle class="st3" cx="34.5" cy="42.1" r="0.5"/>
	</g>
</g>
<g id="icon_2" class="st0">
	<g class="st1">
		<path class="st6" d="M37.5,18.6c0,0-4.3,0.5-4.6,3.5s-0.3,7.2-0.3,7.2l-2.2,0.2l0.3-6.7l0,0c0-0.2-0.2-3.7,2.8-5.6
			c1.7-1.1,4.4-1.1,4.4-1.1"/>
		<path class="st6" d="M22.1,16.1c0,0,3.6,0.9,5.3,2.9c1.3,1.5,1.2,3.5,1.2,5.8c0,1.6,0,3,0,4.7h-1.9v-6.3c0,0,0.2-2.3-2.2-3.7
			c-0.8-0.5-2.3-1-4.2-0.9"/>
		<path class="st7" d="M38.6,11.6c0,0,2.5-1,4.2,0.6c1.3,1.2,2.5,2.9,2.5,7.1s-3,5.4-3.6,5.7c-0.2,0.1-3.8,1.1-4.9-2.3
			c-0.5-1.5,0.2-4.6,0.2-4.6s0.1-0.9-0.3-2.1C36.1,14.7,36.4,12.5,38.6,11.6z"/>
		<path class="st7" d="M26.2,28.3h7c0,0,2.7,0.3,2.6,3.4S34,35.8,34,35.8s-1.8,1.4-2,3.3c-0.2,1.8-0.2,2.9-0.2,2.9h-4
			c0,0,0-2.3-0.1-2.9s-1-2.6-1.8-3.5c-0.4-0.4-2.1-2-1.9-4.5C24.1,29.4,26.2,28.3,26.2,28.3z"/>
		<path class="st7" d="M21.1,11.6c0,0-2.5-1-4.2,0.6c-1.4,1.2-2.5,2.9-2.5,7.1s3,5.4,3.6,5.7c0.1,0.1,3.8,1.1,4.9-2.3
			c0.5-1.5-0.1-4.6-0.1-4.6s-0.1-0.9,0.4-2.1C23.6,14.7,23.2,12.5,21.1,11.6z"/>
	</g>
</g>
<g id="icon_3" class="st0">
	<g class="st1">
		<rect x="19.6" y="21" transform="matrix(0.6787 -0.7344 0.7344 0.6787 -8.3085 31.0346)" class="st8" width="23.5" height="8.1"/>
		
			<rect x="21.2" y="32.7" transform="matrix(0.6787 -0.7344 0.7344 0.6787 -18.1703 27.5941)" class="st8" width="2.6" height="3.8"/>
		<path class="st8" d="M22.1,35.1L22.1,35.1c0.2,0.2,0.2,0.4,0,0.6l-6.3,6.8c-0.1,0.2-0.4,0.2-0.6,0l0,0c-0.2-0.2-0.2-0.4,0-0.6
			l6.3-6.8C21.6,34.9,21.9,34.9,22.1,35.1z"/>
		<path class="st8" d="M43.6,20.2l-8.4-7.8c-0.3-0.2-0.3-0.6,0-0.9l0,0c0.2-0.3,0.7-0.3,0.9,0l8.4,7.7c0.3,0.2,0.3,0.6,0,0.9l0,0
			C44.2,20.4,43.8,20.4,43.6,20.2z"/>
		<path class="st8" d="M45,16l-5.8-5.4c-0.3-0.3-0.3-0.7,0-1l0,0c0.3-0.3,0.7-0.3,1,0l5.9,5.4c0.3,0.3,0.3,0.7,0,1l0,0
			C45.8,16.3,45.3,16.3,45,16z"/>
		<rect x="40.5" y="12.1" transform="matrix(0.6787 -0.7344 0.7344 0.6787 3.2629 34.9744)" class="st8" width="2.3" height="3.4"/>
		<path class="st9" d="M35.4,18.3l-1.8-1.7l0.7-0.7l1.8,1.7c0.2,0.2,0.2,0.5,0,0.7l0,0C35.9,18.5,35.6,18.5,35.4,18.3z"/>
		<path class="st9" d="M33.2,20.7L31.3,19l0.6-0.7l1.8,1.7c0.2,0.2,0.2,0.5,0,0.7l0,0C33.7,20.9,33.4,20.9,33.2,20.7z"/>
		<path class="st9" d="M31,23.1l-1.9-1.7l0.6-0.7l1.9,1.7c0.2,0.2,0.2,0.5,0,0.7l0,0C31.5,23.3,31.2,23.3,31,23.1z"/>
		<path class="st9" d="M28.8,25.5l-1.9-1.7l0.6-0.7l1.9,1.7c0.2,0.2,0.2,0.5,0,0.7l0,0C29.3,25.7,29,25.7,28.8,25.5z"/>
		<path class="st9" d="M26.5,28l-1.9-1.7l0.6-0.7l1.9,1.7c0.2,0.2,0.2,0.5,0,0.7l0,0C27,28.1,26.7,28.1,26.5,28z"/>
		<path class="st9" d="M24.3,30.4l-1.9-1.7L23,28l1.9,1.7c0.2,0.2,0.2,0.5,0,0.7l0,0C24.8,30.5,24.5,30.6,24.3,30.4z"/>
	</g>
</g>
<g id="icon_4" class="st0">
	<g class="st1">
		<path class="st10" d="M25.1,11c0,0,1.3,0.1,2,0.1c1.1,0.1,7.9,0.8,8.3,8.5c0.4,7.2-3.3,9.4-4.4,10.9c-0.8,1-1.5,2-1,5
			c0.6,3.6-1.8,6.5-4.5,7s-8,0.3-8.8-5.5c-0.8-5.7-1.3-11.6-1.6-13.9c-0.4-3.2-0.1-8,3.6-10.4C21.7,10.7,24.6,11,25.1,11z"/>
		<path class="st4" d="M28.2,25.6c0,0,4.9-7.4-0.9-9.5c-4.4-1.6-6.6,0.6-7.6,3.1c-0.2,0.5-0.6,2-0.7,3.9c-0.2,2.5-0.1,5.9,1.3,8.6
			c2.5,4.9,5.1,2.1,5.1,2.1s2.4-2.9,0.6-7s-6.7-3.7-6.7-3.7"/>
		<line class="st11" x1="40.3" y1="18.9" x2="46.4" y2="15.6"/>
		<line class="st11" x1="42.3" y1="26.7" x2="50.3" y2="26.7"/>
		<line class="st11" x1="40.3" y1="33.8" x2="47" y2="37.5"/>
	</g>
</g>
<g id="icon_5" class="st0">
	<g class="st1">
		<path class="st8" d="M11.2,30.8l4.7,8.7L14,40.7c0,0-0.9,0.7-1.4-0.3c-0.5-0.9-3.9-7-3.9-7S8.2,32.8,9,32.2
			C9.8,31.7,11.2,30.8,11.2,30.8z"/>
		<path class="st8" d="M17.4,38.6l2.7-1.5l11.4,2.3c0,0,3.6,0.8,5.8,0s13-5.5,13-5.5s1.8-0.5,1.1-2.3c-0.7-1.7-2.5-1.1-2.5-1.1
			l-8.4,3.6c-0.1,0-0.2,0-0.2,0.1c-0.9,0.4-2.9,0.2-4.8,0c-2.1-0.1-7.2-0.4-7.2-0.4s-0.5,0-0.5-0.6c0.1-0.6,1.7-0.4,1.7-0.4l8.4,0.4
			c0,0,0.2,0,0.5-0.1c0.5-0.2,1.3-0.8,1.1-1.9c-0.2-1.6-1.2-2.1-2.7-2.1s-7.9-1.3-9.3-1.9c-1.3-0.5-3.6-1.7-5.9-1.4
			c-2.2,0.3-3.8,0.9-5.6,2c-1.9,1.1-3.4,2.1-3.4,2.1L17.4,38.6z"/>
		<path class="st8" d="M41,30.7v1.7l7.2-2.7c0,0-0.6-1-2.4-0.5C43.9,29.6,41,30.7,41,30.7z"/>
		<path class="st8" d="M40.5,29.5l4.5-1.3c0,0-0.7-0.6-2.9-0.2s-2.5,0.5-2.5,0.5L40.5,29.5z"/>
		<path class="st12" d="M29.6,26.6c0,0,6.6,0.3,9.5-3.3s3.4-6.8,2.8-10.8c0,0-3.7-1.3-8.5,1c-2.4,1.2-6.1,3.9-5.8,11.4l3.8-2
			L29.6,26.6z"/>
		<path class="st12" d="M31.5,13.3c0,0-4.3,2.1-4.8,7.1c0,0-3-1.8-1.9-8.1C24.8,12.3,29.1,11.6,31.5,13.3z"/>
		<polygon class="st13" points="30.5,24.6 33.1,21.9 36.2,21.2 33.8,21.2 37.1,17.5 38.2,17.1 37.4,17.1 39.7,14.6 38.3,15.8 
			38.2,15.4 38,16 35,18.8 34.8,17.5 34.4,19.2 29.6,23.8 31.4,22.8 		"/>
	</g>
</g>
<g id="icon_6" class="st0">
	<path class="st14" d="M22,14.6c0,0,0.5,4.1,5.7,3.9c0,0,0.5-4.3,3.8-5.2c3.3-0.9,9,0.6,11.4,4.1c2.4,3.4,4.7,8.3-0.7,17.6
		c-4.1,7.2-15.8,8.8-18.1,5.3c-0.5-0.8-0.4-1.8-0.4-1.8S22,39,21.8,40.6c-0.2,1.5-0.6,1.6-0.9,1.6c-0.4,0-3.8,0-3.8,0
		s-0.8-0.4-0.6-1.5c0.2-1.2,1.4-6.9,6.8-7.3c3.1-0.3,3.9,0,4-3c0.1-2.6,0-6.4,0-6.4s-5.3,0.5-7.9-2.7s-2.9-7.1-2.9-7.1s0-1,0.9-1
		s3.7,0,3.7,0s0.6,0.1,0.7,1L22,14.6z"/>
	<path class="st15" d="M32.2,28.6c0,0,3.5,0.6,5.7-0.3c2.1-1,2.9-1.7,3.8-1.4c0.9,0.4,1.3,1.4,0.9,3.6c-0.4,2.2-3.9,7-8.8,8.9
		s-7.5,0.9-8.5-1.4c-0.4-0.9,0.1-2.1,2.3-3.2c2.2-1.1,1.9-2.8,1.8-3.8s-0.2-2.3,0.6-2.5C30.7,28.3,32.2,28.6,32.2,28.6z"/>
	<circle class="st14" cx="32.3" cy="31.9" r="0.9"/>
	<circle class="st14" cx="36.9" cy="32.8" r="0.4"/>
	<circle class="st14" cx="32.4" cy="35" r="0.4"/>
	<circle class="st14" cx="32.9" cy="37.7" r="0.3"/>
	<circle class="st14" cx="29.1" cy="37.4" r="0.5"/>
</g>
<g id="icon_7" class="st0">
	<g class="st1">
		<g>
			<g>
				<path id="SVGID_1_" class="st7" d="M30.6,15.4c0,0,4.1-3,8.2-2.8s7.4,2.1,8.7,5.5c1.4,3.4,0.7,8.1-4,14.2S30.6,45.4,30.6,45.4
					s-9.2-7.2-14.1-14.5s-4.2-11.8-2.2-14.3s5.2-4.3,8.3-4C25.7,12.9,27.6,13.5,30.6,15.4z"/>
			</g>
			<g>
				<g>
					<g>
						<g>
							<g>
								<g>
									<g>
										<g>
											<defs>
												<path id="SVGID_2_" d="M30.6,15.4c0,0,4.1-3,8.2-2.8s7.4,2.1,8.7,5.5c1.4,3.4,0.7,8.1-4,14.2S30.6,45.4,30.6,45.4
													s-9.2-7.2-14.1-14.5s-4.2-11.8-2.2-14.3s5.2-4.3,8.3-4C25.7,12.9,27.6,13.5,30.6,15.4z"/>
											</defs>
											<clipPath id="SVGID_4_">
												<use xlink:href="#SVGID_2_"  style="overflow:visible;"/>
											</clipPath>
											<polyline class="st16" points="15,29.9 21.4,29.9 24,27.5 27.7,32.8 32.9,23.6 37.4,30 46.1,29.9 											"/>
										</g>
									</g>
								</g>
							</g>
						</g>
					</g>
				</g>
			</g>
		</g>
	</g>
</g>
<g id="icon_8" class="st0">
	<path class="st17" d="M18,38.5v2.7c0,0-0.2,2.3,2.2,0.8c1.2-0.8,1.2-1.8,2.6-1.8s1-0.9,1.9-1.1c0.9-0.2,1-1.3,1-1.3
		s0.1-0.9,1.5-0.4c0.7,0.3,2-0.8,2.4-0.8c0.3-0.1,1.3-0.5,1.9,0c0.6,0.5,0,0.9,0.8,1.2c0.4,0.1,1.2-0.7,1.7-0.4s0.8,1.6,1.6,2.1
		s1.9,0.2,2.2,0.4s1.3,2.9,3.2,2.6c1.9-0.2,2-1.6,1.5-3.7c-0.5-2.1-8.6-8.5-8.6-8.5s-4-1.5-6.4,0.4C25,32.3,18,38.5,18,38.5z"/>
	<path class="st18" d="M36.8,14.2c0,0,5.5,3.8,6.8,11.5c0.9,5.4,0.9,8.9,0,11.9c-0.9,2.9-4,1.6-4.7,0.8s-5.2-3.9-5.2-3.9
		s-3.1-2.4-2.6-6.4s1.8-11.8,1.8-11.8S33.4,12.2,36.8,14.2z"/>
	<path class="st18" d="M26.9,18.5l1.2-1.5c0,0,0.5-0.5,0.4-1.4c-0.1-0.9,0-7,0-7s-0.1-0.5,0.8-0.5s1.6,0,1.6,0s0.3,0.2,0.3,0.6
		c0,0.5,0,7,0,7s0.2,1.9,1.8,2.3c1.6,0.5,2.1,2.7,2.1,2.7l-1,0.7l-1.5-0.3l-1.3-1.5c0,0-0.6-0.6-0.9-0.7s-0.8,0-1.3,0.4
		s-1.7,1.5-1.7,1.5l-0.7-1.6L26.9,18.5z"/>
	<path class="st18" d="M23.2,14.2c0,0-5.5,3.8-6.8,11.5c-0.9,5.4-0.9,8.9,0,11.9c0.9,3,4,1.6,4.7,0.8s5.2-3.9,5.2-3.9
		s3.1-2.4,2.6-6.4s-1.8-11.8-1.8-11.8S26.6,12.2,23.2,14.2z"/>
</g>
<g id="icon_9" class="st0">
	<path class="st14" d="M24.5,26.9c0,0,2.2-1.1,2.3-3.2c0.1-2.3-0.8-3.5-1.8-4.8S22.6,13,25.6,11s6.1-1,7.2,0
		c0.6,0.6,2.5,3.3,1.3,6.5c-0.8,2.1-2.4,3.4-2.6,5s0.1,3.1,2.3,4.4l0.9,0.7H24.1L24.5,26.9z"/>
	<path class="st18" d="M39.4,30.6h-20c-1,0-1.9-0.8-1.9-1.9l0,0c0-1,0.8-1.9,1.9-1.9h20c1,0,1.9,0.8,1.9,1.9l0,0
		C41.2,29.8,40.4,30.6,39.4,30.6z"/>
	<path class="st18" d="M29.3,32.8L29.3,32.8c-0.8,0-1.5-0.7-1.5-1.5v-2.1c0-0.8,0.7-1.5,1.5-1.5l0,0c0.8,0,1.5,0.7,1.5,1.5v2.1
		C30.9,32.1,30.2,32.8,29.3,32.8z"/>
	<path class="st18" d="M25.6,30.2c0,0-2.6,3.6-1.2,7.3c1.4,3.8,4.2,4.2,4.9,4.2s5.5-0.6,5.5-6.8c0-2.3-1.6-4.9-1.6-4.9h2.6
		c0,0,1.4,1.2,2,3.4c0.5,1.8,1.1,5.1-1.9,8.9s-9.5,2.6-11.4,1.4c-2-1.4-4.4-3.9-4-8.6c0.3-3.4,2.6-5.5,2.6-5.5L25.6,30.2z"/>
</g>
<g id="icon_10" class="st0">
	<path class="st18" d="M25.6,45.9c0.1,0.9,0.9,0.7,1.3,0.7h9.4c0,0,0.7,0.3,0.7-1v-4.9c0-0.1,0-0.2,0-0.3c0.2-0.7,0.9-3.4,1.7-4.3
		c1.3-1.5,1.3-5.2,1.3-5.2l0.2-17.3c0,0-0.1-1.7-1.7-1.8c-1.6-0.1-1.7,1.5-1.7,1.5l-0.2,7.9c0,0-0.1,0.8-0.6,0.8
		c-0.6,0-0.7-0.6-0.6-1s0.1-11.3,0.1-11.3s-0.1-1.2-1.8-1.3s-1.6,1.7-1.6,1.7v10c0,0,0,0.8-0.6,0.7c-0.7,0-0.5-1.2-0.5-1.2V8.5
		c0,0-0.1-1.4-2-1.4s-1.8,2-1.8,2L27,20.4c0,0,0,0.5-0.5,0.5s-0.4-1-0.4-1v-9c0,0,0-1.6-1.7-1.5c-1.1,0-1.3,0.8-1.3,1.6v8
		c0,0.2,0,0.3,0.1,0.5l0.3,0.8c0,0.1,0.1,0.2,0.1,0.3l2.5,3.5c0,0,0.5,0.6,0.9,0.5s3.8,0.6,5,1.1c1,0.5,2,0.7,2,0.7s0.9,0.4,0.5,1.5
		c-0.2,0.6-1.7,0.3-1.7,0.3l-1.1-0.3v0.3l3.8,4.6c0,0,0.4,0.7-0.2,1.1c-0.6,0.4-1.1-0.2-1.1-0.2l-2.4-3.1c0,0-0.5-0.1-0.4,0.3
		c0.1,0.5,3.3,4.1,3.3,4.1s0.3,0.6-0.2,1c-0.2,0.2-0.8,0.3-1.2-0.1c-0.3-0.3-3.1-4-3.1-4s-0.5-0.2-0.4,0.3l2.8,3.6
		c0,0,0.4,0.7,0,1.1c-0.4,0.4-0.9,0.2-1.3-0.3c-0.4-0.4-3.1-3.9-3.1-3.9s-0.5-0.2-0.5,0.3l2.2,2.8c0,0,0.4,0.6-0.1,1s-1,0.3-1.5-0.3
		c-0.5-0.5-4.2-5.5-4.8-6.3c-0.1-0.1-0.1-0.2-0.1-0.2c-0.2-0.4-0.6-1.5-0.6-2.4c0-0.3-0.1-0.5-0.2-0.8l-3.3-4.4c0,0-1.1-1.2-2.6-0.3
		c-1.5,0.9-0.5,3-0.4,3.3s5.1,8,5.1,8s2,2.9,2.7,3.9c0.7,1.1,1.7,2.1,1.6,4.4c-0.1,1.7-0.1,2.9-0.1,3.5
		C25.6,45.3,25.6,45.9,25.6,45.9z"/>
</g>
<g id="icon_11" class="st0">
	<circle class="st18" cx="12.9" cy="29.9" r="3.3"/>
	<circle class="st18" cx="29.4" cy="12.9" r="3.4"/>
	<path class="st18" d="M26.1,15.2c0,0,1.3,2.3,3.6,2c2.2-0.3,3-1.8,3-1.8s1.2,0,1.6,0.5c0.4,0.4,0.7,0.5,1.1,1.8
		c0.4,1.3,1.5,4.8,1.5,4.8l4.3,1.7c0,0,0,0,0.1,0c0.3,0.1,2.1,1.1,2.2,1.2l-5.9,0.8l-2.5-0.9c0,0-0.6-0.2-1.1-1.6
		c-0.5-1.5-1.1-2.6-1.1-2.6L33,25l-6.5,0.1L24,22.6l-0.1-2.9l-1.3,2.9l3.1,2.9c0,0,1.2,0.9,0.5,2.2s-2.7,0.2-2.7,0.2l-4-3.7
		c0,0-0.7-0.8,0-2.4s1.9-4.4,1.9-4.4s1-2.1,2.8-2.2C25.9,15.1,26.1,15.2,26.1,15.2z"/>
	<path class="st18" d="M19.2,30.1L19,34.2l-1.7,4.6c0,0-0.9,2.2,0.9,2.4s2.1-0.9,2.3-1.5c0.2-0.6,1.5-4.6,1.5-4.6l0.2-2.6l0.6-2.5
		v3.6l6.6,0.1v6c0,0,0.1,1.6,1.8,1.6c2,0,10.8,0,10.8,0s1.3-0.3,1.1-1.8s-0.6-1.9-1.5-1.9s-8.3,0.1-8.3,0.1l0.1-6.4l17.6-2
		c0,0,1.9-0.4,1.5-2c-0.4-1.6-1.4-1.6-2.3-1.6c-0.9,0-17,2-17,2s0.1-1.5-1.2-1.6s-4.7,0-4.7,0s0.3,2.5-1.3,3.1
		c-1.6,0.6-2.6-0.1-3.6-1c-1-0.9-1.9-2-1.9-2h-2c0,0-1.5,0.4-1.6,1.6c-0.1,1.3,0,4.2,0,4.2s0.2,1.2,1.2,1.4L19.2,30.1z"/>
	<path class="st18" d="M23,34.7h2l1.2,3.4c0,0,0.7,2.5-0.7,3.1c-1.4,0.6-2.4-0.3-2.8-1.6s-0.4-1.9-0.4-1.9L23,34.7z"/>
	<polygon class="st18" points="34.2,32.3 37.2,32.3 35.4,36.5 34.2,36.5 	"/>
</g>
<g id="icon_12" class="st0">
	<path class="st19" d="M30.8,10.1c0,0-4,7.5-0.8,15.8s1.7,13.9-1.2,17.4"/>
	<path class="st19" d="M44.1,17.1c0,0-1.6,7.2-13.9,9.5c-8.9,1.6-10.7,4.4-13.9,8.7"/>
	<line class="st20" x1="30.9" y1="11.5" x2="43.3" y2="19"/>
	<line class="st20" x1="29.1" y1="15.3" x2="40.2" y2="21.9"/>
	<line class="st20" x1="28.8" y1="20.2" x2="35.8" y2="24.8"/>
	<line class="st20" x1="24.6" y1="28.7" x2="31.7" y2="32.8"/>
	<line class="st20" x1="20.2" y1="31.2" x2="31.4" y2="37.3"/>
	<line class="st20" x1="17.5" y1="34.2" x2="30" y2="41.5"/>
</g>
<g id="icon_13" class="st0">
	<g class="st1">
		<g>
			<path id="SVGID_3_" class="st8" d="M39.3,39.1l-0.6,0.4c-3,2.1-7.1,1.4-9.3-1.5L19.1,23.4c-2.1-3-1.4-7.1,1.5-9.3l0.6-0.4
				c3-2.1,7.1-1.4,9.3,1.5l10.4,14.5C43,32.8,42.3,36.9,39.3,39.1z"/>
		</g>
		<g>
			<g>
				<g>
					<g>
						<g>
							<g>
								<g>
									<g>
										<defs>
											<path id="SVGID_6_" d="M31.6,42L31,41.5c-2.8-2.3-3.1-6.5-0.8-9.4l11.7-13.6c2.3-2.8,6.5-3.1,9.4-0.8l0.6,0.5
												c2.8,2.3,3.1,6.5,0.8,9.4L41.1,41.1C38.7,44,34.5,44.3,31.6,42z"/>
										</defs>
										<clipPath id="SVGID_7_">
											<use xlink:href="#SVGID_6_"  style="overflow:visible;"/>
										</clipPath>
										
											<rect x="20.5" y="26" transform="matrix(0.814 -0.5809 0.5809 0.814 -14.4435 26.1171)" class="st21" width="26.2" height="19.3"/>
									</g>
								</g>
							</g>
						</g>
					</g>
				</g>
			</g>
		</g>
	</g>
	<path class="st22" d="M21.8,17.5c0,0-2.2,1.2-0.4,3.9"/>
</g>
<g id="icon_14" class="st0">
	<path class="st17" d="M14,26.1h0.1h27.1l-7.7-4.3c0,0-1.9-0.9-3.4-0.3s-2.1,1.2-3,0.8c-1.2-0.6-2.1-0.8-2.1-0.8s-1.7-0.4-2.9,0.2
		C20.8,22.3,14,26.1,14,26.1z"/>
	<path class="st18" d="M41.2,26.1l-6.5,5.4c0,0-2.1,1.5-4,1.3c-1.9-0.2-1.7-0.7-2.6-1c-0.8-0.3-1.4-0.3-2.5,0.4
		c-0.6,0.4-1.2,0.8-2.5,0.6s-2.6-1.2-3.6-2.1c-1-0.9-5.4-4.6-5.4-4.6L41.2,26.1z"/>
	<path class="st18" d="M41.8,16.6c0,0,0.1,2-1.7,2.3c0,0,1.6,0.1,1.7,2.1c0,0,0.1-2.1,1.8-2.1C43.6,18.9,41.8,18.6,41.8,16.6z"/>
	<path class="st18" d="M38.8,10.5c0,0,0.1,1.5-1.3,1.7c0,0,1.2,0.1,1.3,1.6c0,0,0.1-1.5,1.4-1.5C40.2,12.2,38.9,12,38.8,10.5z"/>
	<path class="st18" d="M43.5,5.5c0,0,0.1,2.1-1.8,2.3c0,0,1.7,0.1,1.8,2.2c0,0,0.1-2.1,1.9-2.1C45.4,7.9,43.6,7.6,43.5,5.5z"/>
	<g id="icon_3_1_" class="st1">
		<g>
			
				<rect x="38.6" y="33.2" transform="matrix(0.7214 -0.6925 0.6925 0.7214 -15.3559 38.6471)" class="st8" width="3.6" height="10.5"/>
			
				<rect x="35.5" y="33.6" transform="matrix(0.7214 -0.6925 0.6925 0.7214 -13.5383 34.6563)" class="st8" width="1.7" height="1.2"/>
			<path class="st8" d="M36.2,34L36.2,34c-0.1,0.1-0.2,0.1-0.3,0l-2.8-3c-0.1-0.1-0.1-0.2,0-0.3l0,0c0.1-0.1,0.2-0.1,0.3,0l2.8,3
				C36.2,33.8,36.2,33.9,36.2,34z"/>
			<path class="st8" d="M42.2,44l3.7-3.5c0.1-0.1,0.3-0.1,0.4,0l0,0c0.1,0.1,0.1,0.3,0,0.4l-3.7,3.5c-0.1,0.1-0.3,0.1-0.4,0l0,0
				C42.1,44.3,42.1,44.1,42.2,44z"/>
			<path class="st8" d="M44,44.7l2.6-2.5c0.1-0.1,0.3-0.1,0.4,0l0,0c0.1,0.1,0.1,0.3,0,0.4l-2.6,2.5c-0.1,0.1-0.3,0.1-0.4,0l0,0
				C43.9,45.1,43.9,44.9,44,44.7z"/>
			
				<rect x="44.3" y="42.8" transform="matrix(0.7214 -0.6925 0.6925 0.7214 -17.4199 43.2158)" class="st8" width="1.5" height="1"/>
			<path class="st9" d="M43.2,40.4l0.8-0.8l0.3,0.3l-0.8,0.8c-0.1,0.1-0.2,0.1-0.3,0l0,0C43.1,40.6,43.1,40.5,43.2,40.4z"/>
			<path class="st9" d="M42.2,39.3l0.8-0.7l0.3,0.3l-0.8,0.8c-0.1,0.1-0.2,0.1-0.3,0l0,0C42.1,39.6,42.1,39.4,42.2,39.3z"/>
			<path class="st9" d="M41.2,38.3l0.8-0.8l0.3,0.3l-0.8,0.8c-0.1,0.1-0.2,0.1-0.3,0l0,0C41.1,38.5,41.1,38.4,41.2,38.3z"/>
			<path class="st9" d="M40.2,37.3l0.8-0.8l0.3,0.3l-0.8,0.8c-0.1,0.1-0.2,0.1-0.3,0l0,0C40.1,37.5,40.1,37.3,40.2,37.3z"/>
			<path class="st9" d="M39.2,36.2l0.8-0.8l0.3,0.3l-0.8,0.8c-0.1,0.1-0.2,0.1-0.3,0l0,0C39.1,36.4,39.1,36.3,39.2,36.2z"/>
			<path class="st9" d="M38.2,35.1l0.8-0.8l0.3,0.3l-0.8,0.8c-0.1,0.1-0.2,0.1-0.3,0l0,0C38.1,35.4,38.1,35.2,38.2,35.1z"/>
		</g>
	</g>
</g>
<g id="icon_15_1_" class="st0">
	<g class="st1">
		<g>
			<g>
				<path id="SVGID_5_" class="st7" d="M26.6,19.7c0,0,3.1-2.3,6.2-2.1c3.1,0.2,5.6,1.6,6.6,4.1s0.5,6.2-3,10.8
					c-3.6,4.6-9.8,9.9-9.8,9.9s-7-5.4-10.7-11s-3.2-9-1.7-10.9s3.9-3.3,6.3-3C22.9,17.8,24.3,18.3,26.6,19.7z"/>
			</g>
			<g>
				<g>
					<g>
						<g>
							<g>
								<g>
									<g>
										<g>
											<defs>
												<path id="SVGID_8_" d="M26.6,19.7c0,0,3.1-2.3,6.2-2.1c3.1,0.2,5.6,1.6,6.6,4.1s0.5,6.2-3,10.8
													c-3.6,4.6-9.8,9.9-9.8,9.9s-7-5.4-10.7-11s-3.2-9-1.7-10.9s3.9-3.3,6.3-3C22.9,17.8,24.3,18.3,26.6,19.7z"/>
											</defs>
											<clipPath id="SVGID_9_">
												<use xlink:href="#SVGID_8_"  style="overflow:visible;"/>
											</clipPath>
											<polyline class="st23" points="14.8,30.7 19.6,30.7 21.6,28.8 24.4,32.9 28.3,25.9 31.7,30.7 38.3,30.7 											"/>
										</g>
									</g>
								</g>
							</g>
						</g>
					</g>
				</g>
			</g>
		</g>
	</g>
	<path class="st18" d="M37.9,8.5l-8.1,14c-0.4,0.7,0.1,1.6,0.9,1.6H47c0.8,0,1.4-0.9,0.9-1.6l-8.1-14C39.4,7.8,38.4,7.8,37.9,8.5z"
		/>
	<path class="st24" d="M38.9,19.3L38.9,19.3c-0.3,0-0.6-0.3-0.6-0.6V13c0-0.3,0.3-0.6,0.6-0.6l0,0c0.3,0,0.6,0.3,0.6,0.6v5.7
		C39.5,19,39.3,19.3,38.9,19.3z"/>
	<path class="st24" d="M38.9,22.2L38.9,22.2c-0.3,0-0.6-0.3-0.6-0.6v-0.3c0-0.3,0.3-0.6,0.6-0.6l0,0c0.3,0,0.6,0.3,0.6,0.6v0.3
		C39.5,21.9,39.3,22.2,38.9,22.2z"/>
</g>
<g id="icon_16" class="st0">
	<path class="st24" d="M35.1,13.5c0,0,4.1-0.9,6,0c2.3,1.1,4.1,3.9,2.8,8.7s-2.3,8.8-2.6,12.9c-0.4,4.1-3.3,6.8-5.2,7.1
		c-1.9,0.4-3.3-1.6-2.9-3.1c0.4-1.5,0.9-5.9,0.8-7c-0.2-2.1-1.2-3.8-2.9-3.8c-1.7,0-2.5,0.9-2.9,1.9c-0.4,1.1-1.1,5.2-0.6,7.1
		c0.4,1.9,0.2,4.7-1.6,4.8s-5.2-1.8-6.5-9.8s-2-9.8-2.3-10.9c-1-3.7,0-8.4,4.1-8.7s7.4,1.5,8.8,1.6C31.4,14.6,33.6,13.8,35.1,13.5z"
		/>
	<path class="st17" d="M27.7,17.5c0,0,2.4,1.3,3.4,0.9c1-0.5,3.2-1.7,5.8-0.4c2.6,1.3,2.6,2.8,2.6,2.8s0.8,2.8-0.6,5.1s-1,6.9-1,6.9
		s0.1,1.6-0.7,1.6c-0.7,0-1.2-1.5-1.2-1.8s-0.8-6-4.6-6.7s-4.5,2.9-5,4.2c-0.3,0.9-0.6,3.6-0.6,3.6s-0.2,1.3-0.9,1.2
		c-0.7-0.1-0.9-1.5-0.9-4.7s-1-3.6-1.5-5.5s-0.4-5.2,1.5-6.6C25.8,16.7,27.7,17.5,27.7,17.5z"/>
	<path class="st18" d="M16.2,7.8c0,0,0.1,2.1-1.8,2.3c0,0,1.7,0.1,1.8,2.2c0,0,0.1-2.1,1.9-2.1C18.1,10.1,16.3,9.9,16.2,7.8z"/>
	<path class="st18" d="M46.5,34.7c0,0,0.1,2.1-1.8,2.4c0,0,1.7,0.1,1.8,2.2c0,0,0.1-2.2,1.9-2.2C48.4,37.1,46.6,36.8,46.5,34.7z"/>
	<path class="st18" d="M48.4,7.5c0,0,0,1.1-0.9,1.3c0,0,0.9,0,0.9,1.2c0,0,0.1-1.2,1-1.2C49.4,8.8,48.4,8.6,48.4,7.5z"/>
</g>
<g id="icon_17" class="st0">
	<path class="st18" d="M29.5,11.3c0,0,5.2-0.8,8.3,1.3c3.1,2,5.1,4.2,5.6,7.4s-0.2,7.1-1.7,9.5s-2.4,3.9-2.6,4.3
		c-0.1,0.4-0.8,2.3-0.3,4.9s0.8,3,0.8,3L25.3,42v-3c0,0-4.5,0.1-5.6-0.8c-1.1-0.9-1.1-1.9-0.8-2.5c0.2-0.6,0-0.7,0-0.8
		c0,0-0.6-0.3-0.6-0.9c0-0.4,0.4-0.5,0.4-0.5s-0.1-0.2-0.2-0.2c-0.1-0.1-0.6-0.2-0.6-0.7s0.3-2.6,0.3-2.6s-1.6-0.2-1.8-1.2
		c-0.1-1,0.7-2.2,1.1-2.7s2.1-2.5,2.1-2.5s-0.6-5,1.1-7.3S24.1,11.9,29.5,11.3z"/>
	<circle class="st24" cx="26.2" cy="25.9" r="1.1"/>
	<circle class="st24" cx="29.5" cy="27.3" r="0.6"/>
	<circle class="st24" cx="28.2" cy="29.8" r="0.7"/>
	<circle class="st24" cx="26.8" cy="32.3" r="1"/>
	<circle class="st24" cx="24" cy="29.8" r="0.6"/>
	<circle class="st24" cx="23.8" cy="27.2" r="0.6"/>
</g>
<g id="icon_18" class="st0">
	<path class="st18" d="M36.8,33.8H21.7c-1.1,0-2-0.9-2-2V12.2c0-1.1,0.9-2,2-2h15.1c1.1,0,2,0.9,2,2v19.6
		C38.8,32.9,37.9,33.8,36.8,33.8z"/>
	<path class="st24" d="M34.1,23.7h-9.6c-1.1,0-2-0.9-2-2v-6.9c0-1.1,0.9-2,2-2h9.6c1.1,0,2,0.9,2,2v6.9
		C36.1,22.9,35.2,23.7,34.1,23.7z"/>
	<path class="st24" d="M30.2,30.3h-2c-1,0-1.8-0.8-1.8-1.8l0,0c0-1,0.8-1.8,1.8-1.8h2c1,0,1.8,0.8,1.8,1.8l0,0
		C31.9,29.4,31.1,30.3,30.2,30.3z"/>
	<path class="st18" d="M29.6,38.4h-0.8c-1.1,0-2-0.9-2-2v-3.3c0-1.1,0.9-2,2-2h0.8c1.1,0,2,0.9,2,2v3.3
		C31.6,37.4,30.7,38.4,29.6,38.4z"/>
	<path class="st18" d="M29.2,43L29.2,43c-0.3,0-0.5-0.2-0.5-0.5v-4.7c0-0.3,0.2-0.5,0.5-0.5l0,0c0.3,0,0.5,0.2,0.5,0.5v4.7
		C29.7,42.9,29.5,43,29.2,43z"/>
	<path class="st17" d="M36.8,16.5c0,0,1.9,1.4,2.9,3.1c0.8,1.5,1.1,4.5-1.9,5.2c-2.7,0.7-4.3-1.8-4.3-3
		C33.6,21.1,33.8,18.6,36.8,16.5z"/>
	<path class="st22" d="M38.3,19.9c0,0,1.6,2.3,0.3,3.6"/>
</g>
<g id="icon_19" class="st0">
	<g class="st1">
		<g>
			<path id="SVGID_10_" class="st8" d="M34.8,40.5H17.6c-1.1,0-2-0.9-2-2V17.4c0-1.1,0.9-2,2-2h17.2c1.1,0,2,0.9,2,2v21.1
				C36.8,39.6,35.9,40.5,34.8,40.5z"/>
		</g>
		<g>
			<g>
				<g>
					<g>
						<g>
							<g>
								<defs>
									<path id="SVGID_11_" d="M34.8,40.5H17.6c-1.1,0-2-0.9-2-2V17.4c0-1.1,0.9-2,2-2h17.2c1.1,0,2,0.9,2,2v21.1
										C36.8,39.6,35.9,40.5,34.8,40.5z"/>
								</defs>
								<clipPath id="SVGID_13_">
									<use xlink:href="#SVGID_11_"  style="overflow:visible;"/>
								</clipPath>
								<path class="st25" d="M30.7,19h-8.9c-1,0-1.8-0.8-1.8-1.8v-1.3c0-1,0.8-1.8,1.8-1.8h8.9c1,0,1.8,0.8,1.8,1.8v1.3
									C32.4,18.2,31.7,19,30.7,19z"/>
							</g>
						</g>
					</g>
				</g>
			</g>
		</g>
	</g>
	<path class="st18" d="M26.6,17.3L26,17.5c-1.1,0-1.7,0.9-1.7-0.2V14c0-1.1,0.9-2,2-2l0,0c1.1,0,2,0.9,2,2v3.3
		C28.2,18.4,27.6,17.3,26.6,17.3z"/>
	<path class="st24" d="M32.4,38.1H20.1c-1.1,0-2-0.9-2-2V20.4c0-1.1,0.9-2,2-2h12.4c1.1,0,2,0.9,2,2v15.7
		C34.4,37.2,33.5,38.1,32.4,38.1z"/>
	<path class="st18" d="M30.3,18h-8.2c-1,0-1.8-0.8-1.8-1.8v-0.5c0-1,0.8-1.8,1.8-1.8h8.2c1,0,1.8,0.8,1.8,1.8v0.5
		C32.1,17.2,31.3,18,30.3,18z"/>
	<path class="st24" d="M29.3,17.3h-6c-0.3,0-0.6-0.3-0.6-0.6l0,0c0-0.3,0.3-0.6,0.6-0.6h6c0.3,0,0.6,0.3,0.6,0.6l0,0
		C29.9,17,29.6,17.3,29.3,17.3z"/>
	<path class="st24" d="M26.4,14.3H26c-0.2,0-0.4-0.2-0.4-0.4l0,0c0-0.2,0.2-0.4,0.4-0.4h0.4c0.2,0,0.4,0.2,0.4,0.4l0,0
		C26.9,14.1,26.7,14.3,26.4,14.3z"/>
	<path class="st18" d="M30.8,23.7h-8.5c-0.3,0-0.6-0.3-0.6-0.6l0,0c0-0.3,0.3-0.6,0.6-0.6h8.5c0.3,0,0.6,0.3,0.6,0.6l0,0
		C31.4,23.5,31.1,23.7,30.8,23.7z"/>
	<path class="st18" d="M30.8,27.1h-8.5c-0.3,0-0.6-0.3-0.6-0.6l0,0c0-0.3,0.3-0.6,0.6-0.6h8.5c0.3,0,0.6,0.3,0.6,0.6l0,0
		C31.4,26.8,31.1,27.1,30.8,27.1z"/>
	<path class="st18" d="M30.8,30.5h-8.5c-0.3,0-0.6-0.3-0.6-0.6l0,0c0-0.3,0.3-0.6,0.6-0.6h8.5c0.3,0,0.6,0.3,0.6,0.6l0,0
		C31.4,30.2,31.1,30.5,30.8,30.5z"/>
	<path class="st17" d="M37.9,30.5c0,0,1.7-0.8,3.3-0.5s3.5,1.7,3.2,5.9s-3,5.1-3.7,5.3c-0.7,0.1-1.9,0-2.7-0.3c-0.1,0-0.7,0.1-1,0.2
		c-0.2,0.1-2.1,0.6-3.7-1.4c-1.6-2-2.3-4.1-1.8-6.4s2.5-3.6,4.3-3.3C36.6,30,37.7,30.5,37.9,30.5z"/>
	<g class="st1">
		<g>
			<path id="SVGID_12_" class="st12" d="M43.2,24.9c0,0,0.1,2.3-0.9,3.3c-1.5,1.4-3.7,1-3.8,1c0,0-0.4-2.4,1.2-3.5
				C41.1,24.8,43.2,24.9,43.2,24.9z"/>
		</g>
		<g>
			<g>
				<g>
					<g>
						<g>
							<g>
								<defs>
									<path id="SVGID_14_" d="M43.2,24.9c0,0,0.1,2.3-0.9,3.3c-1.5,1.4-3.7,1-3.8,1c0,0-0.4-2.4,1.2-3.5
										C41.1,24.8,43.2,24.9,43.2,24.9z"/>
								</defs>
								<clipPath id="SVGID_15_">
									<use xlink:href="#SVGID_14_"  style="overflow:visible;"/>
								</clipPath>
								<polygon class="st26" points="44,24.3 38.1,29.4 40.1,30.2 44.9,27 								"/>
							</g>
						</g>
					</g>
				</g>
			</g>
		</g>
	</g>
</g>
<g id="icon_20" class="st0">
	<path class="st18" d="M29.8,10.8c0,0,6.5-0.4,8.1,5.3c0.2,0.7,0.1,3.8-0.4,5.2c0,0,0,0.3,0.5,0.2c0.5-0.1,1.4,0.1,0.8,1.9
		c-0.6,1.8-1.5,2.8-1.5,2.8s-0.7,0.1-0.7-0.2s-0.2,0.2-0.6,1.1c-0.4,0.9-0.8,2.5-2.2,3.9v1.9c0,0,0.1,1.7,2.1,2.6
		c2,0.9,3.4,1.4,4.4,1.4c1.1,0,6.4,2,7.3,4.1c0.4,0.8,0.6,1.4-0.7,1.5c-1.2,0-34.2,0-34.2,0s-1.1-0.1-0.1-1.4s2-3.4,7.3-4.2
		c0.6-0.1,5.9-1.3,6.2-3.1c0.3-1.7,0.1-2.6,0.1-2.6s-1.6-1.7-2.6-5.1c0,0-0.2-0.1-0.3,0.1c-0.1,0.2-0.9,0.2-1.5-1.1
		c-0.6-1.2-1.1-2.6-0.6-3.3c0.6-0.6,1.1-0.2,1.1-0.2s0.1,0,0.1-0.2s-0.9-4.4-0.3-5.9C22.6,13.8,24.2,11.2,29.8,10.8z"/>
	<path class="st17" d="M29.5,33.7c0,0,0.5-0.6,1.1-0.1c0,0,0.6-2.2,1.4-2.6c0.4-0.2,0.4,0.2,0.4,0.7s0.7,1.6,0.7,2.4
		c0,0.8-0.1,1.9-1.4,1.9c-0.6,0-1-0.3-1.1-0.5s-0.6-0.2-0.9,0c-0.4,0.2-1,1.1-2,0.2c-1-0.9-0.2-3.4-0.1-3.5c0-0.1,0.2-0.4,0.2-1.2
		c0-0.3,0.4-0.2,1,0.5C29.3,32.1,29.5,33,29.5,33.7z"/>
</g>
<g id="icon_21" class="st0">
	<path class="st24" d="M34.5,16.4c0,0,4.1-0.9,6,0c2.3,1.1,4.1,3.9,2.8,8.7S41,33.9,40.7,38c-0.4,4.1-3.3,6.8-5.2,7.1
		c-1.9,0.4-3.3-1.6-2.9-3.1c0.4-1.5,0.9-5.9,0.8-7c-0.2-2.1-1.2-3.8-2.9-3.8c-1.7,0-2.5,0.9-2.9,1.9c-0.4,1.1-1.1,5.2-0.6,7.1
		c0.4,1.9,0.2,4.7-1.6,4.8s-5.2-1.8-6.5-9.8s-2-9.8-2.3-10.9c-1-3.7,0-8.4,4.1-8.7s7.4,1.5,8.8,1.6C30.8,17.5,33,16.7,34.5,16.4z"/>
	<path class="st17" d="M27.1,20.4c0,0,2.4,1.3,3.4,0.9c1-0.5,3.2-1.7,5.8-0.4c2.6,1.3,2.6,2.8,2.6,2.8s0.8,2.8-0.6,5.1s-1,6.9-1,6.9
		s0.1,1.6-0.7,1.6c-0.7,0-1.2-1.5-1.2-1.8s-0.8-6-4.6-6.7s-4.5,2.9-5,4.2c-0.3,0.9-0.6,3.6-0.6,3.6s-0.2,1.3-0.9,1.2
		c-0.7-0.1-0.9-1.5-0.9-4.7s-1-3.6-1.5-5.5c-0.5-1.9-0.4-5.2,1.5-6.6C25.2,19.6,27.1,20.4,27.1,20.4z"/>
	<path class="st18" d="M35.7,30.6L35.7,30.6c-0.3,0.1-0.7,0-0.8-0.3l-10-21.5c-0.1-0.3,0-0.7,0.3-0.8l0,0c0.3-0.1,0.7,0,0.8,0.3
		l10,21.5C36.1,30.1,36,30.5,35.7,30.6z"/>
	<path class="st24" d="M34,22.2l-3.7,1.7c-0.2,0.1-0.5,0-0.5-0.2l0,0c-0.1-0.2,0-0.5,0.2-0.5l3.7-1.7c0.2-0.1,0.5,0,0.5,0.2l0,0
		C34.3,21.9,34.2,22.1,34,22.2z"/>
	<path class="st24" d="M35.1,24.5l-3.7,1.7c-0.2,0.1-0.5,0-0.5-0.2l0,0c-0.1-0.2,0-0.5,0.2-0.5l3.7-1.7c0.2-0.1,0.5,0,0.5,0.2l0,0
		C35.4,24.2,35.3,24.4,35.1,24.5z"/>
	<path class="st24" d="M36.1,26.8l-3.7,1.7c-0.2,0.1-0.5,0-0.5-0.2l0,0c-0.1-0.2,0-0.5,0.2-0.5l3.7-1.7c0.2-0.1,0.5,0,0.5,0.2l0,0
		C36.4,26.5,36.3,26.7,36.1,26.8z"/>
</g>
<g id="icon_22_1_" class="st0">
	<circle class="st18" cx="29.8" cy="18.9" r="6.3"/>
	<path class="st18" d="M17.4,40.6h25.1c0,0,1.5-11.3-4.9-13.4s-13.2-0.8-15-0.2s-4.1,1-4.9,7.5C17.4,38.6,17.4,40.6,17.4,40.6z"/>
	<path class="st24" d="M25.5,33.9v-0.7c0-0.8,0.7-1.5,1.5-1.5h6.2c0.8,0,1.5,0.7,1.5,1.5v0.7c0,0.8-0.7,1.5-1.5,1.5H27
		C26.2,35.4,25.5,34.7,25.5,33.9z"/>
	<path class="st24" d="M29.8,28.9h0.7c0.8,0,1.5,0.7,1.5,1.5v6.2c0,0.8-0.7,1.5-1.5,1.5h-0.7c-0.8,0-1.5-0.7-1.5-1.5v-6.2
		C28.3,29.6,29,28.9,29.8,28.9z"/>
</g>
<g id="icon_23" class="st0">
	<path class="st27" d="M36,11.2c-7.6,1.4-5.4,7-5.4,8.7s-0.5,1.7-0.6,2.6s1,1.2,1,1.2s-0.4,2.2-3.6,0.2s-8.2,0.5-8.9,0.5
		s0.6-2.6,0.6-2.6c-0.6-0.8-1.8-0.2-2.9,1.4c-1.3,1.9-1.1,4.2-0.9,4.3c0.2,0.1,3.8-0.1,5.5-0.5s2.5-0.5,2.2-0.1s-1.1,1.9-1.5,2.1
		c-0.5,0.2-8.5,9.1-1,12s12.8-0.7,14.8-2.3c2.2-1.8,5.9-4.4,7.2-6.5s0.4-5.3,0.2-6.4s1.6-3.9,2-6.4C45.1,16.9,43.6,9.8,36,11.2z"/>
	<path class="st28" d="M27,29.7c0,0,0.6,3.4-1.5,5"/>
	<path class="st28" d="M22.3,28.3c0,0,1.6-2.2,1.8-3.1"/>
	<path class="st28" d="M27,24c0,0-2.2,5.3,1.1,6.5s8.6,0.6,8.6,0.6"/>
	<path class="st28" d="M30.8,24.5c0,0,0.9,0.4,1.3,1.7"/>
	<path class="st28" d="M29.9,27.1c0,0,6.1-2.3,11-0.6"/>
	<path class="st28" d="M38.2,17.6c0,0,2.3-0.1,2,1.9s-1.3,3.5-3.4,1.9"/>
</g>
<g id="icon_24" class="st0">
	<path class="st29" d="M26.1,27c0,0-0.1-6.4-0.6-7.4c0,0,0.8-0.1,1-0.8c0,0,1.4,1.5,1.8,1.4s4.2-3.3,4.1-4.1
		c-0.1-0.8-1.6-3.4-2.5-3.6c-0.8-0.2-0.8-0.8-2.6,0c-1.8,0.8-5.3,2.1-5.3,2.1s-1.8,0.7-2.3,2.6s-3.9,14.7-3.9,14.7s-0.5,3.2,1.9,3.4
		c0,0,5.2,7.5,17.9,4.3c0,0,6.9,2.2,7.9,1.1c1.1-1.1,0.6-2.7,0.6-2.7l0.1-10.2c0,0-0.1-2.1-2-2.5c-1.9-0.5-5.8-0.9-7.8,1.5
		C34.3,26.8,29.1,24.6,26.1,27z"/>
	<path class="st30" d="M24,19.6c0,0,2.1,0.2,2.7-1.6"/>
	<path class="st30" d="M36.2,30c0,0-1.2-3.2-3.4-3.7"/>
	<path class="st31" d="M26.1,26.5c0,0,0,3.2-1.7,3.7"/>
	<path class="st31" d="M21.7,33.5c0,0,3.9,4.8,10.1,3.3"/>
</g>
<g id="icon_25" class="st0">
	<path class="st18" d="M31,44.4h-1.7c-4.3,0-7.9-3.5-7.9-7.9v-21h17.4v21C38.8,40.8,35.3,44.4,31,44.4z"/>
	<path class="st18" d="M39.2,13.7H20.8c-0.7,0-1.3-0.6-1.3-1.3v-2.2c0-0.7,0.6-1.3,1.3-1.3h18.4c0.7,0,1.3,0.6,1.3,1.3v2.2
		C40.5,13.1,39.9,13.7,39.2,13.7z"/>
	<path class="st32" d="M26.5,35.5c0,0,0-7.1,3.7-7.1s3.7,4.9,3.7,7.1"/>
	<line class="st32" x1="26.7" y1="32.8" x2="33.6" y2="32.8"/>
	<path class="st32" d="M33.8,20.4c0,0,0,7.1-3.7,7.1s-3.7-4.9-3.7-7.1"/>
	<line class="st32" x1="33.6" y1="23.2" x2="26.7" y2="23.2"/>
</g>
<g id="icon_26">
	<path class="st8" d="M36.8,15.7H23.2c-2.2,0-4-1.8-4-4v-6c0-2.2,1.8-4,4-4h13.5c2.2,0,4,1.8,4,4v6C40.8,13.9,38.9,15.7,36.8,15.7z"
		/>
	<path class="st8" d="M52.4,51.3H7.6c-3.5,0-6.3-2.8-6.3-6.3V16.4c0-3.5,2.8-6.3,6.3-6.3h44.9c3.5,0,6.3,2.8,6.3,6.3v28.5
		C58.8,48.6,55.9,51.3,52.4,51.3z"/>
	<path class="st9" d="M18.4,31.9v-3.2c0-1.8,1.5-3.5,3.5-3.5h16.3c1.8,0,3.5,1.5,3.5,3.5v3.2c0,1.8-1.5,3.5-3.5,3.5H21.9
		C19.9,35.4,18.4,33.8,18.4,31.9z"/>
	<path class="st9" d="M31.6,41.9h-3.2c-1.8,0-3.5-1.5-3.5-3.5V22.1c0-1.8,1.5-3.5,3.5-3.5h3.2c1.8,0,3.5,1.5,3.5,3.5v16.3
		C35.1,40.4,33.6,41.9,31.6,41.9z"/>
	<rect x="19.1" y="8.9" class="st9" width="21.7" height="1"/>
	<path class="st9" d="M31.6,41.9h-3.2c-1.8,0-3.5-1.5-3.5-3.5V22.1c0-1.8,1.5-3.5,3.5-3.5h3.2c1.8,0,3.5,1.5,3.5,3.5v16.3
		C35.1,40.4,33.6,41.9,31.6,41.9z"/>
</g>
<g id="icon_27" class="st0">
	<circle class="st18" cx="29.5" cy="11" r="12.8"/>
	<path class="st18" d="M4.4,54.9h50.8c0,0,3-22.9-9.9-27.1s-26.7-1.6-30.4-0.4c-3.6,1.2-8.3,2-9.9,15.2C4.4,50.9,4.4,54.9,4.4,54.9z
		"/>
	<path class="st24" d="M21,41.1v-1.4c0-1.6,1.4-3,3-3h12.6c1.6,0,3,1.4,3,3v1.4c0,1.6-1.4,3-3,3H24.1C22.4,44.2,21,42.8,21,41.1z"/>
	<path class="st24" d="M29.5,31.2h1.4c1.6,0,3,1.4,3,3v12.6c0,1.6-1.4,3-3,3h-1.4c-1.6,0-3-1.4-3-3V34.3
		C26.5,32.4,27.9,31.2,29.5,31.2z"/>
</g>
<g id="icon_28" class="st0">
	<path class="st18" d="M49.7,23.5"/>
	<path class="st18" d="M44.1-2.6v58.3h10.4V9C54.4,9,53.6,0,44.1-2.6z"/>
	<polygon class="st24" points="49.7,23.5 54.4,25.7 54.4,20.9 	"/>
	<polygon class="st24" points="44.1,26.7 54.4,31.7 54.4,36.1 44.1,30.5 	"/>
	<polygon class="st24" points="44.1,34.1 54.4,39.5 54.4,43.4 44.1,38.1 	"/>
	<circle class="st33" cx="11.9" cy="6.2" r="6.4"/>
	<circle class="st33" cx="30.8" cy="5.8" r="6.4"/>
	<path class="st18" d="M16.5,11.9l-0.1,26.2c0,0,1.4,13.9,5.2,17.7c0,0,5.8-8.4,5.4-17.9l0-25.8l-2.8-5.7l-0.9-0.1l0.2,12l-3.8,0.2
		L19.5,6.2L18,5.8L16.5,11.9z"/>
	<circle class="st24" cx="21.6" cy="23.9" r="1.8"/>
</g>
<g id="icon_29" class="st0">
	<path class="st18" d="M42.1,3.9c0,3.6-2.9,6.3-6.3,6.3c-3.6,0-6.3-2.9-6.3-6.3s2.9-6.3,6.3-6.3C39.3-2.4,42.1,0.3,42.1,3.9z"/>
	<path class="st18" d="M12.5,15.8l12.9-6.9c0,0,1.1-0.6,2.4,0s7,2.6,7,2.6s1.3,0,2,2.9c0.7,3,2.4,8.2,2.4,8.2l6.7,2.7
		c0,0,2.6,1.3,1.7,4.3c-0.9,3-4.9,1.4-4.9,1.4l-8.6-3.9c0,0-0.6-0.1-0.9-1.6c-0.3-1.4-1.7-5.9-1.7-5.9l-3.6,10.8l5,10l-0.7,12.9
		c0,0-0.4,2.3-3,2.3s-3.4-2.2-3.4-3.6c0.1-1.4,1.1-9.5,1.1-9.5l-4.9-9l0.4,9.8l-2.3,9.8c0,0-0.9,2.7-4,2c-3.2-0.7-1.9-5-1.9-5
		l1.7-7.3L15.3,32l0.4-1.3l-5.2-11.8C10.7,19.2,10.2,16.9,12.5,15.8z"/>
	<polygon class="st34" points="18.2,20.2 19.8,23.1 22.2,18.1 	"/>
	<path class="st18" d="M41.1,29.7l5.3,24c0,0,0.3,1.4,1.9,1c1.6-0.3,0.9-2.2,0.9-2.2l-4.9-22.7L41.1,29.7z"/>
</g>
<g id="icon_30" class="st0">
	<g class="st1">
		<g>
			<path id="SVGID_16_" class="st35" d="M53.8,51.5H6.1c-2,0-3.8-1.7-3.8-3.8V36.9c0-2,1.7-3.8,3.8-3.8h47.7c2,0,3.8,1.7,3.8,3.8
				v10.8C57.6,49.8,55.8,51.5,53.8,51.5z"/>
		</g>
		<g>
			<g>
				<g>
					<g>
						<g>
							<defs>
								<path id="SVGID_17_" d="M53.8,51.5H6.1c-2,0-3.8-1.7-3.8-3.8V36.9c0-2,1.7-3.8,3.8-3.8h47.7c2,0,3.8,1.7,3.8,3.8v10.8
									C57.6,49.8,55.8,51.5,53.8,51.5z"/>
							</defs>
							<clipPath id="SVGID_18_">
								<use xlink:href="#SVGID_17_"  style="overflow:visible;"/>
							</clipPath>
							<rect x="-1.1" y="30.1" class="st36" width="60" height="7.7"/>
						</g>
					</g>
				</g>
			</g>
		</g>
	</g>
	<circle class="st34" cx="30.4" cy="38.1" r="5.6"/>
	<path class="st37" d="M27.2,25.5c0,0,2.6-20.8,11-23.8c0,0-5.6,13.6-4.9,23.3c0,0,1.7,1,1.7,2.9c0,2.2-0.9,4.5-4.6,4.5
		c-3.6,0-4.5-1.6-4.6-3C25.5,27.4,26.1,26,27.2,25.5z"/>
	<rect x="46.1" y="16.9" class="st18" width="1.4" height="8.8"/>
	<polyline class="st38" points="43.8,22.9 46.9,25.8 49.8,23.1 	"/>
	<rect x="12.3" y="16.9" class="st18" width="1.4" height="8.8"/>
	<polyline class="st38" points="9.9,22.9 12.9,25.8 15.9,23.1 	"/>
</g>
<g id="icon_31" class="st0">
	<ellipse transform="matrix(0.9934 -0.115 0.115 0.9934 -1.6327 2.0151)" class="st17" cx="16.6" cy="15.2" rx="15.5" ry="13.7"/>
	<ellipse class="st17" cx="46.6" cy="18.2" rx="12.1" ry="12.9"/>
	<ellipse transform="matrix(0.9708 -0.2398 0.2398 0.9708 -9.1156 7.7263)" class="st17" cx="27.2" cy="41.3" rx="14.7" ry="10"/>
	<ellipse transform="matrix(0.9554 -0.2952 0.2952 0.9554 -4.4922 6.0501)" class="st24" cx="17.8" cy="17.9" rx="9.3" ry="8"/>
	<ellipse transform="matrix(0.9666 -0.2564 0.2564 0.9666 -3.5885 12.0439)" class="st24" cx="44.4" cy="19.8" rx="7.5" ry="9.4"/>
	<ellipse transform="matrix(0.9359 -0.3522 0.3522 0.9359 -12.178 11.949)" class="st24" cx="26.8" cy="39.4" rx="9.3" ry="5.3"/>
</g>
<g id="icon_32" class="st0">
	<path class="st39" d="M21.8,0.2c0,0,7.5-5.3,16.3,0l-1.5,8l-0.5,0.8l-0.8-1.4c0,0-5.6-1.7-10.3,0l-2.5-3.9L22,1.1L21.8,0.2z"/>
	<path class="st17" d="M22.5-0.3c0,0-1,0.3-1.7,1.5c-0.7,1.2-3.7,11-3.7,11s-0.5,3.6,0.3,4.6c0.8,1,5.8,7.6,5.8,7.6L8.1,44.2
		c0,0-1.9,1.7-0.7,3.7c1.2,2,5.4,7,5.4,7s1,1.2,2.7-0.5c1.9-1.9,14.2-19.2,14.2-19.2l13.7,18.5c0,0,1.4,1.4,2.7,0
		c1.4-1.4,6.4-6.6,6.4-6.6s0.7-1.4-0.7-2.5C50.7,43.3,36.6,24,36.6,24s4.7-5.8,4.9-6.1c0.2-0.3,1.7-3.7,0.8-6.3S39,1.3,39,1.3
		s-0.7-1.2-1.9-1.4c0,0-0.8,6.3-7.1,14.8C30,14.5,24.9,9.7,22.5-0.3z"/>
</g>
<g id="icon_33" class="st0">
	<path class="st24" d="M33.5,20.2L43.7,12c0,0,0.8-0.5,1.8-3.5s4.2-7.9,8.9-5.9s3.5,6.7,2.8,7.9s-4.2,3.3-6.5,4.3s-5.5,5.9-5.5,5.9
		L33.5,20.2z"/>
	<path class="st40" d="M31,20.5c0,0,3-2.5,2.5-8.7C33.3,10,34.7,8,34.7,8s-13-2.8-15.9,6.2c0,0-1.2-4.8-13.2-4c0,0,1.7,3,1.3,4.8
		c-0.5,1.8-0.3,5,1.3,6.4L31,20.5z"/>
	<path class="st41" d="M19.6,20.5c0,0,4-8.5,11.7-10.4"/>
	<path class="st41" d="M8.8,12.3c0,0,6.4,3.2,9,8.2"/>
	<path class="st18" d="M3.1,20.2h53.7c0,0,1.8-0.5,1.7,0.8c-0.2,1.3-1.5,18.6-19.4,24.7L20.6,46c0,0-14.7-5-19.1-23.7
		C1.4,22.4,0.9,20.4,3.1,20.2z"/>
	<ellipse class="st18" cx="30" cy="47.8" rx="12" ry="3.2"/>
	<path class="st41" d="M27.6,9.7c0,0-0.2,2.2-1,2.7"/>
	<path class="st41" d="M25.5,13.3c0,0,2.3-0.8,4.7-0.5"/>
	<path class="st41" d="M20.1,19.7c0,0,3.3-2.2,7.7-2"/>
	<path class="st41" d="M22.8,12c0,0,0.7,2.7,0,3.7"/>
	<path class="st41" d="M15.6,14.3c0,0-0.5,1.8,0.7,4.2"/>
	<path class="st41" d="M9.3,14.7c0,0,1.3-0.3,3.2,0"/>
	<path class="st41" d="M10.9,18.7c0,0,4.5-0.3,6.2,1"/>
</g>
<g id="icon_34" class="st0">
	<path class="st18" d="M22.7,14.2h13.9c0,0,2.9,0,4.2,3.7c1.3,3.7,2.9,4.6,2.9,4.6l3,3c0,0,0.9,2-0.4,3.2c-1.3,1.1-3,0.9-3.6,0.4
		c-0.6-0.4-4.5-4-4.5-4l-1.7-2.9v7.9l3.9,13.8c0,0,1.1,3.3-2,4.2c-3.2,0.9-4.7-0.9-5.2-2.4c-0.3-1.6-3.9-11.9-3.9-11.9L26,45.4
		c0,0-0.9,3-4.9,2.3c-2.9-0.6-2-4.7-2-4.7l3.4-12.5l0.1-8L21,25.1l-4.6,4.7c0,0-1.9,1.6-3.6-0.3c-1.6-1.6,0.3-4.3,0.3-4.3l3.4-3.9
		l2.7-5.3C19.4,16.2,20.1,14.2,22.7,14.2z"/>
	<circle class="st18" cx="29.6" cy="10.2" r="6.3"/>
	<g class="st1">
		<circle class="st42" cx="29.8" cy="26.6" r="27.6"/>
	</g>
</g>
<g id="icon_35" class="st0">
	<path class="st18" d="M14.5,9.2c0,0,7.2-4.3,15.7-4l4.5-5.7c0,0,3.2-3.6,4.7,0.4l1.1,6.4c0,0,9.1,2.5,10.4,7l4.5-0.8
		c0,0,2.3-0.4,2.8,0.9s-0.4,2.6-0.4,2.6l-2.6,4c0,0,2.5,13.6-4.2,20l2.1,8.1c0,0,0.8,2.8-0.4,3.8c-1.1,0.9-3,0.6-4.3-0.4
		c-1.3-1.1-5.7-4.3-5.7-4.3s-5.3,4-16.6,2.8l-3.8,4c0,0-1.1,1.1-2.8,0.8c-1.7-0.4-1.9-4.3-1.9-4.3l-0.2-3.2c0,0-3.8-0.9-7.2-5.1
		l-6.6,1.1c0,0-3.8,0-1.5-4.5l3-5.1c0,0-3-9.5,0.8-15.7L1.8,8.8c0,0-0.6-2.8,0.6-3.4s3.8,0.4,3.8,0.4L14.5,9.2z"/>
	<line class="st43" x1="17.3" y1="17.5" x2="24.1" y2="22.4"/>
	<line class="st43" x1="33.5" y1="22" x2="42.8" y2="17.5"/>
	<path class="st43" d="M22.4,37.4c0,0,2.6-4.3,7.6-4s6.8,5.1,6.8,5.1"/>
</g>
<g id="icon_36" class="st0">
	<g id="icon_23_1_" class="st1">
		<path class="st44" d="M34.8,10.5c-7.5,1.4-5.4,7-5.4,8.7c0,1.7-0.5,1.7-0.6,2.6c-0.1,0.9,1,1.2,1,1.2s-0.4,2.2-3.6,0.3
			c-3.2-2-8.2,0.5-8.9,0.5c-0.6,0,0.6-2.6,0.6-2.6c-0.6-0.8-1.8-0.3-2.9,1.4c-1.3,1.9-1.2,4.2-0.9,4.3c0.3,0.1,3.8-0.1,5.5-0.5
			c1.7-0.4,2.6-0.5,2.2-0.1c-0.3,0.4-1.2,1.9-1.5,2c-0.5,0.3-8.4,9.1-1,12c7.5,2.9,12.8-0.6,14.8-2.3c2.2-1.8,5.9-4.3,7.2-6.5
			c1.3-2,0.4-5.2,0.3-6.4c-0.3-1.2,1.5-3.8,2-6.4C43.9,16.1,42.5,9.1,34.8,10.5z"/>
		<path class="st5" d="M25.9,28.9c0,0,0.6,3.5-1.5,5"/>
		<path class="st5" d="M21.1,27.5c0,0,1.5-2.2,1.8-3.1"/>
		<path class="st5" d="M25.9,23.2c0,0-2.2,5.2,1.2,6.5c3.3,1.2,8.6,0.6,8.6,0.6"/>
		<path class="st5" d="M29.7,23.7c0,0,0.9,0.4,1.3,1.7"/>
		<path class="st5" d="M28.8,26.3c0,0,6.1-2.3,11-0.6"/>
		<path class="st5" d="M37,16.8c0,0,2.3-0.1,2,1.9c-0.3,2-1.3,3.5-3.5,1.9"/>
	</g>
	<circle class="st45" cx="30" cy="26.6" r="25.9"/>
	<line class="st45" x1="44.3" y1="6.8" x2="15.1" y2="46.7"/>
</g>
<g id="icon_37" class="st0">
	<circle class="st46" cx="36" cy="20.7" r="20.7"/>
	<circle class="st46" cx="23.9" cy="32.4" r="20.7"/>
	<path class="st47" d="M17.8,13.1"/>
	<path class="st18" d="M29.8,13.1l8.8,5l5.4,4.7l1.5,7.4c0,0-0.8,5.7-1.5,6.1c-0.7,0.3-1.9,2.9-1.9,2.9s-5.2,2.5-5.4,2.4
		c-0.2-0.3-9.3-2.2-9.3-2.2L22,35.6L17,26.9l-1.8-9.4l2-3.4l3.4-1.5L29.8,13.1z"/>
</g>
<g id="icon_38" class="st0">
	<circle class="st18" cx="26.6" cy="3.5" r="5.6"/>
	<path class="st18" d="M21,9.4l10.7-0.1c0,0,3.6,0.4,5.1,5.9L31,22.1l0.6,7.2l2.5,5.1l0.1,16.7c0,0,0.9,3.9-2.7,3.9
		c-2.9,0-3.2-2.2-3.2-3.6c0-1.6-0.1-18.8-0.1-18.8s-0.4-1.2-1.6-1.2c-1.2,0.1-1.3,1.4-1.3,1.4v19.9c0,0-0.1,2.2-2.9,2.3
		s-3.2-2.7-3.2-2.7L19,23.1l-2.5,5.8c0,0-0.7,2.6-3.9,1.6c-2.6-0.9-0.9-4.9-0.9-4.9L18,11.9C17.8,11.9,19,9.4,21,9.4z"/>
	<circle class="st24" cx="37.7" cy="25.4" r="11"/>
	<circle class="st14" cx="34.1" cy="27.6" r="4.3"/>
	<rect x="33.5" y="23.1" transform="matrix(0.2802 -0.9599 0.9599 0.2802 -2.0107 52.4921)" class="st24" width="1" height="8.9"/>
	<path class="st17" d="M40.8,31.9L40.8,31.9c-1.4,0-2.7-1.2-2.7-2.7v-8.1c0-1.4,1.2-2.7,2.7-2.7l0,0c1.4,0,2.7,1.2,2.7,2.7v8.1
		C43.5,30.8,42.4,31.9,40.8,31.9z"/>
	<rect x="38.2" y="24.7" class="st24" width="5.3" height="1.2"/>
</g>
<g id="icon_39" class="st0">
	<path class="st18" d="M18.4-0.7L41-0.9c0,0,3.4,16.4-10.9,16.4C17.7,15.5,18.4,7.6,18.4-0.7z"/>
	<polygon class="st18" points="21.4,38.6 38.1,38.6 40.8,51.8 44.2,51.8 44.2,54.6 15,54.6 15,51.2 18.7,51.2 	"/>
	<rect x="21.7" y="28.8" class="st18" width="16.2" height="6.2"/>
	<path class="st18" d="M24.1,17.8c0,0-2.8,0.9-2.5,7.3l-3.2,0.4l0.2,7.1c0,0-1.6-1.1-2.7-4.3l-3.2,1.1c0,0,2.5,5.5,3.7,6.6l1.8-1.4
		l-1.2,9.6c0,0-11.6-6.1-11.7-22.3C5,12.3,15,4.4,15,4.4s0.4,5.5,2.8,7.8c0,0-2.7-0.5-5,5.9l3,1.4c0,0,0.9-4.1,3.2-5.5
		C18.7,14,21.4,17.1,24.1,17.8z"/>
	<path class="st18" d="M35.3,17.8c0,0,2.8,0.9,2.5,7.3l3.2,0.4l-0.2,7.1c0,0,1.6-1.1,2.7-4.3l3.2,1.1c0,0-2.5,5.5-3.7,6.6l-1.8-1.4
		l1.4,9.6c0,0,11.6-6.1,11.7-22.3c0.2-9.6-9.8-17.4-9.8-17.4s-0.4,5.5-2.8,7.8c0,0,2.7-0.5,5,5.9l-3,1.4c0,0-0.9-4.1-3.2-5.5
		C40.4,14,37.9,17.1,35.3,17.8z"/>
</g>
<g id="icon_40" class="st0">
	<circle class="st18" cx="29.8" cy="8" r="9.5"/>
	<path class="st18" d="M38.3,41.3c0,0,0-0.4-0.9-0.3c-0.9,0-6.7,0.6-9.5-5.6s-5.6-4-5.7-3.3c-0.1,0.6-0.1,2,0.4,4.2
		c0.6,2.2,1.6,4.9-0.1,5c-1.7,0.1-4.6,0.6-5.3,0.7c-0.7,0.3-1.4,0.7,0.1,1.6s3.9,1.6,6,1.7c2.3,0.1,9.5,0.1,10,3.7
		c0.4,2.9-1.9,5-5.5,5.5C23.5,55,16,54.2,10.9,48.9c-5.2-5.2-3.2-11.5-2.4-13.5c0.7-2,4.3-12.2,9.3-16.1c1.3-0.9,2.6-1.4,5.6-1.6
		s15.5-0.1,15.5-0.1s5.5,0.6,8.6,6.6c3.3,6,4.6,9.8,4.6,9.8s0.9,3.2-0.1,5.2c-1,2-4.2,6.3-4.9,6.9c-0.6,0.6-4.3,4.9-9.8,3
		c-2.9-1-2.3-4-2.2-4.4c0.1-0.6,1-2,2.4-2.9C38.6,41.5,38.3,41.3,38.3,41.3z"/>
	<circle class="st34" cx="36.4" cy="33.1" r="6.6"/>
</g>
<g id="icon_41" class="st0">
	<path class="st18" d="M39.7,1c0,0-4.2,11.8-10.8,12.1c-6.6,0.3-13,3.9-13,3.9s-0.5-4.6-3.6-6.3l0.2-6C12.3,4.6,24.3-4.2,39.7,1z"/>
	<path class="st18" d="M41.7,1.3c0,0-2.8,9.3-7.5,11.6c0,0,8.6,1.6,9.7,4.1c0,0,1.6-4.9,3.5-6.4l0.3-5.7C47.7,4.9,44.5,2.5,41.7,1.3
		z"/>
	<path class="st18" d="M10.3-0.8l0.3,12.3c0,0,3.3,3.1,3.5,7.5c0.2,4.2,0.2,11.2,0.2,11.2s-0.2,1.3-1.9,1.4c-1.7,0.2-2-2.4-2-2.4
		v-7.1c0,0-0.2-0.5-0.9-0.5c-0.8,0-0.9,0.5-0.9,0.8c0,0.3,0,9.4,0,9.4l5,9.6c0,0,0.6,1.9-0.8,2.8c-1.6,0.8-2.7-0.5-2.7-0.5L2.8,30.5
		c0,0-0.3-0.9-0.3-3.1s0-28.3,0-28.3L10.3-0.8z"/>
	<path class="st18" d="M16.4,19.2l-0.2,11.3c0,0-0.5,3.6-4.6,3.1l3.5,7.1c0,0,1.1,3.3-0.5,4.1c0,0,6.4,9.4,14,9.4
		c7.7-0.2,13.8-4.9,16.5-9.1c0,0-1.7-2.4-0.2-5s3.6-6.6,3.6-6.6s-3.5,1.1-4.9-2.8V19C43.6,19,30.1,9.3,16.4,19.2z"/>
	<path class="st43" d="M19.1,31.6c0,0,0.2,2.2,1.9,2.2c1.3,0,2-0.3,2.2-2.2"/>
	<path class="st43" d="M36.8,31.6c0,0,0.2,2.2,1.9,2.2c1.3,0,2-0.3,2.2-2.2"/>
	<polyline class="st43" points="28,33.2 28,37.1 31.8,37.1 	"/>
	<path class="st43" d="M22.5,41.2c0,0,3.3,4.6,7.2,4.4c3.8-0.2,7.1-4.2,7.1-4.4"/>
	<path class="st18" d="M49.9-0.9l-0.3,12.3c0,0-3.3,3.1-3.5,7.5S46,30,46,30s0.2,1.3,1.9,1.4c1.7,0.2,2-2.4,2-2.4V22
		c0,0,0.2-0.5,0.9-0.5s0.9,0.5,0.9,0.8c0,0.3,0,9.4,0,9.4l-5,9.6c0,0-0.6,1.9,0.8,2.8c1.4,0.8,2.5-0.3,2.5-0.5
		c0-0.2,7.2-13.4,7.2-13.4s0.3-0.9,0.3-3.1s0-28.3,0-28.3L49.9-0.9z"/>
</g>
<g id="icon_42" class="st0">
	<path class="st14" d="M23.3,19.5l-0.2,13c0,0,0.6,4.3-3.7,4.3S5.8,38.5,3.4,48c-0.7,2.8-0.7,4.1-0.6,4.5c0.2,0.4,0,1.5,1.5,1.5
		c1.5,0,6.9,0,6.9,0s1.1-0.2,1.5-2c0.4-1.9,1.9-4.6,3.7-4.8c0,0-0.2,6.7,7.8,6.9c8,0.2,27.9-6.1,31.4-22.5c2.6-11.7,2-19.5-4.6-25.5
		c-6.7-6.1-15.1-7.2-19.7-6.3c-4.8,0.9-7.6,6.3-7.6,9.7c0,0-7.1,0.7-10.2-5.2c-0.7-1.7-0.7-3.5-0.7-3.5s0-1.5-1.5-1.5s-6.7,0-6.7,0
		s-2,0.2-1.7,2.6c0.4,2.4,2.8,15.1,12.5,16.7C19.2,19.4,22.6,19.5,23.3,19.5z"/>
</g>
<g id="icon_43" class="st0">
	<circle class="st18" cx="29.8" cy="5.4" r="6.8"/>
	<path class="st18" d="M19.1,17.5h21.6c0,0-1.2-3.7-5.1-3.9s-11.5,0-11.5,0S19.4,13.8,19.1,17.5z"/>
	<path class="st18" d="M44.6,43.7H15.3c-2.1,0-3.7-1.7-3.7-3.7V22.7c0-2.1,1.7-3.7,3.7-3.7h29.4c2.1,0,3.7,1.7,3.7,3.7v17.1
		C48.4,41.8,46.6,43.7,44.6,43.7z"/>
	<path class="st18" d="M22.1,45h6.8v7.2c0,0-0.1,2.3-2,2.3c-1.9,0-2.8,0-2.8,0S22,54.3,22,51.7C22,49.7,22.1,45,22.1,45z"/>
	<path class="st18" d="M30.8,45h6.8v7.2c0,0-0.1,2.3-2,2.3s-2.8,0-2.8,0s-2.1-0.4-2.1-2.8C30.8,49.7,30.8,45,30.8,45z"/>
	<path class="st24" d="M24.5,41.9L35,41.8c0,0-0.8-1.7-1.9-1.9c-1.2-0.1-2.1,0.1-2.7,0.8s-1.1,0.5-1.5,0.1c-0.4-0.5-1.7-1.1-2.5-0.9
		C25.8,40.3,24.5,41.1,24.5,41.9z"/>
	<path class="st48" d="M27.8,37.4L28,25.5c0,0-0.1-2.5,1.6-2.7c1.9-0.1,1.9,2.5,1.9,2.5v11.9"/>
	<path class="st49" d="M38,41.8c0,0-1.3-5.1-6.5-4.4"/>
	<path class="st49" d="M31.8,35.1h5.9c0,0,3.7-0.4,4.5-3.6"/>
	<path class="st49" d="M31.8,30.6H36c0,0,3.6-0.3,4.3-3.5"/>
	<path class="st22" d="M31.7,26.3l3.1-0.1h0.1c0.4-0.1,2.7-0.3,3.3-2.9"/>
	<path class="st49" d="M21.4,41.7c0,0,1.3-5.1,6.5-4.4"/>
	<path class="st49" d="M27.7,35h-5.9c0,0-3.7-0.4-4.5-3.6"/>
	<path class="st49" d="M27.8,30.4h-4.1c0,0-3.6-0.3-4.3-3.5"/>
	<path class="st22" d="M27.8,26.2L24.8,26h-0.1c-0.4-0.1-2.7-0.3-3.3-2.9"/>
</g>
<g id="icon_44" class="st0">
	<path class="st50" d="M14.5,4.7c0,0,4.6-6,13.5-4.6c0,0,12.4-4,17.9,4.7c0,0,10,2.9,9.7,13c0,0,5.7,7.8,0.2,17.3
		c0,0-1.1,11.3-11.3,13.7c0,0-3.1,7.5-15.3,4.4c0,0-8.4,3.1-14.4-4.4c0,0-8-2.7-9.9-11.7c0,0-6.9-13,0.4-19.3
		C5.2,17.6,5.3,8.3,14.5,4.7z"/>
	<path class="st43" d="M55,17.8c0,0-5.1-12.4-22.1,0.2"/>
	<path class="st43" d="M55.1,18.2c0,0,0.4,10.8-8.9,13.7"/>
	<path class="st43" d="M48.8,40.1c0,0,5.3-2.6,7.3-6"/>
	<path class="st43" d="M23,4.8c0,0,4.2-4.4,6.9-5.1"/>
	<path class="st43" d="M36.2,47.7c0,0,5.3,1.8,9.3,0.7"/>
	<path class="st43" d="M32.2,53.7c0,0-13.7-2.4-12-13.1c0.7-4,3.5-8.9,3.5-8.9s-6.7,2-9.7,0.2"/>
	<path class="st43" d="M3.3,33.5c0,0,4,5.7,7.7,6.7"/>
	<path class="st43" d="M3.7,19.4c0,0,5.7-8,23.7-1.1"/>
</g>
<g id="icon_45" class="st0">
	<g class="st1">
		<path class="st8" d="M30.9,12.7c-1.9,0-3.7,0.3-5.5,1.1c0.2,0.5,0.3,1.1,0.3,1.6c0,3.4-2.8,6.2-6.2,6.2c-0.6,0-1.3-0.2-1.8-0.3
			C17,23,16.5,25,16.5,27.1c0,1,0.2,1.8,0.3,2.8c0.8-0.5,1.8-0.8,2.9-0.8c3.2,0,5.8,2.6,5.8,5.8c0,1.8-0.8,3.4-2.1,4.5
			c2.3,1.5,4.9,2.3,7.6,2.3c1.3,0,2.6-0.2,3.9-0.5c-1-1.3-1.6-2.9-1.6-4.7c0-4.1,3.4-7.5,7.5-7.5c1.6,0,3.2,0.5,4.4,1.5
			c0.3-1.1,0.3-2.1,0.3-3.2C45.3,19.1,38.8,12.7,30.9,12.7z"/>
	</g>
	<circle class="st18" cx="40.5" cy="36.5" r="4.7"/>
	<circle class="st18" cx="19.6" cy="34.8" r="3.1"/>
	<circle class="st18" cx="19.6" cy="15.6" r="3.4"/>
	<path class="st18" d="M42.4,14.8c0-0.2,0-0.5,0-0.6c0-4.5-3.7-8.1-8.1-8.1c-3.2,0-5.8,1.8-7.3,4.5c1.3-0.3,2.6-0.5,4.1-0.5
		C35.6,9.9,39.6,11.8,42.4,14.8z"/>
	<path class="st18" d="M52.1,13.1l-4.4,4.2c-0.8,0.8-2.1,0.3-2.4-0.6l-1.5-5.8L42.4,5c-0.3-1.1,0.8-2.1,1.8-1.8L50,4.9l5.8,1.6
		c1.1,0.3,1.5,1.6,0.6,2.4L52.1,13.1z"/>
	<path class="st19" d="M52.1,13.1c0,0,9.2,10.5,1.9,25.3S30.7,52.3,30.7,52.3"/>
	<path class="st18" d="M7.9,40.2l4.4-4.2c0.8-0.8,2.1-0.3,2.4,0.6l1.5,5.8l1.5,5.8c0.3,1.1-0.8,2.1-1.8,1.8L10,48.5l-5.8-1.6
		c-1.1-0.3-1.5-1.6-0.6-2.4L7.9,40.2z"/>
	<path class="st19" d="M7.9,40.2c0,0-8.7-12.6-2.1-25.3C14.4-1.8,29.1,0.8,29.1,0.8"/>
</g>
<g id="icon_46" class="st0">
	<path class="st18" d="M24,47.7H9.3c-1,0-2.1-0.9-2.1-2.1l0,0c0-1,0.9-2.1,2.1-2.1H24c1,0,2.1,0.9,2.1,2.1l0,0
		C25.9,46.7,25,47.7,24,47.7z"/>
	<path class="st18" d="M54.8,53.9H5.2c-1,0-1.9-0.9-1.9-1.9l0,0c0-1,0.9-1.9,1.9-1.9h49.5c1,0,1.9,0.9,1.9,1.9l0,0
		C56.7,53,56,53.9,54.8,53.9z"/>
	<path class="st18" d="M21.2,36.9l-6.8-4.2c-1.7-1-2.4-3.5-1.2-5.2L26.2,5.9c1-1.7,3.5-2.4,5.2-1.2l6.8,4.2c1.7,1,2.4,3.5,1.2,5.2
		L26.4,35.7C25.4,37.6,22.9,38.1,21.2,36.9z"/>
	<path class="st18" d="M15.2,39.3L15.2,39.3c-1.2-0.7-1.4-2.1-0.9-3L17,32c0.5-1,1.9-1.4,3-0.7l0.2,0.2c1,0.5,1.4,1.9,0.7,3
		l-2.6,4.2C17.5,39.3,16.3,39.7,15.2,39.3z"/>
	<path class="st18" d="M39.5,7.1l-6.6-4c-0.7-0.3-0.9-1.2-0.5-1.9L33.1,0c0.3-0.7,1.2-0.9,1.9-0.5l6.6,4c0.7,0.3,0.9,1.2,0.5,1.9
		l-0.7,1.2C41.1,7.3,40.2,7.5,39.5,7.1z"/>
	<path class="st51" d="M39.7,24.1c0,0,14,4.9,11.9,14.2c-1.6,7.2-5.4,12.4-5.4,12.4"/>
</g>
<g id="icon_47" class="st0">
	<path class="st18" d="M6.8,46.3l-4.7-8.7c-0.4-0.9-0.1-1.9,0.7-2.3l2.1-1.1l6.3,11.4l-2.4,1.3C8.1,47.1,7.2,46.8,6.8,46.3z"/>
	<path class="st18" d="M6.9,32.5l5.9,11.6l3.7-2l16.7,3.4c0,0,2.7,0.7,7-0.9c4.3-1.6,16.7-7,16.7-7s1.6-0.9,1-2.7
		c-0.6-1.9-2-1.9-3.6-1.3c-1.6,0.4-10.6,4.4-10.6,4.4s-1.3,0.6-3.6,0.6c-2.1,0-13-0.7-13-0.7s-0.6,0-0.6-0.9
		c0.1-0.9,1.9-0.6,1.9-0.6L40.1,37c0,0,2.1-0.3,2.1-2.4s-1.4-2.6-2.3-2.7c-0.9-0.1-8.3-0.3-18.3-4.4c-1.7-0.7-7.1,0.6-8.9,1.6
		C11.1,30,6.9,32.5,6.9,32.5z"/>
	<path class="st18" d="M44.2,33.8c0,0,0.1,1.6,0,2l9.3-3.4c0,0-0.6-1.4-3-0.7C48.1,32.4,44.2,33.8,44.2,33.8z"/>
	<path class="st18" d="M42.4,30.8l1.1,1.3l6-1.7c0,0-1-0.9-3.7-0.3C42.9,30.5,42.4,30.8,42.4,30.8z"/>
	<path class="st40" d="M46.8,6.3c0,0,1.4,17.3-16.6,16.4c0,0,3-5.7,10-8.9c0,0-9.4,0.7-14.3,13.6c0,0-0.3,0.7-1,0.6
		c-0.7-0.3-0.7-1-0.6-1.9c0.1-0.9,1-3.1,2.4-4.1c0,0-1.7-10.3,11-11C40.8,11,45.1,8.3,46.8,6.3z"/>
</g>
<g id="icon_48" class="st0">
	<path class="st17" d="M29.3-2h5.1v17.5c0,0,0,4.2,7.2,3.7l2.3,2.8l-2.6,0.3c0,0-4.4,0.7-5.8-0.9c-1.4-1.6-1,1.2-1,1.2v32.2h-5.2
		l-1.7-33c0,0-0.9,3.7-9.1,2.8l-1-2.3l0.3-0.7c0,0,4,1,9.3-1.4c1.9-0.9,1.9-7.2,1.9-7.2L29.3-2z"/>
	<path class="st18" d="M41.4,26.2c0,0-10.1,2.6-11.7-6.8V-2h-4.7v26.7c0,0,0.9,3.3-6.3,3.8l-2.1,2.1l1.2,1l1.4,0.3l3.1-0.9
		c0,0,2.6-0.9,2.8,1c0,1.7,0,22.9,0,22.9l4.7-0.2V26.2c0,0,3.1,4.5,11.2,3.7l1.2-2.8L41.4,26.2z"/>
	<path class="st17" d="M43.6,6.9c0,0,6.3-2.8,10.3,1.9s6.3,18.7,1.6,27.8s-10.1,6.6-12.6,5.6c-2.6-1-4.4-5.2-3.3-8.4
		c0.9-3.1,1.9-5.9,1.7-7c-0.3-1-1-3.8-0.5-4.9c0.5-1,0.7-3,0.2-3.5c-0.5-0.5-1.7-1.9-1.7-3.3C39.3,13.9,38.9,9.7,43.6,6.9z"/>
	<path class="st17" d="M16.2,9c0,0-6.3-2.8-10.3,1.9s-6.3,18.2-1.6,27.1s10.3,6.3,12.6,5.4s4.4-5.1,3.3-8s-1.9-5.8-1.7-6.8
		c0.3-1,1-3.7,0.5-4.7c-0.5-1-0.7-3-0.2-3.5c0.5-0.5,1.7-1.9,1.7-3.1S20.9,11.7,16.2,9z"/>
</g>
<g id="icon_49" class="st0">
	<g id="brain" class="st1">
		<path class="st52" d="M19.3,20c0,0-2.4-3,0.5-5.2c0,0,0.7-3.2,3.9-2.7c0,0,1.5-3.5,5.1-2.5c0,0,3-2.2,4.9,0c0,0,3.9-1.3,5.2,1.5
			c0,0,3.5,0.2,3.9,3c0,0,4.6,4.6-0.2,7.6L19.3,20z"/>
		<path class="st53" d="M20.5,13.2c0,0-1.3,2.4,0.8,3.4"/>
		<path class="st53" d="M24.2,11.1c0,0-2.2,4.6,2.9,5.4"/>
		<path class="st53" d="M28.8,18.3c0,0,3.4-4.7-1.7-6.1"/>
		<path class="st53" d="M32.7,13.6c0,0,0,2.4-2.7,2.5"/>
		<path class="st53" d="M32.5,8.9c0,0.2,1.9,0.3,2.2,3.9"/>
		<path class="st53" d="M33.5,19.5c0,0,0.3-3.4,4-3.2"/>
		<path class="st53" d="M40.9,19c0,0-3.2-0.2-3.2-3.7"/>
		<path class="st53" d="M23.7,18.5c0,0,0.2,1.7,1.5,2"/>
		<path class="st54" d="M19.3,20.2c0,0-2.9,2.5-0.3,5.2c0,0,0.2,3.2,3.4,3.2c0,0,1,3.7,4.7,3.2c0,0,2.7,2.5,4.9,0.7
			c0,0,3.7,1.9,5.4-0.7c0,0,3.5,0.2,4.2-2.5c0,0,5.2-3.9,0.8-7.6L19.3,20.2z"/>
		<path class="st5" d="M19.7,26.9c0,0-1-2.5,1.3-3.2"/>
		<path class="st5" d="M23,29.8c0,0-1.5-4.7,3.7-5.1"/>
		<path class="st5" d="M28.4,23.2c0,0,2.7,5.1-2.5,5.7"/>
		<path class="st5" d="M31.5,28.4c0,0,0.3-2.2-2.4-2.9"/>
		<path class="st5" d="M30.8,33.1c0-0.2,1.9,0,2.7-3.5"/>
		<path class="st5" d="M33.3,22.7c0,0-0.2,3.4,3.5,3.7"/>
		<path class="st5" d="M40.4,24c0,0-3.2-0.2-3.5,3.2"/>
		<path class="st5" d="M25.7,22.4c0,0,0.3-1.7,1.9-1.7"/>
		<path class="st5" d="M36.9,23.9c0,0,0.7-2,2.4-2.5"/>
	</g>
	<path class="st18" d="M24.2,4c-8.3,1.2-11,4.6-13.8,8.3c-2.9,3.9-1.9,12.3-1.9,12.3S5.7,27.9,5,28.8c-0.7,0.8-2,2.9-1.9,4.6
		c0.3,1.7,3,2,3,2s-0.3,3.5-0.3,4.4c0,0.8,0.8,1,1,1.2c0.2,0,0.3,0.3,0.3,0.3s-0.7,0.2-0.7,0.8c0,1,1,1.5,1,1.5c0,0.2,0.3,0.3,0,1.3
		C7,46,7,47.7,8.9,49.2c1.9,1.5,9.4,1.3,9.4,1.3v5.1l24.1-0.5c0,0-0.5-0.7-1.3-5.1c-0.8-4.4,0.3-7.6,0.5-8.3
		c0.3-0.7,1.9-3.2,4.4-7.3c1.7-2.7,2.7-6.6,3-10.5c-0.2,0-0.3,0-0.3,0C35.4,23.2,24.9,14.4,24.2,4z"/>
	<path class="st18" d="M24.7,3.6c0,0,8.6,14.7,32.1,8.6C56.8,12.2,47.2-14.1,24.7,3.6z"/>
</g>
<g id="icon_50" class="st0">
	<path class="st55" d="M30,1.2c0,0,5.9-5.4,10.8,0.2c0,0,6.8,0.9,6.1,7.7c0,0,7.7,2.6,6.1,10.3c0,0,4.9,6.1,0.9,10.3
		c0,0,3.3,8-2.3,11.2c0,0,0,7.5-5.8,8.6c0,0-8.9,10.3-15.9,0.7L30,1.2z"/>
	<path class="st56" d="M44.5,3c0,0-5.2-2.4-7,2.4"/>
	<path class="st56" d="M49.4,10.4c0,0-9.4-3.8-10.6,6.9"/>
	<path class="st56" d="M34.9,21c0,0,10.3,6.3,12.4-4.5"/>
	<path class="st56" d="M45.4,28.1c0,0-4.7,0.3-5.6-5.2"/>
	<path class="st56" d="M55.3,27.3c-0.2,0-0.1,4-7.6,5.2"/>
	<path class="st56" d="M33.1,30.9c0,0,7.2,0,7.3,7.9"/>
	<path class="st56" d="M35.2,46.3c0,0,0-6.8,7.2-7.2"/>
	<path class="st56" d="M34,10.1c0,0-3.5,0.5-4,3.5"/>
	<path class="st55" d="M29.8,1.2c0,0-5.9-5.4-10.8,0.2c0,0-6.8,0.9-6.1,7.7c0,0-7.7,2.6-6.1,10.3c0,0-4.9,6.1-0.9,10.3
		c0,0-3.3,8,2.3,11.2c0,0,0,7.5,5.8,8.6c0,0,8.9,10.3,15.9,0.7V1.2z"/>
	<path class="st56" d="M15.5,3c0,0,5.2-2.4,7,2.4"/>
	<path class="st56" d="M10.2,10.5c0,0,9.8-3.8,11,6.8"/>
	<path class="st56" d="M24.7,21c0,0-10.3,6.3-12.4-4.5"/>
	<path class="st56" d="M14.3,28.1c0,0,4.7,0.3,5.6-5.2"/>
	<path class="st56" d="M4.4,26.9c0.1,0.1,0.2,4.4,7.7,5.6"/>
	<path class="st56" d="M26.7,30.9c0,0-7.2,0-7.3,7.9"/>
	<path class="st56" d="M24.6,46.3c0,0,0-6.8-7.2-7.2"/>
	<path class="st56" d="M26,15.2c0,0,3.5,0.5,4,3.5"/>
	<path class="st56" d="M24.4,38.6c0,0,4.4,1,5.4,4.5"/>
</g>
<g id="icon_51" class="st0">
	<circle class="st18" cx="30" cy="26.6" r="28.9"/>
	<circle class="st57" cx="29.7" cy="27.2" r="8"/>
	<path class="st58" d="M25.7,19.3l-5.2-9.5c0,0,10.1-4.7,17.8-0.1l-5,9.6"/>
	<path class="st58" d="M38.3,27l10.8,0.1c0,0-0.7,11.1-8.4,15.6l-5.9-9"/>
	<path class="st58" d="M24.5,34.1L18.3,43c0,0-8.7-7-8-15.8l10.8,0.3"/>
</g>
<g id="icon_52" class="st0">
	<path class="st18" d="M51.5,54.6h-43c-3.7,0-6.8-3.1-6.8-6.8V5.3c0-3.7,3.1-6.8,6.8-6.8h42.8c3.7,0,6.8,3.1,6.8,6.8v42.4
		C58.3,51.5,55.2,54.6,51.5,54.6z"/>
	<path class="st24" d="M20,20h20.9l7.4-10.4c0,0-17.8-15.6-35.8,0.2L20,20z"/>
	<path class="st17" d="M29.8,27c0,0,2.9-4.3,8.4-2.9c5.7,1.6,6.3,5.9,6.3,5.9s2,11.7-14.1,20.1c0,0-16.6-5.9-15.4-18.8
		c0.4-5.1,4.3-7.6,6.3-7.8C23.9,23.5,27.3,23.7,29.8,27z"/>
	<circle class="st59" cx="30" cy="19" r="4.1"/>
	<line class="st19" x1="35.7" y1="8.9" x2="32.1" y2="15.1"/>
	<path class="st18" d="M29.6,43.1L29.6,43.1c-1,0-1.7-0.7-1.7-1.7v-8.6c0-1,0.7-1.7,1.7-1.7l0,0c1,0,1.7,0.7,1.7,1.7v8.6
		C31.5,42.4,30.6,43.1,29.6,43.1z"/>
	<path class="st18" d="M35.7,37L35.7,37c0,1-0.7,1.7-1.7,1.7h-8.6c-1,0-1.7-0.7-1.7-1.7l0,0c0-1,0.7-1.7,1.7-1.7H34
		C35,35.3,35.7,36,35.7,37z"/>
</g>
<g id="icon_53" class="st0">
	<path class="st18" d="M54.8,14.2l-1.4,4.6c0,0-1,2.7-4.9,2.7s-6.3-1-6.6,1.7c-0.5,2.7-1.7,9-9.6,9.6c0,0-0.5,0.5,0.3,0.7
		c0.8,0.2,4.2-0.2,5.7-1c1.5-0.8,3.4,0.3,4.4,2.7c1,2.4,1.5,2.7,2,2.5c0.5,0,2.5-0.5,3,0c0.5,0.5,1.2,1.5-0.7,2.7
		c-1.9,1.4-3.7,0.8-4.9-0.5c-1.2-1.4-1.9-1.9-2.5-2c-0.7-0.2-2.4,0-2.5,1.5c-0.2,1.5-2.7,6.9-9,6.3c-6.1-0.7-9.3-3.4-10.5-7.9
		s0.8-9.3,1.4-10.6c0.7-2.4,0.5-3.4-0.3-4.7s-2.4-1-2.9-5.2C15.3,13,18.6,9,21.2,7.5c0,0,2.7-1.9,5.7-1.2s5.6,2,7.4,4.2
		c2.2,2.4,2,5.7,0.2,8.4c-0.3,0.5-0.5,0.8-0.2,1.4c0.3,0.5,0.8,3.2-1,3.7c-1.9,0.5-3.9,0.5-4.4,1.2c-0.5,0.7-0.2,1.2,0.5,1.7
		c0.7,0.5,1.9,0.7,2,0.7c0.2,0,0-0.7,0-1.2c0-0.5,1-1,1.9-0.2c0.8,0.8,1.5,1.7,1,2.9c-0.3,1.2-0.7,0.7,0.2,0.8
		c0.7,0.2,0.3-0.3,1.2-0.7c0.7-0.3,1.2-0.3,1.4-0.8c0.3-0.5,1.9-5.9,2.4-6.6c0.5-0.7,1-2.9,7.1-4.4c3-0.7,3.2-2.4,2.7-5.1
		c-0.5-2-1.5-5.7-2-7.4C42.5,1.2,36.4-1.1,30-1.1C14.6-1.1,2.2,11.4,2.2,26.6c0,15.4,12.5,27.7,27.7,27.7s27.7-12.2,27.7-27.5
		C57.7,22.2,56.6,17.9,54.8,14.2z"/>
</g>
<g id="icon_54" class="st0">
	<path class="st18" d="M5.7,7.1c0,0,1.6-3.8,5.2-2.5s3.8,4.1,3.6,6.3C14.3,13,15,16.5,15,16.5s2,4,4.1,0.7c2.7-4,9.7-14.2,9.7-14.2
		s2.5-3.6,6.3-1.4c3.8,2,1.1,6.5,1.1,6.5l-5.4,10.8L43.2,7.3c0,0,3.8-2.5,6.3,0.9c2.5,3.4-0.7,6.3-0.7,6.3L38.4,25.6l10.1-5
		c0,0,4.1-1.4,5.6,1.8s-0.2,5.2-1.1,5.9C52,29,40.7,36.6,40.7,36.6l7.2-1.6c0,0,4.7-0.9,5.4,2.9c0.7,3.8-1.6,5-2.9,5.4
		c-1.1,0.5-21.9,8.3-21.9,8.3s-9.5,3.4-17.3-3.6c-6.8-6.1-5.8-17.1-5.8-17.1S5.1,8.2,5.7,7.1z"/>
	<circle class="st24" cx="16.1" cy="31.2" r="2.5"/>
	<circle class="st24" cx="29.8" cy="31.2" r="2.5"/>
	<path class="st22" d="M13.4,37c0,0,2.2,7.2,8.8,7.4s9.2-4.7,9.9-7.2"/>
</g>
<g id="icon_55" class="st0">
	<path class="st18" d="M40.3,42.2H19.7c-2.1,0-3.7-1.7-3.7-3.7V14.8c0-2.1,1.7-3.7,3.7-3.7h20.5c2.1,0,3.7,1.7,3.7,3.7v23.6
		C44,40.5,42.3,42.2,40.3,42.2z"/>
	<text transform="matrix(1 0 0 1 27.1909 20.359)" class="st24 st60 st61">E</text>
	<text transform="matrix(1 0 0 1 23.8379 26.8401)" class="st24 st60 st62">F</text>
	<text transform="matrix(1 0 0 1 32.0732 26.8401)" class="st24 st60 st62">P</text>
	<text transform="matrix(1 0 0 1 34.1319 32.5524)" class="st24 st60 st63">Z</text>
	<text transform="matrix(1 0 0 1 27.8377 32.5524)" class="st24 st60 st63">O</text>
	<text transform="matrix(1 0 0 1 22.1907 32.5524)" class="st24 st60 st63">T</text>
	<text transform="matrix(1 0 0 1 20.4263 37.964)" class="st24 st60 st64">L</text>
	<text transform="matrix(1 0 0 1 25.5439 37.964)" class="st24 st60 st64">P</text>
	<text transform="matrix(1 0 0 1 30.3675 37.964)" class="st24 st60 st64">E</text>
	<text transform="matrix(1 0 0 1 35.6616 37.964)" class="st24 st60 st64">D</text>
</g>
<g id="icon_56" class="st0">
	<path class="st18" d="M13.5,50.6L1.8,37.9l27.6-25.4c3.6-3.2,9.1-3,12.3,0.6l0,0c3.2,3.6,3,9.1-0.6,12.3L13.5,50.6z"/>
	<rect x="28.1" y="22.2" transform="matrix(0.7362 -0.6768 0.6768 0.7362 -8.2697 26.2892)" class="st24" width="3" height="3"/>
	<rect x="28.1" y="22.2" transform="matrix(0.7362 -0.6768 0.6768 0.7362 -8.2697 26.2892)" class="st24" width="3" height="3"/>
	<rect x="23.3" y="26.6" transform="matrix(0.7362 -0.6768 0.6768 0.7362 -12.462 24.236)" class="st24" width="3" height="3"/>
	
		<rect x="18.8" y="23.9" transform="matrix(0.7362 -0.6768 0.6768 0.7362 -16.6862 22.4154)" class="st24" width="3.2" height="17.4"/>
	<polyline class="st19" points="41.1,13.5 53,2.5 58.1,2.7 	"/>
</g>
<g id="icon_57" class="st0">
	<path class="st18" d="M22.5,49.4l0.1-2.5c0-0.4,0.6-0.7,0.9-0.4l2,1.3l2,1.3c0.4,0.3,0.3,0.9,0,1l-2.2,1l-2.2,1.2
		c-0.4,0.3-0.9,0-0.9-0.6L22.5,49.4z"/>
	<path class="st65" d="M23,49.4c0,0-18.5-3.3-19.8-19.8C2.8,15.5,12.2,8.5,12.2,8.5"/>
	<path class="st24" d="M35.4,13c0,0,4.3-1,6.3,0c2.5,1.2,4.3,4.2,3,9.2c-1.3,5-2.5,9.4-2.7,13.7c-0.4,4.3-3.5,7.2-5.5,7.5
		c-2,0.4-3.5-1.7-3-3.3c0.4-1.6,1-6.2,0.9-7.4c-0.1-2.2-1.3-4-3-4c-1.7,0-2.6,1-3,2c-0.4,1.2-1.2,5.5-0.6,7.5c0.4,2,0.1,5-1.7,5
		c-1.9,0.1-5.5-1.9-6.9-10.4S17,22.5,16.7,21.4c-1-3.9,0-8.9,4.3-9.2s7.8,1.6,9.4,1.7C31.5,14.2,33.9,13.3,35.4,13z"/>
	<path class="st17" d="M27.6,17.2c0,0,2.6,1.4,3.6,1c1-0.6,3.5-1.7,6.2-0.4c2.7,1.4,2.7,3,2.7,3s0.9,3-0.6,5.3c-1.4,2.5-1,7.4-1,7.4
		s0.1,1.7-0.7,1.7c-0.7,0-1.3-1.6-1.3-1.9c0-0.3-0.9-6.3-4.9-7.1s-4.8,3-5.3,4.5c-0.3,1-0.6,3.8-0.6,3.8s-0.1,1.4-1,1.3
		c-0.7-0.1-1-1.6-1-5s-1-3.8-1.6-5.8c-0.6-2-0.4-5.5,1.6-7.1C25.6,16.3,27.6,17.2,27.6,17.2z"/>
	<path class="st18" d="M36,3.8v2.5c0,0.4-0.4,0.7-0.9,0.6L33,5.6l-2.2-1.2c-0.4-0.1-0.4-0.9,0-1l2-1.3l2-1.3c0.4-0.3,0.9,0,0.9,0.4
		L36,3.8z"/>
	<path class="st65" d="M35.4,3.8c0,0,18.6,2.2,21.1,18.5C57.9,36.4,49,43.9,49,43.9"/>
</g>
<g id="icon_58" class="st0">
	<path class="st24" d="M33.4,2.6c0,0,6.9-1.5,10.2,0c3.9,1.9,6.9,6.8,4.8,14.9c-2.1,8.1-3.9,15-4.4,22.2c-0.8,6.9-5.6,11.8-8.9,12.2
		c-3.3,0.8-5.6-2.7-5-5.4c0.8-2.5,1.5-10.2,1.4-12c-0.4-3.7-2.1-6.6-5-6.6s-4.2,1.5-5,3.3c-0.8,1.9-1.9,8.9-1,12.2
		c0.8,3.3,0.4,8.1-2.7,8.3c-3.1,0.2-8.9-3.1-11.2-16.8S3.1,18.1,2.7,16.1C1,9.8,2.7,1.7,9.7,1.3c6.9-0.6,12.7,2.5,15,2.7
		C27,4.6,30.9,3,33.4,2.6z"/>
	<path class="st17" d="M20.7,9.4c0,0,4.1,2.3,5.8,1.5c1.7-0.8,5.4-2.9,10-0.8c4.4,2.3,4.4,4.8,4.4,4.8s1.4,4.8-1,8.7
		c-2.3,3.9-1.7,11.8-1.7,11.8s0.2,2.7-1.2,2.7c-1.2,0-2.1-2.5-2.1-3.1c0-0.6-1.4-10.2-7.9-11.6s-7.7,5-8.5,7.1c-0.6,1.5-1,6.2-1,6.2
		s-0.4,2.3-1.5,2.1c-1.2-0.2-1.5-2.5-1.5-8.1c0-5.4-1.7-6.2-2.5-9.5c-0.8-3.3-0.8-8.9,2.5-11.4C17.4,8,20.7,9.4,20.7,9.4z"/>
	<circle class="st18" cx="45.9" cy="35.8" r="12"/>
	<path class="st24" d="M46.5,42.6h-1.7c-1,0-1.7-0.8-1.7-1.7V31c0-1,0.8-1.7,1.7-1.7h1.7c1,0,1.7,0.8,1.7,1.7v9.8
		C48.2,41.8,47.5,42.6,46.5,42.6z"/>
	<path class="st24" d="M39.2,36.8V35c0-1,0.8-1.7,1.7-1.7h9.8c1,0,1.7,0.8,1.7,1.7v1.7c0,1-0.8,1.7-1.7,1.7h-9.8
		C40,38.5,39.2,37.7,39.2,36.8z"/>
</g>
<g id="icon_59" class="st0">
	<path class="st18" d="M25-1.6h14l-7.2,15.2c0,0,3.1,2.8,2.4,6.1c-0.6,3.1-2.1,5.1-7.2,4.5c-2.1-0.3-4.6-2.8-5.4-3
		c-0.6-0.1-2.2-0.7-3.9-0.6c-1.6,0.3-6.1-0.4-6.1-6.7c0-4.6,4.6-7,8.6-5.7L25-1.6z"/>
	<path class="st18" d="M20.9,54.7h13.6l-3-13c0,0,4.8-1.9,3.4-7.5s-7.6-4.2-8.6-3.7c-1,0.6-1.9,1.6-4.5,1c-2.5-0.6-5.7-0.6-7.3,1.9
		c-1.3,2.1-1.3,7.8,4,9.5L20.9,54.7z"/>
	<path class="st18" d="M47.5,28.3h-3.1c-0.9,0-1.6-0.7-1.6-1.6l0,0c0-0.9,0.7-1.6,1.6-1.6h3.1c0.9,0,1.6,0.7,1.6,1.6l0,0
		C49.1,27.6,48.4,28.3,47.5,28.3z"/>
	<path class="st18" d="M44.9,19.7l-2.2,2.2c-0.6,0.6-1.6,0.6-2.2,0l0,0c-0.6-0.6-0.6-1.6,0-2.2l2.2-2.2c0.6-0.6,1.6-0.6,2.2,0l0,0
		C45.5,18.1,45.5,19.1,44.9,19.7z"/>
	<path class="st18" d="M42.4,35.7l-2.1-2.4c-0.6-0.6-0.6-1.6,0.1-2.2l0,0c0.6-0.6,1.6-0.6,2.2,0.1l2.1,2.4c0.6,0.6,0.6,1.6-0.1,2.2
		l0,0C44,36.4,43,36.2,42.4,35.7z"/>
</g>
<g id="icon_60" class="st0">
	<circle class="st18" cx="23.6" cy="10.7" r="6"/>
	<circle class="st18" cx="46.3" cy="36.3" r="6.8"/>
	<path class="st18" d="M1.9,48.1v2.8c0,0,0,0.8,0.9,0.8s35.6,0,35.6,0s-2.4-1.7-2.5-2.4L4.5,49C4.3,49,2.9,49.2,1.9,48.1z"/>
	<path class="st18" d="M36.4,47.5l2.5,2.4c0,0,0.8,1.6,3.3,1.6c2.5,0,14.2,0,14.2,0s1.7-0.8,1.7-3s-1.6-3.1-3.8-3.1s-11.5,0-11.5,0
		s-7.9-8.8-9.3-9H4c0,0-1.9,0-2,1.9c-0.2,1.7,0,7.1,0,7.1s0,2.4,1.6,2.4S36.4,47.5,36.4,47.5z"/>
	<path class="st18" d="M18.9,34.2c0,0,1.3-2.7,3-3.6s1.7-3.1,1.6-3.6l3,2.8l9.4,4.1c0,0,2.4,0.6,3-1.1c0.6-1.9,0.3-2.8-0.9-3.5
		c-1.3-0.6-8.7-3.3-8.7-3.3l-6.4-6.3c0,0-1.3-0.9-2.8-1.3c-1.4-0.3-3.9-0.6-3.9-0.6s-2-0.3-3,2c-0.9,2.4-5.7,13.5-5.7,13.5
		s-0.6,1.4,0.3,1.4c0.9,0,10.4,0,10.4,0S18.8,34.9,18.9,34.2z"/>
	<path class="st18" d="M16.3,8.6c0,0,0.8-3.6,4.6-5c0,0-0.8-2.5-4.2-2s-2.8,4.4-2.5,4.9C14.2,6.9,14.8,8.3,16.3,8.6z"/>
</g>
<g id="icon_61" class="st0">
	<defs>
		<path id="SVGID_20_" d="M29-1.4c0,0,9.5-1.4,15.2,2.3c5.7,3.6,9.3,7.7,10.2,13.6s-0.4,13.1-3,17.3c-2.7,4.5-4.5,7.2-4.8,7.9
			c-0.2,0.7-1.4,4.3-0.5,8.9c0.9,4.8,1.4,5.5,1.4,5.5l-26.1,0.5v-5.5c0,0-8.2,0.2-10.2-1.4c-2-1.6-2-3.4-1.4-4.6
			c0.4-1.1,0-1.3,0-1.4c0,0-1.1-0.5-1.1-1.6c0-0.7,0.7-0.9,0.7-0.9S9.2,38.9,9,38.9c-0.2-0.2-1.1-0.4-1.1-1.3s0.5-4.8,0.5-4.8
			s-2.9-0.4-3.2-2.1c-0.2-1.8,1.3-4.1,2-5C7.9,24.8,11,21,11,21s-1.1-9.1,2-13.4C16.2,3.5,19.2-0.3,29-1.4z"/>
	</defs>
	<use xlink:href="#SVGID_20_"  style="display:inline;overflow:visible;fill:#1341A3;"/>
	<clipPath id="SVGID_21_" class="st1">
		<use xlink:href="#SVGID_20_"  style="overflow:visible;"/>
	</clipPath>
	<path class="st66" d="M5.8,32.1c0,0,3-5.9,7.3-8.2c4.3-2.5,9.8-1.6,12.2-0.9c2.3,0.7,7,3.9,12.7,2c1.6-0.5,5.2-2.3,5.5-3
		c0,0,1.4-0.4,1.6,0.7c0.2,1.3-0.7,2.5-2.9,4.3c-2.1,1.8-3.4,8.9-6.8,27.7h-3c0,0,0.4-15.4-2.9-21.1c-3-5.5-8.4-12.9-22.3-1.1
		l-0.4,0.4L5.8,32.1z"/>
</g>
<g id="icon_62" class="st0">
	<circle class="st18" cx="30.1" cy="28.9" r="23.6"/>
	<circle class="st18" cx="9.8" cy="30.4" r="8.3"/>
	<circle class="st18" cx="50.1" cy="30.4" r="8.3"/>
	<rect x="35.6" y="1.9" class="st18" width="3.3" height="8"/>
	<rect x="28.3" y="0.6" class="st18" width="3.3" height="8"/>
	<rect x="21.1" y="2.1" class="st18" width="3.3" height="8"/>
	<path class="st67" d="M18.4,26h23c0,0,1.5,16.9-10.9,17C16,43.1,18.2,26.6,18.4,26z"/>
	<polyline class="st57" points="25.8,26.7 25.8,32.5 33.6,32.5 33.6,26.6 	"/>
</g>
<g id="icon_63" class="st0">
	<g class="st1">
		<g>
			<circle id="SVGID_19_" class="st8" cx="30.1" cy="30" r="23.1"/>
		</g>
		<g>
			<g>
				<g>
					<defs>
						<circle id="SVGID_22_" cx="30.1" cy="30" r="23.1"/>
					</defs>
					<clipPath id="SVGID_23_">
						<use xlink:href="#SVGID_22_"  style="overflow:visible;"/>
					</clipPath>
					<path class="st68" d="M35.3,6.7c0,0,5.7,10.2-1.1,13.5s-11.8-0.6-12.7-6.8"/>
				</g>
			</g>
		</g>
	</g>
	<path class="st18" d="M9.3,35.1H5.9c-2.7,0-4.9-2.3-4.9-4.9l0,0c0-2.7,2.3-4.9,4.9-4.9h3.4c2.7,0,4.9,2.3,4.9,4.9l0,0
		C14.2,32.8,11.9,35.1,9.3,35.1z"/>
	<path class="st18" d="M54,35.1h-3.4c-2.7,0-4.9-2.3-4.9-4.9l0,0c0-2.7,2.3-4.9,4.9-4.9H54c2.7,0,4.9,2.3,4.9,4.9l0,0
		C59,32.8,56.7,35.1,54,35.1z"/>
	<path class="st69" d="M21,0c0,0,0,7.2,8,9.3c0,0-15.4,2.5-17.1-7.6"/>
	<path class="st43" d="M36.8,30.7c0,0,0.4-4.4,4-4.4s4.9,3.8,4.9,3.8"/>
	<path class="st43" d="M14.4,30.7c0,0,0.4-4.4,4-4.4s4.9,3.8,4.9,3.8"/>
	<path class="st43" d="M22.8,40.2c0,0,3,4.2,7.2,4c5.1-0.2,7-4,7-4"/>
</g>
<g id="icon_64" class="st0">
	<circle class="st46" cx="29.5" cy="39.9" r="13.4"/>
	<ellipse class="st70" cx="30" cy="28.8" rx="19.3" ry="7.2"/>
	<g class="st1">
		<path class="st8" d="M33.5,30.3c0,0-5.4-0.2-6.7-0.2c-2.2,0-3.7-2.2-3.7-5.4c0-1.7-1.7-4.9-2.4-5.9c-2.2-3.4-2.9-7.1-1.8-11.1
			c0.7-3.4,4.7-8.2,10.9-8.4h0.3c6,0,10.2,3.9,11.6,7.6c1.2,3.4,0.8,10.2-2.4,13.1c-2.7,2.4-3.4,6.7-3.4,7.2
			C35.7,29.5,34.3,30.3,33.5,30.3L33.5,30.3L33.5,30.3z"/>
		<path class="st71" d="M30.3,0.9c5.7,0,9.4,3.6,10.4,6.6c1.2,3,0.7,9.4-1.8,11.6c-2.5,2.4-3.5,6.2-3.9,8.1c-0.2,1.8-1.5,2-1.5,2
			S28.1,29,26.8,29c-1.3,0-2.4-1.5-2.4-4s-2.5-6.6-2.5-6.6c-2.5-3.9-2.4-7.6-1.7-10.1c0.7-2.7,3.9-7.2,9.7-7.4c0.1,0,0.2,0,0.2,0
			 M30.3-1.8c-0.2,0-0.3,0-0.3,0c-7.1,0.2-11.4,5.5-12.1,9.2c-1,4.4-0.3,8.4,2,12.1c0.8,1.3,2.2,4,2.2,5.2c0,4.5,2.5,6.6,4.9,6.6
			c1,0,5.2,0.2,6.7,0.2h0.2H34c1.2-0.2,3.4-1.2,3.7-4.2c0.2-1.5,1-4.7,3-6.4c3.7-3.2,4-10.8,2.7-14.4C41.7,2.6,37-1.8,30.3-1.8
			L30.3-1.8z"/>
	</g>
</g>
<g id="icon_65" class="st0">
	<path class="st17" d="M29.8,1.5c0,0,3.2-4.7,9.1-3.2c6.1,1.8,6.9,6.5,6.9,6.5s2.4,12.8-15.6,21.9c0,0-18.1-6.5-16.9-20.5
		c0.6-5.5,4.7-8.3,7.1-8.5C23.3-2.4,27-2,29.8,1.5z"/>
	<path class="st18" d="M43.7,55.3H16.2c-5.9,0-10.6-4.7-10.6-10.6l0,0c0-5.9,4.7-10.6,10.6-10.6h27.6c5.9,0,10.6,4.7,10.6,10.6l0,0
		C54.4,50.6,49.7,55.3,43.7,55.3z"/>
	<rect x="28.2" y="33.9" class="st24" width="3.5" height="21.5"/>
</g>
<g id="icon_66" class="st0">
	<path class="st18" d="M52.1,55H7.8c-1,0-1.6-0.8-1.6-1.6l0,0c0-1,0.8-1.6,1.6-1.6h44.3c1,0,1.6,0.8,1.6,1.6l0,0
		C53.7,54.2,53.1,55,52.1,55z"/>
	<path class="st18" d="M45.3,54.8H14.5c-2.7,0-4.9-2.3-4.9-4.9l0,0c0-2.7,2.3-4.9,4.9-4.9h30.6c2.7,0,4.9,2.3,4.9,4.9l0,0
		C50.2,52.6,48,54.8,45.3,54.8z"/>
	<path class="st18" d="M28.3,41.9H8c-1,0-1.8-0.8-1.8-1.8l0,0c0-1,0.8-1.8,1.8-1.8h20.3c1,0,1.8,0.8,1.8,1.8l0,0
		C30.1,41.1,29.3,41.9,28.3,41.9z"/>
	<rect x="16.4" y="40.9" class="st18" width="9.8" height="5.5"/>
	<path class="st18" d="M30.9,32.7L18.8,20.8L35.5,3.9c1.2-1.2,3.1-1.2,4.3,0l7.8,7.6c1.2,1.2,1.2,3.1,0,4.3L30.9,32.7z"/>
	<rect x="24" y="13.8" transform="matrix(0.7032 -0.711 0.711 0.7032 -10.5877 25.622)" class="st18" width="2.9" height="23.4"/>
	<rect x="44.7" y="0.1" transform="matrix(0.7032 -0.711 0.711 0.7032 12.0736 35.6398)" class="st18" width="8" height="6.6"/>
	<path class="st18" d="M18.6,26.1l6.4,6.6c0,0-3.9,1.2-5.7-0.8C17.6,29.8,18.2,27.9,18.6,26.1z"/>
	<path class="st47" d="M43.9,25.5c0,0,5.1,6.8,2.1,15"/>
</g>
<g id="icon_67" class="st0">
	<path class="st18" d="M40.3,37.7v12.6l2.7,0.2c0,0,2.3-0.8,2.3-2.9s0-8,0-8s-0.8-2.1-2.5-2.1C40.9,37.7,40.3,37.7,40.3,37.7z"/>
	<path class="st18" d="M27.4,34.7l7.8-0.2c0,0,1.5-0.2,1.7,2.1c0.2,2.3,0.4,14.5,0.4,14.5s0.2,2.7-1.9,2.9
		c-2.1,0.2-24.4-0.4-24.4-0.4S9.6,54.3,9,49.2c-0.6-5-4.2-32.8-4.2-32.8s-0.2-1.9,1.9-2.3s14.5-3.4,14.5-3.4s2.9-0.6,3.4,2.3
		C24.9,16.4,27.4,34.7,27.4,34.7z"/>
	<path class="st18" d="M5.8,10.8l15.5-3.6l-0.6-6.7c0,0,0-1.9-2.9-1.3S6.4,1.3,6.4,1.3S4.7,1.7,5,4C5.2,6.4,5.8,10.8,5.8,10.8z"/>
	<path class="st18" d="M53.5,44.2h-3.6c-0.8,0-1.7-0.8-1.7-1.7l0,0c0-0.8,0.8-1.7,1.7-1.7h3.6c0.8,0,1.7,0.8,1.7,1.7l0,0
		C55.2,43.5,54.3,44.2,53.5,44.2z"/>
	<path class="st18" d="M53.7,36.6l-3.4,1.3c-0.8,0.4-1.9,0-2.1-0.8l0,0c-0.4-0.8,0-1.9,0.8-2.1l3.4-1.3c0.8-0.4,1.9,0,2.1,0.8l0,0
		C55,35.3,54.5,36.2,53.7,36.6z"/>
	<path class="st18" d="M52.4,51.7l-3.4-1.3c-0.8-0.2-1.3-1.3-1.1-2.1l0,0c0.2-0.8,1.3-1.3,2.1-1.1l3.4,1.3c0.8,0.2,1.3,1.3,1.1,2.1
		l0,0C54.1,51.5,53.3,51.9,52.4,51.7z"/>
	<path class="st24" d="M5.4,20.9L5.8,24l10.1-2.3c0,0,1.3-0.6,0.8-2.1c-0.4-1.5-2.3-0.8-2.3-0.8L5.4,20.9z"/>
	<path class="st24" d="M6.2,26.9l0.4,3.2l10.3-2.3c0,0,1.3-0.6,0.8-2.1c-0.4-1.5-2.3-0.8-2.3-0.8L6.2,26.9z"/>
</g>
<g id="icon_68" class="st0">
	<path class="st18" d="M20.1,15.2c0,0,8.5-5.5,17.4-1.9s7.7,9.5,7.2,12.1s-2.6,4.9-3.1,9.5c-0.2,2,0.5,5.1,1.2,6.3
		c0.7,1.2,1.4,9.7-3.9,12.1c-6.5,2.9-11.1,0-14.2-5.8c-3.2-5.6-8-18.4-8.5-21.7C15.8,22.7,15.6,17.7,20.1,15.2z"/>
	<circle class="st18" cx="16.3" cy="9.2" r="4.9"/>
	<circle class="st18" cx="24.7" cy="4.4" r="4.9"/>
	<circle class="st18" cx="34.6" cy="3.4" r="4.9"/>
	<circle class="st18" cx="43.6" cy="6.7" r="4.9"/>
	<path class="st24" d="M30.3,20.1c0,0,1.5-2.2,4.4-1.5c2.9,0.9,3.2,3.2,3.2,3.2s1,6.1-7.5,10.4c0,0-8.7-3.1-8-9.9
		c0.2-2.7,2.2-3.9,3.4-4.1C27.2,18.3,29.1,18.4,30.3,20.1z"/>
</g>
<g id="icon_69" class="st0">
	<path class="st24" d="M36.7,1.5c0,0,6.3-1.3,9.1,0c3.6,1.7,6.3,5.9,4.2,13.3c-2.1,7.4-3.6,13.3-4,19.6c-0.6,6.3-5.1,10.3-7.8,10.7
		c-2.9,0.6-5.1-2.5-4.4-4.6c0.6-2.3,1.3-8.8,1.3-10.5c-0.2-3.2-1.9-5.7-4.4-5.7s-3.8,1.3-4.4,2.9c-0.6,1.7-1.7,7.8-0.8,10.7
		c0.6,2.9,0.2,7.2-2.5,7.4c-2.7,0.2-7.8-2.7-9.9-14.9S10,15.4,9.3,14c-1.5-5.7,0-12.6,6.3-13.3S26.8,3,28.9,3.2
		C31.2,3.2,34.6,2,36.7,1.5z"/>
	<path class="st17" d="M25.5,7.4c0,0,3.6,1.9,5.1,1.3c1.5-0.8,4.8-2.5,8.8-0.6c4,1.9,4,4.2,4,4.2s1.3,4.2-0.8,7.8
		s-1.5,10.5-1.5,10.5s0.2,2.5-1.1,2.5c-1.1,0-1.9-2.3-1.9-2.7c0-0.4-1.3-9.1-6.9-10.1c-5.7-1.1-6.7,4.4-7.6,6.3
		c-0.4,1.3-0.8,5.5-0.8,5.5s-0.2,1.9-1.3,1.9c-1.1-0.2-1.3-2.3-1.3-7.2s-1.5-5.5-2.3-8.4c-0.8-2.9-0.6-7.8,2.3-10.1
		C22.6,6.4,25.5,7.4,25.5,7.4z"/>
	<path class="st14" d="M5.5,30.8c0,0,2.9-0.4,5.1,6.5c2.1,7.6,8.4,11.4,10.3,11.8c1.9,0.4,7.8,1.9,8.6-3.4c1.1-5.3,0.6-3.4,0.6-3.4
		s0.2,5.7,2.9,6.5c2.7,0.8,7.8,1.1,11.2-2.5c3.4-3.6,5.9-10.1,6.1-11.8c0-1.7,0.8-4,4.4-4.2c3.6-0.2,3.4,4.2,3.4,5.5
		c0,1.3,0,14.5,0,14.5s0.2,2.1-2.5,2.1s-52.2,0-52.2,0S1.8,52,1.8,50.6c0-1.5,0-17.3,0-17.3S2.2,30.8,5.5,30.8z"/>
	<circle class="st34" cx="29.5" cy="16.5" r="1.7"/>
	<circle class="st34" cx="39.2" cy="24.3" r="1.7"/>
	<circle class="st34" cx="22.2" cy="21.3" r="1.7"/>
</g>
<g id="icon_70" class="st0">
	<path class="st18" d="M47.8,53H11.3c-1.9,0-3.5-1.6-3.5-3.5V24.7c0-1.9,1.6-3.5,3.5-3.5h36.5c1.9,0,3.5,1.6,3.5,3.5v24.6
		C51.5,51.4,49.9,53,47.8,53z"/>
	<path class="st18" d="M27,0.7c1.4-1.1,3.5-1.1,5,0l15.4,11.2l9.7,7.1c2.8,1.9,1.1,5.8-2.5,5.8H29.5H4.4c-3.5,0-5.3-3.9-2.5-5.8
		l9.7-7.1L27,0.7z"/>
	<path class="st24" d="M30.9,44.3h-3c-1.1,0-1.9-0.9-1.9-1.9V24.8c0-1.1,0.9-1.9,1.9-1.9h3c1.1,0,1.9,0.9,1.9,1.9v17.5
		C33.1,43.4,32.2,44.3,30.9,44.3z"/>
	<path class="st24" d="M40.3,31.9v3c0,1.1-0.9,1.9-1.9,1.9H20.7c-1.1,0-1.9-0.9-1.9-1.9v-3c0-1.1,0.9-1.9,1.9-1.9h17.7
		C39.4,29.8,40.3,30.7,40.3,31.9z"/>
</g>
<g id="icon_71" class="st0">
	<circle class="st18" cx="24.1" cy="4.7" r="5.6"/>
	<path class="st18" d="M25.9,27.2V15.5c0,0-0.8-2.5-2.5-2.9s-2.9-0.2-4.4,1.5c-1.7,1.7-6.8,6.6-6.8,6.6s-2.5,2.4-0.8,4.6
		c1.9,2.2,5.9,6.4,5.9,6.4s-4.1,13.4-4.4,14.1c-0.3,0.7-1.5,2.9-1.9,3.2c-0.3,0.3-1,2.5,1,4.1c1.9,1.5,4.2,1,5.3-0.3
		c1-1.4,5.4-9,6.9-17.5l9.3-0.2v6.1c0,0-0.2,1.9,0.8,1.7c1,0,6.3-0.2,6.3-0.2s0.7-0.2,0.5-2.4c-0.2-2.4,0-10.3,0-10.3
		s-0.5-2.7-3.2-2.9C34.9,27.2,25.9,27.2,25.9,27.2z"/>
	<path class="st18" d="M24.9,54l23.7-0.2c0,0,1.4-0.3,1.2-1.9c-0.2-1.5-0.5-9-10-9.5L33,42.6c0,0-8.5,0.3-9.7,8.8
		C23.4,53,23.7,53.8,24.9,54z"/>
</g>
<g id="icon_72" class="st0">
	<g class="st1">
		<g>
			<g>
				<g>
					<defs>
						<path id="SVGID_24_" d="M10.1,15.8l0.5,17.4c0,0,1.2,9.5,9.3,16.2s9,5.8,9.5,5.8c0.5,0,4.9,0,11.4-7.6s8.4-12.7,8.4-16.5
							S50,15.6,50,15.6s2.1-2.6,2.6-3.7c0.5-1.1,3-7.2-3.5-11.3S20.6-2.2,18.5-2S10.1-2.2,7.3,5.4C6,8.7,6.9,11.2,8.3,13.1
							C9.6,15.2,10.1,15.8,10.1,15.8z"/>
					</defs>
					<clipPath id="SVGID_25_">
						<use xlink:href="#SVGID_24_"  style="overflow:visible;"/>
					</clipPath>
					<path class="st72" d="M10.1,15.4l0.5,17.4c0,0,1.2,9.5,9.3,16.2s9,5.8,9.5,5.8c0.5,0,4.9,0,11.4-7.6s8.4-12.7,8.4-16.5
						S50,15.2,50,15.2s2.1-2.6,2.6-3.7c0.4-1.1,3-7.2-3.5-11.3S20.6-2.5,18.5-2.4C16.4-2.2,10.1-2.5,7.3,5C6,8.4,6.9,10.8,8.3,12.8
						C9.6,14.7,10.1,15.4,10.1,15.4z"/>
				</g>
			</g>
		</g>
		<g>
			<g>
				<g>
					<defs>
						<path id="SVGID_27_" d="M10.1,15.8l0.5,17.4c0,0,1.2,9.5,9.3,16.2s9,5.8,9.5,5.8c0.5,0,4.9,0,11.4-7.6s8.4-12.7,8.4-16.5
							S50,15.6,50,15.6s2.1-2.6,2.6-3.7c0.5-1.1,3-7.2-3.5-11.3S20.6-2.2,18.5-2S10.1-2.2,7.3,5.4C6,8.7,6.9,11.2,8.3,13.1
							C9.6,15.2,10.1,15.8,10.1,15.8z"/>
					</defs>
					<clipPath id="SVGID_28_">
						<use xlink:href="#SVGID_27_"  style="overflow:visible;"/>
					</clipPath>
					<path class="st73" d="M9.7,17c0,0,10.7-6.5,19.7-6.2c9.7,0.4,16,3,20.4,6.3"/>
				</g>
			</g>
		</g>
	</g>
	<path class="st18" d="M8.5,18.7L8.3,30.9c0,0-3.5,0-3.7-4s0-5.8,0-5.8S5.3,18.4,8.5,18.7z"/>
	<path class="st18" d="M51.4,18.9l0.2,12.1c0,0,3.5,0,3.7-4s0-5.8,0-5.8S54.6,18.6,51.4,18.9z"/>
	<line class="st32" x1="18" y1="18.6" x2="23.4" y2="18.6"/>
	<line class="st32" x1="36.1" y1="18.6" x2="41.4" y2="18.6"/>
	<polyline class="st32" points="27.8,28.4 28,37 32.1,36.9 	"/>
	<line class="st32" x1="26.3" y1="43" x2="32.9" y2="43"/>
	<line class="st32" x1="29.6" y1="46.7" x2="29.6" y2="51.5"/>
	<polyline class="st32" points="26.6,49.3 29.6,52.2 32.4,49.9 	"/>
	<path class="st32" d="M16.4,23.1c0,0,0.9,3.7,4.2,3.9c3.3,0,4.4-3.7,4.4-3.7"/>
	<path class="st32" d="M34.7,23.1c0,0,0.9,3.7,4.2,3.9c3.3,0,4.4-3.7,4.4-3.7"/>
	<path class="st32" d="M24.2,36c0,0-0.5,4.2-5.5,4.7"/>
	<polyline class="st32" points="19.2,37.7 18.3,40.7 20.6,42.8 	"/>
	<path class="st32" d="M23.6,30.2c0,0-3.3,5.6-9.8,2.6"/>
	<polyline class="st32" points="15.2,30.7 13.4,32.5 14.1,35.6 	"/>
	<path class="st32" d="M35.6,35.6c0,0,0.5,4.2,5.5,4.7"/>
	<polyline class="st32" points="40.5,37.4 41.2,40.4 39.1,42.7 	"/>
	<path class="st32" d="M35.9,30c0,0,3.3,5.6,9.8,2.6"/>
	<polyline class="st32" points="44.4,30.5 46.1,32.5 45.4,35.6 	"/>
	<line class="st32" x1="47.7" y1="8.7" x2="45.1" y2="13.6"/>
	<line class="st32" x1="38.7" y1="5.9" x2="37.2" y2="11"/>
	<line class="st32" x1="29.6" y1="5" x2="29.6" y2="10.3"/>
	<line class="st32" x1="20.8" y1="5.9" x2="22.4" y2="11.2"/>
	<line class="st32" x1="11.7" y1="9.2" x2="14.1" y2="13.8"/>
</g>
<g id="icon_73" class="st0">
	<path class="st18" d="M30.1-2.2l25.6,7.4c0,0,2.6,0,2.4,3.4s-0.8,34.5-28,46.9c0,0-27-10.4-28.2-47.3c0,0-0.2-2.2,2.6-3
		C7.3,4.1,30.1-2.2,30.1-2.2z"/>
	<path class="st24" d="M32.3,38.5h-3.8c-1.6,0-2.8-1.2-2.8-2.8V15.5c0-1.6,1.2-2.8,2.8-2.8h3.8c1.6,0,2.8,1.2,2.8,2.8v20.2
		C34.9,37.3,33.7,38.5,32.3,38.5z"/>
	<path class="st24" d="M43.3,23.5v3.8c0,1.6-1.2,2.8-2.8,2.8H20.3c-1.6,0-2.8-1.2-2.8-2.8v-3.8c0-1.6,1.2-2.8,2.8-2.8h20.2
		C42.1,20.7,43.3,21.9,43.3,23.5z"/>
</g>
<g id="icon_74" class="st0">
	<path class="st18" d="M29.1-1.9c0,0,9.7-1.6,15.5,2.4c5.7,3.7,9.6,7.8,10.4,13.7S54.6,27.5,51.8,32c-2.8,4.5-4.5,7.3-4.9,8
		c-0.2,0.7-1.6,4.3-0.5,9.2c0.9,4.9,1.6,5.6,1.6,5.6l-26.8,0.5v-5.6c0,0-8.3,0.2-10.4-1.6c-2.1-1.7-2.1-3.5-1.6-4.7
		c0.3-1,0-1.4,0-1.6c0,0-1-0.5-1-1.7c0-0.7,0.7-0.9,0.7-0.9s-0.2-0.3-0.3-0.3c-0.2-0.2-1-0.3-1-1.4c0-0.9,0.5-4.9,0.5-4.9
		s-3-0.3-3.3-2.3c-0.2-1.9,1.4-4.2,2.1-5c0.7-0.9,4-4.7,4-4.7s-1-9.4,2.1-13.6S19-0.7,29.1-1.9z"/>
	<path class="st32" d="M33.6,18.6c-0.5,0.2,0,4.9,4.5,3c2.8-1.2,3.5-6.4-0.3-8.3c-3.3-1.7-7.7-2.1-9.7,2.4
		c-2.3,4.7,0.3,8.9,2.8,10.4c2.4,1.6,10.4,3.5,13.9-3c3.5-6.6,1.7-13.2-3-15.3c-2.3-1-15-7-20,8.7"/>
</g>
<g id="icon_75" class="st0">
	<circle class="st18" cx="31" cy="16.6" r="18.1"/>
	<polygon class="st18" points="13.9,12.4 6.4,16.4 16.2,22.3 	"/>
	<path class="st18" d="M4,54.3l51.8,0.2c0,0,3,0.2,2.3-4c-0.8-4.4-3.2-12.4-15.8-12.6c-12.6,0-26.3,0-26.3,0S3.2,38.1,2.3,51.8
		C2.4,53.5,2.6,54.3,4,54.3z"/>
	<rect x="22.4" y="14.9" class="st24" width="3.4" height="3.6"/>
	<rect x="28.7" y="14.9" class="st24" width="3.4" height="3.6"/>
	<rect x="35.2" y="14.9" class="st24" width="3.4" height="3.6"/>
</g>
<g id="icon_77" class="st0">
	<path class="st18" d="M32.4,22.8h-4.3V1.3c0-1.3,0.9-2.2,2.2-2.2l0,0c1.3,0,2.2,0.9,2.2,2.2C32.4,1.3,32.4,22.8,32.4,22.8z"/>
	<path class="st18" d="M26.4,25.3c0,0,2.2-1.4,3.1-1.4c1.1,0,2-0.2,4.7,1.4l0.5-2.5l-2.9-1.1l-3.3-0.2c0,0-2.2,1.1-2.7,1.3
		c-0.4,0.4-0.2,2.2-0.2,2.2L26.4,25.3z"/>
	<path class="st18" d="M38.5,6.5c0,0,5.8-2.2,12.6,7.4c6,8.5,9,17.2,6.5,31.4c-1.3,6.5-1.4,9-4.7,8.3c-3.3-0.7-13.4-4.9-14.3-5.4
		s-5.1-2.5-4.7-9.2s0-24.4,0-24.4S34.6,7.1,38.5,6.5z"/>
	<line class="st43" x1="37.6" y1="25.5" x2="51.7" y2="32.9"/>
	<line class="st43" x1="41.8" y1="27" x2="47.9" y2="22.4"/>
	<line class="st43" x1="44.1" y1="21.9" x2="44.7" y2="24.4"/>
	<line class="st43" x1="50.3" y1="31.8" x2="52.6" y2="29.5"/>
	<polyline class="st43" points="45.9,30.7 46.1,35.8 49,38.7 	"/>
	<line class="st43" x1="43.4" y1="38.3" x2="46.1" y2="35.8"/>
	<path class="st18" d="M21.9,6.5c0,0-5.8-2.2-12.6,7.4c-6,8.5-9,17.2-6.5,31.4c1.3,6.5,1.4,9,4.7,8.3s13.4-4.9,14.3-5.4
		c0.9-0.7,5.1-2.5,4.7-9.2c-0.4-6.7,0-24.4,0-24.4S25.9,7.3,21.9,6.5z"/>
	<line class="st43" x1="22.8" y1="25.7" x2="8.7" y2="33.1"/>
	<line class="st43" x1="18.7" y1="27" x2="12.5" y2="22.6"/>
	<line class="st43" x1="16.3" y1="22.1" x2="15.8" y2="24.6"/>
	<line class="st43" x1="10.2" y1="31.8" x2="7.8" y2="29.7"/>
	<polyline class="st43" points="14.5,30.9 14.3,35.8 11.4,38.9 	"/>
	<line class="st43" x1="17" y1="38.5" x2="14.3" y2="35.8"/>
</g>
<g id="icon_78" class="st0">
	<path class="st18" d="M18.5-2.1l23.5-0.2c0,0,3.5,17-11.3,17C17.8,14.7,18.5,6.6,18.5-2.1z"/>
	<polygon class="st18" points="21.7,38.8 39.1,38.8 41.9,52.5 45.4,52.5 45.4,55.4 15,55.4 15,51.9 18.9,51.9 	"/>
	<rect x="22.1" y="28.6" class="st18" width="16.8" height="6.5"/>
	<path class="st18" d="M24.5,17.1c0,0-3,0.9-2.6,7.6l-3.3,0.4l0.2,7.4c0,0-1.7-1.1-2.8-4.4l-3.3,1.1c0,0,2.6,5.7,3.9,6.9l1.9-1.5
		l-1.3,10c0,0-12-6.3-12.2-23.1C4.7,11.4,15,3.2,15,3.2s0.4,5.7,3,8.1c0,0-2.8-0.6-5.2,6.1L16,19c0,0,0.9-4.3,3.3-5.7
		C18.9,13.2,21.7,16.4,24.5,17.1z"/>
	<path class="st18" d="M36.1,17.1c0,0,3,0.9,2.6,7.6l3.3,0.4l-0.2,7.4c0,0,1.7-1.1,2.8-4.4l3.3,1.1c0,0-2.6,5.7-3.9,6.9l-1.9-1.5
		l1.5,10c0,0,12-6.3,12.2-23.1c0.2-10-10.2-18.1-10.2-18.1s-0.4,5.7-3,8.1c0,0,2.8-0.6,5.2,6.1L44.8,19c0,0-0.9-4.3-3.3-5.7
		C41.5,13.2,38.9,16.4,36.1,17.1z"/>
</g>
<g id="icon_86" class="st0">
	<path class="st18" d="M5.4,50.8H3.6C2.7,50.8,2,50,2,49.2V19.4c0-0.9,0.7-1.6,1.6-1.6h1.8c0.9,0,1.6,0.7,1.6,1.6v29.7
		C7,50,6.3,50.8,5.4,50.8z"/>
	<rect x="5.9" y="37.1" class="st18" width="52" height="5"/>
	<path class="st18" d="M56.1,50.8h-1.2c-1.1,0-1.8-0.9-1.8-1.8v-6.8c0-1.1,0.9-1.8,1.8-1.8h1.2c1.1,0,1.8,0.9,1.8,1.8V49
		C57.9,49.9,57,50.8,56.1,50.8z"/>
	<circle class="st18" cx="21.1" cy="17.3" r="5"/>
	<circle class="st18" cx="15" cy="28.9" r="5"/>
	<path class="st18" d="M20.3,37.6l8-16.2c0,0,1.1-2.7,4.3-1.4c3.2,1.2,19.6,7.7,19.6,7.7s5.3,2.1,5.5,6.8v6.1L20.3,37.6z"/>
	<path class="st17" d="M49.7,13.9c0,0,1.1-1.6,2.8-1.1c2,0.5,2.1,2.1,2.1,2.1s0.7,4.1-5,7.1c0,0-5.9-2.1-5.5-6.6
		c0.2-1.8,1.6-2.7,2.3-2.7C47.6,12.7,48.8,12.8,49.7,13.9z"/>
	<path class="st17" d="M46.3,3.2c0,0,0.7-1.2,2.1-0.7c1.4,0.4,1.6,1.6,1.6,1.6s0.5,3-3.7,5.3c0,0-4.5-1.6-4.1-5c0.2-1.4,1.1-2,1.8-2
		C44.7,2.3,45.6,2.3,46.3,3.2z"/>
	<path class="st17" d="M37.3,10c0,0,0.7-1.2,2.1-0.7c1.4,0.4,1.6,1.6,1.6,1.6s0.5,3-3.7,5.3c0,0-4.5-1.6-4.1-5c0.2-1.4,1.1-2,1.8-2
		C35.7,9.1,36.5,9.1,37.3,10z"/>
</g>
<g id="icon_88" class="st0">
	<path class="st18" d="M18.9,53.8L18.9,53.8c-7.6,0-14-6.4-14-14V13.3c0-7.6,6.4-14,14-14l0,0c7.6,0,14,6.4,14,14v26.5
		C32.9,47.6,26.6,53.8,18.9,53.8z"/>
	<rect x="4.9" y="25.3" class="st24" width="28" height="3.4"/>
	<polyline class="st74" points="39.1,20.5 46.1,20.5 39.9,27 46.9,27 	"/>
	<polyline class="st74" points="47.3,7.3 54.1,7.3 48,13.9 55,13.9 	"/>
</g>
<g id="icon_89" class="st0">
	<path class="st18" d="M8.4,7.6l5.1-4.2c1.1-0.9,2.6-0.7,3.5,0.4l10.9,12.8c0.9,1.1,0.7,2.6-0.4,3.5l-5.1,4.2
		c-1.1,0.9-2.6,0.7-3.5-0.4L8.1,11.1C7.2,9.9,7.4,8.4,8.4,7.6z"/>
	<path class="st18" d="M8.1-1.6L8.1-1.6c0.7-0.5,1.8-0.5,2.3,0.2l4,4.8c0.5,0.7,0.5,1.8-0.2,2.3l0,0c-0.7,0.5-1.8,0.5-2.3-0.2
		l-4-4.8C7.4,0.2,7.4-0.9,8.1-1.6z"/>
	<path class="st18" d="M4.5,1.4L4.5,1.4c0.7-0.5,1.8-0.5,2.3,0.2l4,4.8c0.5,0.7,0.5,1.8-0.2,2.3l0,0C10,9.1,8.9,9.1,8.4,8.4l-4-4.8
		C3.8,3.2,3.8,2.1,4.5,1.4z"/>
	<path class="st18" d="M40.3,24.3c0,0-0.7,4-6,8.4s-8.4,5.6-11.4,4.4c-3-1.4-4.4-2.3-5.3-3.7c-0.9-1.4-1.9-3.2-2.1-4
		c-0.2-0.7-0.4-1.9,2.1-4c2.5-2.1,5.3-4.4,5.3-4.4l7.9-6.9c0,0,1.4-1.1,3.9,0.5c2.5,1.6,3,1.9,3.5,2.8c0.7,1.6,2.1,4.4,2.1,4.4
		S40.4,23.2,40.3,24.3z"/>
	<path class="st51" d="M44.5,27.6c0,0-1.2,15.5-18,14.8"/>
	<path class="st51" d="M51.2,28.7c0,0-3,21.3-24.8,20.2"/>
	<path class="st51" d="M56.8,28.5c0,0-1.6,26-31.2,26.6"/>
</g>
<g id="icon_90" class="st0">
	<circle class="st18" cx="13.4" cy="29.9" r="6.1"/>
	<path class="st18" d="M4.2,54.2h18.6c0,0,1.7,0.4,1.7-3.1c0.2-3.3,0.2-5.9,0.2-5.9s-0.7-6.3-9.2-6.3c-3.5,0-6.8,0.2-6.8,0.2
		s-6.3,0.4-6.3,7s0,7.2,0,7.2S2.6,54.2,4.2,54.2z"/>
	<circle class="st18" cx="47.2" cy="29.9" r="6.1"/>
	<path class="st18" d="M38,54.2h18.6c0,0,1.7,0.4,1.7-3.1c0.2-3.3,0.2-5.9,0.2-5.9s-0.7-6.3-9.2-6.3c-3.5,0-6.8,0.2-6.8,0.2
		s-6.3,0.4-6.3,7s0,7.2,0,7.2S36.3,54.2,38,54.2z"/>
	<ellipse class="st18" cx="30.2" cy="8.9" rx="14.2" ry="10"/>
	<path class="st18" d="M18.6,14.4l-1.5,4.1c0,0-0.6,2.2,0.2,2.4c0.9,0.2,1.8-0.2,2.9-1.1c1.1-0.9,3.7-2.6,3.7-2.6L18.6,14.4z"/>
	<path class="st18" d="M36.5,17.3l4.8,3.1c0,0,0.9,0.7,1.8,0.4c0.9-0.4,0.2-2.2,0.2-2.6c0-0.4-1.5-4.4-1.5-4.4L36.5,17.3z"/>
	<path class="st24" d="M34.1,6.3H26c-0.6,0-0.9-0.4-0.9-0.9l0,0c0-0.6,0.4-0.9,0.9-0.9h8.1c0.6,0,0.9,0.4,0.9,0.9l0,0
		C35,5.9,34.6,6.3,34.1,6.3z"/>
	<path class="st24" d="M35.4,9.8H24.7c-0.6,0-0.9-0.4-0.9-0.9l0,0c0-0.6,0.4-0.9,0.9-0.9h10.7c0.6,0,0.9,0.4,0.9,0.9l0,0
		C36.3,9.4,35.9,9.8,35.4,9.8z"/>
	<path class="st24" d="M34.1,12.9H26c-0.6,0-0.9-0.4-0.9-0.9l0,0c0-0.6,0.4-0.9,0.9-0.9h8.1c0.6,0,0.9,0.4,0.9,0.9l0,0
		C35,12.5,34.6,12.9,34.1,12.9z"/>
</g>
<g id="icon_91" class="st0">
	<path class="st18" d="M16.2,55L27,54.8c0,0,1.8-3,5.4-2.8c1.8,0,2.4-0.2,2.6-1.8c0-1.8,0.2-3.4,0.2-3.4s-0.2-0.8-2.2-1
		c-2.2-0.2-2.8-1.4-3-1.8l-13.5-3.6c0,0-1.6,1.8-3.8,1.6c-2.2-0.2-3.2-0.8-3.4,1.2c-0.2,2-0.6,4.6-0.6,4.6s-0.8,2,2.6,2.6
		s3.8,1.6,3.6,2.8S15.4,55,16.2,55z"/>
	<path class="st18" d="M17,37.5l13.7,3c0,0,1.2-0.8,2.4-0.4s3.8,0.6,4-0.4c0.2-1,0.8-3.8,0.8-3.8s-0.2-1.4-1.4-1.6
		c-1.2-0.2-2.6-0.6-3-2.4l-13.1-6c0,0-1,1.6-2.8,1c-1.6-0.6-4-1.6-4.6,0.4c-0.6,1.8-1.4,4.8-1.4,4.8s-0.2,2.2,1.8,2.2
		C15,34.3,16.8,35.5,17,37.5z"/>
	<path class="st18" d="M21.8,23l12.5,5.4c0,0,1.4,0,2.2,0.2c0.8,0,2.4,1,2.8,1.2s1.8-0.2,2.4-1.2s1.6-2.4,1.6-2.4s0.4-1.2-0.8-2.2
		s-2.4-1.2-3-3.4s-10.7-8.1-10.7-8.1s-2.2,1.2-4,0.2s-2.4-2.2-3.6-0.6C20,13.6,18,16.4,18,16.4s-0.8,1.8,0.8,2.8
		C20.4,20.2,22.2,20.6,21.8,23z"/>
	<path class="st18" d="M30.3,9.4l10.9,8.1c0,0,2.4,0.2,3.6,1.4c1.2,1.2,2.2,1.4,3.4,0.4c1.2-1,3-3.2,3-3.2s0.6-1.2-0.6-2.6
		c-1.2-1.4-3-2.4-1.8-5c0.4-0.8,0-1.2-0.4-1.4s-6.8-6.2-6.8-6.2s-1.2-1.2-3.2-0.4c-2,0.8-4.2-2.2-4.2-2.2s-1-0.8-2.2,0.2
		c-1.2,1-4.2,4-4.2,4s-1,1.2,0.2,2.6c1.2,1.4,2.6,1.8,2.4,4C30.3,9.4,30.3,9.4,30.3,9.4z"/>
	<path class="st24" d="M24.8,49.2l-6.4-1c-1-0.2-1.8-1.2-1.6-2.2l0,0c0.2-1,1.2-1.8,2.2-1.6l6.4,1c1,0.2,1.8,1.2,1.6,2.2l0,0
		C27,48.6,26,49.4,24.8,49.2z"/>
	<path class="st24" d="M27.4,36.1l-6.2-1.8c-1-0.4-1.6-1.4-1.4-2.4l0,0c0.4-1,1.4-1.6,2.4-1.4l6.2,1.8c1,0.4,1.6,1.4,1.4,2.4l0,0
		C29.5,35.9,28.5,36.5,27.4,36.1z"/>
	<path class="st24" d="M40.3,13.2l-4.8-4.4c-0.8-0.8-0.8-2-0.2-2.8l0,0c0.8-0.8,2-0.8,2.8-0.2l4.8,4.4c0.8,0.8,0.8,2,0.2,2.8l0,0
		C42.3,14,41.1,14,40.3,13.2z"/>
	<path class="st24" d="M32.1,24.5l-5.6-3.2c-1-0.6-1.2-1.8-0.8-2.8l0,0c0.6-1,1.8-1.2,2.8-0.8l5.6,3.2c1,0.6,1.2,1.8,0.8,2.8l0,0
		C34.3,24.7,33.1,25.1,32.1,24.5z"/>
</g>
<g id="icon_92" class="st0">
	<ellipse class="st18" cx="30" cy="26.6" rx="28" ry="28.4"/>
	<path class="st24" d="M12,9.2c0,0,5.5-4.5,10.6-2.4s7.3,7.3,4.7,13S17,25.2,15.6,24.6C14,23.8,4.4,18.9,12,9.2z"/>
	<path class="st24" d="M9.3,29.3c0,0,8.3-7.5,15.8,2.2c4.9,6.5-2,13.2-3.5,13.6c-2,0.4-9.3,2-13-5.1C5.5,35.2,7.9,30.3,9.3,29.3z"/>
	<path class="st24" d="M34.9,23c0,0,15.4-0.2,16.3,0c1.2,0.2,3.2,1.8,2,5.7S46.9,37.6,42,37c-5.1-0.6-10-6.5-9.8-11
		C32.3,23.8,33.5,23,34.9,23z"/>
	<path class="st24" d="M34.9,21.4c0,0,15.4,0.2,16.3,0c1-0.2,3.2-1.8,2-5.7c-1-3.7-6.3-8.9-11.2-8.3c-5.1,0.6-10,6.5-9.8,11
		C32.5,20.7,33.7,21.4,34.9,21.4z"/>
	<circle class="st24" cx="27.6" cy="3.5" r="2.2"/>
	<circle class="st24" cx="6.3" cy="24" r="2.2"/>
	<circle class="st24" cx="35.5" cy="43.7" r="2.2"/>
	<circle class="st24" cx="46.9" cy="39.6" r="2"/>
	<circle class="st24" cx="29.6" cy="49.4" r="2.2"/>
	<circle class="st18" cx="18.9" cy="14.4" r="3"/>
	<circle class="st18" cx="17" cy="34.8" r="3"/>
	<path class="st20" d="M39,21.8c0,0-0.6-6.9,3.5-7.5s4.5,4.1,4.5,7.3s0.6,7.1-1.6,8.5C43,31.9,39,30.7,39,26.4
		C39,22.2,39,21.8,39,21.8z"/>
</g>
<g id="icon_93" class="st0">
	<g class="st1">
		<g>
			<circle id="SVGID_26_" class="st8" cx="30" cy="26.6" r="27.8"/>
		</g>
		<g>
			<g>
				<defs>
					<circle id="SVGID_29_" cx="30" cy="26.6" r="27.8"/>
				</defs>
				<clipPath id="SVGID_30_">
					<use xlink:href="#SVGID_29_"  style="overflow:visible;"/>
				</clipPath>
				<line class="st75" x1="47.7" y1="4.5" x2="11.3" y2="48.1"/>
			</g>
		</g>
	</g>
	<path class="st76" d="M19.9,35l1.5,6.2h17l1.5-5.7c0,0,5.7-4.6,5.8-9.5c0-5.8-2.2-11.9-8.4-15.2c-6.8-3.7-14.6-1.6-18.6,2.6
		C15.9,16,10.4,26.2,19.9,35z"/>
	<rect x="20.1" y="21.6" class="st24" width="3.3" height="6.9"/>
	<rect x="36" y="21.6" class="st24" width="3.3" height="6.9"/>
	<rect x="28.1" y="28.4" class="st24" width="3.3" height="3.3"/>
	<rect x="25" y="36.8" class="st24" width="3.1" height="4.9"/>
	<rect x="31.4" y="36.8" class="st24" width="3.1" height="4.9"/>
</g>
<g id="icon_94" class="st0">
	<path class="st18" d="M11.1-1.4h37.1c0,0,3.4-0.2,3.4,3.4c0,4.6,1.2,12.4,1.6,13.8c0.4,1.4,1.6,12.5,1.6,19.4s3.2,9.7,3.4,14
		c0.2,4.2,1.2,5.7-1.8,5.7c-3,0-53.4,0-53.4,0s-2.5-0.2-1.4-5.8c1.2-5.7,3-8.1,3.5-15.4c0.4-3.9-0.2-14.1,1.4-18.7
		C8.1,10,8.5,2.1,8.5,1.2C8.6,0.2,8.6-1.4,11.1-1.4z"/>
	<path class="st77" d="M30.7,4H29c-0.9,0-1.6-0.7-1.6-1.6l0,0c0-0.9,0.7-1.6,1.6-1.6h1.8c0.9,0,1.6,0.7,1.6,1.6l0,0
		C32.3,3.3,31.6,4,30.7,4z"/>
	<rect x="28.4" y="43.3" class="st77" width="3.4" height="11.3"/>
	<path class="st78" d="M36.7,29.7l-2.7,2.8v7.6c0,0,0.2,3.9-3.5,3.9c-3.4,0-4.6-1.8-4.6-3.2s0-8.8,0-8.8l-2.5-2.3"/>
</g>
<g id="icon_95" class="st0">
	<path class="st18" d="M16.3-0.7l12.5-0.4c0,0,2.8-0.6,2.2,3.7C30.5,7,27.7,32,27.5,33.5c-0.2,1.5,0,7.1,4.5,8.6
		c4.5,1.5,16.4,6.7,15.1,9.3c-1.3,2.6-3.9,3.2-6.5,2.4c-2.8-0.6-13.1-4.1-21.5-1.5c-4.1,1.3-6.5-2.6-6.3-4.9
		c0.2-2.1,2.8-5.6,3.2-7.3c0.2-1.7,0.6-4.3-0.4-9c-0.9-4.5-3.5-21.1-2.6-26.3C13.9-0.1,14.1-0.7,16.3-0.7z"/>
	<path class="st22" d="M23,5.5c0,0-5.2,4.7-4.5,14c0.7,9.3,3.9,9,3.7,18.3c-0.2,6.2-0.9,8.8-0.9,8.8"/>
	<path class="st22" d="M22.7,40c0,0,2.2,5.8,5,7.8"/>
	<path class="st22" d="M20.4,10.3c0,0,3.4,3.5,3.4,8s1.9,7.5,1.9,7.5"/>
	<path class="st22" d="M14.8,11.8c0,0,0.7,6.2,3.5,9"/>
	<path class="st79" d="M20.2,27.5c0,0-0.7,4.5-1.3,6.7"/>
	<path class="st80" d="M24.9,43.8c0,0,8.2,0.7,11.2,2.8"/>
	<path class="st79" d="M31.8,45.6c0,0-0.2,3.2,2.6,4.5"/>
	<path class="st79" d="M35.5,46.4c0,0,0.4,2.6,2.6,2.6"/>
</g>
<g id="icon_96" class="st0">
	<path class="st18" d="M10.9-1.4h37.2c0,0,3.6-0.4,2.5,3.3c-0.4,1-0.8,10.7,1.9,16.7c2.7,5.9,5.4,14.4,2.3,29.5
		c-1.1,5.7-1.5,6.1-4.6,6.3c-3.1,0-41.8,0-41.8,0S6.1,55,5.4,51.3s-3.8-20.9,0-30.5C6.7,17.4,8,11.5,8.2,7.3S8,0,8,0
		S8.2-1.4,10.9-1.4z"/>
	<path class="st32" d="M25.3,28.9c0,0-0.8,19.3,4,19.3s4.4-19,4.4-19"/>
	<path class="st32" d="M41.4,36.4c0,0-2.1,5.7-7.9,5.2"/>
	<rect x="28" y="47.5" class="st24" width="2.7" height="6.9"/>
	<circle class="st17" cx="26.1" cy="41.5" r="3.3"/>
	<circle class="st17" cx="33.3" cy="36" r="4.4"/>
	<circle class="st81" cx="33.1" cy="36.2" r="2.3"/>
</g>
<g id="icon_97" class="st0">
	<path class="st18" d="M7.3,49L7.3,49c-6.3-6.3-6.1-16.3,0-22.6L30.1,3.7c6.3-6.3,16.3-6.1,22.6,0l0,0c6.3,6.3,6.1,16.3,0,22.6
		L29.9,49C23.6,55.2,13.4,55,7.3,49z"/>
	
		<rect x="27.3" y="10.4" transform="matrix(0.7098 -0.7044 0.7044 0.7098 -9.8754 28.7154)" class="st24" width="5.3" height="31.9"/>
	<path class="st82" d="M27.2,40.4c0,0,1,13.5,12.9,13.7c12,0.2,13.5-11,13.3-13.7c0,0,0.6-1.5-1.5-1.5c-1.9,0-6.5,1.3-8,3.4
		l-5.7,2.9l-2.1-3.8c0,0-3-2.3-7.4-2.5C29,38.7,27.2,38.3,27.2,40.4z"/>
	<path class="st40" d="M40.9,33.9c0,0,9.7,8.6,0.4,19.2c0,0-1,1-1.7,0.2s-8.7-9.9-0.4-19.2C39.2,34.1,40,33,40.9,33.9z"/>
</g>
<g id="icon_98" class="st0">
	<circle class="st18" cx="29.7" cy="5.2" r="6.8"/>
	<path class="st18" d="M14.8,45.4l10-3.9l-11.8-4.2c0,0-3.1-0.9-4.1,1.7c-1.1,3,1.5,4.4,1.8,4.6C11.3,43.9,14.8,45.4,14.8,45.4z"/>
	<path class="st18" d="M35.8,52.6l7.7-3.1c0,0,1.5,3.3-0.6,4.4C41.2,55.2,39.1,54.8,35.8,52.6z"/>
	<path class="st18" d="M49.6,43.4L19.8,54.4c-1.7,0.6-3.5-0.2-4.2-1.8v-0.2c-0.6-1.7,0.2-3.5,1.8-4.2l29.9-11.1
		c1.7-0.6,3.5,0.2,4.2,1.8v0.2C52,41,51.3,42.8,49.6,43.4z"/>
	<path class="st18" d="M22.7,24.2l0.2,12.7l7.2,3l7-3V24l3.9,7.4c0,0,1.1,2.4,2.8,2.4c1.7,0,12.4-0.2,12.4-0.2s2.6-0.2,2.4-3.5
		c0-3.5-3.3-3.3-3.3-3.3L46.5,27l-5.7-11.8c0,0-0.9-2.8-4.6-2.8s-12.9,0.2-12.9,0.2s-2.8,0-4.2,3.3c-1.3,3.3-5.2,10.7-5.2,10.7h-10
		c0,0-2.2,0-2.4,3.3s2.4,3.7,3.3,3.7c0.7,0,11.1-0.2,11.1-0.2s2.2,0,3.5-2.6C20.5,28.3,22.7,24.2,22.7,24.2z"/>
</g>
</svg>
